<?xml version="1.0" standalone="no"?>
<!DOCTYPE svg PUBLIC "-//W3C//DTD SVG 20010904//EN"
 "http://www.w3.org/TR/2001/REC-SVG-20010904/DTD/svg10.dtd">
<svg version="1.0" xmlns="http://www.w3.org/2000/svg"
 width="2700.000000pt" height="2700.000000pt" viewBox="0 0 2700.000000 2700.000000"
 preserveAspectRatio="xMidYMid meet">
<metadata>
Created by potrace 1.16, written by Peter Selinger 2001-2019
</metadata>
<g transform="translate(0.000000,2700.000000) scale(0.100000,-0.100000)"
fill="#000000" stroke="none">
<path d="M15595 24368 c11 -8 47 -29 79 -47 105 -57 105 -56 54 -79 -23 -10
-479 -271 -1013 -579 -2298 -1327 -3129 -1807 -3719 -2146 -539 -311 -571
-334 -639 -465 -75 -143 -70 7 -65 -1847 l3 -1661 32 -50 c17 -27 40 -67 51
-89 l21 -40 2 105 c1 58 1 108 1 111 -1 3 -4 787 -8 1741 l-7 1735 64 38 c35
21 67 40 72 42 4 2 7 -1 7 -7 0 -7 -13 -17 -30 -23 -16 -6 -30 -15 -30 -20 0
-4 -4 -5 -10 -2 -5 3 -10 2 -10 -3 0 -5 -9 -13 -20 -18 -20 -9 -20 -14 -19
-1689 0 -924 3 -1769 5 -1878 3 -193 4 -201 38 -305 18 -59 37 -122 41 -140 4
-18 9 -31 12 -28 3 3 8 148 12 323 8 362 9 369 95 461 l46 49 0 389 c0 426 3
450 60 563 16 33 51 86 78 118 l50 59 6 650 c4 357 12 678 17 714 51 334 280
716 549 914 71 52 77 56 670 398 234 135 891 515 1460 843 569 329 1123 648
1230 710 597 344 959 555 994 578 21 15 43 27 48 27 6 0 32 -12 59 -27 l49
-28 3 -220 c1 -144 3 -90 5 157 1 243 -2 395 -9 428 -12 56 -43 100 -86 121
-16 8 -69 37 -118 66 -87 50 -178 85 -130 51z"/>
<path d="M14310 22799 c-877 -507 -1746 -1008 -1930 -1114 -518 -297 -770
-445 -825 -484 -135 -96 -245 -214 -347 -371 -93 -142 -151 -272 -196 -440
l-25 -95 -4 -517 c-3 -285 -2 -518 2 -518 7 0 312 176 1670 960 127 73 304
176 395 228 91 52 275 159 410 237 135 78 736 424 1335 770 600 345 1098 636
1109 645 18 17 18 44 10 819 l-9 801 -1595 -921z m600 -103 c0 -29 5 -57 10
-62 7 -7 -2 -17 -27 -31 l-38 -22 3 65 c2 39 0 64 -6 64 -16 0 -24 -35 -21
-91 3 -50 2 -52 -32 -69 l-34 -18 0 78 0 78 35 18 c19 10 45 26 58 36 37 27
52 13 52 -46z m-177 -2 c11 -11 -14 -46 -29 -40 -17 7 -18 -8 -3 -33 15 -23 5
-65 -20 -88 -19 -18 -19 -18 12 -18 27 0 32 -4 35 -26 4 -33 -37 -83 -90 -110
-30 -15 -43 -18 -51 -10 -8 8 -8 16 -1 28 14 23 34 28 34 9 0 -9 6 -16 13 -16
18 0 57 38 57 55 0 19 -10 18 -34 0 -40 -30 -76 -13 -56 26 9 15 9 24 1 32 -6
6 -11 21 -11 34 0 25 55 93 76 93 8 0 14 7 14 16 0 37 33 67 53 48z m585 -239
c16 -14 20 -72 10 -130 l-7 -40 69 -34 c70 -34 78 -43 61 -70 -12 -18 -56 -1
-117 45 l-43 33 -16 -25 c-39 -60 -130 -84 -159 -42 -49 69 12 220 107 267 42
21 70 20 95 -4z m-1208 -169 c0 -57 2 -111 5 -118 5 -12 -36 -41 -55 -40 -3 1
-15 -8 -27 -20 -35 -32 -57 -21 -61 33 -4 60 11 96 49 117 28 16 30 21 26 58
-4 36 -1 43 22 57 14 9 29 17 34 17 4 0 7 -47 7 -104z m-329 -96 c1 -5 2 -16
3 -22 5 -33 -39 -52 -47 -20 -3 9 -5 0 -6 -21 -1 -36 0 -37 22 -27 l22 11 -22
-17 c-20 -14 -23 -26 -23 -81 0 -55 2 -64 16 -59 29 11 4 -12 -39 -36 l-42
-24 2 81 c5 140 29 204 76 196 4 0 6 2 6 7 -3 16 2 22 16 22 8 0 16 -4 16 -10z
m147 -60 c3 -56 -24 -104 -72 -127 -44 -21 -66 -6 -66 44 0 46 24 90 63 114
51 31 71 22 75 -31z m747 17 l50 -27 -5 -148 -5 -147 -705 -407 -704 -407 -36
21 c-19 12 -43 27 -52 32 -16 10 -18 28 -18 156 l1 145 707 407 c389 224 709
407 712 405 3 -1 28 -14 55 -30z m-1065 -198 c3 -30 8 -59 12 -65 4 -6 -8 -19
-30 -32 l-37 -21 3 72 c2 52 0 68 -7 57 -6 -8 -11 -43 -11 -77 0 -59 -1 -62
-36 -82 -19 -12 -36 -21 -37 -21 -1 0 -2 36 -2 79 l0 79 35 18 c19 10 46 26
59 36 35 27 45 18 51 -43z m-1025 -305 c45 -10 167 -79 218 -125 207 -182 146
-662 -131 -1036 -113 -152 -240 -260 -388 -330 -69 -33 -89 -38 -170 -41 -103
-5 -141 7 -258 83 -136 87 -187 193 -187 390 0 120 20 227 68 355 45 121 67
164 141 275 209 315 478 478 707 429z"/>
<path d="M15197 22419 c-48 -40 -77 -97 -77 -152 0 -89 62 -100 135 -23 111
115 59 271 -58 175z"/>
<path d="M12390 21517 c-42 -13 -153 -122 -202 -198 -54 -84 -66 -136 -72
-307 -4 -135 -3 -155 12 -170 22 -22 54 -134 56 -194 2 -61 31 -100 85 -118
41 -13 52 -32 28 -47 -8 -4 -22 -20 -31 -35 -16 -25 -16 -27 1 -37 10 -6 14
-11 9 -11 -6 0 -2 -6 8 -13 14 -10 15 -18 7 -39 -12 -32 -23 -188 -13 -188 4
0 25 11 47 23 41 23 56 61 29 71 -17 7 -18 30 -2 55 6 10 9 25 6 32 -8 19 -5
35 6 31 5 -2 6 6 3 18 -3 12 7 45 25 81 33 65 29 91 -11 69 -18 -9 -16 -3 12
42 50 78 85 151 96 198 9 41 9 41 -11 23 -12 -10 -6 5 15 35 74 108 90 266 24
231 -12 -7 -28 -7 -47 0 -18 6 -32 6 -35 0 -4 -5 -1 -9 4 -9 6 0 11 -8 11 -17
0 -15 -11 -18 -61 -20 -46 -2 -58 1 -51 10 5 7 13 27 17 44 8 41 22 50 39 28
11 -15 17 -16 49 -6 37 12 71 47 61 62 -2 5 9 15 26 24 35 18 41 54 10 62 -11
3 -20 9 -20 14 0 11 -25 6 -70 -14 -31 -14 -35 -14 -38 0 -2 8 9 29 25 46 20
22 23 28 10 24 -10 -4 -22 -7 -27 -7 -5 0 -16 -7 -24 -16 -9 -9 -16 -11 -16
-4 0 6 -8 11 -17 10 -24 -3 -63 10 -63 21 0 4 -11 6 -25 3 -33 -6 -32 6 5 41
17 16 30 35 30 42 0 8 4 12 8 9 4 -2 25 11 46 29 21 18 64 41 94 51 45 14 52
19 37 25 -27 10 -63 9 -105 -4z"/>
<path d="M15932 21572 l-2 -522 -30 -19 c-27 -16 -29 -20 -15 -31 17 -14 21
-115 5 -125 -15 -9 -2 -25 21 -25 17 0 19 7 19 71 0 44 -4 68 -10 64 -5 -3
-10 -1 -10 4 0 6 3 11 8 11 4 0 16 7 26 15 15 11 16 17 8 28 -9 10 -13 163
-15 533 l-2 519 -3 -523z"/>
<path d="M14941 20475 c-15 -20 -25 -24 -45 -19 -21 5 -27 0 -45 -35 -20 -39
-28 -112 -15 -145 4 -9 15 -21 25 -27 17 -9 18 -7 8 15 -22 47 17 176 53 176
9 0 9 -3 0 -12 -7 -7 -12 -29 -12 -49 0 -27 6 -41 23 -52 22 -14 22 -14 19 25
-5 50 13 94 49 115 33 20 29 33 -11 33 -19 0 -35 -9 -49 -25z"/>
<path d="M15942 19854 c-2 -596 -3 -642 -19 -656 -31 -26 -110 -57 -131 -51
-17 4 -23 -1 -28 -21 -3 -14 -12 -26 -20 -26 -19 0 -47 -46 -42 -68 3 -11 2
-39 -2 -64 -5 -37 -3 -47 11 -56 22 -14 30 6 30 70 0 51 7 78 19 78 5 0 11 -8
13 -17 2 -10 3 -8 2 5 -1 12 3 26 10 30 7 4 14 16 17 27 2 11 12 21 22 23 15
3 17 0 11 -14 -15 -36 -17 -74 -5 -89 20 -25 32 -6 29 48 -3 45 0 52 21 61 14
6 31 16 38 23 7 7 19 13 26 13 8 0 19 7 26 15 11 13 10 18 -4 28 -14 11 -16
71 -19 647 l-2 635 -3 -641z"/>
<path d="M14012 19899 c-46 -23 -152 -114 -152 -130 0 -5 13 -3 29 6 17 8 32
11 36 6 3 -5 -3 -12 -14 -16 -11 -3 -34 -22 -51 -41 -16 -19 -34 -33 -39 -30
-21 14 -71 -144 -71 -225 0 -76 14 -109 56 -138 90 -62 215 -9 322 137 107
146 131 327 53 414 -37 42 -107 49 -169 17z"/>
<path d="M13439 19632 c-46 -24 -47 -26 -41 -65 l5 -41 -23 22 c-13 12 -32 22
-43 22 -24 0 -77 -56 -77 -81 0 -18 -1 -18 -24 -4 -23 15 -27 15 -73 -12 -44
-26 -48 -31 -45 -62 l4 -34 -26 16 c-36 24 -53 21 -87 -12 -22 -23 -29 -26
-29 -13 0 10 -9 23 -20 30 -17 10 -26 10 -51 -4 -23 -11 -28 -19 -20 -27 6 -6
11 -37 11 -70 l0 -58 -26 20 c-36 28 -60 26 -91 -6 -14 -16 -30 -27 -35 -25
-20 6 -49 -10 -44 -23 3 -9 0 -12 -9 -9 -12 5 -29 -1 -63 -24 -10 -7 -7 -19
13 -54 14 -25 32 -51 40 -58 24 -20 52 -2 62 38 9 38 12 39 65 26 22 -5 33 0
59 25 17 17 36 30 42 29 7 -1 26 5 43 14 27 15 30 20 26 54 l-5 37 24 -17 c36
-24 64 -20 95 17 23 27 26 29 22 9 -9 -32 28 -58 52 -37 9 8 21 15 27 15 6 0
16 6 22 14 9 10 8 15 -4 20 -24 9 -18 29 14 47 18 11 31 28 36 48 7 35 8 35
34 19 25 -15 74 5 91 38 10 18 16 21 27 12 10 -8 18 -7 31 4 9 8 26 18 37 23
13 5 15 9 8 12 -7 3 -13 19 -13 36 0 24 6 35 22 42 31 14 34 39 6 57 -21 14
-27 13 -69 -10z"/>
<path d="M16700 19645 c-7 -8 -20 -15 -29 -15 -9 0 -21 -4 -26 -9 -6 -5 -59
-11 -120 -13 -88 -3 -118 -8 -151 -25 -44 -23 -98 -79 -108 -111 -4 -11 -20
-25 -36 -32 -22 -9 -27 -16 -21 -24 6 -7 11 -48 13 -91 3 -79 18 -106 28 -50
l5 29 37 -33 c24 -21 42 -49 53 -84 11 -33 30 -63 51 -82 19 -16 40 -48 47
-70 12 -33 23 -44 71 -69 56 -28 75 -47 119 -115 49 -77 123 -99 202 -61 58
28 107 98 139 200 65 206 35 352 -102 489 -76 76 -122 106 -167 110 -22 2 -18
21 4 21 10 0 21 7 25 15 3 8 13 15 23 15 15 0 16 2 3 10 -22 14 -46 12 -60 -5z"/>
<path d="M13620 19270 c-29 -15 -34 -23 -32 -45 3 -24 1 -27 -15 -20 -43 18
-53 16 -78 -10 -14 -16 -25 -36 -25 -46 0 -22 -4 -23 -30 -7 -16 10 -26 8 -58
-10 -22 -12 -52 -22 -67 -22 -18 0 -28 -6 -32 -20 -3 -11 -9 -20 -14 -20 -5 0
-18 -9 -29 -20 -19 -19 -22 -19 -37 -5 -22 23 -57 15 -61 -12 -2 -14 2 -23 10
-23 9 -1 7 -4 -4 -10 -10 -6 -14 -18 -11 -31 5 -19 4 -20 -16 -10 -25 14 -52
3 -75 -31 -21 -29 -20 -33 6 -58 31 -29 12 -25 -24 5 -16 14 -36 25 -44 25
-17 0 -64 -44 -64 -59 0 -6 -14 -2 -31 8 -34 21 -58 18 -118 -13 -27 -14 -30
-20 -20 -32 8 -9 10 -38 7 -84 -5 -66 -4 -71 17 -76 32 -8 108 47 132 95 19
38 21 39 42 25 26 -19 54 -11 80 22 12 15 25 22 35 18 9 -3 16 -1 16 5 0 6 9
11 20 11 12 0 25 10 32 25 7 15 17 24 25 21 8 -3 22 0 33 6 15 9 24 9 44 -1
21 -12 29 -11 58 6 18 10 39 31 46 47 12 24 12 30 -4 47 -13 15 -14 19 -3 19
8 0 21 -4 29 -10 9 -6 19 -5 28 3 19 16 53 35 75 43 14 5 16 13 11 42 l-7 36
27 -18 c24 -15 32 -16 57 -5 17 6 34 20 39 29 6 11 17 16 28 13 10 -2 24 3 31
11 8 9 21 16 29 16 12 0 13 3 4 12 -20 20 -15 65 8 71 24 6 27 42 4 51 -22 9
-34 6 -74 -14z"/>
<path d="M12533 19105 c-34 -34 -37 -35 -59 -20 -31 20 -51 18 -104 -9 l-44
-24 3 -82 c2 -55 -1 -85 -9 -90 -7 -4 -3 -13 14 -23 24 -16 27 -16 70 13 50
34 96 84 96 106 0 17 11 18 45 2 20 -9 31 -8 51 3 27 14 62 69 44 69 -6 0 -8
10 -4 24 4 18 -1 28 -22 45 -35 28 -40 27 -81 -14z"/>
<path d="M15942 18603 l-2 -462 -60 -93 c-80 -122 -233 -429 -248 -496 -16
-72 -15 -147 2 -181 21 -39 92 -101 119 -102 31 -2 30 -2 55 6 21 6 23 5 13
-13 -18 -34 -13 -68 12 -85 23 -15 24 -15 19 9 -6 33 15 80 46 100 23 15 24
18 9 29 -15 11 -14 14 7 34 14 13 26 18 30 13 3 -6 5 -220 4 -475 -2 -256 0
-468 3 -472 4 -3 18 0 32 6 22 10 32 8 71 -15 24 -14 47 -26 50 -26 3 0 7 46
7 103 1 98 2 100 10 40 20 -153 65 -277 128 -346 97 -108 232 -104 506 13 207
88 310 153 408 259 62 66 75 99 87 218 21 203 27 77 9 -187 -9 -124 -30 -309
-64 -565 -22 -162 -13 -388 29 -710 l36 -280 0 -562 0 -561 -25 -31 c-19 -22
-40 -33 -80 -41 -74 -15 -112 -6 -242 56 -61 30 -114 54 -117 54 -3 0 -6 -80
-6 -177 0 -121 -4 -186 -13 -202 -22 -44 -74 -66 -152 -66 -62 1 -79 5 -150
42 -44 22 -129 62 -190 88 -144 63 -204 97 -265 152 -79 71 -106 145 -77 214
25 60 50 64 253 44 96 -9 178 -14 182 -10 12 12 9 306 -5 439 -7 71 -31 219
-53 330 -45 230 -80 435 -110 651 -12 83 -27 191 -35 240 -36 242 -44 312 -55
460 -6 88 -14 195 -18 237 l-7 78 -1785 -1031 c-982 -567 -1857 -1072 -1945
-1123 -88 -51 -389 -224 -668 -385 l-508 -293 3 -444 c2 -244 2 -444 1 -444
-2 0 -25 12 -51 27 l-49 27 -6 180 c-4 98 -7 248 -7 333 0 84 -2 153 -5 153
-2 0 -26 -13 -52 -28 l-49 -29 -52 29 -52 30 0 92 c0 51 -3 161 -7 244 l-6
151 -71 -37 c-39 -20 -77 -43 -84 -49 -16 -15 -22 -16 -22 -4 0 4 21 19 47 32
26 13 52 27 58 32 5 4 26 18 45 30 l35 23 0 162 c0 89 -1 343 -3 565 l-2 404
-64 37 c-125 73 -126 75 -126 419 0 151 -3 449 -7 663 l-6 389 -29 -29 c-25
-24 -35 -28 -68 -23 -21 3 -53 15 -70 27 -31 22 -69 20 -71 -3 0 -7 0 -102 0
-213 l0 -201 50 -106 c28 -58 51 -114 51 -124 0 -27 -69 -127 -129 -188 -65
-66 -148 -111 -226 -123 -118 -19 -318 17 -560 102 -71 25 -133 42 -136 38 -4
-4 -16 -36 -26 -71 l-20 -63 -1489 -860 c-819 -472 -1677 -968 -1906 -1100
-230 -133 -418 -244 -418 -247 0 -3 195 -118 433 -255 237 -138 628 -363 867
-501 846 -489 1042 -602 1685 -973 812 -469 910 -525 1117 -645 200 -115 438
-253 649 -375 85 -48 228 -131 319 -184 249 -144 768 -444 2009 -1160 619
-358 1138 -657 1152 -665 25 -15 35 -10 455 232 236 136 551 317 699 402 149
86 295 170 325 188 30 18 190 111 355 205 165 95 399 230 520 300 121 70 353
204 515 298 162 93 410 236 550 317 140 82 302 175 360 208 58 33 260 150 450
260 190 110 449 260 575 332 127 73 435 250 685 395 250 145 514 297 585 338
72 41 186 107 255 147 69 40 431 250 805 465 374 216 781 451 905 523 124 71
299 172 390 224 91 53 275 159 410 237 135 79 281 164 325 189 394 227 505
292 505 297 0 4 -1804 1049 -2596 1503 l-224 129 0 98 0 98 -100 57 -101 57
-81 -46 c-44 -25 -84 -46 -88 -46 -4 0 -248 139 -541 308 -1070 618 -990 574
-983 547 4 -17 0 -26 -14 -34 -11 -6 -22 -8 -26 -6 -3 3 -4 2 -1 -1 5 -7 -120
-84 -137 -84 -5 0 -6 -5 -2 -12 4 -6 3 -8 -3 -5 -12 8 -85 158 -79 164 9 9
119 73 126 73 4 0 11 7 14 16 3 8 10 13 14 10 5 -3 17 1 27 8 16 12 13 18 -41
73 -33 32 -86 77 -119 99 -69 46 -309 184 -320 184 -4 0 -33 -16 -65 -35 l-58
-35 -143 84 c-79 46 -191 111 -249 144 l-105 60 -3 99 -3 99 -99 57 c-55 31
-101 57 -104 57 -2 0 -39 -20 -80 -45 -42 -25 -82 -45 -88 -45 -8 0 -61 28
-86 46 -2 1 15 82 37 180 68 307 75 416 31 556 -42 136 -116 193 -250 192 -92
0 -197 -29 -317 -85 -48 -23 -115 -52 -148 -65 -33 -14 -99 -47 -147 -75 l-88
-50 -131 76 c-117 68 -135 76 -156 66 -13 -6 -26 -11 -28 -11 -3 0 -6 107 -8
238 -1 130 -3 29 -5 -225z m1899 -1327 c20 -43 25 -81 10 -72 -5 3 -12 -1 -15
-10 -3 -8 -10 -12 -16 -9 -5 3 -10 1 -10 -4 0 -6 -3 -10 -7 -9 -5 1 -23 -6
-40 -15 -18 -10 -33 -14 -33 -10 0 5 -4 3 -8 -2 -4 -6 -19 -18 -35 -28 l-27
-17 -25 56 c-24 54 -24 57 -8 70 10 7 22 14 27 14 5 0 17 7 26 15 26 23 124
73 134 68 4 -3 17 -24 27 -47z m1499 -901 c0 -14 -16 -29 -52 -49 -29 -17 -68
-40 -87 -53 -50 -34 -66 -30 -86 23 -16 43 -16 46 0 64 10 11 22 17 26 14 5
-3 9 -1 9 4 0 5 23 19 51 32 28 14 60 33 72 43 21 18 21 17 44 -20 13 -21 23
-47 23 -58z m324 -181 c12 -30 6 -39 -44 -67 -56 -32 -61 -47 -25 -74 l25 -18
-42 -122 -43 -122 -42 162 c-24 89 -43 165 -43 170 0 4 10 5 23 2 15 -3 46 9
97 39 86 51 86 51 94 30z m656 -380 c0 -62 -5 -69 -75 -108 -28 -16 -58 -35
-68 -44 -9 -8 -18 -13 -20 -11 -17 26 -46 103 -42 108 20 19 173 109 188 110
14 1 17 -8 17 -55z m920 -506 c11 -24 20 -49 20 -56 0 -18 -23 -40 -62 -58
-43 -20 -72 -37 -91 -53 -9 -7 -21 -10 -27 -6 -5 3 -10 0 -10 -7 -1 -7 -15 14
-32 47 l-30 59 28 23 c16 13 32 23 36 23 4 0 31 16 60 34 70 46 85 45 108 -6z
m581 -323 c19 -44 18 -92 -2 -80 -5 4 -9 1 -9 -4 0 -6 -7 -11 -16 -11 -8 0
-12 -4 -9 -10 6 -9 -25 -15 -50 -10 -5 1 -7 -2 -2 -6 4 -4 -12 -19 -35 -32
-24 -14 -45 -28 -48 -32 -3 -3 -19 22 -36 56 l-31 61 61 32 c34 17 79 42 101
56 22 13 44 24 48 24 4 1 17 -19 28 -44z m-2391 -181 c-27 -23 -31 -32 -28
-67 2 -27 10 -44 24 -54 20 -13 22 -12 20 4 -1 16 9 18 97 18 87 0 100 -2 113
-20 15 -20 13 -20 -96 -25 -108 -5 -113 -6 -136 -34 -19 -22 -24 -38 -23 -71
2 -24 5 -43 8 -42 7 2 11 -8 11 -30 -1 -16 -2 -16 -16 2 -11 15 -14 34 -10 75
7 68 7 80 0 155 -5 56 -4 63 22 88 15 15 31 27 36 27 5 0 -5 -12 -22 -26z
m-5640 -14 c0 -11 -6 -20 -13 -20 -18 0 -16 -82 2 -96 21 -17 -3 -69 -44 -94
-47 -29 -58 -26 -50 12 4 17 7 49 7 71 -1 48 11 73 38 82 11 3 20 15 20 25 0
11 8 24 18 29 23 14 22 14 22 -9z m8565 -136 c14 -39 14 -39 -18 -54 -18 -8
-34 -17 -37 -20 -13 -14 -126 -80 -137 -80 -5 0 -43 84 -43 96 0 11 27 28 165
105 36 21 49 12 70 -47z m-2389 -87 c-8 -20 -25 -43 -39 -52 -28 -18 -156 -35
-269 -35 -78 0 -78 0 -78 -26 0 -27 0 -27 -58 -21 -79 8 -92 15 -92 44 0 22 3
24 28 18 25 -6 26 -5 8 8 -19 14 -19 15 0 25 11 6 96 11 199 11 99 1 196 6
216 11 53 14 81 50 88 112 l6 53 3 -57 c2 -33 -3 -71 -12 -91z m-9751 -182
c26 -44 51 -87 56 -96 6 -13 -11 -47 -71 -137 -80 -121 -100 -145 -100 -120 0
16 49 384 56 417 6 28 2 33 59 -64z m12678 -4 c3 -15 -13 -29 -82 -67 -47 -27
-90 -51 -96 -53 -5 -2 -13 -8 -16 -14 -4 -5 -14 4 -23 21 -16 31 -21 50 -11
40 3 -3 49 21 103 53 98 59 114 61 125 20z m-3463 9 c0 -19 7 -20 255 -20 248
0 255 1 255 20 0 11 6 20 13 20 11 0 15 -38 20 -172 8 -193 4 -208 -58 -234
-46 -19 -90 -22 -302 -23 -176 -1 -183 -2 -183 -21 0 -11 -7 -20 -15 -20 -13
0 -15 32 -15 228 0 126 3 232 7 235 12 13 23 7 23 -13z m2859 -122 c36 -22 68
-42 70 -44 3 -3 -11 -21 -31 -42 -20 -20 -45 -55 -56 -77 l-21 -40 -1 33 c0
17 -3 32 -6 32 -14 0 -194 -112 -194 -121 0 -6 7 -6 19 1 11 5 22 10 25 10 3
0 6 -92 6 -205 0 -202 0 -204 -22 -216 -13 -7 -25 -16 -28 -20 -3 -5 -32 7
-63 26 -39 24 -59 31 -62 22 -29 -95 -79 -167 -126 -182 -24 -8 -75 11 -83 30
-3 8 -8 40 -12 73 l-6 59 122 69 122 69 -5 48 c-2 28 -13 61 -26 77 -18 25
-21 43 -21 124 0 73 -4 98 -16 110 -8 9 -20 16 -25 16 -16 0 -10 28 9 35 9 3
54 28 99 56 45 27 88 46 97 43 9 -3 21 5 32 22 10 15 31 35 48 45 33 20 35 20
155 -53z m-595 -328 c83 -46 96 -56 81 -65 -131 -76 -219 -209 -232 -350 l-6
-62 -68 40 c-38 21 -71 48 -74 58 -4 10 -18 28 -32 39 -24 19 -25 24 -21 84 7
82 53 170 123 235 49 44 112 84 126 78 3 -1 49 -27 103 -57z m-6204 -24 c37
-13 332 -177 690 -384 l625 -362 5 117 c5 90 6 60 8 -128 2 -241 2 -246 28
-297 30 -61 59 -87 159 -142 41 -23 75 -43 75 -45 0 -2 3 -12 6 -22 5 -14 3
-13 -10 4 -9 11 -45 37 -80 57 -86 48 -121 79 -154 135 -24 42 -27 58 -32 169
l-5 123 -615 356 c-338 196 -642 368 -675 384 -116 55 -299 60 -408 11 -40
-18 -4302 -2492 -4399 -2554 -110 -69 -117 -176 -16 -251 53 -40 2238 -1298
2293 -1321 73 -30 287 -30 360 0 55 23 4390 2541 4441 2579 43 33 68 88 59
132 -7 41 -58 99 -114 131 l-41 23 0 -35 c0 -19 -5 -47 -12 -61 -14 -31 -135
-105 -170 -104 -25 1 -19 4 24 13 42 9 48 46 48 286 0 239 -7 277 -60 342 -21
25 -116 85 -308 196 -153 89 -291 166 -307 172 -24 9 -33 8 -57 -10 -15 -11
-28 -16 -28 -10 0 10 53 46 120 81 34 18 45 19 72 10 69 -24 563 -317 603
-357 65 -66 75 -110 75 -320 l0 -180 44 -21 c54 -27 112 -77 132 -114 10 -21
14 -66 14 -177 0 -136 -2 -153 -22 -190 -26 -46 -91 -102 -119 -102 -11 0 -19
-4 -19 -10 0 -5 -7 -10 -15 -10 -8 0 -15 -5 -15 -11 0 -6 -7 -8 -17 -5 -10 4
-14 4 -10 0 8 -8 -92 -71 -128 -80 -14 -3 -22 -10 -19 -15 5 -8 -9 -13 -28
-10 -5 0 -8 -3 -8 -9 0 -5 -5 -10 -11 -10 -6 0 -18 -7 -27 -16 -11 -12 -17
-13 -20 -5 -3 8 -9 6 -18 -6 -8 -10 -13 -13 -12 -8 2 6 -1 10 -7 10 -5 0 -8
-8 -7 -17 2 -10 -2 -18 -9 -18 -7 0 -21 -8 -32 -17 -15 -13 -18 -14 -12 -3 4
8 5 12 0 8 -4 -4 -13 -3 -20 2 -8 7 -12 5 -12 -5 0 -8 4 -12 9 -9 4 3 8 1 8
-4 0 -15 -26 -22 -39 -9 -8 8 -14 7 -23 -2 -9 -10 -9 -12 -1 -7 6 3 15 2 18
-4 4 -6 -7 -15 -24 -21 -17 -6 -31 -16 -31 -21 0 -6 -6 -5 -15 2 -14 11 -19 7
-16 -13 2 -14 -29 -19 -44 -7 -10 8 -15 9 -15 2 0 -6 -7 -9 -15 -6 -8 4 -15 1
-15 -4 0 -6 12 -9 27 -6 22 4 24 3 14 -10 -7 -8 -22 -13 -33 -11 -11 3 -18 2
-15 -1 8 -8 -16 -33 -25 -27 -5 2 -8 0 -8 -4 0 -5 -14 -17 -31 -27 -22 -13
-29 -14 -24 -5 5 8 5 11 0 7 -4 -4 -15 -2 -24 5 -14 10 -14 10 -3 -4 11 -15 9
-20 -14 -38 -15 -12 -35 -21 -46 -21 -11 0 -17 -4 -14 -9 7 -10 -42 -33 -55
-25 -5 3 -8 0 -7 -8 2 -7 -5 -12 -14 -12 -10 1 -16 -2 -13 -6 4 -6 -8 -14 -58
-38 -5 -2 -8 2 -6 9 3 25 -1 39 -10 39 -6 0 -8 -9 -6 -21 5 -27 -15 -59 -37
-59 -10 0 -18 -4 -18 -10 0 -5 -7 -10 -15 -10 -8 0 -15 -5 -15 -10 0 -6 14 -3
31 6 17 8 28 11 25 6 -4 -6 -1 -14 5 -18 8 -4 9 -3 5 4 -9 15 29 52 52 52 16
0 184 -90 205 -110 5 -4 -32 -31 -82 -60 -86 -49 -110 -67 -76 -54 13 5 15
-36 15 -335 l0 -340 -22 -12 c-13 -7 -25 -16 -28 -20 -3 -4 -29 6 -58 22 l-52
31 0 83 c0 101 -7 138 -30 163 -16 17 -19 48 -26 257 -6 217 -9 239 -27 255
-10 10 -25 16 -33 13 -7 -3 -24 6 -36 20 -21 22 -24 23 -24 7 0 -10 3 -18 6
-17 3 1 5 -2 5 -8 0 -5 -4 -9 -8 -7 -5 1 -6 -2 -2 -8 5 -8 11 -7 21 1 8 6 17
9 21 5 4 -3 -8 -12 -25 -18 -18 -7 -32 -16 -32 -21 0 -5 -6 -5 -12 0 -15 12
-49 13 -42 2 2 -5 11 -6 19 -2 8 3 15 0 15 -6 0 -6 -5 -11 -11 -11 -6 0 -22
-9 -36 -20 -19 -15 -29 -17 -39 -9 -17 14 -35 3 -27 -16 5 -14 -8 -19 -44 -18
-7 1 -11 -2 -9 -6 9 -13 -10 -30 -36 -33 -15 -2 -31 -8 -35 -13 -5 -4 -1 -4 7
0 13 8 13 7 1 -9 -8 -9 -20 -15 -28 -12 -8 3 -12 2 -9 -3 6 -9 -18 -24 -40
-26 -6 0 -25 -13 -43 -28 -18 -15 -37 -25 -42 -21 -5 3 -9 1 -9 -5 0 -5 -14
-16 -30 -25 -20 -9 -28 -10 -24 -3 3 7 -3 3 -13 -9 -25 -28 -61 -46 -75 -38
-7 4 -8 3 -4 -4 3 -6 -2 -16 -13 -21 -26 -14 -34 -14 -25 1 4 7 3 8 -4 4 -7
-4 -12 -14 -12 -22 0 -12 -4 -13 -22 -3 -22 12 -22 11 -8 -6 9 -11 10 -16 3
-11 -7 4 -13 3 -13 -1 0 -13 -59 -45 -69 -38 -5 3 -13 0 -17 -6 -5 -8 -3 -9 6
-4 9 5 11 4 6 -4 -4 -6 -13 -8 -19 -4 -18 11 -38 12 -31 2 3 -5 11 -6 17 -2 7
4 6 0 -2 -10 -7 -9 -17 -15 -21 -12 -4 2 -15 -4 -25 -15 -10 -11 -21 -17 -25
-15 -4 3 -10 -2 -14 -10 -3 -9 -12 -12 -22 -8 -11 4 -15 2 -11 -4 6 -10 -40
-38 -55 -35 -5 1 -8 -2 -8 -8 0 -5 -5 -10 -11 -10 -6 0 -29 -13 -52 -29 -23
-15 -53 -32 -67 -36 -14 -4 -30 -15 -37 -24 -6 -9 -15 -13 -18 -9 -4 4 -14 0
-22 -8 -8 -8 -19 -11 -25 -8 -7 4 -8 2 -4 -4 3 -6 -2 -16 -13 -22 -14 -7 -22
-7 -27 2 -5 7 -3 8 6 3 9 -5 11 -4 6 4 -4 6 -12 9 -17 5 -5 -3 -6 -10 -3 -16
5 -8 1 -9 -11 -4 -14 5 -16 4 -6 -7 9 -12 5 -17 -18 -27 -16 -6 -35 -9 -42 -4
-7 4 -10 3 -6 -3 7 -11 -41 -49 -55 -45 -5 1 -8 -3 -8 -8 0 -6 -5 -10 -11 -10
-6 0 -29 -13 -52 -29 -23 -15 -48 -26 -54 -24 -7 3 -16 -3 -19 -11 -4 -11 -10
-13 -18 -8 -14 11 -47 12 -40 1 2 -5 11 -6 19 -2 28 10 15 -13 -17 -32 -43
-26 -57 -27 -53 -5 2 10 -2 26 -9 35 -11 16 -13 16 -13 1 0 -9 4 -16 8 -16 11
0 0 -53 -14 -62 -6 -4 -15 -4 -21 -1 -5 3 -6 1 -2 -5 11 -18 -18 -20 -39 -3
-19 15 -19 15 -5 -2 16 -21 20 -17 -71 -69 -36 -20 -50 -23 -59 -15 -6 7 -11
8 -10 2 5 -21 0 -36 -10 -30 -5 3 -10 0 -10 -7 0 -10 -2 -10 -9 1 -7 11 -10 9
-16 -8 -3 -12 -11 -19 -16 -15 -6 3 -16 -2 -23 -12 -8 -11 -18 -14 -26 -9 -11
7 -9 10 6 16 15 6 14 7 -8 6 -15 -1 -25 -4 -22 -8 2 -4 1 -9 -3 -12 -5 -2 -2
-2 5 -1 6 2 12 -4 12 -12 0 -10 -6 -14 -15 -10 -8 3 -15 1 -15 -3 0 -15 -70
-52 -71 -38 0 7 -5 2 -11 -10 -16 -34 -39 -38 -34 -7 3 15 2 23 -2 19 -7 -6
-8 -11 -11 -37 -1 -12 -26 -27 -71 -46 -13 -5 -13 -3 -1 11 9 11 10 17 2 17
-11 0 -15 -12 -12 -36 1 -12 -48 -38 -57 -29 -3 2 -11 -4 -19 -15 -8 -11 -21
-20 -29 -20 -8 0 -14 -5 -14 -11 0 -6 -7 -8 -16 -5 -8 3 -13 2 -10 -3 7 -11
-22 -23 -36 -14 -7 3 -8 1 -4 -5 4 -6 -9 -18 -31 -29 -21 -9 -44 -23 -52 -31
-7 -7 -20 -11 -28 -8 -8 3 -11 2 -8 -4 3 -5 -4 -14 -15 -20 -11 -6 -20 -8 -20
-5 0 15 3 20 12 17 5 -1 7 2 3 8 -3 6 -11 8 -16 5 -5 -4 -14 -3 -21 1 -8 5 -6
10 8 15 17 7 17 8 -4 8 -15 1 -22 -4 -19 -11 2 -7 0 -22 -5 -33 -9 -20 -9 -20
6 -1 9 11 16 17 16 14 0 -4 3 -13 6 -22 4 -10 1 -16 -9 -16 -8 0 -20 -7 -27
-15 -7 -9 -19 -14 -27 -11 -8 3 -11 1 -8 -4 3 -6 0 -10 -8 -10 -8 0 -20 -7
-28 -16 -7 -8 -21 -13 -31 -11 -10 3 -21 0 -25 -5 -4 -7 -1 -8 8 -3 12 8 12 6
0 -8 -9 -12 -23 -15 -45 -12 -22 4 -27 3 -16 -4 8 -5 18 -7 24 -4 5 4 6 1 2
-6 -5 -7 -14 -10 -21 -7 -7 2 -16 -3 -20 -12 -5 -13 -8 -14 -14 -3 -6 9 -10 7
-14 -10 -5 -20 -8 -21 -24 -8 -10 7 -15 9 -11 5 12 -14 -11 -36 -29 -29 -11 4
-14 2 -9 -5 6 -10 -42 -44 -59 -42 -3 0 -12 -6 -21 -14 -8 -8 -22 -12 -31 -9
-11 4 -14 2 -9 -5 4 -7 -9 -19 -33 -32 -131 -66 -368 -68 -494 -4 -27 14 -348
199 -937 539 -141 82 -378 218 -650 375 -464 268 -647 375 -673 394 -59 44
-65 66 -68 248 -3 164 -2 167 23 205 32 48 -11 22 988 601 91 52 255 148 365
212 110 64 277 160 370 214 94 54 190 111 215 126 25 15 122 71 215 125 94 54
235 136 315 183 186 108 248 144 395 230 285 165 690 400 810 470 72 42 193
112 270 157 519 304 552 321 641 335 86 13 218 2 294 -24z m4404 -146 c46 -10
63 -30 40 -47 -12 -8 -24 -9 -43 -2 -15 6 -110 9 -231 8 -197 -3 -205 -2 -205
17 0 14 9 21 35 25 55 10 361 9 404 -1z m1296 -116 l99 -56 -47 -38 c-27 -21
-56 -55 -66 -79 -12 -26 -22 -37 -27 -30 -4 7 -5 18 -2 26 9 22 -12 15 -104
-38 -100 -58 -99 -57 -90 -65 4 -4 13 -1 22 6 13 11 15 -10 15 -195 0 -206 0
-208 -24 -230 l-24 -22 -85 49 -85 48 15 43 c9 25 12 58 9 82 -20 137 -20 145
2 145 31 0 62 46 62 91 0 37 -3 41 -55 70 -30 17 -57 35 -60 39 -7 12 192 123
205 115 6 -3 22 8 37 26 26 31 79 69 96 69 5 0 53 -25 107 -56z m-9319 16 c18
-10 19 -24 19 -255 l0 -244 -30 -16 c-16 -8 -31 -14 -33 -13 -2 2 -11 -5 -20
-14 -19 -19 -330 -198 -343 -198 -34 1 -36 17 -41 262 l-5 245 153 88 c85 49
179 103 209 121 63 37 65 37 91 24z m8421 -125 l-4 -25 -424 0 c-370 0 -424
-2 -424 -15 0 -8 -7 -15 -15 -15 -9 0 -15 9 -15 25 0 14 5 25 10 25 6 0 10 7
10 15 0 13 55 15 434 15 l433 0 -5 -25z m357 -21 c25 -14 69 -40 98 -57 l51
-30 -34 -35 c-32 -33 -54 -84 -54 -124 0 -15 -8 -13 -57 13 -151 82 -157 88
-147 143 7 41 30 82 56 100 29 21 33 20 87 -10z m581 -44 c12 -7 16 -42 18
-183 l4 -173 -26 -17 c-20 -14 -30 -15 -51 -5 -25 11 -25 12 -25 143 0 129 8
176 38 223 16 25 20 26 42 12z m-742 -158 c15 -10 57 -35 95 -56 37 -20 67
-38 67 -40 0 -2 -18 -15 -39 -29 -94 -62 -161 -162 -161 -240 l0 -37 -42 21
c-24 12 -58 32 -78 44 -19 12 -47 29 -63 39 l-27 17 22 30 c18 24 23 44 23 89
0 52 4 63 30 91 35 37 113 89 133 89 8 0 26 -8 40 -18z m-348 -67 c36 -21 67
-40 69 -42 3 -2 -10 -16 -28 -31 -20 -17 -39 -47 -50 -79 l-17 -52 -103 61
-103 60 5 35 c8 46 30 79 70 103 30 19 32 19 61 1 17 -10 60 -35 96 -56z
m-2938 -180 c139 -80 257 -150 262 -155 4 -4 -1 -13 -13 -20 -16 -8 -21 -8
-19 0 2 6 -109 76 -245 154 -256 147 -284 166 -254 166 9 0 130 -65 269 -145z
m3448 76 c13 -26 13 -170 -1 -210 -11 -31 -41 -42 -55 -20 -9 16 -5 195 6 224
11 30 35 32 50 6z m-563 -111 l70 -41 41 16 c36 15 44 15 62 2 25 -17 26 -16
-90 -82 -100 -57 -95 -53 -88 -61 4 -3 16 -1 27 6 21 11 21 10 21 -197 l0
-209 -30 -18 c-30 -17 -31 -17 -74 8 -39 23 -44 31 -51 72 -4 30 -15 54 -31
69 -27 25 -34 78 -9 69 13 -5 15 7 15 72 l0 79 -20 -33 c-11 -18 -24 -31 -28
-29 -21 12 -160 92 -180 104 -23 14 -23 15 14 71 1 2 41 -19 89 -47 47 -28 88
-51 90 -51 3 0 5 27 5 60 0 55 -2 62 -25 72 -14 6 -25 16 -25 22 0 12 116 85
136 86 6 0 43 -18 81 -40z m-10649 -148 c20 -98 94 -187 189 -227 24 -10 33
-21 37 -47 22 -135 61 -355 82 -469 l26 -137 36 -16 c102 -44 219 -46 291 -5
23 12 43 21 45 18 162 -178 325 -364 346 -394 64 -94 62 -177 -6 -210 -87 -41
-244 -24 -379 40 -122 59 -269 191 -390 350 -34 45 -37 54 -33 97 5 47 4 49
-31 65 -43 20 -280 254 -340 336 -79 108 -151 287 -151 375 0 45 23 85 84 150
44 48 157 132 176 132 3 0 11 -26 18 -58z m10972 8 c47 -28 95 -50 107 -50 21
0 20 -3 -17 -56 -22 -31 -42 -72 -46 -90 -3 -19 -9 -34 -12 -34 -20 0 -152 89
-156 105 -12 42 -6 131 10 153 8 12 18 22 22 22 4 0 45 -23 92 -50z m-688 -95
l95 -56 -62 -62 c-64 -65 -95 -127 -95 -193 l0 -33 -105 61 c-103 60 -105 61
-105 98 0 52 26 120 62 164 31 38 83 76 104 76 6 0 54 -25 106 -55z m1023 -88
c45 -34 -25 -146 -119 -191 -36 -17 -42 -17 -65 -3 -16 10 -27 26 -29 44 -2
15 -11 34 -19 40 -9 7 -15 14 -12 15 33 21 207 107 215 108 5 0 18 -6 29 -13z
m-313 -91 c43 -24 46 -35 18 -61 -10 -9 -24 -33 -30 -51 -7 -19 -14 -34 -16
-34 -2 0 -29 14 -60 31 -53 30 -54 32 -34 46 26 18 27 37 1 23 -11 -5 -22 -10
-25 -10 -3 0 -6 32 -6 71 l0 70 58 -32 c31 -18 74 -42 94 -53z m-1141 -73 l97
-57 -41 -26 c-122 -78 -207 -225 -207 -357 0 -42 -1 -43 -22 -31 -12 7 -28 18
-35 25 -7 6 -22 15 -34 18 -22 7 -39 42 -39 82 0 39 -21 100 -42 122 -10 11
-18 26 -18 34 0 18 66 126 98 161 26 27 118 86 136 86 5 0 53 -26 107 -57z
m-588 -174 c31 -18 57 -36 57 -39 -1 -3 -35 -25 -78 -49 -195 -113 -242 -143
-242 -153 0 -6 11 -3 25 6 l25 16 0 -313 0 -313 -29 -25 -30 -26 -100 59 c-56
32 -101 63 -101 68 0 5 11 17 25 26 l25 16 0 281 0 281 -31 26 -32 26 134 76
c74 42 152 85 174 96 l40 20 40 -22 c22 -13 66 -38 98 -57z m916 37 c27 16 30
16 52 0 28 -19 59 -20 127 -5 64 15 102 6 102 -24 0 -31 -23 -61 -66 -88 l-36
-22 -59 28 c-32 16 -59 32 -59 37 0 4 -4 8 -10 8 -6 0 -10 -35 -10 -85 0 -47
-2 -85 -4 -85 -3 0 -31 16 -63 35 -32 19 -61 35 -64 35 -3 0 -13 -25 -23 -56
-18 -58 -90 -144 -120 -144 -55 0 -86 49 -86 135 l1 40 117 66 117 66 -2 37
-2 36 30 -15 c27 -14 32 -14 58 1z m-885 -183 c22 -16 53 -34 68 -42 34 -17
38 -39 34 -196 -4 -176 -21 -230 -97 -307 -32 -32 -64 -58 -72 -58 -14 0 -16
40 -15 307 0 169 2 311 4 315 9 15 36 8 78 -19z m-909 -462 c18 -16 56 -42 84
-57 28 -16 51 -32 51 -35 0 -3 -26 -23 -57 -45 -102 -70 -176 -198 -190 -325
-3 -33 -9 -58 -12 -57 -3 2 -34 18 -69 37 -59 32 -62 36 -62 72 0 72 -3 72
-108 11 -114 -65 -107 -60 -100 -68 4 -3 16 -1 27 6 21 11 21 10 21 -194 0
-204 0 -205 -24 -230 l-25 -24 -68 42 -68 41 -8 110 c-4 61 -10 161 -13 223
-5 108 -6 114 -30 124 -13 6 -24 16 -24 23 0 12 119 85 139 85 7 0 43 -18 81
-41 66 -39 69 -40 102 -26 63 27 110 109 95 167 -3 13 8 34 36 67 43 48 149
123 175 123 8 0 29 -13 47 -29z m-378 -83 l71 -41 -41 -31 c-28 -21 -49 -48
-62 -82 -18 -44 -23 -49 -45 -44 -33 7 -127 59 -157 87 -29 28 -29 47 0 103
19 39 27 46 62 51 60 9 93 1 172 -43z m481 -188 c18 -11 40 -20 48 -20 29 0
115 -52 105 -64 -5 -6 -12 -25 -15 -42 -10 -48 -61 -121 -96 -139 -33 -17 -62
-9 -79 23 -16 31 -20 262 -3 262 4 0 22 -9 40 -20z m-883 -276 l64 -37 -45
-40 c-25 -22 -56 -60 -69 -86 l-24 -46 1 140 c0 77 2 132 5 123 2 -9 33 -34
68 -54z m15 -170 c6 -14 10 -97 10 -185 0 -138 -2 -161 -17 -177 -17 -17 -21
-17 -50 -3 l-33 15 0 121 c0 128 14 201 46 236 23 25 33 24 44 -7z m-686 -95
c13 -6 26 -19 29 -28 2 -9 32 -32 66 -50 l63 -33 -37 -27 c-21 -14 -50 -48
-66 -76 -26 -45 -29 -47 -29 -22 0 15 -3 27 -7 27 -13 0 -193 -105 -193 -113
0 -5 8 -6 19 -2 16 5 19 -2 24 -62 3 -38 6 -178 7 -312 l1 -244 -28 -26 -28
-26 -85 49 c-47 27 -87 50 -89 52 -2 1 13 17 32 34 36 31 50 61 62 133 4 23 2
37 -5 37 -5 0 -10 -17 -10 -38 0 -38 -25 -86 -40 -77 -4 2 -11 129 -15 280 -6
220 -10 279 -22 291 -8 7 -19 14 -24 14 -5 0 -9 6 -9 14 0 17 177 120 204 118
10 0 30 13 44 30 28 33 79 68 99 68 7 0 23 -5 37 -11z m-3941 -49 c130 -49
188 -145 138 -226 -50 -81 -157 -126 -306 -127 -115 -1 -184 16 -258 63 -57
36 -93 102 -82 151 15 65 90 124 198 154 76 22 235 14 310 -15z m4049 -187
c16 -14 18 -33 17 -152 0 -140 -11 -196 -41 -215 -13 -8 -22 -6 -38 9 -20 18
-21 27 -18 160 2 112 7 148 22 178 20 41 31 45 58 20z m-690 -117 c12 -9 14
-16 7 -23 -7 -7 5 -19 38 -38 92 -54 90 -51 46 -73 -88 -45 -183 -155 -183
-212 0 -29 -15 -25 -115 33 -81 48 -90 56 -93 85 -7 66 63 148 181 213 56 31
92 36 119 15z m76 -206 c19 -18 22 -32 22 -96 0 -62 -3 -76 -17 -81 -35 -14
-101 -63 -137 -103 -40 -44 -56 -78 -56 -116 0 -31 -8 -30 -72 7 -82 48 -81
46 -51 91 33 50 39 132 10 153 -10 7 -14 16 -9 19 5 3 47 -15 92 -41 l82 -46
34 16 c19 9 43 31 54 49 24 40 27 108 5 108 -18 0 -19 14 -5 41 13 24 21 24
48 -1z m-501 -48 c15 -16 51 -41 78 -57 28 -16 52 -30 54 -32 2 -1 -15 -23
-38 -48 -23 -26 -49 -60 -56 -78 l-14 -32 -1 33 c0 17 -2 32 -4 32 -13 0 -191
-109 -194 -120 -3 -9 1 -9 17 -1 l21 12 0 -208 -1 -208 -24 -18 c-25 -18 -26
-17 -95 23 l-70 41 0 46 c0 32 5 50 17 59 10 7 15 16 11 19 -9 9 -238 -123
-238 -136 0 -12 7 -11 31 1 18 10 19 6 19 -108 0 -104 -2 -121 -20 -139 -10
-12 -29 -24 -41 -28 -28 -9 -84 21 -100 54 -15 32 -24 234 -15 334 7 70 9 75
39 90 18 9 50 27 72 41 l41 25 74 -44 c41 -24 80 -44 85 -45 6 0 8 52 4 147
-3 82 -7 150 -8 153 -1 3 -8 -3 -15 -12 -7 -10 -42 -27 -79 -38 -124 -38 -250
-146 -317 -272 -40 -75 -70 -194 -70 -280 0 -52 -3 -68 -14 -68 -8 0 -16 3
-18 8 -4 9 -126 82 -142 85 -24 4 -35 35 -36 97 0 156 61 309 163 410 34 33
67 60 74 60 8 0 41 14 74 31 33 16 66 28 72 26 16 -6 72 23 61 32 -5 3 0 16
12 28 l21 23 86 -50 c48 -28 92 -50 97 -50 6 0 51 23 100 51 53 30 98 49 109
46 13 -3 24 5 36 25 18 32 70 68 97 68 9 0 29 -13 45 -28z"/>
<path d="M19411 14308 c-1 -59 3 -98 9 -98 6 0 10 7 10 15 0 13 28 15 198 14
204 -1 266 -10 286 -41 17 -28 -8 -47 -37 -28 -17 11 -70 15 -229 18 -197 4
-208 3 -209 -14 0 -11 -3 -14 -6 -6 -14 34 -23 3 -23 -78 0 -53 4 -90 10 -90
6 0 10 9 10 20 0 20 5 20 218 20 282 -2 322 11 322 103 0 38 -18 58 -70 81
l-35 15 48 1 47 0 -1 83 c0 59 -3 76 -9 60 l-9 -23 -256 0 -256 0 -9 23 c-6
15 -9 -7 -9 -75z"/>
<path d="M11736 13443 c-3 -3 -6 -20 -6 -37 0 -37 -7 -49 -37 -65 -27 -14 -56
-71 -51 -103 5 -36 47 -36 83 2 16 16 37 30 46 30 14 0 16 6 12 33 -2 17 -9
36 -14 42 -5 5 -9 28 -9 51 0 41 -10 61 -24 47z"/>
<path d="M12140 18955 c-23 -12 -25 -17 -22 -87 2 -40 -1 -68 -5 -62 -17 23
-52 35 -72 24 -14 -7 -27 -7 -46 2 -35 16 -82 -7 -62 -30 10 -13 9 -14 -9 -4
-17 9 -27 7 -57 -13 -20 -14 -38 -25 -41 -25 -3 0 -21 -10 -41 -21 -32 -19
-34 -23 -22 -38 8 -9 24 -41 36 -72 28 -70 66 -95 81 -53 6 14 10 30 10 36 0
6 7 7 18 3 37 -15 46 -10 59 37 l14 48 31 -16 c39 -20 74 -11 96 26 12 19 22
26 31 20 14 -8 69 23 109 62 33 34 31 92 -5 115 -16 10 -32 23 -36 30 -15 25
-41 32 -67 18z"/>
<path d="M12616 18691 c-16 -18 -19 -18 -45 -3 -37 21 -65 10 -58 -23 2 -14 1
-28 -4 -31 -5 -2 -6 -18 -2 -34 3 -17 3 -30 1 -30 -3 0 -25 15 -49 34 -39 32
-45 33 -68 22 -22 -12 -25 -19 -22 -70 3 -60 1 -62 -28 -44 -16 10 -27 7 -64
-12 -42 -22 -45 -26 -40 -57 l6 -34 -30 18 c-29 16 -32 16 -58 -1 -15 -10 -30
-27 -32 -37 -4 -14 -11 -17 -28 -13 -13 3 -37 -3 -59 -15 -28 -16 -40 -18 -54
-10 -14 9 -27 7 -60 -10 -48 -25 -72 -64 -72 -120 0 -68 66 -97 125 -53 13 9
26 26 29 36 4 16 7 17 21 6 13 -11 18 -10 33 4 10 9 23 16 29 16 7 0 9 15 6
40 -3 22 -3 40 0 40 4 0 22 -8 41 -17 33 -15 37 -15 54 0 23 21 41 21 69 2 18
-13 22 -13 33 0 7 8 18 15 24 15 7 0 17 5 24 12 9 9 8 14 -4 23 -14 10 -12 15
16 43 18 18 37 31 43 30 7 -2 38 12 70 30 41 23 57 38 53 48 -4 11 -2 13 11 6
11 -6 25 -4 44 7 23 13 27 20 22 43 -5 27 9 39 22 18 10 -17 43 -11 70 12 27
23 33 53 13 61 -10 4 -10 6 0 6 18 1 15 32 -5 47 -26 19 -57 17 -77 -5z"/>
<path d="M11435 18587 c-75 -74 -82 -177 -14 -185 77 -9 166 162 111 211 -29
26 -51 20 -97 -26z"/>
<path d="M9723 18515 c-132 -36 -214 -103 -271 -223 l-37 -77 -1 -280 c0 -225
-4 -293 -17 -348 -32 -128 -72 -184 -182 -253 -68 -41 -78 -52 -107 -112 -32
-65 -33 -70 -33 -197 0 -115 3 -136 24 -182 40 -89 117 -143 207 -143 112 0
312 112 429 242 130 143 189 281 206 478 19 215 52 326 163 548 85 170 131
305 122 355 -10 53 -60 123 -108 151 -90 52 -279 72 -395 41z"/>
<path d="M13991 18358 c-144 -41 -291 -257 -291 -428 0 -70 16 -115 55 -150
21 -20 37 -25 78 -24 90 1 175 60 254 177 60 88 86 167 87 262 1 84 -27 139
-80 161 -38 16 -55 16 -103 2z"/>
<path d="M11469 18103 c-55 -47 -84 -136 -59 -184 25 -47 117 -2 154 75 19 40
21 107 4 124 -20 20 -65 13 -99 -15z"/>
<path d="M12418 18035 c-16 -14 -28 -30 -28 -36 0 -6 -8 -8 -18 -4 -11 3 -38
-5 -64 -20 l-45 -25 9 -67 c5 -37 11 -70 14 -72 13 -13 25 22 22 65 -3 49 -3
49 44 77 26 15 50 27 53 27 10 0 5 -36 -7 -49 -11 -10 -9 -15 7 -27 18 -14 20
-13 23 3 2 10 16 31 30 48 20 22 21 25 5 11 -23 -19 -23 -19 -23 8 0 19 8 32
30 44 34 20 34 36 -1 40 -15 2 -34 -7 -51 -23z"/>
<path d="M12443 17039 c-12 -4 -32 -21 -44 -38 -12 -17 -26 -28 -31 -25 -16
10 -47 -7 -41 -23 5 -12 1 -14 -15 -9 -33 11 -72 -19 -66 -51 7 -38 32 -81 54
-93 18 -10 19 -9 3 27 -8 21 -20 43 -25 50 -7 9 0 18 24 33 42 26 46 25 41 -4
-3 -13 0 -27 6 -30 10 -7 16 15 13 54 0 8 5 18 11 22 21 13 28 9 17 -11 -15
-29 -12 -45 9 -58 18 -12 20 -9 19 30 0 37 5 46 41 79 38 33 40 38 24 46 -10
5 -28 6 -40 1z"/>
<path d="M13827 16891 c-18 -11 -25 -21 -18 -25 21 -13 12 -56 -13 -66 -13 -5
-30 -22 -37 -39 -11 -24 -18 -29 -39 -25 -33 7 -127 -43 -111 -59 14 -14 14
-107 1 -107 -5 0 -10 -8 -10 -17 0 -14 2 -15 9 -4 6 9 11 10 15 2 16 -25 27 4
25 61 l-3 59 43 25 c54 30 73 31 70 2 -3 -24 7 -48 20 -48 4 0 5 15 4 33 -4
37 28 97 53 97 12 0 15 9 13 41 -3 32 1 43 16 51 30 16 31 18 15 28 -20 13
-21 13 -53 -9z"/>
<path d="M12996 16862 c-15 -8 -36 -27 -45 -43 -11 -20 -21 -27 -34 -23 -19 6
-139 -47 -119 -53 7 -3 12 -24 12 -57 0 -48 -2 -52 -30 -63 -23 -9 -30 -18
-30 -37 0 -35 16 -33 38 4 13 21 22 26 29 19 22 -22 34 2 32 64 l-3 60 46 25
c45 24 47 24 64 7 18 -17 19 -17 27 14 5 21 20 39 42 53 40 23 41 24 18 36
-12 6 -28 3 -47 -6z"/>
<path d="M14917 16760 c-14 -11 -29 -30 -32 -41 -5 -14 -12 -18 -27 -13 -12 3
-36 -3 -62 -17 l-42 -22 4 -53 c4 -50 3 -53 -27 -68 -30 -16 -40 -39 -22 -51
5 -3 18 5 28 18 10 12 26 21 36 19 15 -3 17 5 17 55 0 59 0 59 41 81 52 28 62
28 57 -2 -3 -14 1 -27 11 -33 14 -9 16 -6 13 24 -4 29 1 39 36 73 32 29 38 40
26 44 -24 9 -29 8 -57 -14z"/>
<path d="M13939 16553 c-74 -33 -159 -124 -208 -225 -101 -205 -54 -378 98
-366 18 1 35 6 37 10 3 4 12 8 20 8 8 0 24 9 36 20 12 11 27 20 32 21 18 1
109 115 139 175 45 88 69 198 56 248 -17 64 -37 94 -72 112 -44 24 -79 23
-138 -3z"/>
<path d="M16693 15405 c25 -86 51 -220 61 -305 3 -25 8 -193 11 -375 7 -385
11 -456 28 -467 9 -6 13 82 15 399 3 455 1 472 -74 668 -33 83 -54 125 -41 80z"/>
<path d="M23335 13978 c-104 -61 -359 -207 -565 -326 -206 -118 -422 -243
-480 -277 -58 -34 -127 -74 -155 -89 -27 -16 -165 -95 -305 -176 -140 -81
-550 -318 -910 -526 -360 -207 -738 -425 -840 -484 -102 -59 -261 -151 -355
-205 -472 -272 -905 -522 -1125 -650 -259 -150 -856 -495 -1175 -678 -104 -60
-262 -151 -350 -202 -500 -289 -755 -437 -965 -557 -129 -75 -350 -202 -490
-283 -140 -81 -345 -199 -455 -263 -110 -63 -294 -170 -410 -237 -115 -67
-356 -207 -535 -310 -179 -103 -328 -190 -333 -194 -4 -4 -6 -91 -5 -194 l3
-186 130 76 c207 120 3404 1972 6575 3808 1603 928 2921 1693 2928 1699 9 9
12 56 10 188 l-3 175 -190 -109z"/>
<path d="M5582 13128 l3 -182 4130 -2401 4130 -2401 3 195 c2 148 -1 198 -10
206 -14 13 -8245 4765 -8253 4765 -3 0 -4 -82 -3 -182z"/>
</g>
</svg>
