<?xml version="1.0" standalone="no"?>
<!DOCTYPE svg PUBLIC "-//W3C//DTD SVG 20010904//EN"
 "http://www.w3.org/TR/2001/REC-SVG-20010904/DTD/svg10.dtd">
<svg version="1.0" xmlns="http://www.w3.org/2000/svg"
 width="470.000000pt" height="470.000000pt" viewBox="0 0 470.000000 470.000000"
 preserveAspectRatio="xMidYMid meet">
<metadata>
Created by potrace 1.16, written by Peter Selinger 2001-2019
</metadata>
<g transform="translate(0.000000,470.000000) scale(0.100000,-0.100000)"
fill="#000000" stroke="none">
<path d="M2386 4213 c-4 -4 -22 -6 -39 -5 -93 8 -357 -94 -437 -168 -18 -16
-35 -30 -39 -30 -3 0 -42 -31 -86 -68 -66 -56 -87 -81 -116 -140 -20 -40 -44
-100 -52 -135 -25 -99 -31 -276 -14 -387 14 -85 14 -96 0 -107 -9 -7 -20 -14
-24 -15 -5 -2 -9 -85 -10 -184 -2 -213 7 -251 78 -325 44 -45 45 -48 58 -150
19 -135 49 -242 85 -302 34 -54 39 -110 18 -207 -6 -31 -8 -68 -5 -82 10 -39
97 -164 161 -233 31 -32 56 -63 56 -67 0 -4 5 -8 10 -8 6 0 55 -36 111 -80
157 -126 169 -129 263 -76 48 27 266 223 266 239 0 2 21 25 46 51 30 32 44 54
41 66 -3 12 0 17 8 14 7 -3 15 2 19 11 3 9 2 13 -4 10 -5 -3 -3 7 5 22 8 15
15 38 15 49 0 12 7 24 15 28 8 3 15 10 15 16 0 6 -4 8 -10 5 -5 -3 -10 -2 -10
3 0 6 7 13 16 16 9 4 14 9 11 13 -4 3 -2 12 4 20 9 10 8 13 0 13 -7 0 -9 4 -6
10 11 18 -70 -22 -111 -55 -50 -41 -145 -98 -151 -91 -3 3 -12 -1 -20 -9 -16
-16 -33 -20 -33 -7 0 4 27 20 60 36 33 16 57 32 55 37 -3 4 3 10 13 13 10 4
27 15 39 25 11 10 38 31 62 45 23 15 51 36 61 46 11 11 24 20 30 20 22 0 110
85 110 106 0 8 4 14 10 14 9 0 32 68 27 81 -1 3 6 13 15 23 9 9 15 23 12 31
-3 8 -2 20 2 27 5 7 9 18 10 23 1 6 5 19 9 30 6 16 5 17 -4 5 -7 -9 -11 -10
-11 -3 0 6 3 14 8 17 4 2 9 30 10 62 1 31 7 63 14 71 6 8 7 13 2 12 -27 -5
-34 2 -29 29 6 25 5 25 -8 10 -20 -25 -30 -23 -17 3 7 12 8 34 4 52 -4 18 -9
26 -12 19 -3 -10 -8 -9 -23 4 -11 10 -19 12 -19 6 0 -7 5 -12 10 -12 6 0 10
-4 10 -9 0 -6 -25 -1 -57 10 -31 10 -64 19 -73 19 -10 0 -29 9 -42 20 -14 10
-28 16 -32 13 -3 -3 -6 1 -6 10 0 9 -3 16 -7 14 -5 -1 -8 1 -8 4 0 25 -147
100 -159 80 -3 -4 20 -27 50 -51 29 -25 54 -50 54 -56 0 -14 -46 -24 -57 -13
-5 5 -24 9 -43 11 -19 1 -48 12 -63 25 -16 13 -36 24 -45 25 -71 7 -112 20
-112 34 0 8 -8 14 -19 14 -29 0 -48 28 -33 48 27 39 43 75 45 102 1 17 5 30
10 30 4 0 7 6 7 14 0 7 11 21 25 30 23 15 26 15 45 -1 12 -10 31 -38 43 -61
18 -37 77 -96 77 -78 0 3 17 -4 38 -16 30 -18 53 -22 117 -22 116 0 130 6 131
48 0 35 -17 53 -38 39 -7 -3 -8 -1 -4 5 4 7 16 12 27 12 10 0 19 5 19 11 0 7
-12 8 -32 4 -25 -5 -29 -4 -18 4 21 15 64 13 136 -5 58 -14 64 -14 83 3 12 9
21 24 21 33 0 11 -2 12 -8 2 -6 -8 -9 0 -9 20 0 41 -9 76 -24 94 -6 8 -8 14
-3 15 5 0 -1 4 -13 9 -13 5 -23 17 -23 26 0 13 -4 11 -21 -7 -11 -13 -18 -18
-14 -11 3 6 1 12 -4 12 -6 0 -11 10 -11 23 0 18 -11 29 -45 46 -25 12 -43 26
-40 31 3 4 -11 10 -30 12 -20 2 -35 0 -35 -7 0 -6 -3 -7 -8 0 -10 15 -65 16
-74 2 -5 -9 -8 -9 -8 0 0 6 -8 9 -19 6 -10 -3 -30 1 -42 8 -13 7 -30 12 -38
10 -8 -1 -12 3 -8 12 3 9 -4 19 -19 26 -17 8 -24 18 -23 38 1 27 1 28 8 4 4
-14 12 -26 20 -29 10 -3 11 0 2 17 -7 12 -9 25 -6 30 3 5 -1 11 -7 14 -7 2 -9
8 -5 13 5 5 15 1 23 -10 7 -11 17 -16 21 -13 3 4 3 7 -2 7 -4 0 -2 6 4 14 9
10 20 12 41 6 18 -5 32 -5 36 1 3 5 13 7 22 5 14 -5 17 2 19 30 1 27 -2 34
-13 30 -8 -3 -14 0 -14 6 0 7 -4 7 -13 0 -7 -6 -28 -10 -47 -10 -19 1 -29 3
-22 5 6 3 12 9 12 13 0 7 -21 8 -62 1 -4 0 -6 -7 -4 -13 1 -7 1 -10 -1 -6 -3
5 -15 5 -28 2 -30 -7 -68 13 -61 32 3 8 2 13 -3 10 -5 -3 -20 5 -32 19 -13 13
-33 25 -44 25 -23 0 -46 13 -48 26 -1 5 -11 7 -22 6 -15 -2 -16 0 -7 6 11 8
11 12 0 23 -14 14 -18 21 -18 37 0 4 -5 0 -10 -8 -7 -11 -10 -11 -10 -2 0 7
-5 10 -12 6 -7 -4 -8 -3 -4 4 9 16 -28 34 -42 20 -12 -12 -32 -2 -31 15 0 9 2
9 6 0 7 -18 23 -16 23 2 0 8 -4 15 -8 15 -5 0 -14 11 -20 25 -10 22 -15 24
-33 14 -16 -8 -24 -8 -33 1 -8 8 -7 10 7 5 13 -6 17 -2 16 16 0 13 -3 18 -6
12 -2 -7 -10 -13 -15 -13 -6 0 -8 3 -5 7 10 9 -44 43 -69 43 -12 0 -24 7 -28
15 -3 9 -12 12 -22 8 -11 -4 -15 -3 -11 5 7 10 57 26 87 26 8 0 18 6 23 13 4
7 15 9 23 6 9 -3 20 0 24 7 4 7 23 14 41 16 19 2 40 6 46 9 7 2 17 -4 22 -13
9 -15 10 -14 11 5 0 13 6 21 13 20 6 -2 2 1 -10 7 -26 12 -38 45 -14 41 9 -2
20 -4 24 -4 5 -1 5 -6 2 -11 -10 -16 24 -23 42 -9 12 10 15 10 9 2 -9 -17 35
-18 52 -1 8 8 15 8 27 -2 13 -11 14 -10 8 6 -6 16 -5 17 9 6 14 -11 16 -10 11
8 -4 14 -11 19 -22 16 -11 -4 -10 -2 3 9 16 12 22 12 28 2 5 -7 8 -8 8 -1 0 6
10 10 23 8 69 -12 87 -17 87 -26 0 -6 7 -5 16 3 13 10 17 10 25 -2 7 -12 9
-11 9 3 0 12 6 15 23 10 12 -3 25 -9 28 -14 3 -5 18 -4 33 2 24 9 31 7 45 -8
9 -11 26 -22 39 -26 12 -4 22 -11 22 -15 0 -7 43 -31 55 -31 3 0 5 6 5 13 0 8
7 14 15 14 8 0 15 -3 15 -6 0 -9 46 -61 54 -61 4 0 -10 20 -31 45 -49 59 -183
148 -209 139 -14 -4 -16 -3 -5 4 11 8 9 12 -9 22 -12 6 -24 9 -27 6 -3 -3 -12
1 -20 9 -20 21 -119 48 -175 49 -27 1 -48 4 -48 9 0 9 -14 9 -24 0z m298
-1625 c12 -75 13 -83 8 -95 -6 -18 -32 -16 -53 3 -10 9 -36 17 -58 17 -33 1
-40 5 -44 24 -3 19 0 23 19 23 13 0 24 5 24 11 0 20 50 59 74 59 20 0 24 -7
30 -42z m-329 -148 c0 -1 32 -3 71 -4 38 -1 76 -6 82 -10 19 -11 14 -44 -8
-56 -13 -7 -20 -7 -20 -1 0 6 -6 8 -14 5 -20 -8 -219 15 -230 26 -6 6 -20 10
-33 10 -14 0 -23 6 -23 16 0 11 6 14 20 9 11 -3 27 -2 35 2 13 8 120 10 120 3z
m330 -80 c8 -12 -4 -74 -13 -66 -3 3 -15 0 -26 -7 -12 -8 -34 -13 -51 -12 -16
1 -36 -3 -42 -8 -9 -6 -13 -6 -13 2 0 6 -7 11 -15 11 -8 0 -15 -5 -15 -11 0
-6 -7 -3 -16 6 -10 10 -23 13 -33 9 -32 -14 -93 -16 -104 -4 -9 10 -9 11 2 5
9 -5 12 -4 7 3 -4 6 -13 9 -20 6 -14 -5 -29 10 -32 34 -1 7 5 12 14 10 9 -1
22 1 28 4 16 10 55 -2 48 -16 -3 -6 2 -2 10 8 12 15 16 16 17 5 0 -10 2 -10 6
-1 2 6 8 10 11 8 4 -2 30 2 57 9 60 16 171 19 180 5z"/>
<path d="M2989 3896 c-5 -25 -1 -35 27 -63 18 -17 30 -34 27 -37 -3 -3 2 -8
11 -12 11 -4 15 -13 11 -25 -4 -12 -1 -21 9 -25 9 -3 16 -17 16 -29 0 -13 5
-27 10 -30 6 -3 10 -11 10 -16 0 -6 -5 -7 -11 -3 -7 4 -7 -1 1 -16 6 -12 9
-33 6 -46 -4 -13 -2 -24 3 -24 6 0 15 -10 22 -21 9 -17 8 -20 -3 -13 -7 4 -4
-2 6 -14 14 -17 16 -22 5 -22 -19 0 -17 -99 3 -111 10 -7 10 -9 -2 -9 -12 0
-13 -2 -1 -9 11 -7 11 -13 -2 -32 -15 -21 -15 -24 1 -43 10 -12 12 -16 3 -11
-11 6 -13 4 -8 -8 3 -9 2 -19 -3 -22 -7 -4 -6 -13 0 -26 7 -13 7 -19 0 -19 -5
0 -10 -5 -10 -11 0 -5 5 -7 10 -4 6 3 10 2 10 -3 0 -6 -7 -13 -16 -16 -9 -4
-14 -13 -10 -21 3 -8 1 -15 -5 -15 -6 0 -7 -5 -2 -12 4 -7 8 -22 9 -33 2 -45
5 -50 16 -25 18 44 46 170 37 170 -5 0 -9 11 -9 25 0 14 5 24 12 23 7 -2 15
14 19 37 11 56 11 193 0 199 -4 3 -6 18 -3 32 3 15 1 25 -4 21 -5 -3 -9 9 -10
26 -1 44 -34 117 -53 117 -12 0 -13 2 -4 8 16 10 -34 92 -56 92 -8 0 -12 3 -8
6 9 9 -25 44 -36 37 -6 -3 -7 -1 -4 4 4 6 0 16 -8 23 -8 7 -16 10 -16 6z"/>
<path d="M2979 3478 c-6 -12 -6 -18 0 -18 7 0 7 -9 0 -27 -8 -22 -7 -30 7 -40
14 -10 15 -13 3 -13 -20 0 -17 -55 5 -79 9 -10 16 -27 16 -39 0 -13 6 -22 15
-22 8 0 15 5 15 11 0 5 -4 7 -10 4 -6 -3 -7 1 -4 9 3 8 14 18 25 21 16 5 17
10 7 28 -10 20 -10 21 5 8 10 -7 17 -9 17 -3 0 5 -7 15 -15 22 -8 7 -15 17
-15 23 0 6 6 3 14 -8 12 -17 13 -16 20 10 5 18 3 31 -4 35 -9 6 -9 13 -1 29
10 18 9 21 -6 21 -10 0 -14 4 -8 8 13 9 19 35 6 28 -5 -4 -12 -2 -16 3 -9 16
-66 8 -76 -11z"/>
<path d="M2422 1428 c-15 -15 -88 -38 -124 -38 -15 0 -34 7 -43 16 -15 15 -20
15 -63 -1 -53 -20 -108 -53 -166 -98 -37 -29 -38 -31 -16 -39 12 -4 29 -4 40
2 27 14 27 15 52 -37 24 -50 27 -70 15 -90 -4 -6 -3 -14 3 -18 5 -3 10 -1 10
4 0 24 19 9 30 -24 10 -30 8 -45 -13 -107 -34 -99 -47 -208 -52 -433 -11 -415
-15 -508 -25 -520 -7 -9 -5 -16 6 -26 13 -11 56 -14 183 -14 l165 0 -2 50 c-1
28 -2 84 -3 125 -1 41 -6 83 -11 93 -5 10 -5 17 0 17 11 0 3 98 -10 124 -7 13
-7 16 1 12 15 -10 14 7 -1 23 -7 8 -8 11 -2 8 11 -6 11 44 0 114 -5 31 -27 69
-41 69 -16 0 -38 42 -42 80 -2 19 -5 41 -8 48 -3 7 5 12 19 12 13 0 29 6 36
14 6 8 17 13 25 10 7 -3 16 0 21 7 4 8 3 10 -4 5 -16 -9 -15 7 0 22 9 9 8 12
-4 12 -9 0 -19 -8 -21 -17 -3 -12 -5 -8 -6 9 0 14 -6 28 -12 30 -7 2 -13 17
-15 33 -2 15 -9 32 -16 36 -10 7 -10 9 1 9 11 0 10 4 -4 13 -17 13 -17 14 4
20 11 3 19 1 15 -4 -3 -5 -1 -9 5 -9 5 0 11 6 14 13 2 7 10 0 17 -15 21 -45
27 -32 18 39 -4 37 -4 69 0 73 4 3 16 18 26 34 14 23 20 26 28 15 8 -11 9 -10
4 4 -6 19 16 72 33 79 10 4 81 95 81 104 0 4 7 12 16 19 14 10 12 15 -22 35
-67 41 -86 50 -104 50 -10 0 -20 5 -22 10 -2 7 -8 6 -16 -2z"/>
</g>
</svg>
