<?xml version="1.0" standalone="no"?>
<!DOCTYPE svg PUBLIC "-//W3C//DTD SVG 20010904//EN"
 "http://www.w3.org/TR/2001/REC-SVG-20010904/DTD/svg10.dtd">
<svg version="1.0" xmlns="http://www.w3.org/2000/svg"
 width="1400.000000pt" height="1400.000000pt" viewBox="0 0 1400.000000 1400.000000"
 preserveAspectRatio="xMidYMid meet">
<metadata>
Created by potrace 1.16, written by Peter Selinger 2001-2019
</metadata>
<g transform="translate(0.000000,1400.000000) scale(0.100000,-0.100000)"
fill="#000000" stroke="none">
<path d="M11430 10584 c0 -3 9 -17 20 -31 24 -31 25 -43 4 -43 -20 0 -47 -27
-49 -49 0 -9 -5 -23 -10 -30 -5 -9 -2 -18 11 -27 10 -7 25 -18 32 -24 10 -9
12 -685 10 -3381 -3 -3323 -3 -3371 -22 -3385 -17 -12 -644 -14 -4482 -14
-4044 0 -4464 1 -4478 16 -9 9 -16 32 -16 54 0 24 -5 40 -15 44 -8 3 -15 0
-15 -6 0 -6 -3 -9 -6 -5 -9 9 -34 -19 -34 -37 0 -20 -13 -20 -50 -1 l-30 16 0
-94 c0 -145 19 -350 45 -479 17 -88 35 -142 73 -221 64 -136 103 -175 239
-239 123 -59 261 -90 472 -107 188 -15 8414 -15 8602 0 211 17 349 48 472 107
136 64 175 103 239 239 59 123 90 261 107 472 15 187 15 6215 0 6402 -17 211
-48 349 -107 472 -64 136 -103 175 -239 239 -123 59 -261 90 -472 107 -146 12
-301 14 -301 5z"/>
<path d="M4919 9816 c-2 -2 -422 -6 -932 -9 -511 -3 -932 -8 -935 -12 -9 -8
-15 -5541 -7 -5573 l6 -24 422 6 c232 3 464 8 515 12 70 4 97 3 109 -8 12 -9
15 -9 9 -1 -5 9 2 13 26 15 46 2 50 1 72 -8 14 -5 17 -4 12 4 -5 9 13 12 68
12 42 0 76 3 76 8 0 10 92 9 109 -2 10 -6 12 -6 7 2 -5 8 1 12 16 13 127 2
324 12 327 15 2 2 -329 4 -736 4 -559 0 -742 3 -745 12 -2 6 5 37 15 67 19 54
20 113 28 1546 5 820 13 1904 18 2410 8 912 8 921 30 988 38 117 125 191 256
217 84 17 269 19 2440 30 2762 15 4497 29 4569 36 55 6 64 4 72 -12 5 -11 11
-172 14 -359 3 -187 8 -302 10 -255 2 47 4 124 4 172 -1 48 2 85 6 83 4 -3 6
17 4 43 -3 26 1 57 8 70 9 17 9 28 1 41 -7 11 -8 23 -1 34 5 10 6 23 2 30 -5
8 -4 9 4 2 6 -5 12 -21 15 -35 2 -14 5 -2 5 25 1 35 -1 45 -8 35 -7 -12 -9
-10 -7 7 0 12 4 20 7 18 4 -2 7 56 8 128 1 73 5 144 8 160 4 21 2 27 -11 27
-9 0 -13 -4 -10 -10 3 -5 -1 -10 -10 -10 -10 0 -14 5 -9 13 6 10 4 10 -7 0 -7
-7 -24 -13 -37 -13 -16 0 -21 4 -16 13 6 9 5 9 -7 0 -10 -8 -40 -12 -76 -10
-36 1 -56 5 -50 10 12 9 -53 0 -80 -10 -12 -5 -14 -3 -8 7 6 10 4 12 -8 7 -8
-3 -44 -8 -79 -12 -46 -4 -58 -2 -43 5 15 7 9 8 -24 4 -25 -4 -65 -8 -90 -9
-40 -2 -43 -1 -27 11 14 10 80 13 294 13 151 1 277 3 280 6 3 3 -167 5 -379 6
-211 0 -391 0 -399 0 -8 1 -1162 0 -2563 -1 -1401 0 -2551 1 -2556 4 -4 3 -10
4 -12 2z"/>
<path d="M3950 8773 l0 -247 36 60 c104 172 278 335 437 410 l52 24 -262 0
-263 0 0 -247z"/>
<path d="M6670 8989 c359 -56 526 -72 1000 -99 227 -13 352 -30 470 -66 111
-34 268 -108 375 -178 158 -103 339 -302 375 -411 10 -31 10 -40 -3 -52 -18
-18 -9 -24 -217 132 -168 126 -240 172 -363 230 -150 71 -263 97 -432 98 -118
1 -302 -13 -380 -28 -17 -4 -9 -17 57 -85 120 -125 168 -244 168 -413 0 -81 2
-89 18 -82 149 57 308 77 412 51 54 -13 202 -79 260 -116 8 -5 51 -26 95 -46
74 -34 93 -50 257 -215 197 -198 269 -291 298 -387 58 -188 -17 -238 -268
-177 -120 29 -171 31 -214 9 -26 -14 -34 -14 -56 -2 -37 19 -92 98 -157 223
-79 151 -92 172 -143 233 -81 97 -163 118 -198 50 -14 -28 -14 -42 6 -186 38
-269 13 -454 -89 -669 -66 -136 -128 -229 -197 -292 -54 -49 -55 -51 -32 -60
95 -37 158 -66 423 -200 l300 -151 14 33 c15 37 8 109 -14 144 -9 12 -34 32
-57 44 -34 18 -53 20 -117 16 -42 -2 -102 -10 -134 -18 -61 -14 -89 -7 -95 23
-4 20 80 146 167 250 90 108 159 158 219 158 103 0 206 -119 273 -315 19 -55
24 -91 24 -167 0 -94 -1 -98 -45 -185 l-46 -89 44 -76 44 -75 46 9 c94 17 228
77 302 136 88 69 134 135 171 247 22 66 23 85 23 360 1 334 -4 313 105 440 99
115 135 205 147 365 12 160 -32 473 -96 682 -81 263 -207 471 -455 753 -53 61
-106 127 -118 147 l-22 38 -1165 -1 -1165 -1 185 -29z m1814 -109 c84 -28 206
-92 294 -152 112 -77 305 -273 381 -387 151 -228 245 -505 272 -801 22 -237
-11 -353 -127 -457 -174 -153 -180 -161 -198 -242 -9 -41 -23 -116 -31 -168
-12 -83 -46 -173 -64 -173 -19 0 -62 57 -82 107 -20 49 -24 76 -24 178 0 106
2 124 22 155 26 41 71 69 166 100 99 32 156 74 189 140 68 133 53 395 -39 675
-95 293 -227 517 -413 704 -109 110 -177 163 -331 258 -59 38 -108 71 -109 76
0 12 35 8 94 -13z"/>
<path d="M9649 8983 c78 -46 199 -158 258 -237 l43 -58 0 166 0 166 -182 0
-183 0 64 -37z"/>
<path d="M6874 8804 c-182 -31 -473 -224 -541 -358 -36 -70 -63 -171 -63 -232
0 -28 -3 -72 -6 -96 l-6 -46 -97 -32 c-150 -52 -241 -92 -322 -144 -172 -111
-262 -205 -355 -366 -74 -129 -123 -173 -301 -264 -233 -119 -247 -154 -124
-299 28 -31 52 -66 56 -77 23 -73 -116 -126 -311 -118 -144 6 -208 30 -285
107 -64 65 -99 142 -99 222 0 145 111 246 395 358 286 113 317 135 428 300
117 175 266 305 425 372 96 40 140 52 322 89 188 39 280 67 280 86 0 40 66
181 104 222 l41 45 -35 -7 c-195 -40 -357 -53 -825 -67 -357 -10 -362 -11
-715 -97 -410 -101 -610 -136 -749 -131 -87 4 -94 6 -117 32 l-24 28 1 -1518
c1 -1332 2 -1511 15 -1459 28 116 116 249 227 345 80 69 155 115 373 232 830
444 937 514 1049 690 25 38 52 72 61 76 56 21 138 -191 120 -312 -3 -16 -8
-47 -11 -68 l-6 -38 39 20 c22 11 42 27 46 36 14 36 18 213 7 283 -21 135 -40
174 -176 366 -45 65 -53 119 -27 178 31 72 196 311 263 382 69 74 154 141 246
194 38 22 64 44 66 56 2 12 5 -12 6 -52 0 -42 -3 -71 -8 -68 -17 11 -149 -106
-231 -204 -30 -36 -81 -106 -112 -156 -123 -194 -126 -230 -30 -430 81 -172
96 -229 96 -384 l1 -126 111 51 c61 27 132 59 159 69 46 19 47 19 41 55 -18
97 -19 151 -2 195 29 75 53 86 133 61 18 -6 24 -1 37 30 23 53 20 117 -4 148
-25 31 -55 116 -64 178 -4 30 2 18 17 -36 24 -82 49 -139 67 -150 13 -8 13
-112 -1 -172 -10 -44 -9 -53 11 -93 56 -111 143 -207 297 -328 127 -100 150
-106 226 -63 90 51 334 298 323 327 -3 9 0 11 11 7 11 -4 14 -3 9 6 -4 6 -4
17 1 24 5 7 10 25 12 42 2 16 10 35 19 42 14 10 15 12 2 13 -13 1 -13 2 0 13
8 7 16 25 18 40 l3 28 -38 -20 c-21 -10 -56 -33 -77 -50 -40 -32 -164 -96
-172 -89 -2 2 20 17 49 32 28 16 54 32 57 36 5 8 99 76 188 137 58 39 129 133
116 154 -4 7 -3 10 4 6 6 -5 13 9 17 35 4 24 11 48 16 54 5 6 9 22 9 35 -1 25
8 112 14 141 2 9 -2 19 -9 22 -8 3 -11 14 -8 28 5 23 5 23 -11 3 -17 -20 -17
-19 -11 8 3 15 1 27 -4 27 -5 0 -7 10 -5 23 4 18 3 20 -7 7 -10 -14 -18 -14
-73 3 -81 25 -126 47 -126 63 0 8 -6 11 -17 7 -10 -4 -14 -2 -10 4 10 16 -65
63 -109 69 -39 6 -39 5 -18 -13 12 -10 38 -31 58 -47 26 -20 34 -32 26 -40 -5
-5 -10 -22 -10 -37 0 -15 -4 -30 -9 -34 -6 -3 -8 8 -4 28 4 24 1 34 -8 35 -47
3 -97 17 -114 32 -23 20 -48 30 -90 37 -16 3 -37 11 -45 18 -8 7 -24 15 -35
17 -27 5 -30 30 -5 58 11 12 20 26 21 29 9 66 27 104 56 115 16 7 73 -47 73
-68 0 -19 50 -59 95 -77 73 -28 233 -23 221 7 -3 7 -1 16 4 19 18 11 10 25
-17 32 l-28 7 30 7 30 6 -25 11 -25 11 30 0 c17 1 55 -5 85 -13 64 -17 86 -7
88 38 1 46 -26 114 -49 121 -11 4 -16 11 -13 18 5 8 2 8 -7 0 -16 -15 -33 -17
-24 -3 3 6 2 10 -4 10 -5 0 -12 -4 -16 -10 -3 -5 -12 -7 -20 -4 -11 5 -12 9
-2 19 7 7 15 11 20 8 4 -2 7 0 7 5 0 13 -32 39 -55 44 -11 2 -19 10 -18 16 2
7 -7 12 -20 13 -12 1 -51 2 -87 3 -78 3 -130 14 -130 28 0 5 -10 18 -22 29
-13 10 -18 18 -11 19 6 0 14 -6 17 -12 3 -7 2 0 -1 16 -5 24 -3 28 11 23 11
-5 16 -1 16 13 0 11 5 20 10 20 6 0 10 -5 10 -11 0 -6 7 -3 16 5 10 10 26 14
44 11 24 -4 28 -2 23 12 -4 11 -3 14 6 9 8 -5 20 0 31 12 16 17 17 21 4 26 -8
3 -13 2 -10 -3 3 -5 -1 -11 -9 -15 -8 -3 -15 -2 -15 2 0 5 -22 7 -49 6 -38 -1
-48 2 -44 12 4 10 -1 13 -18 11 -12 -2 -26 -12 -30 -23 -4 -10 -8 -13 -8 -6
-1 9 -8 11 -21 7 -33 -10 -63 4 -57 27 3 11 3 17 0 14 -3 -3 -18 3 -32 13 -14
10 -39 21 -54 25 -15 4 -25 11 -22 16 3 6 -3 10 -14 10 -12 0 -20 3 -19 8 2
10 -20 62 -27 62 -4 0 -3 -4 0 -10 11 -17 -4 -11 -26 11 -15 15 -24 18 -34 9
-11 -9 -12 -7 -8 11 4 15 3 20 -5 15 -8 -5 -12 1 -12 14 0 13 -8 24 -20 27
-11 3 -20 13 -21 22 0 10 -2 11 -6 4 -2 -7 -10 -13 -16 -13 -5 0 -7 3 -4 7 10
10 -31 35 -45 27 -7 -4 -8 -3 -4 4 5 8 0 12 -13 12 -11 0 -23 5 -26 10 -4 6
-11 8 -16 5 -5 -4 -9 -2 -9 3 0 8 29 19 100 38 14 4 37 15 51 25 20 14 33 16
65 9 43 -10 77 6 36 16 -14 4 -22 14 -22 28 0 17 2 18 10 6 5 -8 10 -10 10 -5
0 6 5 3 10 -6 11 -18 68 -23 87 -7 7 6 20 8 28 4 9 -3 13 -2 10 4 -3 6 0 10 7
11 7 0 4 4 -7 8 -19 8 -19 8 5 16 40 13 63 11 100 -6 19 -10 39 -14 45 -11 17
11 75 13 75 3 0 -7 9 -7 26 -1 22 9 29 7 44 -10 9 -11 21 -20 25 -20 5 0 23
-12 42 -26 19 -14 37 -23 41 -19 6 6 -11 20 -32 28 -5 2 -6 9 -1 16 6 11 10
10 17 -3 5 -9 15 -16 22 -16 8 0 24 -13 37 -30 28 -35 45 -40 27 -8 -17 30
-29 40 -117 99 -41 27 -81 47 -88 44 -8 -2 -11 0 -8 5 15 24 -201 90 -280 87
-16 0 -62 -6 -101 -13z m375 -1658 c29 -34 -29 -76 -107 -77 -27 -1 -59 4 -72
11 -20 11 -22 10 -16 -5 5 -15 4 -16 -9 -5 -8 7 -15 8 -15 3 0 -5 -15 -9 -34
-9 -19 1 -34 6 -33 11 1 6 -6 9 -15 7 -9 -1 -20 3 -24 10 -19 30 -11 35 45 34
31 -1 67 2 81 7 72 26 183 33 199 13z"/>
<path d="M7520 8524 c0 -11 13 -33 30 -49 16 -15 27 -32 24 -36 -2 -4 0 -10 6
-14 6 -4 8 -10 5 -15 -3 -5 -1 -11 5 -15 9 -5 40 -69 40 -82 0 -2 -5 -1 -11 3
-7 4 -7 -1 1 -16 6 -12 10 -31 7 -41 -3 -10 1 -22 7 -27 7 -4 16 -20 20 -35 5
-20 3 -27 -5 -22 -14 9 -3 -32 15 -54 8 -11 8 -13 -1 -7 -9 5 -11 -3 -7 -33 3
-22 1 -49 -6 -60 -6 -13 -7 -21 -1 -21 5 0 8 -12 7 -27 -2 -16 -4 -36 -5 -46
-1 -11 -6 -16 -13 -12 -7 4 -4 0 6 -9 17 -13 17 -16 3 -21 -15 -6 -15 -17 -7
-100 2 -24 26 47 41 120 8 43 7 52 -8 62 -15 12 -15 13 4 13 18 0 23 8 29 46
11 78 -1 223 -26 287 -12 31 -26 57 -31 57 -6 0 -8 4 -5 8 8 14 -33 74 -46 66
-6 -4 -8 -3 -5 3 4 6 -11 30 -33 54 -32 37 -39 40 -40 23z"/>
<path d="M7519 8161 c-6 -50 -2 -78 11 -89 13 -10 12 -11 -4 -5 -16 5 -18 2
-13 -23 10 -54 32 -104 44 -104 7 0 13 5 13 11 0 5 -5 7 -10 4 -6 -4 -3 9 6
29 10 19 21 33 26 30 15 -10 8 9 -9 23 -13 10 -14 13 -3 10 23 -6 45 20 31 37
-6 7 -9 21 -5 30 4 10 1 16 -7 16 -11 0 -11 2 1 10 20 13 9 21 -39 27 -27 4
-41 2 -42 -6z"/>
<path d="M9926 7818 c-28 -205 -72 -419 -120 -578 -105 -347 -146 -522 -176
-756 -31 -245 -72 -375 -158 -501 -103 -152 -322 -297 -560 -370 -89 -27 -92
-29 -86 -53 4 -14 21 -89 39 -168 17 -78 34 -145 37 -148 7 -6 110 17 193 44
71 23 419 157 524 202 153 65 238 77 299 40 l32 -20 0 1220 c0 671 -1 1220 -3
1220 -2 0 -11 -60 -21 -132z"/>
<path d="M7011 6307 c-13 -16 -87 -39 -112 -34 -10 2 -24 9 -33 16 -14 12 -24
11 -64 -4 -43 -16 -133 -73 -191 -120 -68 -56 -71 -60 -62 -74 7 -12 13 -12
24 -3 18 15 27 6 27 -27 1 -24 2 -24 16 9 13 31 13 36 0 46 -26 18 4 47 51 50
37 2 41 -1 56 -35 25 -58 29 -81 17 -81 -6 0 -8 -5 -4 -11 5 -8 9 -7 14 1 6 9
13 4 23 -17 15 -28 14 -35 -8 -99 -33 -96 -43 -196 -50 -524 -4 -157 -10 -298
-14 -315 -16 -65 -16 -65 159 -65 l158 0 -3 58 c-8 133 -24 418 -26 465 0 9
-19 35 -42 57 -22 22 -38 40 -35 40 3 0 2 18 -2 40 -7 37 -6 40 24 51 17 7 34
14 39 17 4 2 4 -5 1 -15 -5 -15 -4 -15 5 -3 7 10 6 19 -5 31 -8 8 -11 19 -7
23 4 4 0 12 -10 17 -9 6 -15 14 -12 19 3 5 0 20 -7 32 -16 31 -20 58 -8 58 6
0 10 -5 10 -11 0 -8 4 -8 13 -1 13 11 42 -10 30 -22 -4 -3 -1 -6 5 -6 14 0 14
9 2 70 -7 41 -6 48 21 81 16 20 29 40 29 44 0 8 92 119 103 123 4 2 7 10 7 17
0 7 8 15 18 17 12 3 3 13 -33 36 -27 18 -61 35 -75 39 -14 3 -28 10 -31 15 -3
5 -11 3 -18 -5z"/>
</g>
</svg>
