<?xml version="1.0" standalone="no"?>
<!DOCTYPE svg PUBLIC "-//W3C//DTD SVG 20010904//EN"
 "http://www.w3.org/TR/2001/REC-SVG-20010904/DTD/svg10.dtd">
<svg version="1.0" xmlns="http://www.w3.org/2000/svg"
 width="1886.000000pt" height="1696.000000pt" viewBox="0 0 1886.000000 1696.000000"
 preserveAspectRatio="xMidYMid meet">
<metadata>
Created by potrace 1.16, written by Peter Selinger 2001-2019
</metadata>
<g transform="translate(0.000000,1696.000000) scale(0.100000,-0.100000)"
fill="#000000" stroke="none">
<path d="M10628 16597 c24 -12 40 -26 37 -30 -3 -4 -2 -5 1 -2 4 2 30 -8 58
-22 28 -15 54 -27 58 -28 3 0 10 -4 15 -9 5 -5 3 -6 -4 -2 -7 4 -13 2 -13 -3
0 -6 -6 -11 -13 -11 -7 0 -55 -25 -106 -55 -51 -30 -95 -55 -97 -55 -2 0 -25
-13 -52 -29 -26 -15 -68 -40 -93 -53 -24 -14 -156 -91 -294 -170 -503 -291
-784 -453 -945 -546 -91 -52 -193 -112 -227 -133 -34 -22 -64 -39 -67 -39 -2
0 -71 -39 -153 -86 -122 -71 -531 -307 -648 -374 -76 -44 -1140 -658 -1220
-705 -49 -29 -139 -81 -200 -115 -60 -35 -146 -84 -190 -110 -44 -26 -275
-159 -514 -296 -479 -275 -517 -303 -584 -432 -75 -143 -70 7 -65 -1846 l4
-1661 34 -60 c20 -33 42 -73 50 -90 8 -16 17 -32 20 -35 6 -6 38 -110 77 -248
15 -50 28 -90 31 -87 2 2 7 147 11 322 8 362 9 369 95 461 l46 49 0 389 c0
426 3 450 60 563 16 33 51 86 78 118 l50 59 6 650 c4 357 12 678 17 714 42
279 213 601 429 810 102 99 172 146 490 329 146 84 321 186 390 226 69 40 217
125 330 190 219 127 318 184 835 482 182 105 492 284 690 398 1231 710 1669
965 1754 1018 l34 21 59 -32 58 -33 0 160 c0 228 -19 293 -97 332 -16 8 -69
37 -118 65 -50 29 -106 55 -125 58 l-35 7 43 -24z"/>
<path d="M10810 15894 c-63 -37 -216 -125 -340 -197 -124 -72 -331 -191 -460
-265 -129 -75 -275 -159 -325 -188 -49 -29 -130 -76 -180 -104 -101 -57 -141
-80 -270 -155 -49 -29 -106 -62 -125 -73 -219 -125 -408 -234 -420 -241 -76
-49 -174 -100 -184 -94 -6 3 -8 3 -4 -2 11 -11 -100 -77 -115 -69 -7 4 -9 4
-5 -1 8 -9 -7 -19 -102 -72 -64 -36 -280 -160 -360 -208 -30 -18 -75 -44 -100
-57 -25 -14 -126 -72 -225 -130 -298 -174 -345 -199 -357 -192 -7 4 -8 3 -4
-4 7 -11 -6 -17 -27 -13 -5 1 -6 -3 -3 -8 3 -5 -5 -12 -19 -15 -14 -4 -25 -11
-25 -17 0 -6 -4 -7 -10 -4 -5 3 -10 2 -10 -3 0 -6 -7 -13 -16 -16 -9 -4 -13
-2 -8 5 3 6 -5 3 -20 -6 -14 -10 -26 -22 -26 -27 0 -5 -4 -6 -10 -3 -5 3 -10
1 -10 -4 0 -6 -9 -11 -21 -11 -11 0 -18 -4 -15 -9 3 -5 -1 -12 -10 -15 -10 -4
-13 -2 -8 7 4 6 -5 -1 -20 -16 -16 -17 -33 -27 -42 -23 -8 3 -13 2 -10 -3 3
-4 -29 -27 -72 -51 -42 -24 -89 -52 -104 -63 -16 -10 -34 -15 -40 -11 -7 4
-10 4 -6 -1 4 -4 -31 -31 -77 -60 -277 -174 -496 -486 -593 -845 l-25 -95 -4
-517 c-3 -389 -1 -518 7 -518 7 0 24 8 38 19 15 10 108 65 207 121 186 106
226 129 555 320 107 62 285 164 395 228 233 134 353 203 485 280 52 31 124 72
160 92 59 34 116 66 425 245 50 29 133 77 185 107 52 30 140 81 195 113 307
179 475 273 475 267 0 -4 4 -2 8 5 9 15 372 225 390 226 6 0 12 4 12 8 0 4 37
28 83 53 45 25 100 57 122 70 22 13 141 82 265 153 124 72 270 156 325 188 55
32 136 79 180 103 44 24 91 52 105 62 14 9 50 31 80 47 30 17 97 54 148 84
l92 53 -1 336 c-1 184 -5 548 -8 808 l-6 472 -115 -66z m-880 -965 c0 -41 4
-59 13 -59 6 0 -25 -23 -71 -50 -46 -28 -84 -50 -85 -50 -1 0 -2 36 -2 80 l0
80 35 17 c19 10 45 26 58 35 38 28 52 14 52 -53z m-182 -11 c-2 -15 -9 -22
-21 -22 -20 2 -22 -9 -6 -35 15 -22 6 -60 -20 -88 l-20 -21 32 2 c27 1 32 -3
35 -25 4 -33 -37 -83 -90 -110 -45 -23 -64 -15 -53 20 7 24 35 29 35 6 0 -23
28 -18 56 10 33 34 22 49 -20 28 -47 -22 -69 -12 -56 23 8 19 7 31 0 38 -20
20 -11 63 22 95 17 17 38 31 45 31 7 0 13 7 13 16 0 25 19 54 36 54 10 0 14
-8 12 -22z m573 -208 c4 0 16 -14 25 -31 14 -27 14 -40 4 -91 -6 -33 -10 -61
-8 -61 78 -38 138 -74 138 -83 0 -6 -7 -17 -15 -24 -12 -10 -24 -7 -62 15 -27
15 -57 36 -69 47 -21 19 -21 19 -38 -7 -23 -35 -74 -65 -110 -65 -45 0 -66 25
-66 81 0 53 11 84 52 145 28 43 102 88 126 79 8 -3 18 -5 23 -5z m-1191 -184
c0 -57 2 -111 5 -118 5 -12 -36 -41 -55 -40 -3 1 -15 -8 -27 -20 -35 -32 -57
-21 -61 33 -4 60 11 96 49 117 28 16 30 20 26 60 -4 38 -2 44 22 57 14 8 29
14 34 15 4 0 7 -47 7 -104z m-329 -96 c1 -5 2 -16 3 -22 5 -33 -39 -52 -47
-20 -3 9 -5 0 -6 -21 -1 -36 0 -37 22 -27 l22 11 -22 -17 c-20 -14 -23 -26
-23 -81 0 -55 2 -64 16 -59 29 11 4 -12 -39 -36 l-42 -24 1 82 c1 45 4 86 6
90 3 5 8 26 12 46 7 37 40 73 58 62 5 -3 8 -2 7 3 -3 17 1 23 16 23 8 0 16 -4
16 -10z m147 -60 c3 -56 -24 -104 -72 -127 -45 -21 -66 -6 -66 46 0 48 18 81
60 109 52 35 74 27 78 -28z m742 21 l45 -27 0 -149 0 -150 -175 -101 c-743
-429 -1039 -600 -1129 -651 l-104 -60 -54 31 -53 30 0 147 c0 123 2 148 15
153 9 3 163 91 343 195 180 104 491 284 692 400 201 116 367 210 370 210 3 0
25 -13 50 -28z m-1060 -202 c3 -30 8 -59 12 -65 4 -6 -8 -19 -30 -32 l-37 -21
3 72 c2 52 0 68 -7 57 -6 -8 -11 -43 -11 -77 0 -59 -1 -62 -36 -82 -40 -24
-48 -26 -38 -9 8 12 7 103 -2 130 -3 12 6 22 33 34 21 10 49 26 62 36 35 27
45 18 51 -43z m-933 -346 c155 -79 220 -169 244 -334 15 -104 3 -227 -37 -364
-35 -124 -118 -296 -174 -362 -5 -7 -10 -15 -10 -19 0 -13 -95 -127 -156 -188
-64 -63 -154 -131 -204 -155 -23 -11 -24 -11 -6 3 10 8 24 17 30 19 7 3 4 17
-8 41 -17 32 -18 39 -6 62 11 20 11 29 2 44 -6 11 -8 22 -3 25 5 3 12 -1 15
-7 2 -7 4 1 4 17 -1 17 6 47 15 68 9 20 15 39 14 41 -1 1 4 11 12 20 20 23 1
42 -27 27 -14 -8 -6 12 29 71 50 83 85 178 75 203 -2 7 2 19 9 25 21 17 55
116 59 168 4 50 -10 75 -35 61 -16 -8 -50 -6 -68 6 -5 3 -12 1 -16 -5 -3 -5
-1 -10 4 -10 6 0 11 -8 11 -17 0 -15 -10 -18 -55 -20 -55 -1 -55 -1 -48 25 16
70 34 90 47 56 5 -12 13 -14 34 -9 38 9 74 34 69 48 -4 14 9 29 41 46 33 17
28 47 -11 66 -30 14 -36 14 -63 0 -61 -31 -72 -10 -23 41 27 28 29 32 10 27
-11 -3 -21 -9 -21 -14 0 -5 -9 -9 -20 -9 -11 0 -20 -6 -20 -12 0 -9 -3 -9 -8
-3 -8 13 -80 35 -111 35 -29 0 -26 12 13 51 19 18 32 37 30 41 -3 5 -2 7 3 6
4 -2 19 5 33 15 13 9 20 17 15 17 -14 1 117 59 135 60 10 1 8 4 -5 10 -26 10
-91 2 -131 -17 -52 -23 -169 -156 -157 -177 3 -6 3 -8 -2 -4 -4 4 -18 -8 -30
-26 -41 -60 -53 -122 -58 -284 -5 -142 -3 -156 14 -173 10 -10 19 -26 19 -34
0 -8 9 -42 21 -76 12 -35 19 -74 16 -92 -7 -43 29 -89 82 -107 41 -13 52 -32
28 -47 -8 -4 -22 -20 -31 -35 -13 -20 -14 -28 -5 -34 8 -4 9 -3 5 4 -4 7 -5
12 -2 12 2 0 11 -14 20 -31 10 -21 12 -37 6 -54 -5 -13 -11 -60 -14 -105 -5
-80 -5 -81 17 -75 16 4 14 1 -7 -11 -16 -9 -34 -17 -40 -19 -6 -1 -20 -6 -31
-11 -11 -5 -65 -9 -120 -9 -86 0 -106 3 -145 24 -97 52 -168 105 -184 138 -9
18 -20 33 -26 33 -14 0 -37 50 -56 117 -18 70 -20 223 -4 313 57 315 273 650
525 814 171 111 321 127 472 49z"/>
<path d="M10245 14678 c-61 -33 -106 -105 -107 -170 -1 -119 131 -87 183 44
38 97 -4 166 -76 126z"/>
<path d="M10952 13813 l-2 -521 -31 -19 c-26 -17 -28 -21 -15 -33 22 -18 22
-118 0 -127 -13 -5 -13 -7 -2 -14 7 -5 21 -9 31 -9 15 0 17 10 17 71 0 44 -4
68 -10 64 -23 -14 -8 14 16 30 19 12 23 20 15 29 -7 9 -12 185 -14 532 l-2
519 -3 -522z"/>
<path d="M9961 12715 c-15 -20 -25 -24 -45 -19 -23 5 -28 1 -46 -37 -21 -48
-26 -119 -10 -150 18 -32 25 -22 25 34 1 55 30 127 54 135 10 3 10 0 2 -16
-19 -35 -13 -78 12 -95 22 -14 22 -14 19 25 -5 50 13 94 49 115 33 20 29 33
-11 33 -19 0 -35 -9 -49 -25z"/>
<path d="M10962 12094 c-2 -596 -3 -642 -19 -656 -31 -26 -110 -57 -131 -51
-17 4 -23 -1 -28 -21 -3 -14 -12 -26 -20 -26 -19 0 -47 -46 -42 -68 3 -11 2
-39 -2 -64 -5 -37 -3 -47 11 -56 23 -14 31 9 30 82 0 46 3 53 29 71 16 11 31
29 32 40 2 11 12 21 22 23 15 3 17 0 11 -14 -15 -36 -17 -74 -5 -89 20 -25 32
-6 29 48 -3 45 0 52 21 61 14 6 31 16 38 23 7 7 19 13 26 13 8 0 19 7 26 15
11 13 10 18 -4 28 -14 11 -16 71 -19 647 l-2 635 -3 -641z"/>
<path d="M9032 12139 c-46 -23 -152 -114 -152 -130 0 -5 13 -3 30 6 34 17 40
18 40 6 0 -5 -12 -14 -28 -20 -15 -6 -36 -25 -47 -41 -11 -17 -25 -28 -32 -26
-24 10 -73 -140 -73 -226 0 -67 12 -103 43 -129 141 -119 402 107 433 376 8
64 -9 127 -45 167 -37 42 -107 49 -169 17z"/>
<path d="M8458 11872 c-44 -24 -46 -26 -40 -61 l5 -35 -26 17 c-14 9 -34 17
-42 17 -24 0 -75 -55 -75 -79 0 -20 -1 -21 -24 -6 -23 15 -27 15 -73 -12 -44
-26 -48 -31 -45 -62 l4 -34 -26 16 c-36 24 -53 21 -87 -12 -22 -23 -29 -26
-29 -13 0 10 -9 23 -20 30 -17 10 -26 10 -51 -4 -23 -11 -28 -19 -20 -27 6 -6
11 -39 11 -74 l0 -62 -25 24 c-32 32 -60 32 -92 -2 -14 -16 -30 -27 -35 -25
-20 6 -49 -10 -44 -23 3 -9 0 -12 -9 -9 -12 5 -29 -1 -63 -24 -10 -7 -7 -19
13 -54 14 -25 32 -51 40 -58 15 -13 55 -5 55 11 0 6 -5 7 -12 3 -6 -4 -8 -3
-4 4 3 6 2 13 -4 17 -5 3 -10 14 -9 23 0 12 3 11 9 -5 11 -28 30 -30 30 -4 0
25 18 37 33 22 14 -14 57 -15 57 -1 0 5 -8 7 -17 4 -14 -4 -15 -3 -5 4 11 7
11 10 -1 15 -16 6 -17 30 -3 44 4 4 7 4 6 -2 -5 -22 1 -29 11 -15 8 12 9 10 4
-8 -9 -33 23 -42 46 -13 10 12 24 21 31 20 7 -2 27 4 44 13 27 15 30 21 26 53
l-4 37 28 -18 c25 -17 27 -17 22 -2 -5 13 -3 15 10 11 15 -6 15 -5 3 10 -8 10
-11 20 -7 24 3 3 6 1 6 -6 0 -7 4 -10 9 -7 11 7 9 -13 -2 -31 -10 -16 -5 -16
28 -1 17 8 25 19 25 37 0 14 4 32 9 40 6 9 8 0 7 -28 -2 -33 2 -46 18 -57 17
-12 22 -12 36 1 9 8 21 15 26 15 6 0 15 5 21 11 8 8 5 18 -14 35 -23 21 -24
24 -7 24 33 1 67 34 68 68 1 29 2 30 22 18 14 -10 25 -11 38 -4 14 8 17 7 11
-2 -4 -7 4 -6 23 4 17 9 33 25 37 36 5 16 10 18 25 10 22 -12 43 8 30 30 -10
16 7 43 21 34 5 -3 7 8 5 24 -3 25 0 29 16 24 38 -10 50 38 15 61 -20 13 -26
12 -69 -11z"/>
<path d="M11720 11885 c-7 -8 -20 -15 -29 -15 -9 0 -21 -4 -26 -9 -6 -5 -59
-11 -120 -13 -88 -3 -118 -8 -151 -25 -44 -23 -98 -79 -108 -111 -4 -11 -20
-25 -36 -32 -22 -9 -27 -16 -21 -24 6 -7 11 -48 13 -91 3 -79 18 -106 28 -50
l5 29 37 -33 c24 -21 42 -49 53 -84 11 -33 30 -63 51 -82 19 -16 40 -48 47
-70 12 -34 23 -45 72 -71 59 -31 77 -48 118 -113 36 -55 71 -76 131 -76 89 0
153 60 201 190 53 139 53 277 1 390 -27 59 -141 182 -195 210 -17 9 -29 20
-26 25 4 6 1 10 -4 10 -6 0 -11 -4 -11 -9 0 -5 -9 -7 -20 -4 -25 7 -26 23 -2
23 21 0 56 33 45 43 -11 12 -40 8 -53 -8z"/>
<path d="M8675 11529 c-4 -5 -21 -16 -39 -23 -29 -12 -33 -18 -28 -42 4 -24 3
-26 -14 -20 -44 19 -54 17 -79 -9 -14 -16 -25 -36 -25 -46 0 -22 -4 -23 -30
-7 -16 10 -26 8 -58 -10 -22 -12 -52 -22 -67 -22 -18 0 -28 -6 -32 -20 -3 -11
-9 -20 -14 -20 -5 0 -18 -9 -29 -20 -19 -19 -22 -19 -37 -5 -22 23 -57 15 -61
-12 -2 -14 2 -23 10 -23 9 -1 7 -4 -4 -10 -10 -6 -14 -18 -11 -31 5 -19 4 -20
-16 -10 -25 14 -52 3 -75 -31 -21 -29 -20 -33 7 -59 16 -16 18 -20 5 -16 -10
3 -20 2 -23 -4 -4 -5 -11 -7 -16 -3 -6 4 -6 11 1 19 9 10 6 16 -10 25 -27 15
-57 5 -77 -26 -27 -42 -23 -76 10 -97 34 -21 59 -15 86 19 12 15 25 22 35 18
9 -3 16 -1 16 5 0 6 9 11 20 11 12 0 25 10 32 25 8 18 17 24 30 19 12 -3 18 0
18 10 0 8 4 18 10 21 6 3 7 -1 4 -10 -5 -11 -2 -14 10 -9 9 3 23 1 30 -5 8 -7
25 -9 39 -6 30 8 72 50 63 63 -3 6 0 13 6 16 9 3 6 11 -11 25 -21 19 -21 21
-5 21 11 0 25 -4 33 -9 18 -11 40 8 34 29 -4 13 -3 13 5 1 9 -13 16 -12 46 4
35 19 45 38 26 50 -5 3 -7 12 -3 21 5 13 8 13 29 -1 13 -8 31 -15 41 -15 15 0
16 2 3 10 -12 8 -9 10 12 10 17 0 31 8 38 19 6 12 17 17 28 14 10 -2 24 3 31
11 8 9 20 16 28 16 11 0 13 4 6 13 -6 6 -13 24 -15 39 -4 21 -1 28 15 30 30 5
32 43 2 56 -16 7 -26 8 -30 1z"/>
<path d="M7573 11368 c-13 -6 -23 -14 -23 -17 0 -3 -7 -15 -15 -25 -13 -18
-16 -18 -39 -2 -34 22 -52 20 -113 -12 -41 -21 -50 -30 -43 -42 14 -22 13
-147 -1 -152 -7 -2 0 -12 15 -21 25 -17 28 -17 49 0 12 10 22 25 21 33 0 8 1
10 3 3 3 -7 8 -13 12 -13 12 0 47 37 70 74 26 41 22 40 56 24 20 -9 31 -8 51
3 26 13 62 69 46 69 -5 0 -8 13 -6 30 3 24 -2 32 -26 45 -16 8 -30 15 -32 14
-2 0 -13 -5 -25 -11z"/>
<path d="M10962 10843 l-2 -462 -60 -93 c-80 -122 -233 -429 -248 -496 -7 -30
-12 -78 -12 -107 0 -45 5 -60 33 -96 57 -74 98 -94 155 -75 22 7 23 6 13 -12
-18 -34 -13 -68 12 -85 23 -15 24 -15 19 9 -6 33 15 80 46 100 23 15 23 17 8
26 -16 9 -16 12 5 34 12 13 26 21 31 18 4 -3 7 -216 6 -474 -2 -257 0 -471 3
-475 4 -3 18 0 32 6 22 10 32 8 71 -15 24 -14 47 -26 50 -26 3 0 7 46 7 103 1
98 2 100 10 40 27 -210 101 -356 204 -404 54 -25 151 -24 243 1 99 28 352 140
432 192 88 58 195 161 219 212 12 25 25 79 30 135 15 143 24 123 17 -39 -9
-189 -31 -420 -58 -595 -36 -232 -31 -479 15 -827 l37 -277 0 -560 0 -559 -25
-31 c-19 -22 -40 -33 -80 -41 -74 -15 -112 -6 -243 56 -62 30 -114 54 -117 54
-3 0 -5 -80 -5 -177 0 -121 -4 -186 -13 -202 -22 -44 -74 -66 -152 -66 -62 1
-79 5 -150 42 -44 22 -134 64 -200 93 -129 56 -165 75 -235 128 -88 66 -128
161 -97 234 25 59 50 63 253 44 97 -10 179 -14 182 -11 12 11 6 355 -7 465 -7
58 -32 206 -56 330 -24 124 -60 333 -80 465 -20 132 -49 327 -66 434 -31 208
-59 469 -59 561 0 31 -3 85 -6 119 l-7 61 -41 -23 c-23 -13 -394 -227 -826
-477 -432 -249 -841 -485 -910 -525 -69 -40 -168 -97 -220 -127 -52 -30 -187
-108 -300 -173 -113 -66 -257 -149 -320 -185 -174 -101 -847 -490 -1385 -800
-264 -152 -556 -321 -650 -375 -93 -54 -190 -110 -214 -123 l-43 -25 4 -443
c2 -244 2 -444 1 -444 -2 0 -25 12 -51 27 l-49 27 -6 180 c-4 98 -7 248 -7
333 0 84 -2 153 -5 153 -2 0 -26 -13 -52 -28 l-49 -29 -52 29 -52 30 -1 134
c-1 74 -3 139 -4 144 -1 6 -3 58 -4 116 -1 93 -3 105 -16 94 -8 -7 -15 -9 -15
-5 0 4 9 14 20 23 19 17 19 29 13 578 l-6 561 -39 24 c-21 13 -38 27 -38 32 0
4 -5 5 -12 1 -8 -5 -9 -2 -4 11 5 14 4 16 -7 7 -11 -9 -19 -7 -35 11 -48 51
-52 78 -52 370 0 151 -3 449 -7 663 l-6 389 -30 -27 c-37 -35 -70 -35 -132 -3
-45 24 -49 25 -66 9 -10 -9 -16 -21 -13 -25 3 -5 -1 -6 -9 -3 -8 3 -20 -2 -27
-11 -10 -12 -10 -36 -1 -123 20 -176 39 -250 92 -363 27 -58 49 -115 49 -126
0 -11 -9 -32 -20 -46 -11 -14 -20 -28 -20 -33 0 -10 -65 -88 -108 -129 -20
-20 -69 -52 -109 -72 -68 -33 -78 -36 -166 -35 -146 0 -327 42 -551 126 -38
15 -73 23 -77 19 -4 -5 -16 -37 -26 -72 l-20 -63 -489 -282 c-449 -260 -2596
-1499 -3106 -1794 -120 -69 -218 -128 -218 -132 0 -3 28 -22 63 -41 66 -37
1078 -621 1332 -769 83 -48 418 -242 745 -430 327 -189 809 -467 1070 -618
261 -151 624 -360 805 -465 182 -104 413 -238 515 -297 102 -59 277 -160 390
-225 113 -65 257 -148 320 -185 63 -37 223 -129 355 -205 132 -76 292 -168
355 -205 63 -36 178 -103 255 -147 77 -45 253 -146 390 -225 138 -80 356 -206
485 -280 129 -75 375 -217 545 -315 171 -99 383 -221 471 -272 l162 -93 318
184 c176 102 389 224 474 273 85 49 268 154 405 233 138 80 295 171 350 202
55 32 289 167 520 300 231 134 535 309 675 390 572 329 721 415 840 485 69 40
260 150 425 245 165 95 347 201 405 235 58 34 202 117 320 185 304 174 1050
603 1145 660 44 26 130 76 190 110 61 35 166 95 235 135 109 64 586 339 1650
953 157 91 391 225 520 300 129 74 267 154 305 177 39 23 149 87 245 142 349
199 620 358 620 363 0 3 -107 66 -238 141 -300 173 -1834 1059 -2127 1229
-121 70 -273 157 -337 195 l-118 67 0 98 0 98 -101 57 -100 57 -79 -46 c-44
-25 -84 -46 -89 -46 -6 0 -106 56 -223 123 -117 68 -449 260 -738 426 -289
167 -535 310 -548 318 -18 11 -23 11 -21 1 3 -27 -2 -44 -21 -68 -16 -20 -19
-21 -13 -5 5 16 4 18 -8 9 -8 -7 -32 -22 -54 -34 -30 -17 -40 -19 -44 -9 -2 8
-10 -2 -18 -21 -7 -19 -11 -25 -9 -12 2 12 0 22 -5 22 -5 0 -9 -12 -10 -27 0
-27 -1 -26 -14 8 -7 19 -23 55 -35 78 -19 38 -20 47 -9 67 7 13 16 24 21 24 5
0 6 -5 2 -12 -5 -7 -3 -8 5 -4 7 5 10 14 7 22 -3 9 1 14 13 14 30 0 52 11 44
23 -4 6 0 8 10 4 11 -4 14 -2 10 9 -4 12 0 14 22 8 20 -5 26 -4 21 5 -4 6 -1
11 8 11 9 0 16 4 16 10 0 17 -114 125 -175 166 -69 46 -309 184 -320 184 -4 0
-33 -16 -65 -35 l-57 -35 -151 88 c-83 48 -196 113 -251 145 l-101 58 0 97 0
98 -100 57 c-55 31 -101 57 -104 57 -2 0 -39 -20 -80 -45 -42 -25 -82 -45 -88
-45 -8 0 -61 28 -86 46 -2 1 15 82 37 180 68 307 75 416 31 556 -42 136 -116
193 -250 192 -90 -1 -172 -22 -294 -76 -50 -22 -126 -55 -169 -73 -43 -19
-113 -54 -157 -80 l-79 -46 -132 76 c-117 68 -135 76 -156 66 -13 -6 -26 -11
-28 -11 -3 0 -6 107 -8 238 -1 130 -3 29 -5 -225z m1888 -1297 c0 -2 7 -20 16
-41 8 -20 10 -34 5 -30 -15 9 -14 -8 2 -24 10 -11 9 -12 -2 -6 -9 5 -18 2 -25
-7 -17 -23 -76 -51 -76 -36 0 7 -13 -3 -28 -22 -22 -25 -31 -30 -37 -20 -6 9
-4 11 5 5 9 -6 11 -4 6 4 -6 9 -12 8 -26 -4 -16 -14 -19 -12 -39 36 -23 56
-26 73 -12 65 5 -3 25 5 45 19 20 14 40 25 44 25 4 1 25 14 47 29 30 22 44 27
58 20 9 -5 17 -11 17 -13z m1479 -863 c31 -38 37 -71 17 -91 -12 -12 -16 -13
-16 -3 0 8 -10 2 -21 -13 -12 -16 -27 -25 -36 -22 -8 3 -11 1 -8 -4 3 -6 1
-11 -4 -11 -6 -1 -15 -2 -20 -3 -5 0 -21 -13 -36 -28 -15 -16 -32 -28 -37 -28
-5 0 -18 21 -29 48 -26 61 -25 57 -15 59 5 1 12 7 17 14 4 7 14 14 23 15 9 1
22 9 31 17 8 9 24 19 35 22 11 3 20 11 20 16 0 6 5 7 10 4 12 -7 42 20 33 29
-4 3 -1 6 5 6 6 0 20 -12 31 -27z m344 -265 c-4 -19 -3 -20 6 -8 7 10 11 11
11 3 0 -13 -71 -64 -79 -57 -2 2 2 10 9 19 7 9 11 18 8 21 -3 2 -15 -15 -27
-38 -12 -24 -20 -33 -17 -20 2 12 0 20 -5 16 -18 -11 -8 -34 24 -56 32 -22 33
-25 23 -56 -6 -18 -14 -31 -17 -28 -3 3 -6 -7 -6 -24 0 -36 -11 -50 -23 -30
-6 8 -10 10 -10 5 0 -6 4 -15 10 -21 11 -11 2 -54 -12 -54 -5 0 -6 -4 -3 -10
3 -5 1 -18 -5 -27 -10 -16 -11 -16 -6 -1 3 9 0 18 -6 20 -6 2 -11 25 -12 50 0
25 -5 43 -10 40 -5 -3 -7 2 -3 11 3 9 2 17 -3 19 -4 2 -11 17 -14 33 -3 17
-12 51 -20 78 -8 26 -12 47 -9 47 3 0 -1 7 -8 17 -13 15 -12 15 9 2 12 -8 23
-21 23 -29 1 -12 2 -11 6 2 2 9 10 19 18 22 9 3 12 -1 9 -12 -2 -9 1 -6 8 8
15 31 29 41 46 35 7 -3 10 0 7 5 -3 6 0 10 8 10 8 0 20 7 27 15 7 8 20 15 30
15 14 0 17 -6 13 -22z m667 -363 c0 -64 -9 -93 -21 -73 -7 10 -9 10 -9 -2 0
-18 -58 -53 -72 -43 -7 3 -8 1 -4 -5 5 -8 -1 -12 -14 -12 -14 0 -24 -8 -27
-20 -4 -17 -11 -11 -34 32 -15 29 -28 56 -29 60 0 4 30 24 68 45 37 20 69 41
70 45 2 4 10 8 18 8 8 0 14 4 14 8 0 4 9 8 20 9 18 2 20 -4 20 -52z m926 -522
c16 -40 15 -43 -5 -72 -15 -20 -27 -28 -38 -24 -11 5 -14 3 -8 -6 6 -11 3 -11
-16 0 -23 12 -23 11 -9 -6 14 -17 13 -18 -4 -12 -13 5 -17 3 -13 -7 4 -11 -1
-13 -24 -9 -23 3 -28 1 -23 -11 5 -12 0 -16 -20 -16 -21 0 -31 10 -56 60 -19
38 -25 57 -16 54 8 -3 19 3 26 15 6 12 17 21 25 21 23 0 85 32 79 42 -3 4 2 5
10 2 9 -3 16 -1 16 6 0 6 5 8 10 5 6 -3 10 1 10 9 0 30 39 -6 56 -51z m572
-301 c22 -56 25 -75 11 -67 -8 6 -11 4 -7 -7 7 -16 -24 -48 -45 -48 -7 0 -29
-11 -47 -25 -19 -14 -36 -21 -38 -16 -2 6 -13 0 -25 -12 -12 -13 -21 -21 -20
-19 1 2 -12 26 -28 54 -28 48 -29 51 -12 65 10 8 13 12 6 9 -6 -4 -15 -2 -18
4 -4 6 -3 10 2 9 26 -4 55 3 71 19 26 24 115 69 129 64 6 -2 16 -15 21 -30z
m-8028 -202 c0 -11 -6 -20 -13 -20 -18 0 -16 -82 2 -96 21 -17 -4 -71 -43 -95
-49 -30 -59 -26 -50 24 4 23 6 55 5 70 -2 35 13 64 39 72 11 3 20 15 20 25 0
11 8 24 18 29 23 14 22 14 22 -9z m5621 -4 c-19 -23 -9 -86 15 -103 20 -13 22
-12 20 4 -1 16 9 18 97 18 87 0 100 -2 113 -20 15 -20 13 -20 -96 -25 -107 -5
-113 -6 -136 -33 -27 -32 -32 -82 -10 -106 8 -10 11 -24 6 -36 -7 -19 -7 -19
-18 0 -10 19 -9 79 1 153 3 17 2 32 -2 32 -13 0 -12 98 1 119 7 11 14 18 17
16 2 -3 -2 -11 -8 -19z m2883 -77 c-4 -7 0 -9 13 -5 16 5 23 -2 38 -33 17 -38
17 -42 1 -66 -9 -14 -20 -25 -24 -26 -29 -3 -46 -10 -53 -21 -5 -7 -13 -14
-19 -14 -5 -1 -14 -2 -18 -3 -5 0 -18 -10 -30 -21 -14 -13 -22 -16 -22 -8 0
10 -3 9 -9 -1 -7 -11 -15 -3 -31 32 -25 52 -23 84 4 79 11 -2 15 1 11 8 -3 6
-3 10 2 9 22 -4 43 2 38 11 -3 6 0 10 7 10 23 0 68 24 68 37 0 9 11 18 28 22
2 1 0 -4 -4 -10z m-2331 -147 c-28 -58 -66 -71 -236 -78 -146 -7 -147 -7 -147
-31 0 -20 -5 -23 -37 -23 -21 0 -55 5 -75 11 -31 8 -38 14 -38 36 0 22 3 24
28 18 25 -6 26 -5 8 8 -38 28 10 37 201 37 98 0 194 5 214 10 53 15 81 50 88
112 l6 53 3 -58 c2 -41 -2 -69 -15 -95z m-9744 -184 c28 -48 51 -94 51 -104 0
-17 -142 -238 -160 -249 -14 -9 -13 -3 16 210 27 205 33 239 38 234 2 -2 27
-43 55 -91z m9211 12 c0 -19 7 -20 255 -20 248 0 255 1 255 20 0 11 7 20 15
20 12 0 15 -20 15 -117 0 -111 -1 -115 -18 -100 -10 9 -33 23 -52 31 l-35 15
48 1 47 0 -1 83 c0 59 -3 76 -9 60 l-9 -23 -256 0 -256 0 -9 23 c-6 15 -9 -7
-9 -75 -1 -59 3 -98 9 -98 6 0 10 7 10 15 0 24 400 21 449 -3 36 -18 49 -49
25 -59 -8 -3 -22 1 -31 8 -12 11 -67 15 -225 17 -196 4 -208 3 -209 -15 0 -10
-3 -13 -6 -5 -14 34 -23 3 -23 -78 0 -53 4 -90 10 -90 6 0 10 9 10 20 0 19 7
20 223 20 197 0 227 3 264 20 42 18 46 26 56 90 3 14 5 0 6 -31 2 -87 -36
-122 -144 -133 -22 -2 -122 -5 -222 -5 -101 -1 -182 -4 -182 -8 3 -21 -2 -33
-16 -33 -13 0 -15 32 -15 228 0 126 3 232 7 235 12 13 23 7 23 -13z m2820
-100 c45 -27 91 -52 102 -56 18 -5 17 -10 -20 -48 -22 -22 -49 -59 -60 -81
l-21 -40 -1 33 c0 17 -3 32 -7 32 -18 -2 -187 -106 -191 -119 -3 -10 0 -11 16
-2 16 8 21 7 26 -5 3 -9 6 -98 6 -199 0 -149 -3 -186 -15 -197 -42 -38 -40
-38 -99 -2 l-57 34 -9 -26 c-6 -14 -10 -28 -10 -32 0 -19 -46 -90 -74 -114
-63 -56 -112 -31 -129 68 -11 65 -11 67 12 83 25 17 160 93 200 113 21 11 23
17 18 61 -2 27 -13 61 -26 77 -18 25 -21 43 -21 124 0 73 -4 98 -16 110 -8 9
-20 16 -25 16 -16 0 -10 28 9 35 9 3 54 28 99 56 45 27 88 46 97 43 9 -3 21 4
31 20 13 19 69 65 82 66 1 0 38 -22 83 -50z m-640 -302 c0 -4 6 -8 13 -8 7 0
31 -13 53 -29 21 -16 42 -30 46 -30 5 -1 21 -9 38 -19 l30 -19 -50 -32 c-115
-75 -200 -225 -200 -355 0 -36 -1 -38 -17 -24 -10 8 -33 21 -50 29 -18 8 -33
18 -33 23 0 4 -6 6 -14 3 -9 -4 -19 5 -26 24 -7 16 -24 39 -38 49 -23 19 -24
25 -20 84 7 84 53 170 126 237 65 59 142 96 142 67z m-6135 -66 c33 -10 137
-63 230 -117 94 -54 274 -157 400 -230 127 -73 336 -194 465 -269 l235 -136 5
117 c4 79 6 37 6 -127 0 -135 -2 -195 -3 -133 l-4 112 -102 59 c-56 32 -338
195 -627 362 -289 167 -547 314 -575 326 -75 35 -180 48 -277 35 -95 -13 -127
-26 -284 -119 -65 -38 -454 -264 -864 -502 -410 -238 -839 -488 -955 -555
-312 -182 -991 -576 -1695 -985 -768 -445 -764 -443 -789 -484 -39 -63 -20
-136 51 -189 18 -13 211 -127 428 -252 217 -125 715 -412 1105 -638 391 -226
733 -419 760 -430 33 -13 84 -21 150 -25 150 -7 194 8 425 142 346 201 1589
923 2170 1261 311 181 894 519 1295 752 402 234 744 435 761 448 43 33 68 88
59 132 -7 41 -58 99 -114 131 l-41 23 0 -40 c0 -29 -7 -47 -22 -62 -13 -12
-17 -19 -10 -15 6 4 12 5 12 3 0 -12 -141 -87 -162 -86 -25 1 -19 4 24 13 18
4 29 16 37 37 14 41 15 451 1 501 -17 61 -69 118 -150 166 -190 112 -411 239
-471 270 -59 30 -70 32 -90 21 -13 -6 -27 -17 -31 -23 -5 -8 -8 -7 -8 1 0 13
49 47 120 84 34 18 45 19 72 10 70 -25 563 -317 603 -358 64 -64 75 -112 75
-322 l0 -177 44 -21 c24 -12 60 -36 80 -54 63 -55 67 -70 64 -247 -3 -144 -5
-160 -26 -194 -13 -21 -30 -38 -38 -38 -8 0 -17 -6 -20 -14 -3 -8 -33 -29 -67
-47 -34 -17 -73 -39 -87 -49 -14 -9 -31 -15 -39 -12 -8 3 -11 0 -7 -7 11 -17
0 -13 -15 6 -10 11 -10 14 -1 9 6 -4 12 -3 12 2 0 6 -11 9 -24 8 l-25 -1 20
-21 c18 -19 18 -22 4 -28 -9 -3 -26 -6 -37 -6 -14 0 -18 -5 -14 -16 4 -10 1
-14 -6 -11 -7 2 -18 -3 -24 -11 -9 -12 -13 -12 -19 -2 -6 9 -4 11 5 5 9 -5 11
-4 6 3 -5 8 -17 5 -41 -11 -18 -12 -32 -24 -30 -26 3 -2 16 4 30 13 14 9 25
13 25 9 -1 -14 -101 -68 -120 -65 -10 2 -22 -3 -26 -9 -5 -9 -2 -10 12 -6 18
7 18 7 0 -8 -11 -8 -25 -15 -30 -15 -6 0 -4 5 4 11 12 8 11 9 -5 6 -11 -2 -19
-8 -18 -15 2 -9 -3 -9 -22 0 -31 14 -33 32 -2 23 18 -5 19 -4 7 5 -12 9 -9 10
15 6 18 -4 25 -3 17 2 -8 6 4 9 34 10 50 2 67 9 59 22 -3 5 1 15 9 23 8 8 12
17 9 21 -4 3 4 6 17 6 13 0 21 3 17 6 -9 10 -59 -5 -52 -16 8 -13 -52 -42 -78
-38 -12 2 -30 -5 -40 -15 -10 -10 -25 -16 -33 -13 -9 3 -12 1 -9 -4 3 -6 -5
-10 -19 -10 -16 0 -26 -6 -26 -15 0 -14 24 -20 58 -16 15 2 16 -25 0 -35 -7
-4 -8 -3 -4 4 5 8 2 10 -8 6 -9 -3 -13 -10 -10 -16 3 -5 -5 -12 -17 -15 -13
-4 -25 -5 -26 -2 -1 2 -8 -3 -15 -12 -16 -21 -75 -58 -65 -41 15 24 -8 11 -43
-24 -19 -19 -40 -32 -46 -30 -7 3 -20 -5 -31 -16 -23 -25 -74 -53 -92 -49 -7
1 -10 -2 -7 -7 4 -7 -32 -32 -54 -37 -12 -2 -60 -38 -60 -45 0 -4 19 -17 43
-28 77 -36 161 -91 163 -106 1 -9 -1 -15 -4 -14 -4 1 -18 -2 -31 -6 -19 -6
-21 -10 -10 -18 10 -7 9 -8 -6 -4 -20 5 -110 -46 -99 -57 3 -2 5 -155 4 -338
0 -306 -2 -335 -18 -346 -9 -7 -22 -16 -28 -21 -6 -6 -29 2 -60 19 l-49 29 -5
109 c-5 94 -9 113 -27 133 -20 22 -22 37 -29 268 -4 135 -5 247 -3 250 2 3 9
4 14 2 6 -2 4 2 -2 9 -20 20 -16 29 12 29 21 0 25 5 25 28 0 15 -4 23 -8 17
-4 -5 -22 -18 -41 -28 -28 -14 -36 -15 -42 -5 -4 7 -14 22 -22 32 -13 18 -14
17 -15 -12 0 -18 5 -33 14 -36 19 -7 18 -22 -2 -30 -8 -3 -13 -2 -11 2 9 14
-19 29 -38 21 -14 -5 -16 -8 -5 -9 8 -2 18 -2 22 -1 3 0 5 -7 4 -15 -3 -17
-56 -55 -67 -48 -4 2 -10 0 -14 -6 -3 -5 -15 -10 -27 -10 -16 0 -19 5 -15 22
6 20 4 20 -17 -5 -16 -19 -29 -25 -42 -21 -16 5 -16 4 -4 -5 8 -5 31 -8 50 -6
31 4 26 0 -39 -36 -57 -32 -86 -42 -132 -44 -56 -4 -107 -21 -95 -32 3 -3 11
-1 18 5 7 5 38 13 68 16 48 5 52 4 30 -7 -14 -7 -40 -22 -57 -35 -29 -20 -33
-21 -47 -6 -19 18 -22 4 -3 -15 10 -11 9 -12 -2 -6 -22 13 -62 15 -55 3 4 -6
-2 -8 -17 -4 -20 6 -21 5 -7 -4 13 -8 24 -8 37 0 14 7 22 7 27 -2 4 -6 3 -8
-3 -5 -6 4 -13 0 -17 -8 -3 -9 -12 -12 -22 -8 -13 5 -15 3 -9 -7 5 -9 4 -11
-3 -6 -7 4 -12 2 -12 -3 0 -6 -4 -11 -10 -11 -5 0 -10 7 -10 16 0 8 4 13 9 9
5 -3 12 -1 16 5 3 5 -1 10 -9 10 -8 0 -18 -5 -21 -10 -4 -6 -11 -8 -16 -5 -5
4 -9 1 -9 -4 0 -6 5 -11 10 -11 6 0 10 -6 10 -14 0 -10 -10 -13 -37 -11 -51 4
-84 15 -77 26 3 5 -2 6 -11 3 -14 -6 -14 -8 2 -21 14 -12 15 -14 2 -10 -9 3
-16 -1 -16 -8 0 -10 6 -11 24 -2 17 8 27 7 35 -1 7 -7 17 -12 23 -12 5 0 4 4
-4 9 -10 7 -7 9 12 8 35 -2 34 -5 -5 -23 -18 -8 -44 -22 -58 -32 -13 -9 -21
-11 -16 -4 4 6 2 12 -3 12 -6 0 -11 -8 -11 -17 0 -9 -3 -13 -7 -10 -3 4 -12
-1 -20 -11 -8 -11 -12 -12 -11 -3 2 7 -2 15 -9 18 -8 3 -11 -3 -8 -16 2 -14
-1 -18 -10 -15 -8 3 -22 1 -32 -6 -16 -9 -15 -10 7 -5 17 4 10 -4 -22 -24 -50
-32 -80 -37 -122 -21 -14 5 -26 6 -26 1 0 -5 17 -12 37 -16 34 -6 35 -8 18
-18 -11 -6 -21 -9 -21 -6 -1 2 -11 -5 -23 -15 -25 -22 -28 -11 -5 15 15 16 14
17 -5 12 -14 -3 -21 -13 -21 -29 0 -14 -9 -28 -21 -35 -12 -6 -19 -7 -16 -2 3
4 -1 14 -9 20 -8 8 -15 9 -19 3 -3 -6 -1 -10 4 -10 6 0 11 -5 11 -11 0 -5 -5
-7 -12 -3 -7 5 -8 3 -3 -6 15 -24 -19 -30 -54 -9 -34 20 -35 20 -49 2 -11 -16
-11 -18 5 -22 9 -2 19 2 21 8 3 8 9 8 24 0 11 -6 17 -13 15 -16 -3 -2 -7 -3
-10 -1 -3 1 -13 -5 -23 -14 -28 -24 -146 -89 -138 -75 4 7 -5 -1 -21 -16 -16
-15 -35 -25 -42 -23 -9 4 -11 1 -7 -6 5 -7 2 -9 -8 -6 -8 4 -20 -2 -27 -14 -7
-11 -19 -17 -27 -14 -8 3 -14 -1 -14 -9 0 -26 -26 -16 -28 11 -2 25 0 26 36
20 25 -4 31 -3 17 3 -21 9 -21 9 28 25 9 3 17 10 17 16 0 5 -8 10 -17 10 -14
0 -15 -2 -4 -9 10 -6 1 -11 -30 -17 -24 -4 -47 -7 -51 -6 -5 1 -8 -4 -8 -12 0
-16 -27 -29 -41 -20 -5 3 -8 0 -7 -8 2 -7 -3 -12 -9 -11 -14 3 -17 -9 -5 -21
16 -16 -2 -60 -20 -49 -5 2 -8 0 -8 -6 0 -9 -18 -8 -74 5 -21 5 -27 4 -22 -5
4 -6 18 -11 31 -11 13 0 27 -5 31 -12 4 -6 3 -8 -3 -5 -6 4 -18 -2 -28 -13
-14 -16 -20 -17 -27 -8 -13 21 -9 26 15 22 12 -3 7 2 -12 11 -19 8 -36 13 -39
10 -3 -3 1 -5 8 -5 7 0 10 -3 7 -7 -4 -3 -1 -13 6 -21 10 -13 9 -15 -8 -9 -19
7 -19 6 -2 -7 17 -13 17 -14 0 -21 -10 -5 -21 -7 -25 -7 -5 1 -8 -2 -8 -8 0
-5 -23 -21 -51 -36 -28 -14 -48 -21 -44 -15 3 6 1 11 -5 11 -6 0 -8 5 -5 10 4
6 15 8 25 5 13 -4 18 -1 16 10 -3 21 -24 40 -33 31 -4 -4 -1 -12 7 -17 11 -8
7 -9 -15 -5 -23 5 -27 4 -15 -4 11 -9 12 -13 2 -17 -7 -2 -17 -14 -23 -25 -8
-15 -8 -19 0 -14 6 4 11 3 11 -3 0 -15 -18 -23 -25 -11 -3 5 -20 7 -37 3 -22
-4 -29 -3 -24 5 4 7 3 12 -3 12 -13 0 -23 -17 -14 -23 21 -11 64 -17 58 -7 -3
5 -1 10 4 10 18 0 13 -18 -7 -29 -12 -6 -23 -6 -28 -1 -12 12 -56 -10 -61 -30
-3 -10 -2 -11 4 -4 11 15 53 36 53 27 0 -5 -19 -20 -43 -34 -39 -24 -45 -25
-65 -11 -18 12 -28 13 -49 3 -21 -10 -28 -9 -34 1 -5 8 -8 5 -6 -10 1 -15 8
-22 22 -22 24 0 59 20 36 20 -8 0 -12 3 -8 6 3 3 15 3 27 -1 17 -5 19 -9 9
-22 -12 -14 -62 -43 -76 -44 -5 0 -16 -8 -25 -16 -16 -15 -20 -15 -36 0 -11
10 -27 14 -42 11 -18 -4 -21 -3 -11 4 17 12 6 32 -19 32 -13 0 -17 -5 -13 -19
6 -24 29 -34 56 -25 12 4 17 2 13 -4 -3 -6 0 -13 6 -16 7 -3 2 -3 -12 1 -21 5
-23 4 -13 -8 10 -12 8 -17 -8 -27 -11 -7 -24 -10 -29 -7 -5 3 -12 -1 -17 -8
-4 -8 -21 -22 -38 -33 -16 -10 -26 -13 -22 -6 5 7 3 12 -3 12 -6 0 -8 5 -4 13
6 9 4 9 -8 -1 -8 -7 -22 -11 -29 -9 -8 2 -11 2 -6 0 12 -8 -3 -22 -17 -17 -19
7 -30 -14 -17 -30 8 -10 7 -17 -6 -27 -15 -12 -16 -12 -10 3 3 10 1 20 -5 24
-7 4 -8 3 -4 -4 4 -7 1 -12 -8 -12 -8 0 -16 4 -18 10 -2 6 -8 6 -18 0 -13 -8
-13 -10 1 -10 9 0 22 -7 29 -16 12 -13 10 -14 -13 -3 -30 14 -48 5 -27 -14 10
-9 11 -9 6 0 -4 7 -3 13 3 13 20 0 19 -16 -1 -29 -11 -7 -17 -8 -13 -2 10 18
-10 12 -35 -9 -27 -23 -25 -23 -52 -9 -13 7 -18 7 -14 0 4 -5 -3 -15 -14 -21
-13 -7 -20 -7 -20 0 0 5 5 10 12 10 6 0 8 3 5 6 -4 4 -13 2 -20 -4 -8 -7 -16
-10 -18 -8 -2 3 -5 -10 -5 -27 -1 -18 1 -26 3 -19 3 6 9 9 14 6 24 -15 -27
-30 -97 -28 -73 1 -95 -8 -53 -21 17 -6 18 -9 8 -16 -7 -4 -10 -11 -6 -15 3
-4 14 -1 23 7 14 12 14 14 -2 26 -16 11 -16 13 -2 13 9 0 19 -4 23 -10 4 -6
15 -6 32 1 14 5 28 7 31 4 3 -3 1 -5 -4 -5 -6 0 -36 -16 -68 -35 -32 -19 -65
-35 -72 -35 -8 0 -14 -4 -14 -9 0 -5 -25 -23 -55 -39 -30 -17 -52 -25 -49 -20
4 6 1 9 -7 6 -8 -3 -14 -11 -14 -18 0 -7 -7 -15 -15 -17 -13 -4 -13 -3 0 6 8
6 10 11 4 11 -6 0 -19 -10 -28 -23 -9 -12 -14 -16 -10 -8 5 10 1 12 -17 7 -21
-6 -21 -5 4 9 15 9 27 21 27 28 0 7 -3 8 -8 2 -4 -5 -16 -15 -26 -21 -25 -13
-31 -45 -8 -37 15 4 15 3 2 -6 -31 -24 -72 -43 -65 -30 5 7 4 10 -3 6 -12 -8
-44 2 -38 12 3 4 1 13 -3 20 -6 9 -10 5 -13 -13 -4 -20 -1 -26 13 -26 10 0 21
-4 24 -10 3 -6 -1 -7 -10 -4 -11 5 -18 0 -22 -14 -6 -24 -70 -54 -154 -72 -82
-18 -260 -8 -326 17 -28 11 -103 50 -165 86 -401 231 -834 481 -1303 752 -198
114 -460 266 -583 336 -122 71 -238 140 -256 154 -57 44 -65 72 -67 253 -2
159 -2 162 24 201 20 30 57 58 144 109 127 74 759 442 1328 772 193 111 386
224 430 250 44 26 157 91 250 145 94 54 332 193 530 308 498 289 763 443 1020
593 121 70 337 196 481 279 271 158 316 180 399 195 72 13 211 4 280 -18z
m4448 -156 c20 -9 23 -42 5 -49 -7 -2 -24 0 -38 5 -14 5 -117 8 -230 7 -197
-3 -205 -2 -205 17 0 14 9 21 35 26 48 9 411 4 433 -6z m1209 -79 c24 -13 55
-31 71 -41 15 -10 27 -14 27 -10 0 5 5 1 11 -8 5 -10 17 -18 24 -18 25 0 17
-15 -29 -55 -25 -21 -52 -55 -62 -76 -17 -39 -36 -45 -29 -9 2 11 0 20 -4 20
-7 0 -180 -96 -190 -106 -12 -11 11 -15 24 -4 13 11 15 -10 15 -195 0 -206 0
-208 -24 -230 l-24 -22 -85 49 -85 48 15 43 c9 25 12 58 9 82 -20 137 -20 145
2 145 30 0 62 46 62 91 0 35 -4 40 -60 74 -33 20 -60 38 -60 40 0 9 188 108
203 107 10 0 33 15 50 35 25 28 69 58 94 63 1 0 21 -10 45 -23z m-9261 -17
c18 -10 19 -24 19 -254 l0 -244 -34 -20 c-25 -15 -36 -17 -40 -9 -2 7 -5 6 -5
-4 -1 -15 -243 -162 -268 -162 -7 0 -13 -3 -13 -7 0 -4 -15 -15 -33 -25 -24
-13 -39 -15 -51 -8 -15 8 -18 37 -23 254 l-5 245 208 121 c115 67 213 122 217
122 5 1 17 -4 28 -9z m8421 -125 l-4 -25 -424 0 c-370 0 -424 -2 -424 -15 0
-8 -7 -15 -15 -15 -9 0 -15 9 -15 25 0 14 5 25 10 25 6 0 10 7 10 15 0 13 55
15 434 15 l433 0 -5 -25z m375 -31 c36 -19 81 -45 99 -58 30 -20 31 -23 15
-33 -23 -15 -71 -109 -71 -141 l0 -23 -42 25 c-24 14 -63 35 -87 46 -52 24
-81 55 -81 84 1 50 59 136 93 136 4 0 38 -16 74 -36z m577 -83 c3 -25 5 -106
4 -178 -1 -127 -2 -133 -24 -148 -19 -12 -28 -13 -49 -3 l-26 12 3 145 c3 165
19 219 62 219 21 0 25 -7 30 -47z m-734 -118 c19 -12 56 -34 82 -50 26 -15 48
-31 48 -35 0 -3 -23 -25 -52 -47 -84 -68 -138 -156 -138 -227 l0 -35 -53 29
c-30 16 -73 42 -98 58 -24 15 -45 29 -47 30 -1 0 7 23 19 49 16 35 20 59 15
90 -5 41 -3 45 44 89 51 48 103 77 130 72 8 -1 31 -12 50 -23z m-365 -59 c28
-15 53 -31 56 -37 4 -5 -8 -25 -27 -43 -18 -19 -39 -54 -47 -79 l-13 -45 -58
35 c-32 19 -60 35 -62 35 -3 0 -23 12 -45 27 -38 25 -40 29 -34 62 8 47 29 78
66 100 30 18 31 18 72 -5 23 -13 65 -35 92 -50z m-2948 -176 c136 -77 254
-147 262 -154 11 -10 10 -14 -9 -24 -12 -7 -20 -7 -16 -2 5 9 -120 87 -309
192 -117 66 -195 113 -201 121 -16 27 49 -5 273 -133z m3453 73 c14 -27 13
-184 -2 -216 -11 -26 -41 -34 -54 -14 -9 16 -5 195 6 224 11 30 35 32 50 6z
m-563 -111 l70 -41 41 16 c31 13 45 14 61 5 12 -6 21 -14 21 -18 0 -4 -45 -32
-100 -62 -55 -30 -100 -58 -100 -62 0 -11 8 -10 31 2 18 10 19 5 19 -197 l-1
-208 -26 -19 c-27 -20 -27 -20 -72 6 -42 23 -47 29 -56 78 -7 36 -17 57 -32
68 -26 17 -32 62 -8 62 12 0 15 15 15 78 -1 74 -1 76 -16 50 -8 -16 -22 -28
-30 -28 -13 0 -105 49 -182 96 -21 14 -22 15 -5 42 9 15 18 28 19 30 1 2 40
-20 87 -47 47 -28 88 -51 91 -51 3 0 6 27 6 60 0 55 -2 62 -25 72 -14 6 -25
16 -25 22 0 12 117 85 136 86 6 0 43 -18 81 -40z m-10649 -148 c20 -98 94
-187 189 -227 24 -10 33 -21 37 -47 29 -169 80 -459 92 -525 16 -78 18 -82 53
-97 101 -44 218 -46 290 -5 l41 22 58 -64 c254 -278 311 -348 332 -413 41
-126 -87 -186 -292 -137 -49 11 -110 32 -137 45 -119 61 -272 199 -384 348
-36 48 -39 57 -34 101 4 46 3 48 -32 64 -43 20 -281 255 -337 333 -85 117
-140 244 -151 351 -5 50 -2 63 20 102 32 55 111 131 180 175 28 17 54 32 57
32 3 0 11 -26 18 -58z m10972 8 c47 -28 95 -50 107 -50 21 0 20 -3 -17 -56
-22 -31 -42 -72 -46 -90 -3 -19 -9 -34 -13 -34 -3 0 -32 16 -64 35 -32 19 -62
35 -68 35 -30 0 -41 149 -13 188 8 12 18 22 22 22 4 0 45 -23 92 -50z m-734
-64 c8 -8 34 -25 59 -37 25 -12 45 -27 45 -31 0 -5 4 -7 8 -4 4 2 14 1 22 -4
12 -8 4 -19 -38 -56 -61 -53 -101 -124 -109 -194 l-6 -48 -47 29 c-26 16 -51
29 -55 29 -5 0 -20 10 -33 23 -14 12 -21 15 -16 7 4 -8 -6 -4 -24 10 -30 23
-32 29 -29 76 9 142 152 270 223 200z m1069 -119 c41 -31 -7 -120 -93 -175
-67 -44 -122 -31 -122 29 0 16 -7 32 -17 38 -10 5 -16 11 -13 13 24 16 207
108 216 108 5 0 18 -6 29 -13z m-333 -79 l68 -40 -30 -36 c-17 -20 -30 -41
-30 -47 0 -5 -4 -16 -9 -24 -7 -11 -20 -8 -66 19 -54 31 -56 33 -36 47 27 18
28 37 2 23 -11 -5 -22 -10 -25 -10 -3 0 -6 32 -6 70 l0 71 33 -17 c17 -9 62
-34 99 -56z m-1216 -27 c-3 -5 8 -11 26 -15 17 -3 28 -9 25 -12 -4 -4 28 -24
69 -44 l75 -38 -43 -30 c-129 -90 -204 -219 -210 -361 -2 -50 -3 -52 -17 -34
-9 10 -34 28 -56 39 -33 17 -41 28 -48 60 -21 105 -30 131 -49 151 -26 28 -21
51 30 128 48 73 71 95 142 134 61 34 64 35 56 22z m-611 -165 c-18 -13 -18
-14 8 -9 20 4 34 0 48 -15 12 -13 26 -19 36 -15 11 4 14 3 9 -5 -4 -7 4 -17
21 -24 15 -7 30 -15 33 -19 3 -3 11 -8 18 -10 12 -4 -40 -37 -230 -149 -49
-28 -88 -56 -88 -62 0 -6 11 -3 25 6 l25 16 0 -320 c0 -207 -4 -320 -10 -320
-5 0 -18 -8 -29 -19 -18 -18 -21 -17 -120 41 -55 32 -101 63 -101 68 0 5 11
17 25 26 l25 16 0 281 0 281 -32 26 -31 26 94 54 c52 29 119 67 149 83 79 44
168 75 125 43z m1091 -31 c23 -18 57 -19 122 -4 65 15 102 6 102 -25 0 -30
-33 -72 -72 -92 -34 -18 -68 -9 -125 33 -17 12 -34 23 -37 23 -3 0 -6 -39 -6
-86 l0 -86 -64 36 c-35 20 -66 36 -69 36 -2 0 -10 -20 -17 -45 -17 -60 -62
-122 -104 -141 -29 -14 -37 -15 -62 -3 -31 15 -41 42 -43 120 -1 38 3 48 22
57 33 17 147 81 185 104 29 18 33 25 28 49 -6 31 3 36 35 18 16 -8 26 -7 42 5
28 19 39 19 63 1z m-968 -167 c-9 -7 -7 -8 10 -5 12 3 20 2 18 -2 -3 -4 15
-17 40 -29 61 -30 67 -51 62 -207 -6 -164 -26 -238 -80 -300 -34 -39 -84 -75
-102 -75 -6 0 -6 568 0 602 5 26 26 39 52 30 11 -4 11 -6 0 -14z m-880 -478
c13 -16 29 -30 36 -30 8 0 16 -4 18 -8 2 -4 23 -17 47 -28 l43 -21 -63 -45
c-112 -80 -173 -180 -192 -314 -6 -41 -15 -74 -20 -74 -4 0 -6 4 -3 9 4 5 -4
7 -16 4 -13 -3 -20 -2 -16 2 4 4 -15 19 -42 32 -50 25 -50 25 -50 74 0 30 -4
49 -11 49 -9 0 -180 -92 -198 -107 -13 -10 10 -13 28 -3 21 11 21 10 21 -194
0 -204 0 -205 -24 -230 l-25 -24 -68 42 -68 41 -8 110 c-4 61 -10 161 -13 223
-5 108 -6 114 -30 124 -13 6 -24 16 -24 23 0 6 31 29 70 51 38 21 70 42 70 45
0 3 -18 16 -41 28 -53 30 -65 62 -44 117 21 55 34 65 94 69 43 3 62 -2 125
-34 40 -21 79 -42 85 -46 8 -4 -5 -19 -33 -41 -33 -25 -50 -48 -63 -84 -16
-45 -20 -49 -43 -43 -14 3 -31 11 -39 17 -11 8 -13 8 -8 -1 4 -6 32 -26 62
-43 51 -29 56 -30 87 -17 64 27 110 109 95 169 -11 41 163 188 224 188 8 0 25
-13 37 -30z m101 -269 c20 -11 47 -22 61 -25 14 -3 40 -15 58 -26 27 -17 31
-24 26 -47 -12 -58 -59 -138 -93 -160 -41 -27 -40 -27 -71 -4 -19 16 -25 31
-30 83 -7 64 -1 198 7 198 3 0 22 -9 42 -19z m-938 -246 c5 4 9 1 9 -4 0 -6 4
-11 9 -11 5 0 29 -12 55 -26 l47 -26 -46 -40 c-25 -22 -57 -61 -70 -87 l-24
-46 1 140 c0 77 3 130 5 117 2 -12 9 -20 14 -17z m69 -201 c6 -14 10 -97 10
-184 0 -147 -1 -160 -20 -173 -11 -8 -17 -17 -12 -21 4 -5 -10 0 -30 10 l-38
18 0 121 c0 128 14 201 46 236 23 25 33 24 44 -7z m-688 -95 c13 -6 28 -20 33
-32 6 -12 16 -22 23 -22 7 0 16 -5 20 -11 4 -5 22 -16 40 -23 17 -8 32 -16 32
-20 0 -3 -18 -23 -40 -43 -21 -21 -48 -55 -59 -75 -20 -37 -20 -37 -21 -10 0
15 -4 27 -10 27 -12 0 -160 -88 -180 -108 -13 -12 -12 -13 8 -7 12 3 22 3 23
-2 6 -90 9 -490 4 -550 -6 -72 -10 -84 -31 -98 -24 -16 -28 -14 -107 31 -45
26 -84 48 -86 50 -2 2 10 15 27 28 16 14 36 40 45 58 19 43 30 118 17 118 -5
0 -10 -18 -10 -39 0 -44 -34 -98 -44 -71 -7 17 -15 263 -15 431 0 94 -3 120
-16 133 -9 9 -21 16 -26 16 -5 0 -9 6 -9 13 0 16 179 121 203 119 10 0 32 14
48 32 25 29 81 65 101 66 4 0 18 -5 30 -11z m-3939 -49 c130 -49 188 -145 138
-226 -50 -81 -157 -126 -306 -127 -115 -1 -184 16 -258 63 -57 36 -93 102 -82
151 15 65 90 124 198 154 76 22 235 14 310 -15z m4033 -176 c-5 -13 -4 -14 7
-6 18 15 18 14 24 -133 5 -140 -1 -196 -26 -227 -18 -21 -19 -21 -45 -5 -26
17 -26 18 -26 146 0 135 14 202 48 227 23 18 25 17 18 -2z m-667 -128 c10 -11
9 -16 -4 -23 -12 -7 -2 -16 50 -42 36 -18 67 -37 70 -42 3 -4 -9 -16 -27 -25
-35 -18 -115 -79 -136 -104 -23 -27 -52 -89 -52 -110 0 -11 -5 -20 -10 -20
-12 0 -123 61 -130 71 -3 4 -12 9 -19 11 -85 19 -55 140 56 221 93 68 176 94
202 63z m78 -206 c7 -9 12 -46 12 -90 l0 -75 -55 -35 c-76 -48 -142 -122 -149
-168 -9 -53 -15 -68 -23 -57 -9 13 -59 43 -94 58 -16 6 -28 15 -28 20 0 4 -6
5 -12 1 -7 -4 -3 4 8 17 34 39 46 68 48 121 1 37 -4 53 -16 62 -10 7 -15 16
-11 19 3 4 45 -14 91 -39 84 -45 86 -46 118 -30 38 17 63 51 73 98 9 40 4 58
-15 58 -17 0 -18 14 -3 41 11 22 38 22 56 -1z m-510 -47 c28 -29 95 -74 126
-86 15 -6 12 -12 -22 -42 -22 -20 -49 -55 -60 -78 -18 -37 -21 -39 -22 -17 -1
14 -1 28 0 33 0 4 -1 7 -3 7 -13 0 -191 -109 -194 -120 -3 -9 1 -9 17 -1 l21
12 0 -211 c0 -122 -4 -210 -9 -210 -5 0 -16 -7 -25 -15 -14 -14 -22 -12 -83
23 l-68 38 -3 49 c-3 38 1 52 14 62 10 7 15 15 12 19 -6 5 -213 -107 -232
-126 -5 -6 -7 -13 -3 -17 4 -4 13 -1 19 5 7 7 16 12 20 12 4 0 8 -53 8 -118 0
-104 -2 -121 -20 -139 -42 -46 -101 -37 -135 20 -22 37 -32 212 -21 339 l7 73
69 38 c37 20 73 37 80 37 6 0 42 -18 80 -40 38 -22 72 -40 77 -40 4 0 7 63 5
140 -2 85 -7 140 -13 140 -6 0 -7 6 -4 13 4 6 1 5 -7 -4 -7 -8 -43 -26 -80
-40 -38 -13 -68 -28 -68 -32 0 -4 -5 -5 -10 -2 -6 3 -26 -10 -45 -30 -19 -20
-39 -34 -45 -30 -9 5 -14 -7 -11 -27 0 -4 -5 -5 -13 -2 -16 6 -99 -93 -133
-159 -35 -70 -63 -189 -63 -269 0 -69 -7 -80 -34 -53 -8 8 -21 15 -29 15 -8 0
-38 16 -67 35 -29 19 -56 35 -62 35 -5 0 -7 4 -3 9 3 5 1 12 -5 16 -15 9 -12
119 5 199 17 83 73 198 118 246 45 48 97 92 97 83 0 -5 5 0 11 10 6 9 14 15
19 12 5 -3 32 6 60 20 31 16 59 23 71 20 19 -6 57 20 46 31 -7 8 30 44 45 44
6 0 46 -20 89 -45 43 -25 83 -45 89 -45 6 0 51 23 101 51 51 29 98 49 108 46
12 -3 24 5 36 25 19 32 70 68 97 68 9 0 29 -12 45 -27z"/>
<path d="M6757 5683 c-4 -3 -7 -20 -7 -38 0 -23 -12 -43 -46 -79 -37 -39 -45
-54 -42 -80 4 -45 46 -49 81 -7 18 22 34 31 56 31 17 0 31 5 31 11 0 6 -7 9
-15 5 -14 -5 -20 9 -16 42 1 6 -3 12 -9 12 -6 0 -10 23 -10 55 0 51 -7 65 -23
48z"/>
<path d="M7150 11190 c-11 -7 -14 -25 -12 -78 3 -57 1 -71 -15 -82 -15 -12
-16 -12 -5 0 17 20 15 25 -14 38 -17 8 -31 9 -44 2 -13 -7 -27 -6 -45 2 -35
16 -82 -7 -62 -30 10 -13 9 -14 -9 -4 -17 9 -27 7 -57 -13 -20 -14 -39 -25
-43 -25 -4 0 -22 -10 -41 -21 -30 -19 -32 -23 -20 -38 8 -9 24 -41 36 -72 23
-59 58 -88 80 -66 15 15 14 40 -1 31 -7 -4 -6 1 3 11 14 14 20 15 40 5 19 -11
24 -10 36 6 11 15 10 21 -2 40 -11 17 -12 25 -3 30 6 4 8 3 4 -4 -3 -6 -2 -13
3 -16 5 -4 12 3 16 13 6 19 8 19 40 4 30 -15 38 -15 61 -2 15 7 31 24 37 36 8
19 13 21 25 11 11 -10 17 -9 27 5 7 9 27 22 44 28 23 8 31 16 26 27 -3 9 -3
13 1 9 15 -14 34 17 34 54 0 31 -5 42 -27 56 -15 10 -36 26 -45 36 -20 19 -45
22 -68 7z"/>
<path d="M7850 11100 c-14 -4 -40 -15 -58 -24 -28 -14 -31 -20 -21 -32 8 -9
10 -38 7 -84 -5 -69 -5 -70 20 -77 16 -4 29 -1 36 8 6 8 24 20 39 27 16 7 31
21 34 32 3 11 10 20 15 20 5 0 7 4 4 9 -4 5 0 11 6 14 10 3 10 7 2 18 -6 8
-10 22 -8 32 1 12 -2 17 -10 14 -7 -3 -13 1 -13 8 0 7 6 11 14 8 24 -9 13 6
-14 20 -17 9 -38 11 -53 7z"/>
<path d="M7626 10923 c-16 -16 -26 -22 -22 -16 9 16 -36 38 -60 29 -11 -4 -15
-14 -11 -31 2 -14 1 -28 -4 -31 -5 -2 -5 -19 -2 -37 7 -35 11 -36 -64 20 -25
18 -33 20 -53 10 -22 -11 -24 -18 -21 -70 3 -61 1 -63 -28 -45 -16 10 -27 7
-64 -12 -43 -23 -44 -25 -39 -64 l5 -40 -23 22 c-13 12 -29 22 -36 22 -18 0
-64 -40 -64 -56 0 -10 -7 -13 -23 -8 -15 3 -37 -2 -58 -14 -25 -14 -40 -16
-55 -10 -31 14 -89 -14 -114 -54 -28 -46 -27 -112 2 -132 12 -8 25 -13 30 -10
4 3 8 0 8 -5 0 -6 5 -11 11 -11 5 0 8 4 5 9 -4 5 2 7 12 4 10 -2 24 3 31 11 8
9 20 16 28 16 8 0 11 5 8 10 -11 18 5 31 26 20 15 -9 21 -7 25 5 3 8 15 15 25
15 10 0 19 5 19 10 0 6 -3 10 -7 10 -5 0 -8 14 -8 30 0 31 20 41 42 19 17 -17
46 -18 70 -3 16 10 29 11 51 3 24 -8 36 -6 67 12 l37 22 -23 18 c-19 15 -20
19 -7 19 9 0 26 12 37 26 12 15 27 24 35 21 7 -3 18 -1 23 4 6 6 25 18 44 27
19 10 33 23 32 29 -2 7 4 10 12 7 8 -4 15 -1 15 5 0 7 6 11 13 10 34 -4 70 21
61 45 -3 9 -10 14 -14 11 -7 -4 -7 8 -1 33 1 2 11 -4 23 -12 31 -22 64 -20 88
6 22 24 23 65 2 60 -8 -1 -11 2 -7 8 3 6 11 8 16 5 5 -4 9 3 9 14 0 22 -27 41
-57 41 -10 0 -31 -12 -47 -27z"/>
<path d="M6455 10827 c-75 -74 -82 -177 -14 -185 77 -9 166 162 111 211 -29
26 -51 20 -97 -26z"/>
<path d="M4743 10755 c-132 -36 -214 -103 -271 -223 l-37 -77 -1 -280 c0 -225
-4 -293 -17 -348 -32 -128 -72 -184 -182 -253 -68 -41 -78 -52 -107 -112 -32
-65 -33 -70 -33 -197 0 -118 3 -135 26 -185 56 -120 157 -163 290 -124 155 46
322 175 426 329 83 124 109 203 124 375 17 198 54 323 153 524 95 195 142 328
132 379 -10 53 -60 123 -108 151 -90 52 -279 72 -395 41z"/>
<path d="M9011 10599 c-111 -34 -234 -177 -276 -323 -13 -43 -15 -77 -11 -130
8 -98 10 -106 15 -100 3 2 18 -8 33 -23 25 -24 38 -28 81 -27 90 1 174 59 254
176 58 85 86 166 87 258 1 132 -74 202 -183 169z"/>
<path d="M6489 10343 c-55 -47 -84 -136 -59 -184 25 -47 117 -2 154 75 19 40
21 107 4 124 -20 20 -65 13 -99 -15z"/>
<path d="M7436 10274 c-14 -15 -26 -31 -26 -36 0 -5 -8 -7 -18 -3 -11 3 -38
-5 -64 -20 l-44 -25 7 -52 c4 -29 8 -61 8 -70 1 -10 8 -18 17 -18 13 0 15 11
13 61 l-3 60 50 24 c49 24 49 24 52 3 2 -11 -2 -25 -10 -30 -10 -7 -9 -12 7
-24 18 -14 20 -13 27 8 3 13 6 38 7 56 1 26 8 37 37 54 26 15 32 23 22 29 -24
16 -55 9 -82 -17z"/>
<path d="M7603 9908 c-19 -18 -26 -20 -47 -10 -20 9 -28 8 -41 -4 -8 -9 -15
-22 -15 -30 0 -8 -11 -19 -25 -26 -33 -15 -59 -71 -44 -96 8 -13 9 -31 1 -68
-10 -42 -9 -51 6 -62 14 -11 18 -9 26 10 5 13 8 51 8 86 -2 56 1 66 25 88 14
13 30 24 34 24 5 0 9 8 9 19 0 27 27 48 43 32 9 -10 8 -15 -5 -25 -18 -13 -15
-48 5 -73 17 -22 22 -14 22 33 1 39 5 51 33 75 18 16 40 29 50 29 15 0 15 2 2
10 -25 16 -64 11 -87 -12z"/>
<path d="M7425 9248 c-18 -21 -36 -32 -54 -33 -20 0 -25 -4 -23 -19 3 -14 -1
-17 -12 -13 -22 9 -63 -12 -69 -33 -6 -24 25 -90 53 -113 21 -18 22 -18 15 5
-4 13 -16 38 -26 57 -11 18 -19 35 -17 36 6 5 67 35 71 35 2 0 2 -11 0 -24 -3
-13 -1 -26 4 -29 10 -6 12 1 15 46 2 22 14 37 32 37 5 0 3 -7 -4 -15 -15 -18
-6 -61 15 -69 12 -4 15 4 15 39 0 38 5 47 40 78 43 36 43 47 -1 47 -18 0 -36
-10 -54 -32z"/>
<path d="M8847 9130 c-17 -11 -24 -20 -18 -24 21 -13 12 -56 -14 -68 -14 -6
-30 -24 -37 -39 -10 -23 -17 -27 -40 -22 -17 3 -36 -1 -55 -14 -15 -11 -37
-23 -47 -27 -15 -5 -17 -9 -8 -18 15 -15 16 -108 2 -108 -5 0 -10 -8 -9 -17 0
-10 3 -13 5 -7 3 7 14 9 25 7 19 -5 20 -2 18 56 l-3 62 43 25 c54 30 73 31 70
2 -3 -23 7 -48 19 -48 4 0 8 20 8 45 2 47 24 85 51 85 7 0 14 7 14 15 1 8 2
21 3 28 1 6 -3 15 -9 20 -10 7 12 30 39 41 7 3 6 8 -4 15 -19 13 -19 13 -53
-9z"/>
<path d="M8016 9102 c-15 -8 -36 -27 -45 -43 -11 -20 -21 -27 -34 -23 -9 3
-39 -5 -65 -18 l-48 -23 4 -62 c3 -49 1 -63 -10 -63 -26 0 -56 -29 -51 -50 4
-15 9 -17 23 -10 10 6 22 19 25 31 5 16 10 18 20 9 25 -21 36 0 34 63 l-3 60
46 25 c45 24 47 24 64 7 18 -17 19 -17 27 14 5 21 20 39 42 53 40 23 41 24 18
36 -12 6 -28 3 -47 -6z"/>
<path d="M9937 9000 c-14 -11 -29 -30 -32 -41 -5 -14 -12 -18 -27 -13 -12 3
-36 -3 -62 -17 l-42 -22 4 -53 c4 -50 3 -53 -27 -68 -30 -16 -40 -39 -22 -51
5 -3 18 5 28 17 10 13 27 23 38 23 18 0 20 7 20 57 0 57 0 58 40 78 50 26 58
25 53 -4 -3 -14 1 -27 11 -33 14 -9 16 -6 13 24 -4 29 1 39 36 73 32 29 38 40
26 44 -24 9 -29 8 -57 -14z"/>
<path d="M9020 8810 c-25 -3 -61 -14 -80 -25 -87 -45 -199 -200 -230 -314 -16
-61 -14 -150 5 -197 12 -30 25 -44 57 -58 126 -54 295 81 375 299 33 92 34
157 2 222 -30 60 -68 81 -129 73z"/>
<path d="M11713 7645 c4 -11 15 -58 26 -105 17 -76 24 -116 36 -215 2 -16 7
-187 11 -380 9 -464 7 -436 27 -447 16 -8 17 20 17 404 l0 413 -26 95 c-14 52
-39 128 -56 170 -29 72 -47 107 -35 65z"/>
<path d="M18105 6074 c-242 -139 -543 -313 -669 -386 -126 -73 -252 -146 -280
-161 -28 -16 -166 -96 -306 -177 -140 -81 -507 -293 -815 -470 -308 -178 -612
-353 -675 -390 -63 -37 -221 -128 -350 -202 -129 -75 -482 -279 -785 -454
-302 -174 -667 -385 -810 -467 -143 -82 -377 -217 -520 -300 -240 -139 -494
-285 -1025 -591 -113 -65 -272 -158 -355 -206 -82 -48 -256 -148 -385 -223
-129 -74 -350 -201 -490 -282 -140 -81 -345 -199 -455 -263 -110 -63 -258
-149 -330 -190 -71 -42 -314 -183 -540 -313 l-410 -238 -3 -191 c-1 -105 1
-189 5 -187 5 3 492 285 1083 627 2026 1173 2587 1499 4100 2375 833 483 1598
926 1700 985 1114 643 2738 1585 2748 1594 9 9 12 55 10 188 l-3 175 -440
-253z"/>
<path d="M602 5368 l3 -181 540 -314 c297 -173 711 -414 920 -536 209 -121
432 -250 495 -287 63 -37 257 -149 430 -250 173 -101 437 -254 585 -340 149
-86 509 -296 800 -465 292 -170 609 -354 705 -410 96 -56 317 -184 490 -285
173 -101 367 -213 430 -250 63 -37 423 -246 800 -465 377 -219 764 -444 860
-500 96 -56 290 -168 430 -250 140 -81 350 -203 465 -270 116 -67 234 -136
263 -153 l52 -32 -2 202 -3 202 -85 49 c-47 27 -188 109 -315 182 -201 116
-576 332 -1265 730 -107 62 -341 197 -520 300 -179 103 -413 238 -520 300
-530 306 -724 419 -1065 615 -203 118 -480 277 -615 355 -135 78 -378 219
-540 312 -162 93 -540 312 -840 485 -300 173 -603 349 -675 390 -288 166
-1199 692 -1497 864 -175 101 -320 184 -323 184 -3 0 -4 -82 -3 -182z"/>
</g>
</svg>
