<?xml version="1.0" standalone="no"?>
<!DOCTYPE svg PUBLIC "-//W3C//DTD SVG 20010904//EN"
 "http://www.w3.org/TR/2001/REC-SVG-20010904/DTD/svg10.dtd">
<svg version="1.0" xmlns="http://www.w3.org/2000/svg"
 width="2880.000000pt" height="1800.000000pt" viewBox="0 0 2880.000000 1800.000000"
 preserveAspectRatio="xMidYMid meet">
<metadata>
Created by potrace 1.16, written by Peter Selinger 2001-2019
</metadata>
<g transform="translate(0.000000,1800.000000) scale(0.100000,-0.100000)"
fill="#000000" stroke="none">
<path d="M0 9000 l0 -9000 14400 0 14400 0 0 9000 0 9000 -4590 0 c-3990 0
-4590 -2 -4590 -14 0 -8 -5 -18 -12 -22 -8 -5 -9 0 -6 14 6 21 3 22 -79 22
-46 0 -82 -4 -79 -9 3 -5 -4 -11 -16 -14 -12 -4 -19 -9 -15 -13 3 -4 17 1 31
9 24 16 25 16 28 -6 2 -17 9 -21 27 -19 14 1 33 10 43 19 17 16 20 15 36 -1
16 -16 16 -17 -3 -10 -16 6 -18 5 -8 -6 15 -16 46 -23 37 -9 -3 5 -1 9 5 9 5
0 13 -5 16 -10 5 -8 12 -7 23 2 14 12 14 10 3 -10 -10 -18 -9 -23 4 -28 14 -6
14 -8 -1 -25 -9 -10 -13 -22 -10 -28 4 -5 2 -12 -4 -16 -6 -4 -8 -10 -5 -15 3
-5 -5 -12 -17 -16 -13 -5 -1029 -6 -2258 -4 -2874 6 -5523 6 -8045 -1 -1105
-3 -2082 -3 -2169 0 l-160 6 -7 26 c-3 15 -4 31 0 35 8 12 51 14 51 3 0 -5 -7
-9 -15 -9 -8 0 -15 -9 -15 -20 0 -23 8 -24 62 -8 34 10 38 15 34 35 -5 16 -2
21 6 18 7 -3 18 5 23 17 6 12 21 25 34 28 14 3 26 11 29 18 2 8 -2 10 -13 6
-10 -4 -21 -1 -26 7 -6 10 -9 10 -9 2 0 -7 -7 -13 -15 -13 -14 0 -19 11 -16
38 2 15 -23 16 -51 1 -15 -8 -19 -8 -14 0 5 8 -957 11 -3518 11 l-3526 0 0
-9000z m6543 8627 c-3 -5 4 -4 15 2 27 15 32 14 26 -3 -3 -8 -13 -17 -22 -19
-10 -3 -4 -5 11 -6 16 0 26 3 23 8 -3 5 6 12 22 16 41 12 282 16 282 5 0 -5
-25 -8 -55 -7 -33 2 -55 -1 -55 -8 0 -12 164 -14 176 -2 4 4 -7 7 -24 7 -18 0
-32 4 -32 8 0 7 306 8 629 3 19 -1 31 -4 28 -8 -4 -3 -70 -7 -146 -7 -77 -1
-143 -5 -147 -9 -10 -9 1311 -7 1345 3 17 4 21 9 13 14 -7 4 -19 3 -26 -3 -10
-8 -22 -8 -40 -1 -15 5 -37 8 -49 5 -42 -11 -267 -12 -267 -2 0 5 -7 4 -15 -3
-8 -7 -15 -8 -15 -3 0 5 -9 9 -20 10 -11 1 -20 -2 -20 -8 0 -5 -5 -9 -11 -9
-5 0 -7 5 -4 10 3 6 2 10 -4 10 -5 0 -12 -4 -16 -9 -3 -6 -17 -6 -34 -1 -16 4
-56 7 -90 5 -34 -2 -61 1 -61 6 0 6 89 9 215 9 163 -1 214 -4 208 -13 -5 -9
-3 -9 8 0 10 8 110 12 342 13 305 1 327 0 327 -17 0 -11 -3 -14 -10 -7 -12 12
-70 6 -70 -7 0 -5 19 -8 43 -7 30 2 54 -5 87 -24 25 -14 158 -85 295 -158 138
-73 251 -134 253 -135 1 -1 -17 -3 -40 -4 -24 -1 -77 -5 -118 -9 -95 -11 -233
-7 -285 7 -29 7 -54 27 -90 66 -41 46 -60 59 -111 75 -120 37 -149 38 -1444
40 l-1045 1 -53 64 c-29 35 -61 74 -71 87 l-18 23 82 0 c46 0 81 -4 78 -8z
m14072 -11 c28 -13 59 -33 69 -45 27 -30 28 -72 2 -94 -17 -14 -17 -16 -3 -11
16 6 16 4 5 -22 -18 -43 -38 -63 -56 -57 -13 4 -14 3 -4 -5 22 -15 21 -15 -29
-71 -24 -27 -2 -72 47 -98 33 -17 66 -21 206 -26 93 -3 172 -9 178 -12 5 -3
10 -1 10 5 0 7 5 8 13 3 14 -9 407 -11 401 -2 -2 3 30 6 71 5 43 -1 75 -5 75
-11 0 -6 3 -5 8 1 5 8 82 11 244 10 131 -1 238 -2 238 -3 0 -12 -136 -168
-146 -167 -8 1 -12 -2 -9 -6 9 -15 -84 -20 -298 -15 -120 3 -216 2 -214 -2 5
-8 -374 -9 -685 -2 -92 2 -170 0 -174 -4 -4 -4 -14 -7 -23 -6 -12 0 -11 3 4 9
13 6 -12 9 -75 11 -70 1 -86 4 -60 9 l35 7 -30 2 c-17 0 -35 -3 -40 -8 -11
-10 -105 -19 -99 -10 9 14 -112 23 -196 15 -14 -2 -42 -4 -63 -4 -21 -1 -36
-6 -33 -11 3 -5 -1 -12 -10 -15 -26 -10 -33 -7 -31 14 1 11 5 20 9 20 4 0 8 6
8 13 0 16 52 67 68 67 7 0 12 7 12 15 0 9 9 15 22 15 12 0 18 3 15 6 -10 10
33 44 55 44 11 0 17 4 13 9 -3 6 4 15 17 22 12 6 31 20 41 30 11 10 24 16 29
13 4 -3 11 2 14 10 3 9 10 16 16 16 5 0 23 13 41 30 18 16 37 30 44 30 6 0 15
9 18 20 3 11 13 20 21 20 8 0 18 8 21 18 4 9 12 22 19 27 18 13 36 65 24 65
-5 0 -7 7 -4 15 4 11 -5 20 -32 31 -70 30 -313 3 -491 -54 -18 -6 -33 -9 -33
-7 0 2 47 29 105 60 57 30 107 60 110 65 3 6 23 10 43 11 20 0 60 6 87 13 28
7 113 14 190 15 130 2 144 0 190 -23z m229 3 c20 -12 36 -24 36 -29 0 -4 12
-21 28 -37 15 -17 40 -45 57 -63 16 -18 53 -44 82 -57 94 -43 176 -52 451 -50
138 1 252 0 252 -3 0 -3 32 -4 70 -4 39 1 73 -2 76 -7 3 -5 10 -9 15 -9 6 0 7
5 4 10 -4 7 3 8 21 4 19 -5 25 -4 20 4 -5 8 -1 10 9 5 12 -4 13 -8 5 -13 -8
-5 -6 -9 6 -14 10 -4 15 -4 11 0 -16 16 14 32 44 24 16 -5 29 -5 29 0 0 10 70
-8 88 -22 9 -8 12 -5 12 8 1 18 1 18 11 2 5 -10 19 -18 30 -18 11 0 17 -4 14
-10 -3 -5 -87 -8 -210 -7 -113 1 -205 0 -205 -4 0 -3 -24 -2 -52 1 -29 3 -69
3 -88 0 -19 -3 -164 -5 -321 -5 -218 0 -290 3 -301 13 -9 7 -20 12 -24 11 -31
-5 -63 5 -90 29 -42 37 -68 79 -53 84 8 3 7 9 -4 20 -9 8 -14 18 -11 20 10 11
-63 103 -96 120 l-35 18 42 0 c25 0 57 -9 77 -21z m521 -2 c68 -11 207 -15
564 -16 261 -1 477 -3 479 -6 3 -2 -1 -11 -7 -19 -9 -11 -20 -12 -43 -5 -18 5
-28 5 -22 0 5 -5 17 -11 27 -13 17 -3 15 -8 -15 -46 l-33 -42 -495 -3 c-628
-3 -661 2 -825 123 -27 20 -57 40 -65 43 -29 12 346 -2 435 -16z m-1100 -127
c43 -17 70 -50 40 -50 -8 0 -12 -6 -9 -14 6 -15 -6 -28 -56 -66 -19 -14 -49
-38 -67 -53 -18 -16 -37 -26 -43 -22 -5 3 -10 -1 -10 -10 0 -8 -8 -19 -17 -22
-10 -4 -38 -22 -62 -40 -24 -18 -50 -33 -57 -33 -8 0 -14 -3 -14 -7 0 -5 -24
-21 -53 -37 -28 -17 -56 -34 -62 -38 -5 -4 -41 -29 -80 -54 -67 -45 -145 -114
-128 -114 4 0 1 -6 -7 -13 -8 -7 -15 -19 -15 -27 0 -11 -11 -15 -43 -15 -23 0
-42 -3 -42 -7 0 -13 -35 -9 -50 5 -12 10 -12 9 -1 -5 8 -11 25 -17 45 -16 17
1 42 -1 56 -6 19 -5 21 -5 10 3 -12 9 -11 11 7 11 29 0 54 -10 48 -20 -12 -20
131 -32 385 -31 277 1 298 2 490 28 88 11 154 13 280 8 91 -4 197 -7 235 -7
52 0 62 -2 40 -8 -16 -4 -49 -8 -72 -9 -23 0 -63 -6 -90 -11 -26 -6 -102 -21
-168 -34 -66 -13 -204 -46 -307 -72 l-187 -47 -39 35 c-22 20 -49 39 -61 43
-12 3 -18 11 -15 17 4 6 3 8 -3 5 -6 -4 -44 1 -84 9 -53 12 -103 15 -179 11
-104 -6 -262 -39 -268 -57 -2 -5 -10 -6 -18 -3 -8 3 -14 0 -14 -7 0 -6 -4 -9
-9 -6 -13 8 -42 -4 -35 -15 3 -5 -3 -6 -12 -2 -13 5 -15 3 -9 -7 6 -9 4 -11
-4 -6 -17 11 -113 -55 -148 -101 -15 -20 -43 -53 -62 -72 -18 -19 -37 -44 -41
-56 -8 -18 -9 -17 -9 8 -1 32 12 62 42 95 l20 22 -54 0 c-72 0 -173 17 -177
30 -2 5 -9 10 -15 10 -7 0 -18 9 -25 20 -7 11 -9 20 -5 20 5 0 16 20 26 45 11
25 25 45 33 45 8 0 14 5 14 10 0 6 7 10 15 10 8 0 15 4 15 9 0 5 8 12 18 15 9
4 34 22 56 41 21 19 41 35 45 35 4 0 13 11 21 24 7 13 20 27 29 30 26 10 138
82 151 97 3 3 10 8 16 10 40 15 204 116 204 126 0 7 9 13 19 13 19 0 38 13
115 82 l41 36 -38 7 c-21 4 -60 5 -85 1 -58 -8 -289 -63 -319 -76 -61 -26 -7
7 148 90 165 89 184 98 222 99 9 1 17 5 17 11 0 5 -8 7 -17 4 -14 -5 -15 -4
-4 4 8 6 20 8 28 5 8 -3 53 4 101 16 214 52 249 59 289 60 23 1 54 -4 68 -9z
m-11645 -114 c120 -19 150 -28 180 -56 27 -25 31 -35 27 -70 -2 -23 -10 -46
-18 -51 -11 -7 -11 -9 -1 -9 7 0 11 -4 7 -10 -11 -18 7 -58 33 -70 15 -6 64
-11 110 -11 73 1 465 53 727 97 50 8 95 15 100 16 11 1 225 -110 225 -117 0
-2 -5 -7 -12 -11 -6 -4 -8 -3 -5 3 4 6 0 13 -8 17 -8 3 -15 1 -15 -4 0 -5 -7
-7 -15 -3 -9 3 -22 -2 -31 -13 -14 -18 -14 -18 -7 1 6 19 5 19 -13 4 -10 -9
-26 -17 -34 -17 -8 -1 -35 -5 -60 -11 -25 -5 -47 -7 -49 -5 -2 2 1 4 7 4 7 0
12 5 12 11 0 6 -7 9 -15 5 -8 -3 -15 -4 -15 -2 0 3 -3 13 -7 23 -6 16 -5 16
10 4 10 -8 20 -11 24 -8 3 4 12 -1 19 -11 12 -16 13 -15 9 5 -2 13 3 24 12 27
12 5 14 1 11 -19 -5 -25 5 -34 17 -15 3 6 15 10 27 10 15 0 18 3 10 13 -8 9 0
12 36 10 36 -1 43 1 29 8 -9 6 -22 7 -29 3 -7 -4 -8 -3 -4 4 4 7 2 12 -3 12
-6 0 -11 -5 -11 -11 0 -6 -7 -3 -16 5 -8 9 -20 14 -25 10 -5 -3 -35 -7 -67
-10 -31 -3 -58 -9 -60 -14 -2 -5 -9 -7 -15 -4 -13 5 -66 -3 -252 -36 -66 -11
-149 -25 -185 -30 -55 -8 -110 -20 -155 -34 -5 -1 -28 -6 -50 -10 -57 -11
-147 -36 -170 -47 -11 -5 -38 -13 -60 -19 l-40 -9 45 4 c59 6 305 25 455 34
66 5 199 22 295 39 159 27 214 36 392 61 l57 8 150 -79 c83 -44 151 -84 151
-89 0 -7 -58 -9 -167 -6 -93 3 -204 1 -248 -4 -44 -4 -116 -11 -160 -15 -43
-4 -72 -10 -62 -13 9 -3 -23 -6 -71 -7 -48 0 -97 -6 -109 -12 -19 -11 -21 -8
-27 38 -5 34 -12 50 -24 54 -57 15 -120 14 -408 -9 -175 -14 -492 -38 -704
-55 -505 -40 -589 -46 -950 -75 -271 -22 -306 -23 -319 -10 -14 13 -7 15 64
15 44 0 179 7 300 17 206 16 217 18 185 31 -117 48 -293 71 -550 72 l-115 1
-105 121 c-58 67 -106 125 -108 130 -6 14 979 9 1103 -5 61 -7 141 -12 179
-11 62 1 68 0 51 -12 -10 -8 -21 -11 -24 -6 -3 4 -19 8 -36 9 l-30 2 30 -11
c29 -11 62 -46 57 -60 -1 -5 2 -8 7 -8 4 0 6 -11 3 -25 -2 -15 0 -25 7 -25 7
0 0 -11 -15 -25 -15 -14 -24 -28 -21 -31 3 -4 -2 -28 -13 -55 l-18 -49 36 5
c46 6 285 25 316 25 20 0 24 6 29 39 6 49 37 121 52 121 14 0 47 78 39 92 -4
6 -3 8 3 5 5 -4 20 3 33 15 20 19 21 22 7 33 -9 7 -14 15 -10 18 3 4 1 7 -5 7
-7 0 -11 3 -10 8 2 4 -1 8 -6 9 -5 1 -12 7 -16 13 -4 7 -38 21 -76 33 -67 20
-93 21 -929 24 l-860 4 -35 35 -35 35 995 -4 c547 -2 1015 -7 1040 -11z
m10700 -211 c0 -2 -12 -12 -27 -20 -28 -16 -28 -16 -3 -11 14 3 31 6 38 6 7 0
11 3 9 8 -3 4 33 8 78 10 46 1 86 -1 89 -6 3 -5 -8 -22 -25 -38 -17 -16 -38
-37 -47 -46 -9 -10 -22 -18 -29 -18 -7 0 -13 -3 -13 -8 0 -4 -33 -27 -72 -52
-40 -24 -84 -55 -98 -67 -14 -13 -33 -23 -42 -23 -10 0 -18 -4 -18 -10 0 -5
-5 -10 -10 -10 -11 0 -26 -11 -65 -46 -13 -12 -29 -24 -37 -27 -24 -12 -51
-32 -72 -53 -12 -11 -43 -36 -71 -54 -27 -18 -54 -40 -58 -47 -4 -7 -12 -13
-18 -13 -15 0 -67 -51 -88 -85 -17 -30 -17 -33 -2 -52 26 -32 97 -43 290 -43
114 0 181 -4 181 -10 0 -5 -5 -10 -10 -10 -7 0 -7 -7 -2 -17 4 -10 7 -28 6
-40 0 -13 3 -23 8 -23 5 0 7 -4 4 -9 -4 -5 -2 -11 4 -13 5 -1 11 -14 12 -28 2
-14 7 -28 11 -31 21 -15 -167 -33 -383 -36 -129 -2 -251 -6 -270 -8 -83 -8
-431 -5 -448 4 -28 15 -34 59 -11 75 10 7 16 16 13 19 -4 3 9 19 27 34 18 15
41 35 49 43 28 27 173 120 187 120 7 0 13 4 13 9 0 9 118 83 177 111 18 9 43
25 55 37 13 11 40 30 60 41 21 10 35 22 31 25 -3 4 5 11 18 16 25 9 83 55 127
101 l24 25 -31 3 c-17 2 -31 7 -31 11 0 4 105 64 233 134 252 137 237 129 237
122z m-9696 -330 c5 -13 -9 -20 -36 -17 -3 1 -9 -5 -12 -13 -4 -12 3 -14 37
-11 73 8 240 18 300 17 31 0 57 4 57 10 0 5 10 9 23 8 21 0 21 -1 2 -10 -28
-13 354 -3 432 11 l61 12 102 -53 c99 -50 101 -53 79 -65 -24 -13 -24 -14 -2
-11 12 2 25 6 29 9 3 4 93 -38 199 -93 119 -61 205 -99 224 -99 47 0 45 -15
-7 -41 -26 -13 -49 -27 -52 -30 -8 -10 -211 -109 -224 -109 -6 0 -24 -7 -40
-15 -17 -9 -74 -34 -128 -57 -96 -41 -128 -66 -67 -54 39 7 35 -14 -5 -29 -21
-7 -29 -6 -36 5 -7 12 -16 11 -54 -5 -45 -20 -188 -126 -180 -134 2 -2 -5 -10
-15 -17 -10 -8 -28 -30 -40 -49 l-21 -36 28 -10 c19 -8 49 -8 107 1 138 20
195 32 195 41 0 5 12 4 26 -1 14 -6 47 -10 73 -10 39 0 52 -5 72 -27 13 -15
17 -22 8 -15 -16 12 -31 10 -74 -8 -11 -5 -29 -11 -40 -13 -11 -3 12 -5 50 -6
66 -2 69 -3 45 -16 -14 -8 -31 -14 -39 -15 -8 0 -22 -6 -30 -14 -21 -18 -463
-118 -486 -110 -16 7 -16 8 0 17 17 9 253 69 352 89 33 6 50 14 46 21 -3 5 -2
8 3 5 5 -3 27 -2 49 2 l40 8 -51 1 c-28 0 -84 -8 -126 -18 -41 -11 -136 -32
-211 -46 l-137 -28 -47 47 c-27 25 -51 46 -55 46 -5 0 -8 6 -8 14 0 7 -15 28
-34 47 -33 32 -34 34 -20 61 8 15 18 28 23 28 10 0 34 48 37 75 4 33 -15 69
-44 83 -15 7 -65 17 -112 23 -92 11 -143 26 -134 40 7 12 -15 33 -62 60 -27
15 -63 23 -114 26 -41 3 -77 7 -80 10 -8 8 25 23 42 19 10 -2 21 0 24 5 3 5
13 9 22 9 10 0 25 9 34 19 15 18 14 19 -15 26 -29 6 -30 7 -11 15 12 5 57 11
100 14 43 4 99 9 124 13 39 5 42 7 20 14 l-25 7 28 1 c15 1 27 -4 27 -9 0 -6
10 -8 23 -5 12 2 47 7 77 10 30 3 65 7 78 10 13 2 53 7 90 10 103 9 456 76
497 94 11 5 34 12 50 15 17 3 52 12 78 19 48 13 48 13 22 25 -32 15 -68 16
-60 2 3 -5 1 -10 -4 -10 -6 0 -11 6 -12 13 0 10 -2 10 -6 0 -2 -7 -9 -13 -14
-13 -6 0 -8 4 -4 9 3 6 -7 6 -27 0 -18 -5 -79 -8 -138 -8 -60 1 -124 -4 -150
-12 -25 -7 -47 -13 -50 -14 -10 -3 -118 -15 -184 -20 -38 -3 -71 -7 -75 -9 -4
-3 -49 -7 -101 -11 -52 -4 -102 -8 -110 -10 -8 -2 -58 -7 -110 -10 -52 -3
-118 -8 -146 -11 l-51 -5 -6 38 c-4 21 -10 77 -13 124 -6 75 -5 87 10 92 10 4
15 3 11 -3 -3 -5 9 -4 27 2 43 14 50 22 16 16 -15 -3 -25 -1 -22 3 9 15 51 10
58 -6z m12164 -37 c-9 -13 -25 -24 -37 -24 -30 -2 -40 -14 -11 -14 22 0 23 -1
5 -20 -10 -11 -22 -17 -26 -14 -5 3 -6 -1 -3 -9 3 -9 -4 -21 -15 -29 -12 -8
-18 -17 -15 -20 3 -3 1 -9 -4 -12 -5 -3 -15 1 -22 9 -7 8 -19 15 -27 15 -8 0
-12 4 -9 9 6 8 -52 59 -91 80 -32 16 -29 28 6 27 16 -1 28 -3 26 -6 -2 -3 42
-4 98 -2 68 3 105 9 115 18 21 21 26 17 10 -8z m-571 -5 c-3 -4 23 -9 57 -11
33 -1 75 -7 93 -13 31 -10 93 -70 93 -90 0 -6 -28 -8 -74 -6 -41 2 -80 0 -88
-4 -10 -7 -10 -9 0 -9 6 0 11 -6 10 -12 -2 -7 6 -13 17 -13 11 0 27 -4 35 -9
13 -9 13 -8 1 7 -20 26 -8 30 17 7 12 -12 22 -16 22 -10 0 5 8 10 18 10 14 0
15 2 2 10 -12 8 -9 10 12 10 20 0 26 -4 22 -15 -4 -8 -2 -15 3 -15 5 0 10 -7
10 -15 0 -8 -9 -15 -21 -15 -21 -1 -21 -1 -1 -13 12 -7 21 -25 23 -46 3 -36
25 -60 56 -61 15 0 16 -3 6 -15 -7 -8 -16 -12 -21 -9 -5 3 -6 -1 -4 -9 9 -22
-27 -45 -78 -49 -65 -7 -71 -17 -7 -14 46 3 50 2 36 -12 -11 -11 -36 -15 -98
-15 -46 1 -89 -3 -95 -9 -9 -7 -13 -7 -13 2 0 16 -13 4 -16 -14 -1 -8 6 -11
22 -8 13 2 24 8 24 13 0 5 5 9 11 9 5 0 8 -4 5 -9 -3 -5 7 -14 23 -19 22 -8
36 -7 56 4 46 24 59 18 33 -16 -22 -30 -70 -42 -83 -20 -3 6 -11 10 -16 10 -6
0 -7 -5 -3 -12 7 -11 3 -10 -60 9 -11 4 -17 2 -13 -3 3 -6 -3 -15 -13 -22 -12
-7 -21 -8 -25 -2 -3 6 2 10 12 10 17 1 17 1 0 11 -18 10 -18 11 0 25 17 12 16
13 -7 14 -25 1 -25 1 -2 10 30 13 28 17 -10 16 -39 -1 -61 -13 -52 -28 4 -6
10 -5 15 3 6 10 9 11 9 2 0 -7 6 -13 13 -13 7 0 13 -9 14 -20 1 -11 -3 -18 -8
-15 -5 4 -22 9 -37 11 -26 5 -26 5 -7 -10 15 -12 16 -16 5 -16 -13 -1 -13 -2
1 -10 9 -5 34 -8 57 -6 22 2 47 -1 54 -6 18 -13 -199 -2 -239 12 -21 8 -30 16
-26 26 3 8 0 14 -6 14 -7 0 -3 10 9 22 11 12 20 25 20 30 0 19 2 23 16 31 8 5
12 12 9 18 -4 5 -2 9 4 9 6 0 23 12 39 28 16 15 59 54 95 86 37 33 70 68 73
80 8 26 30 47 38 38 4 -3 4 2 0 13 -13 33 -37 51 -91 68 -64 21 -107 21 -236
1 -91 -14 -132 -22 -257 -55 -19 -5 -44 -10 -55 -11 -11 -2 -22 -5 -25 -8 -3
-3 -54 -21 -115 -39 -60 -19 -124 -40 -142 -47 -17 -8 -37 -15 -45 -15 -7 -1
1 -5 17 -10 24 -6 19 -8 -23 -5 -29 2 -54 5 -57 8 -2 2 -1 17 3 32 8 31 1 28
227 95 94 28 292 76 415 100 48 10 108 16 283 29 21 1 36 -1 34 -5z m-2604
-20 c-4 -10 -17 -28 -30 -40 -13 -12 -23 -27 -23 -33 0 -5 -5 -10 -11 -10 -6
0 -28 -13 -49 -30 -21 -16 -42 -30 -48 -30 -6 0 -12 -3 -14 -7 -5 -14 -98 -73
-113 -73 -7 0 -26 -11 -42 -23 -15 -13 -75 -51 -133 -85 -58 -34 -109 -65
-115 -69 -5 -5 -40 -29 -76 -55 -36 -26 -80 -63 -97 -83 -18 -20 -32 -32 -32
-28 0 4 -12 -10 -27 -32 -14 -22 -29 -42 -32 -45 -3 -3 -12 -15 -19 -27 l-12
-23 299 0 c164 0 320 4 347 9 27 5 123 17 214 26 271 26 408 45 550 75 138 29
182 35 235 31 26 -2 27 -3 10 -10 -46 -19 -130 -43 -300 -88 l-180 -47 -625
-4 c-344 -2 -658 -2 -699 0 l-75 3 60 45 c32 24 64 49 70 55 6 5 22 17 34 25
12 8 28 20 34 26 6 5 27 19 46 30 19 10 37 22 40 25 10 13 124 89 132 89 5 0
14 5 21 10 19 17 218 140 225 140 7 0 51 37 97 79 16 14 331 191 342 191 1 0
-1 -8 -4 -17z m2459 -112 c66 -1 68 -2 66 -26 -2 -15 -10 -28 -22 -31 -15 -5
-16 -8 -5 -15 11 -7 10 -9 -4 -9 -10 0 -15 -5 -12 -10 3 -6 -4 -14 -17 -19
-13 -6 -19 -10 -14 -10 6 -1 -9 -15 -32 -32 -23 -17 -42 -35 -42 -40 0 -5 -8
-12 -17 -16 -10 -4 -33 -19 -51 -35 -18 -15 -40 -28 -48 -28 -8 0 -12 -4 -9
-10 4 -6 -6 -10 -24 -10 -41 0 -46 15 -14 39 16 11 33 25 40 31 7 5 15 10 18
10 4 0 12 6 19 13 8 6 24 19 37 27 13 8 37 30 55 48 17 17 38 32 45 32 12 0
12 2 0 9 -9 6 -10 11 -2 15 21 13 -26 48 -71 53 -43 5 -234 -27 -313 -52 -22
-7 -86 -27 -142 -45 -62 -20 -108 -30 -120 -25 -13 5 3 13 61 31 43 13 84 21
90 17 6 -3 7 -2 3 3 -14 15 239 84 284 77 17 -2 29 -1 26 4 -3 4 29 7 71 6 43
-1 107 -2 144 -2z m-2890 -100 c-51 -26 -100 -56 -110 -65 -10 -9 -22 -16 -26
-16 -4 0 -22 -10 -39 -22 -18 -13 -48 -31 -67 -42 -19 -10 -64 -37 -100 -60
-36 -24 -83 -53 -105 -66 -22 -14 -49 -32 -59 -42 -11 -10 -28 -20 -38 -24
-10 -3 -18 -9 -18 -14 0 -4 -11 -11 -25 -14 -14 -4 -23 -11 -20 -16 3 -6 2
-10 -2 -10 -5 0 -31 -19 -58 -41 -28 -23 -73 -52 -102 -65 -28 -13 -54 -32
-58 -43 -3 -10 -29 -38 -57 -62 -28 -24 -57 -50 -64 -56 -7 -7 -16 -13 -21
-13 -4 0 -19 -10 -33 -23 -14 -13 -45 -35 -70 -50 -25 -15 -67 -47 -95 -72
-27 -25 -65 -55 -82 -67 -18 -13 -37 -36 -42 -51 -9 -25 -7 -29 14 -37 24 -9
179 9 254 30 46 13 64 13 56 0 -3 -5 -1 -10 4 -10 6 0 11 5 11 12 0 6 2 9 5 7
2 -3 2 -15 -2 -28 -3 -12 -9 -18 -12 -13 -4 7 -31 4 -76 -9 -93 -26 -359 -79
-396 -79 -16 0 -38 9 -49 20 l-20 20 57 48 c32 26 74 59 93 72 19 13 40 30 45
36 10 12 122 84 130 84 2 0 17 12 33 28 26 25 58 48 166 126 23 16 43 32 44
37 2 5 10 9 17 9 8 0 18 6 22 13 4 7 28 28 53 47 25 19 47 37 50 40 3 3 24 18
48 34 23 16 42 32 42 37 0 4 15 12 33 18 17 6 48 25 67 42 19 16 49 37 65 46
17 9 44 27 61 39 17 13 34 24 38 24 4 0 12 5 19 10 7 6 50 34 96 63 46 29 102
69 125 90 l41 38 -150 -4 c-133 -4 -166 -9 -289 -41 -77 -20 -144 -35 -149
-33 -6 2 39 16 99 31 60 15 120 31 134 36 48 16 -61 11 -115 -5 -114 -35 -237
-65 -266 -65 -16 0 -28 -4 -25 -9 7 -10 -102 -35 -130 -29 -10 2 37 18 106 37
69 18 157 44 195 57 l70 23 -57 0 c-31 1 -94 -8 -140 -19 -91 -22 -112 -24
-104 -12 3 5 -5 7 -17 6 -12 -1 -22 -3 -22 -4 0 -6 -98 -3 -102 3 -2 4 -13 5
-24 2 -10 -3 -29 -7 -41 -11 -23 -5 -23 -5 -3 12 19 16 19 16 -17 11 -21 -3
-40 -1 -43 4 -4 5 -11 9 -16 9 -6 0 -7 -4 -4 -10 8 -13 -51 -13 -76 0 -14 8
-19 7 -19 -1 0 -8 -4 -8 -15 1 -8 7 -15 9 -15 4 0 -5 -18 -10 -40 -11 -22 -2
-40 1 -40 5 0 10 -120 7 -144 -3 -13 -6 -21 -4 -24 3 -4 14 -462 17 -490 3
-48 -24 -148 -45 -156 -33 -3 5 0 10 7 9 6 0 27 1 46 1 29 2 32 4 21 17 -7 9
-16 12 -19 7 -10 -15 -40 -21 -44 -9 -5 16 -283 23 -303 6 -10 -8 -14 -8 -14
0 0 8 -113 11 -407 11 -260 0 -403 4 -393 10 8 5 24 7 35 4 11 -3 29 2 40 10
19 14 18 15 -13 6 -22 -6 -30 -5 -26 2 4 5 -4 5 -17 -2 -13 -7 -21 -9 -17 -5
4 5 3 14 -3 21 -8 9 -4 12 14 10 13 -2 29 -6 35 -10 6 -3 14 -1 18 5 4 8 3 9
-4 5 -7 -4 -12 -1 -12 9 0 9 -4 13 -10 10 -5 -3 -10 -1 -10 4 0 8 518 11 1728
11 l1727 -1 -93 -48z m2741 37 l22 -12 -25 -7 c-24 -7 -24 -7 5 -8 l29 -1 -35
-32 c-89 -83 -110 -98 -131 -97 -15 0 -18 3 -9 6 8 3 25 15 37 27 40 36 53 46
64 46 6 0 8 5 5 10 -3 6 0 10 7 10 7 1 2 7 -11 14 -23 13 -23 14 -5 19 10 2
-11 5 -47 6 -46 1 -102 -8 -180 -30 -63 -17 -126 -33 -140 -36 -16 -3 -29 -15
-36 -34 -10 -26 -10 -29 5 -25 48 14 134 24 150 18 23 -9 26 -32 5 -33 -10 0
-13 -3 -6 -5 13 -6 -19 -44 -37 -44 -5 0 -17 -8 -27 -18 -10 -11 -27 -22 -37
-26 -17 -6 -17 -5 -5 11 11 13 11 15 1 9 -7 -4 -17 -19 -22 -32 -6 -14 -18
-27 -27 -31 -10 -4 -34 -19 -53 -35 -19 -15 -40 -28 -47 -28 -7 0 -13 -4 -13
-9 0 -16 -83 -52 -94 -41 -6 6 -15 10 -20 10 -6 0 -3 -7 6 -14 17 -12 17 -14
0 -29 -9 -8 -21 -17 -27 -18 -36 -8 -44 -12 -39 -20 3 -5 -2 -9 -10 -9 -9 0
-16 -4 -16 -8 0 -5 -10 -14 -22 -19 -46 -22 -148 -125 -148 -149 0 -13 -5 -24
-10 -24 -21 0 11 -40 47 -58 l36 -19 -55 2 c-30 1 -61 6 -68 10 -10 6 -12 4
-7 -8 4 -11 2 -14 -7 -11 -8 3 -17 1 -21 -5 -4 -7 6 -11 27 -12 18 -1 42 -2
53 -3 11 0 28 2 38 7 9 4 17 4 17 -1 0 -4 64 -7 143 -6 145 3 181 -1 172 -16
-8 -13 14 -23 33 -15 16 6 15 8 -2 21 -18 13 -16 14 30 14 35 0 45 -3 34 -10
-18 -12 -25 -11 89 -16 52 -2 96 -6 99 -9 3 -3 -40 -6 -96 -6 -56 -1 -111 -3
-122 -4 -11 -1 -27 -3 -35 -4 -8 0 -15 -5 -15 -10 0 -4 12 -7 28 -5 84 9 117
7 114 -7 -2 -11 1 -10 10 2 9 11 32 16 73 18 32 1 62 6 66 12 3 5 19 7 35 4
39 -9 46 -9 65 -1 12 5 18 0 23 -18 3 -14 11 -26 17 -26 8 0 8 4 1 13 -8 10 1
12 45 12 32 -1 58 -6 60 -12 3 -7 -4 -9 -16 -6 -13 3 -21 1 -21 -7 0 -9 -4 -9
-17 1 -12 10 -17 11 -20 2 -6 -16 -204 -7 -215 10 -4 7 -8 8 -8 2 0 -5 -11
-11 -25 -11 -14 -1 -25 2 -25 8 0 5 -5 6 -10 3 -6 -4 -8 -11 -4 -16 3 -5 2 -9
-3 -8 -26 5 -185 -2 -180 -8 4 -3 86 -6 183 -5 97 1 175 0 173 -2 -4 -3 -60
-7 -311 -21 -32 -2 -61 -6 -65 -8 -5 -3 -29 -5 -55 -6 -27 0 -65 -1 -85 -2
l-38 -2 40 -13 c22 -7 34 -13 26 -13 -8 -1 -12 -4 -9 -7 4 -3 17 2 31 11 16
10 38 14 63 11 22 -2 59 -5 84 -7 35 -1 27 -4 -35 -10 -44 -5 -86 -7 -92 -4
-7 2 -13 0 -13 -5 0 -13 -60 -13 -80 0 -10 6 -11 10 -2 10 7 0 3 9 -9 21 -17
17 -19 23 -8 30 10 6 8 9 -8 9 -13 0 -23 5 -23 11 0 7 13 10 34 7 24 -3 32 0
29 9 -3 9 -67 12 -251 13 -345 3 -335 2 -338 23 -1 11 6 19 23 23 18 5 21 9
11 15 -10 6 -10 9 0 9 6 0 12 6 12 14 0 17 128 136 146 136 7 0 18 9 24 20 6
11 17 20 25 20 7 0 15 3 17 8 5 10 125 92 137 92 5 0 11 3 13 8 7 16 70 53 83
48 9 -3 12 0 8 10 -4 11 4 14 33 15 38 1 38 2 9 9 -16 4 -25 8 -19 9 5 0 19
10 31 20 16 15 40 20 107 24 92 4 129 17 55 18 -32 0 -39 3 -24 8 11 5 23 7
28 4 4 -2 7 1 7 7 0 7 8 9 20 5 11 -4 20 -2 20 4 0 6 8 8 18 4 9 -3 14 -3 10
2 -4 4 -17 8 -29 9 -12 0 -24 7 -27 14 -2 8 2 10 14 5 13 -5 15 -3 9 8 -7 11
-5 11 10 -1 15 -12 17 -12 10 -1 -6 11 -4 13 8 8 9 -3 27 -2 39 3 20 8 18 9
-17 11 -22 1 -46 3 -53 3 -8 1 -19 9 -26 19 -7 9 -23 17 -35 17 -36 0 -14 18
32 25 85 15 152 65 124 95 -8 9 -8 11 -1 7 7 -4 54 7 105 23 52 16 103 30 115
30 11 0 24 3 28 8 9 8 117 29 164 31 18 0 43 -4 55 -11z m-9364 -82 c-2 -2
-56 -34 -119 -72 -106 -62 -171 -107 -210 -143 -26 -24 165 -7 365 34 99 20
188 38 199 42 12 3 16 1 12 -6 -5 -8 13 -11 56 -13 35 0 68 -2 73 -3 6 -2 24
-4 40 -5 20 -1 6 -7 -40 -15 -38 -7 -104 -22 -145 -34 -71 -20 -357 -91 -366
-91 -2 0 -4 -4 -4 -9 0 -18 36 -17 135 6 55 12 125 27 155 34 30 6 73 15 95
19 22 5 67 14 100 20 33 6 76 15 95 20 57 15 110 19 110 10 0 -4 -6 -11 -12
-13 -8 -3 -7 -6 4 -6 9 -1 20 4 23 9 3 6 14 10 23 10 14 0 14 -1 -2 -13 -15
-11 -11 -12 26 -8 35 3 39 5 23 12 -14 6 -9 8 18 5 27 -3 40 0 44 10 3 8 13
14 22 14 13 -1 13 -2 -3 -11 -25 -15 -4 -29 47 -29 28 0 36 3 31 13 -6 9 -4 9
7 1 8 -7 22 -8 34 -3 24 9 51 11 43 3 -13 -13 -366 -90 -498 -109 -59 -8 -72
-11 -90 -18 -24 -9 -192 -37 -225 -37 -16 0 -43 -7 -58 -15 -26 -13 -32 -13
-60 1 -24 13 -32 14 -35 4 -3 -8 -10 -4 -18 11 -7 13 -13 18 -14 12 0 -18 -64
-16 -100 2 -30 16 -42 39 -15 29 8 -4 15 -9 15 -13 0 -4 6 -8 13 -9 6 -1 27
-5 45 -8 20 -4 32 -2 32 4 0 16 -18 24 -22 10 -3 -7 -7 -5 -11 6 -4 10 -3 15
3 11 6 -3 10 3 10 14 0 25 -6 26 -26 7 -14 -15 -58 -10 -49 5 3 4 12 6 19 3 8
-3 17 -1 21 5 9 16 -28 13 -51 -3 -14 -11 -22 -12 -32 -3 -11 9 -6 14 25 23
21 7 30 12 21 13 -9 1 -29 -4 -43 -9 -20 -8 -24 -14 -17 -23 7 -8 6 -16 -3
-24 -16 -14 -45 5 -107 70 -25 26 -53 47 -62 47 -10 0 -15 -4 -12 -8 3 -5 -17
-4 -43 2 -62 12 -124 -8 -129 -42 -2 -12 0 -22 5 -22 4 0 19 -9 33 -20 l25
-19 -25 6 -25 5 23 -16 c67 -50 -20 -89 -103 -46 -49 25 -57 25 -25 0 l25 -20
-22 0 c-13 0 -23 -4 -23 -10 0 -5 -18 -10 -40 -10 -22 0 -40 -4 -40 -10 0 -6
-29 -10 -68 -10 -74 0 -110 -16 -99 -44 4 -9 2 -16 -3 -16 -6 0 -10 4 -10 9 0
5 -12 12 -26 15 -43 11 -19 54 68 119 20 15 42 27 48 27 6 0 8 5 5 10 -3 6 2
10 12 10 10 0 41 10 68 24 28 13 66 31 85 40 l35 17 -45 -6 -45 -5 35 20 c36
20 110 29 80 10 -8 -5 -10 -10 -4 -10 6 0 14 3 18 7 4 4 18 9 32 11 14 1 42
12 62 22 20 11 42 20 49 20 13 0 46 16 67 33 6 5 61 33 121 62 l110 54 119 1
c66 0 117 -2 115 -4z m501 -11 c-226 -57 -399 -80 -415 -56 -7 12 34 51 52 51
8 0 11 5 8 10 -4 7 66 10 202 9 198 -1 205 -1 153 -14z m575 -2 c-115 -28
-244 -50 -235 -40 3 3 23 8 44 11 65 10 52 13 -54 13 -55 -1 -100 -5 -100 -9
0 -8 45 -13 83 -10 9 1 17 -3 17 -8 0 -6 -8 -10 -17 -11 -10 0 -25 -2 -33 -5
-8 -2 -33 -8 -55 -13 -22 -4 -51 -13 -65 -19 -14 -5 -70 -10 -125 -11 -58 0
-101 -5 -103 -11 -2 -5 -11 -10 -20 -10 -15 0 -15 2 -2 11 11 8 0 9 -42 6 -32
-2 -56 -2 -54 0 5 5 278 73 304 75 12 2 22 6 22 11 0 5 11 7 25 5 13 -3 22 -2
20 3 -5 7 16 11 110 22 17 2 100 4 185 4 l155 1 -60 -15z m613 5 c6 -6 12 -6
12 -2 0 5 84 9 188 10 103 0 176 -1 162 -3 -14 -2 -78 -13 -144 -24 -113 -19
-119 -19 -133 -2 -8 10 -12 12 -8 6 4 -9 -2 -13 -17 -13 -18 0 -20 2 -8 10 12
8 11 10 -7 10 -12 0 -23 -5 -25 -10 -2 -6 -35 -11 -73 -12 -55 -2 -69 1 -67
12 2 10 0 11 -11 2 -8 -7 -29 -10 -48 -8 -19 2 -42 -1 -53 -6 -12 -7 -16 -7
-12 0 6 10 -74 8 -126 -3 -10 -2 -18 1 -18 6 0 5 24 9 54 9 30 0 58 5 61 10 9
14 45 12 45 -2 0 -8 5 -6 11 4 8 14 25 17 107 17 53 -1 103 -5 110 -11z m4412
-148 c9 -6 3 -13 -21 -25 -18 -10 -39 -24 -47 -31 -7 -8 -17 -14 -20 -14 -4 0
-32 -20 -62 -45 -30 -25 -60 -45 -65 -45 -6 0 -22 -12 -36 -27 -14 -16 -36
-35 -49 -43 -13 -8 -32 -23 -42 -32 -10 -10 -21 -18 -24 -18 -13 0 -35 -31
-29 -40 4 -6 3 -9 -2 -8 -12 4 -83 -34 -83 -44 0 -5 -6 -8 -14 -8 -8 0 -16 -3
-18 -7 -5 -13 -105 -93 -114 -93 -5 0 -21 -11 -36 -25 -15 -14 -32 -25 -38
-25 -5 0 -10 -4 -10 -10 0 -5 -9 -10 -19 -10 -11 0 -21 -3 -23 -8 -5 -12 -135
-102 -147 -102 -6 0 -11 -4 -11 -9 0 -4 -26 -24 -57 -44 -32 -19 -67 -44 -79
-54 -11 -10 -29 -23 -39 -29 -30 -17 -29 -32 2 -37 15 -2 10 -3 -11 -1 -45 3
-74 -14 -145 -83 -50 -49 -50 -73 1 -73 51 0 197 28 326 62 64 16 142 36 172
43 30 7 101 25 158 39 116 29 113 29 110 19 0 -5 2 -16 7 -26 4 -10 5 -21 1
-24 -3 -4 -6 1 -6 10 0 9 -4 17 -10 17 -6 0 -6 -9 0 -26 7 -16 7 -23 0 -19 -5
3 -99 -17 -207 -45 -109 -29 -244 -63 -300 -78 -56 -14 -100 -29 -97 -34 3 -4
-1 -5 -9 -2 -8 3 -63 -6 -123 -20 -218 -50 -471 -98 -545 -103 -88 -7 -104 4
-62 42 24 21 26 26 13 35 -11 8 -8 9 13 4 15 -3 27 -2 27 4 0 5 8 13 18 16 9
3 28 13 42 22 l25 15 -35 -6 c-26 -5 -31 -4 -20 4 37 26 -11 7 -89 -35 -212
-114 -306 -182 -254 -185 53 -3 119 4 218 22 176 32 666 142 990 223 393 97
365 92 365 68 0 -11 2 -26 3 -34 2 -7 2 -10 0 -5 -8 14 -25 7 -19 -8 3 -8 3
-15 1 -15 -11 0 -275 -52 -330 -65 -33 -8 -179 -39 -325 -70 -268 -57 -331
-70 -770 -169 -298 -67 -441 -94 -541 -102 -132 -11 -113 14 96 132 66 37 152
84 190 104 90 47 189 102 195 109 3 4 14 11 25 18 11 6 19 16 18 21 -1 5 6 8
16 5 9 -2 23 3 30 11 8 9 20 16 27 16 8 0 14 5 14 10 0 6 6 10 14 10 8 0 28
11 44 25 17 14 35 25 41 25 6 0 11 5 11 10 0 6 6 10 13 10 6 0 25 11 41 25
l29 25 -24 1 c-20 1 -20 2 -4 5 56 12 95 29 100 43 2 9 19 22 37 30 48 21 320
201 343 228 11 13 26 23 32 23 22 0 39 66 18 73 -18 7 -201 -25 -290 -51 -39
-11 -101 -28 -140 -37 -38 -9 -81 -20 -95 -25 -14 -5 -38 -11 -53 -14 -17 -4
-25 -11 -21 -18 5 -8 1 -9 -10 -5 -10 4 -87 -11 -175 -34 -164 -43 -616 -167
-714 -196 -31 -9 -59 -14 -62 -12 -2 3 -6 35 -9 72 -4 65 -3 67 20 67 12 0 26
-4 29 -10 3 -5 0 -7 -8 -4 -8 3 -18 0 -22 -7 -9 -14 11 -12 195 25 150 30 263
55 420 92 220 53 255 62 690 190 85 26 180 53 210 62 30 9 57 18 60 21 3 3 12
7 20 7 8 1 77 18 153 38 237 64 299 67 294 18 -2 -25 -58 -92 -77 -92 -5 0
-23 -13 -41 -29 -18 -17 -45 -35 -61 -42 -15 -6 -28 -18 -28 -25 0 -8 -5 -14
-11 -14 -6 0 -31 -15 -57 -32 -26 -18 -55 -37 -64 -43 -9 -5 -48 -31 -85 -56
-55 -37 -148 -99 -257 -171 -6 -4 -5 -13 5 -24 13 -16 12 -17 -10 -11 -28 7
-75 -9 -66 -23 3 -5 0 -10 -8 -10 -8 0 -41 -19 -73 -43 -33 -24 -81 -55 -109
-71 -66 -36 -90 -54 -82 -63 4 -4 13 -1 19 5 7 7 17 12 22 12 6 0 4 -5 -4 -10
-9 -6 -10 -10 -3 -10 32 0 290 154 285 171 -1 5 11 12 28 15 16 4 28 10 27 14
-2 6 139 105 272 192 14 9 31 20 36 25 6 4 76 52 157 106 81 54 152 105 159
113 6 8 18 14 25 14 15 0 19 20 7 35 -5 6 -4 7 2 3 13 -11 20 -10 43 10 11 9
33 26 48 37 15 11 54 45 87 76 45 42 59 60 53 74 -6 16 -15 17 -73 11 -90 -9
-170 -31 -493 -136 -474 -153 -889 -268 -1084 -301 -41 -7 -73 -15 -71 -18 3
-7 5 -6 -210 -17 -135 -6 -159 -4 -235 15 -46 11 -96 21 -112 21 -26 0 -28 2
-28 44 0 25 -4 48 -10 51 -13 8 -13 -140 0 -454 6 -134 10 -245 8 -246 -2 -2
-243 -6 -535 -10 -490 -7 -533 -6 -533 9 0 11 9 16 26 16 14 0 23 -4 19 -10
-3 -5 -2 -10 4 -10 6 0 15 8 20 18 13 25 -18 53 -50 45 -22 -6 -22 -7 -3 -14
18 -7 18 -8 -2 -8 -13 -1 -24 7 -27 19 -6 23 9 30 45 19 34 -9 49 8 23 28 -15
10 -16 16 -7 25 17 17 15 28 -5 21 -11 -4 -14 -3 -9 5 4 7 2 12 -5 12 -8 0 -6
6 4 18 20 22 22 33 5 31 -47 -6 -76 2 -81 23 -8 28 -5 30 27 22 21 -5 24 -9
15 -20 -16 -19 1 -18 23 3 26 24 23 29 -24 30 -40 2 -58 14 -58 42 0 15 53 6
58 -10 4 -11 32 8 32 21 0 11 -57 33 -72 27 -8 -3 -5 -6 7 -6 11 -1 27 -6 35
-11 11 -7 5 -8 -20 -3 -61 11 -70 48 -10 40 26 -3 43 -1 50 9 9 10 6 15 -14
20 -32 8 -33 15 -5 32 26 16 16 28 -31 37 -25 4 -31 3 -20 -4 12 -8 12 -11 -3
-17 -22 -8 -25 -5 -33 34 -7 36 7 42 42 18 17 -12 22 -12 38 0 23 16 12 22
-49 26 -29 2 -41 8 -43 21 -3 13 3 17 30 16 27 0 30 -2 13 -9 -17 -7 -17 -9
-3 -9 26 -1 61 31 45 41 -18 12 -55 9 -59 -4 -8 -24 -38 1 -38 32 0 31 13 38
40 20 13 -9 13 -11 0 -20 -13 -9 -13 -10 0 -10 14 0 50 33 50 46 0 3 -10 5
-22 4 -59 -5 -78 0 -78 20 0 19 7 20 128 20 70 0 132 4 137 9 6 6 64 21 130
35 66 13 137 32 158 41 53 22 295 85 537 140 36 8 132 30 215 50 92 22 172 35
210 34 l60 -1 -55 -13 c-109 -25 -297 -67 -385 -86 -49 -10 -148 -35 -220 -54
-71 -19 -215 -58 -320 -86 -104 -28 -192 -53 -195 -56 -13 -15 103 11 278 62
252 73 348 96 642 154 280 56 432 76 498 67 55 -7 112 -27 112 -38 0 -4 5 -8
11 -8 6 0 28 -14 49 -30 84 -67 178 -75 386 -35 143 27 366 82 489 121 115 36
121 37 114 30 -8 -8 -252 -92 -328 -112 -330 -89 -420 -107 -536 -107 -95 1
-145 15 -196 57 -107 86 -178 100 -379 75 -168 -20 -584 -109 -650 -138 l-25
-11 28 5 c15 3 39 8 55 11 23 4 24 4 9 -6 -10 -6 -46 -13 -80 -15 -57 -3 -200
-35 -307 -69 l-45 -15 71 0 c54 -1 96 7 180 33 343 109 744 173 879 141 53
-13 129 -48 167 -77 79 -61 158 -72 335 -43 102 17 147 31 139 44 -6 9 16 21
37 21 7 0 6 -4 -3 -10 -31 -19 1 -21 67 -2 37 11 120 34 183 52 113 31 442
134 612 191 47 16 99 28 115 28 l28 -2 -27 -4 c-14 -2 -32 -12 -39 -21 -11
-14 -11 -15 1 -4 8 6 37 12 65 13 40 1 45 3 25 9 -20 6 -16 8 23 9 27 1 46 -3
43 -8 -3 -4 9 -6 27 -3 17 2 46 5 64 6 62 2 20 16 -49 16 -88 0 -86 8 2 11 36
1 68 7 73 13 5 8 9 7 15 -1 8 -13 117 -21 129 -10 3 4 0 8 -8 8 -8 1 4 5 26 9
39 7 39 7 -15 9 -40 1 -51 4 -40 11 11 7 7 10 -17 10 -18 0 -33 3 -33 8 0 4
55 8 122 8 223 3 208 1 202 21 -4 14 -4 15 4 4 5 -7 15 -17 22 -21z m3140 -18
c-16 -6 -30 -15 -30 -18 0 -3 5 -2 11 2 6 3 -12 -18 -40 -47 -28 -29 -51 -57
-51 -61 0 -4 -20 -8 -44 -8 -25 0 -47 -3 -50 -8 -2 -4 16 -7 40 -6 34 1 44 -2
40 -11 -4 -13 48 -45 73 -45 6 0 11 -3 11 -7 0 -5 80 -7 178 -7 107 1 185 -3
197 -9 24 -13 56 -17 49 -6 -2 4 0 10 6 14 5 3 10 -2 11 -12 0 -16 1 -16 9 2
5 11 9 14 9 6 1 -11 4 -11 16 -1 12 10 15 10 15 -3 0 -9 -5 -19 -11 -23 -17
-10 -139 -12 -139 -2 0 5 -6 6 -12 1 -20 -13 -52 -9 -64 7 -10 12 -14 12 -30
0 -11 -9 -15 -10 -10 -2 5 9 -4 12 -33 12 -34 0 -39 -3 -35 -17 5 -17 5 -17
-9 0 -21 25 -41 23 -25 -3 9 -14 20 -19 33 -16 11 3 27 1 35 -4 10 -7 -4 -10
-47 -10 -36 0 -65 5 -69 11 -5 9 1 10 20 5 16 -4 26 -2 26 4 0 6 -12 10 -27 8
-16 -2 -26 -7 -23 -13 3 -6 -15 -13 -40 -16 -30 -4 -7 -7 68 -7 69 -1 112 2
112 8 0 6 23 10 50 10 28 0 50 -4 50 -10 0 -5 5 -10 11 -10 5 0 7 5 4 10 -3 6
3 10 15 10 12 0 19 -4 15 -9 -3 -5 3 -12 12 -14 10 -3 -127 -5 -303 -6 -262
-1 -328 2 -355 14 -19 8 -29 14 -24 15 6 0 4 4 -3 8 -17 12 46 94 88 114 17 8
30 18 28 21 -5 10 105 76 116 70 5 -3 6 -1 2 5 -8 14 60 56 76 46 7 -4 10 -3
5 1 -4 5 0 16 8 26 13 14 20 15 41 5 l24 -11 -30 -13z m-7010 -21 c3 -2 -4 -1
-15 3 -11 4 -16 3 -11 -1 13 -13 57 -10 52 3 -3 8 5 11 22 9 15 -2 33 2 41 9
12 8 13 8 7 -1 -4 -7 -3 -13 3 -13 5 0 17 -3 27 -7 11 -4 15 -3 11 4 -4 7 0
10 10 8 10 -2 18 -4 18 -5 0 -1 9 -4 20 -6 46 -11 65 -11 65 0 0 7 3 7 8 1 11
-16 47 -11 44 5 -2 8 0 11 5 7 4 -5 9 -13 9 -18 3 -22 5 -23 14 -9 9 13 11 13
20 0 5 -8 10 -10 10 -3 0 6 14 16 30 22 22 7 29 7 24 0 -4 -8 1 -9 16 -4 17 5
21 4 15 -6 -5 -7 2 -5 16 4 13 9 28 17 34 17 5 0 4 -4 -3 -8 -7 -5 12 -8 43
-8 30 1 55 5 55 10 0 6 7 1 16 -10 8 -10 13 -14 10 -7 -9 17 34 28 45 12 5 -8
9 -9 9 -4 0 6 4 3 10 -5 8 -12 10 -12 15 3 6 15 8 15 23 1 14 -15 17 -15 28 0
8 11 14 13 19 7 3 -6 11 -11 16 -11 6 0 8 4 5 8 -3 5 5 7 17 6 12 -1 26 -3 30
-3 5 -1 5 -7 2 -13 -4 -7 -1 -6 7 3 9 11 20 14 33 9 23 -9 38 -3 30 11 -4 5
-2 9 3 9 6 0 13 -7 16 -16 4 -10 2 -13 -6 -8 -6 4 -8 3 -5 -3 4 -6 19 -8 34
-5 25 5 25 6 8 13 -13 5 -6 6 20 4 22 -1 40 -8 40 -14 0 -6 5 -10 10 -8 5 1 9
5 7 10 -1 4 11 6 28 5 16 -1 30 -6 30 -11 0 -4 5 -5 10 -2 6 4 8 10 5 15 -3 5
0 12 6 16 7 4 9 3 6 -3 -4 -6 6 -16 24 -22 24 -8 30 -8 26 2 -7 19 45 18 67
-1 11 -10 16 -11 12 -4 -9 15 6 16 22 0 9 -9 12 -9 12 2 0 7 3 10 7 7 3 -4 12
1 20 11 8 9 12 11 8 5 -4 -9 2 -13 20 -13 14 0 24 -4 21 -8 -2 -4 4 -8 15 -8
10 0 19 6 19 13 0 7 7 10 15 7 8 -4 12 -10 9 -15 -3 -5 2 -6 10 -3 9 3 13 11
9 18 -4 6 0 5 9 -2 13 -11 21 -11 39 -2 12 7 19 8 15 2 -3 -5 0 -12 8 -15 8
-3 17 0 20 8 3 8 13 11 27 8 17 -5 20 -3 14 7 -5 9 -4 11 4 6 8 -5 9 -12 2
-19 -7 -9 -3 -12 14 -12 13 0 21 3 18 8 -2 4 1 7 7 7 6 0 13 -7 17 -16 4 -12
8 -13 13 -3 5 7 31 13 59 14 27 1 49 -1 47 -4 -2 -3 9 -6 24 -6 15 0 26 3 24
7 -2 4 0 9 6 13 20 12 9 -24 -16 -54 -17 -21 -48 -38 -92 -53 -67 -23 -68 -23
-822 -26 -802 -4 -859 -1 -957 43 -55 25 -93 69 -76 86 8 8 13 7 18 -2 6 -8 4
-10 -5 -4 -9 5 -11 4 -6 -3 5 -8 15 -8 32 -2 35 14 38 13 23 -7 -13 -16 -12
-17 3 -5 9 8 27 11 40 8 13 -3 17 -3 11 0 -19 9 -16 24 4 17 12 -5 14 -3 8 8
-7 12 -6 12 11 -1 10 -8 21 -16 24 -19z m6815 -16 c-11 -8 -27 -20 -34 -27 -8
-7 -42 -29 -74 -50 -74 -45 -186 -139 -186 -155 -1 -7 -5 -13 -9 -13 -13 0
-13 -50 1 -50 17 -1 52 -28 45 -36 -4 -3 -16 -1 -27 5 -17 10 -20 9 -14 -5 5
-13 3 -15 -7 -9 -8 5 -28 10 -45 12 -25 2 -27 1 -12 -8 10 -6 25 -8 33 -5 8 3
14 2 14 -3 0 -4 18 -8 39 -7 22 1 39 6 38 11 -1 6 22 11 51 13 42 2 52 0 46
-10 -6 -10 -5 -10 7 -1 16 13 669 16 669 3 0 -21 -37 -29 -167 -32 -95 -2
-143 0 -143 7 0 7 -3 7 -8 0 -4 -7 -105 -10 -282 -10 -222 1 -279 3 -297 15
-27 18 -35 36 -27 62 4 15 12 18 30 14 14 -4 24 -2 24 4 0 5 -3 9 -7 9 -44 -7
-5 46 70 98 23 15 44 30 47 33 9 9 154 106 170 114 8 4 26 13 40 21 32 19 41
19 15 0z m-7407 -36 c-7 -5 40 -8 107 -7 99 1 109 3 60 8 -49 5 -40 7 50 7 81
0 97 -2 60 -7 -27 -4 -43 -8 -35 -9 11 -1 12 -4 3 -9 -6 -4 23 -7 65 -6 42 1
78 3 80 4 8 7 76 2 79 -6 2 -5 -14 -18 -34 -29 -21 -11 -61 -34 -90 -52 -29
-18 -55 -33 -58 -33 -3 0 -24 -12 -48 -27 -23 -15 -55 -35 -72 -44 -16 -10
-29 -22 -28 -27 1 -6 -6 -8 -16 -5 -10 2 -25 -3 -34 -12 -9 -9 -41 -27 -71
-41 -30 -13 -60 -31 -66 -39 -7 -8 -18 -15 -25 -15 -8 0 -15 -5 -17 -11 -2 -6
-26 -17 -53 -24 l-50 -14 96 0 c84 -1 98 2 114 19 10 11 22 20 28 20 5 0 38
20 72 44 35 24 73 47 84 51 22 7 29 25 10 25 -6 0 -20 -5 -31 -11 -15 -8 -19
-8 -16 1 2 6 7 11 11 11 4 -1 23 6 43 14 32 13 35 13 24 0 -7 -8 -9 -15 -5
-15 6 0 99 45 180 88 149 78 164 82 293 75 64 -4 110 -9 102 -11 -23 -8 -142
-82 -173 -108 -16 -13 -23 -25 -17 -29 6 -4 17 -1 25 5 15 12 16 11 19 -11 1
-14 64 -20 72 -8 3 5 -10 9 -28 9 -21 0 -28 3 -20 8 23 15 68 2 68 -19 0 -10
-7 -19 -15 -19 -8 0 -12 -3 -9 -6 10 -10 362 61 528 107 19 5 105 25 192 44
129 29 175 35 265 34 l108 -1 -90 -24 c-49 -13 -129 -33 -176 -44 -48 -11
-145 -36 -215 -56 -71 -19 -145 -40 -164 -45 -19 -6 -51 -15 -70 -20 -19 -5
-46 -12 -60 -15 -14 -3 -97 -24 -185 -47 -135 -35 -179 -42 -279 -45 l-118 -3
4 -30 c4 -24 1 -29 -16 -28 -12 0 -16 3 -9 6 10 3 10 9 0 24 -19 31 -40 24
-32 -11 7 -34 -5 -39 -50 -18 -35 16 -59 -5 -29 -27 22 -17 48 -20 39 -4 -5 7
3 9 21 7 18 -2 30 -10 32 -20 3 -15 -4 -18 -42 -18 -48 0 -72 -18 -37 -27 12
-3 21 -9 21 -14 0 -5 12 -8 28 -8 23 2 24 2 4 6 -29 6 -19 23 14 23 17 0 24
-5 24 -20 0 -11 -6 -20 -12 -21 -7 0 -4 -4 7 -9 30 -13 -6 -13 -40 0 -16 6
-33 7 -43 1 -13 -7 -10 -11 16 -25 39 -20 55 -20 22 0 -14 8 -17 13 -7 10 10
-3 30 -6 43 -6 17 0 24 -6 24 -20 0 -17 -7 -20 -45 -20 -25 0 -45 -3 -45 -6 0
-14 36 -33 60 -33 23 0 23 1 5 9 -18 8 -17 9 6 9 19 1 28 -5 32 -19 5 -18 0
-20 -38 -20 -50 0 -65 -14 -34 -30 16 -9 24 -8 38 4 24 22 38 20 44 -6 8 -28
7 -29 -42 -30 -53 -1 -60 -13 -20 -33 17 -9 28 -12 25 -6 -5 7 2 11 16 11 18
0 20 2 8 10 -13 8 -13 10 2 10 16 0 35 -36 25 -46 -3 -3 -22 -6 -43 -7 -21 -2
-40 -9 -42 -17 -3 -9 1 -11 12 -7 9 4 15 3 12 -2 -6 -9 17 -22 37 -20 7 0 3 4
-8 9 -17 7 -15 9 11 9 26 1 33 -3 37 -25 4 -24 2 -25 -22 -19 -43 10 -60 11
-58 0 1 -5 7 -9 14 -9 7 1 11 -3 10 -9 -1 -7 9 -13 23 -14 22 -2 23 -2 5 6
-18 9 -17 10 8 10 30 1 40 -28 10 -30 -12 -1 -10 -4 7 -9 17 -5 19 -8 7 -9 -9
-1 -26 4 -36 11 -21 13 -56 4 -46 -13 4 -6 14 -8 22 -5 8 3 11 2 8 -4 -3 -5 9
-7 28 -3 26 4 36 1 40 -11 6 -16 -13 -22 -52 -17 -7 2 -20 0 -29 -4 -29 -11
18 -33 60 -27 31 4 38 1 38 -12 0 -12 -10 -16 -45 -16 -48 0 -55 -6 -28 -25
18 -14 47 -9 37 6 -3 5 4 9 14 9 18 0 32 -18 32 -41 0 -5 -216 -9 -534 -9
l-534 0 -112 343 c-62 188 -113 347 -114 352 -1 9 35 13 157 14 44 1 48 3 42
21 -5 17 -2 20 22 21 15 1 -6 7 -47 14 -54 8 -182 11 -456 7 -210 -2 -403 -1
-429 2 l-48 8 29 17 c25 15 68 19 324 25 162 3 382 13 489 22 142 11 208 12
249 4 31 -5 57 -10 59 -10 2 0 3 -6 3 -12 -1 -17 -46 -68 -61 -68 -6 0 -8 -7
-5 -16 3 -9 6 -20 6 -25 0 -12 57 -12 65 0 3 5 29 21 58 34 28 13 68 38 87 56
103 96 120 114 120 132 0 12 -10 21 -26 25 -38 10 -216 -3 -374 -26 -332 -48
-586 -70 -807 -70 -132 0 -133 0 -133 23 0 12 -6 31 -14 42 -13 19 -11 20 62
22 138 4 776 90 877 118 28 8 76 16 107 17 32 2 58 6 58 10 0 5 167 2 230 -4
3 0 23 0 45 2 32 1 36 3 20 10 -16 6 -14 8 13 7 22 0 29 -3 20 -8z m3471 -25
c2 -2 -23 -4 -57 -4 -33 0 -64 -4 -67 -10 -4 -6 7 -8 27 -4 57 9 7 -14 -79
-38 -189 -51 -384 -89 -485 -95 -132 -7 -175 6 -232 72 -21 25 -45 45 -53 45
-8 0 -12 3 -10 8 6 9 -61 17 -132 15 -36 -1 -50 2 -40 8 24 15 546 2 603 -16
48 -15 57 -15 316 -2 25 1 48 7 52 12 5 6 8 4 8 -4 0 -12 2 -12 13 2 16 22
114 30 136 11z m-7795 -16 c-6 -10 10 -11 19 -2 4 4 50 8 104 10 54 1 94 1 88
-1 -10 -3 -207 -28 -235 -29 -8 -1 -19 -6 -25 -13 -13 -15 -708 -66 -785 -58
-40 5 -51 3 -40 -4 11 -8 6 -11 -25 -10 -22 0 -34 3 -27 6 6 2 10 8 7 12 -2 5
80 11 183 14 113 4 207 12 239 20 38 11 54 12 63 3 9 -8 11 -7 8 3 -4 19 50
31 76 18 15 -8 18 -6 13 7 -5 13 1 16 41 16 26 0 85 3 132 6 67 4 81 3 67 -6
-11 -7 -30 -10 -43 -7 -15 3 -24 0 -24 -8 0 -14 9 -13 88 7 30 8 39 14 30 20
-8 5 -2 7 19 6 17 -1 29 -6 27 -10z m487 -63 c19 -21 40 -35 54 -35 29 0 251
-234 248 -260 -3 -25 64 -99 75 -82 6 9 14 5 33 -14 l24 -27 -24 6 c-23 6 -22
3 11 -29 33 -34 37 -35 74 -26 39 10 218 25 199 17 -5 -3 -71 -20 -145 -39
-411 -105 -610 -137 -638 -103 -10 12 -11 21 -3 36 6 11 11 22 11 25 0 12 -56
5 -74 -9 -11 -8 -17 -15 -13 -15 4 0 -2 -9 -13 -20 -43 -43 -13 -75 69 -73 77
2 381 68 704 152 155 40 209 50 177 32 -8 -5 -73 -23 -145 -40 -71 -18 -152
-39 -180 -46 -27 -8 -95 -26 -150 -41 -55 -14 -102 -28 -104 -30 -10 -9 134 9
194 25 39 11 150 38 248 62 l178 43 29 -35 c35 -41 37 -49 8 -49 -67 0 -631
-128 -622 -141 5 -9 -35 -23 -43 -15 -4 3 2 6 12 6 10 0 15 3 12 6 -4 4 -26 2
-49 -4 -24 -6 -56 -14 -73 -18 -27 -6 -28 -7 -10 -15 15 -7 11 -8 -15 -4 -19
2 -61 -1 -92 -9 -32 -7 -61 -10 -65 -7 -4 3 -1 -2 6 -11 15 -20 26 -24 15 -7
-5 8 3 10 25 7 17 -2 31 -1 31 3 0 5 6 6 14 3 13 -5 152 22 376 72 36 8 80 17
97 21 18 3 30 9 27 14 -3 5 1 7 8 4 7 -3 58 2 113 10 55 9 145 22 200 30 l100
14 77 -82 77 -82 -245 -3 c-135 -1 -243 -6 -240 -10 3 -5 -19 -7 -49 -4 -30 2
-55 1 -55 -4 0 -5 -28 -9 -63 -9 -74 -1 -249 -26 -227 -33 8 -3 18 -10 22 -16
5 -8 8 -7 8 1 0 7 7 10 18 7 14 -5 15 -4 2 5 -12 9 -11 11 8 11 13 0 21 -4 18
-8 -3 -5 1 -9 9 -9 8 0 12 4 9 9 -3 4 0 8 5 8 6 0 11 -4 11 -10 0 -5 7 -10 15
-10 9 0 12 6 8 17 -4 11 -3 14 5 9 7 -4 12 -14 12 -22 0 -10 -15 -14 -57 -16
-55 -1 -55 -2 -13 -6 25 -2 68 -1 95 3 41 5 54 11 68 33 14 22 17 23 15 7 -2
-11 -7 -24 -13 -28 -6 -5 -1 -7 10 -5 11 2 19 10 18 18 -3 18 60 19 63 1 1 -6
0 -7 -3 -1 -2 5 -9 8 -14 4 -29 -17 26 -23 244 -25 375 -3 385 -4 381 -11 -2
-3 1 -8 8 -10 23 -8 -3 -27 -45 -32 -58 -8 -1146 -73 -1337 -81 -85 -3 -220
-12 -300 -20 -80 -8 -174 -16 -210 -17 l-65 -4 -193 224 c-107 123 -192 225
-190 227 2 2 73 8 158 14 85 7 184 14 220 16 278 21 467 33 480 32 8 -1 44 2
80 5 74 8 340 26 510 34 136 7 158 9 165 15 2 3 -34 46 -81 95 -47 49 -119
126 -161 172 -41 45 -79 79 -84 76 -5 -3 -9 1 -9 8 0 7 -27 42 -60 78 -55 60
-69 80 -55 80 3 0 19 -16 36 -35z m10313 2 c-9 -5 -66 -24 -127 -42 -62 -19
-173 -54 -247 -79 -74 -25 -141 -46 -150 -46 -13 0 -47 38 -38 44 2 2 115 37
313 97 17 5 48 15 71 21 45 14 202 18 178 5z m226 -26 c0 -13 -58 -72 -100
-101 -36 -26 -45 -32 -97 -77 -18 -16 -44 -37 -58 -48 -15 -11 -34 -27 -44
-35 -24 -20 -51 -38 -81 -53 -14 -7 -26 -19 -28 -27 -4 -23 -51 -60 -83 -67
-16 -3 -34 -12 -40 -19 -6 -8 -23 -14 -38 -15 l-26 -1 25 -7 25 -7 -32 -14
c-17 -8 -34 -23 -37 -33 -4 -18 -12 -19 -75 -15 -39 3 -68 1 -65 -3 3 -5 35
-9 72 -9 50 -1 63 -3 50 -11 -10 -5 -18 -17 -18 -25 0 -9 -5 -13 -12 -9 -7 4
-5 0 5 -9 17 -13 16 -15 -25 -20 -23 -3 -65 -8 -93 -9 -42 -3 -39 -4 18 -5 60
-2 67 -4 67 -22 0 -12 -10 -25 -25 -32 -13 -6 -22 -15 -19 -19 3 -5 0 -9 -5
-9 -6 0 -11 -7 -11 -16 0 -9 -8 -18 -19 -21 -12 -3 -17 -11 -14 -23 6 -22 -55
-103 -70 -93 -6 3 -7 1 -3 -5 4 -6 -6 -31 -21 -54 -41 -63 -56 -78 -75 -78
-10 0 -17 -6 -15 -12 1 -8 -10 -14 -25 -16 -22 -3 -27 0 -22 12 3 9 2 16 -4
16 -6 0 -12 -5 -14 -11 -2 -5 -28 -13 -58 -16 -30 -3 -56 -9 -58 -14 -2 -5
-15 -9 -29 -9 -26 0 -27 10 -1 14 7 1 22 7 33 14 18 11 16 11 -12 7 -18 -3
-33 -3 -33 -1 0 11 26 62 37 74 7 7 13 20 13 29 0 19 95 140 121 154 10 5 19
16 19 24 0 8 4 15 10 15 5 0 20 16 32 35 13 19 33 40 46 46 12 7 22 17 22 23
0 10 62 56 75 56 3 0 25 18 48 40 23 22 59 52 82 67 22 15 54 40 70 55 95 88
145 141 139 149 -3 5 2 12 10 15 21 8 20 21 -3 33 -20 11 -103 -2 -241 -38
-41 -11 -76 -18 -78 -16 -3 2 -1 12 3 22 5 10 8 21 7 24 -3 15 172 75 453 155
155 45 325 68 325 45z m-678 -321 c-4 -25 -41 -78 -56 -79 -4 -1 -27 -20 -51
-44 -43 -44 -103 -80 -117 -71 -5 3 -7 1 -6 -4 4 -12 -49 -62 -64 -62 -7 0 2
12 19 28 16 15 28 32 26 39 -2 7 8 33 22 58 25 43 29 45 73 47 l47 1 -43 4
-43 4 21 29 c11 15 20 33 20 39 0 6 7 11 16 11 8 0 13 4 9 9 -6 11 40 19 95
17 31 -1 35 -4 32 -26z m-6904 -5 c29 -10 50 -20 48 -23 -3 -2 2 -11 10 -19
11 -12 12 -18 3 -29 -7 -8 -9 -17 -6 -20 5 -6 -40 -54 -51 -54 -4 0 -19 -11
-34 -25 -27 -25 -51 -39 -168 -103 -36 -19 -82 -46 -102 -59 -21 -12 -42 -23
-48 -23 -5 0 -10 -4 -10 -10 0 -5 -7 -10 -15 -10 -8 0 -19 -9 -25 -20 -9 -17
-7 -20 16 -26 32 -8 284 20 409 46 50 10 81 19 70 19 -16 1 -17 3 -5 11 9 5
19 5 26 -1 7 -6 33 -6 68 -1 31 5 56 6 56 3 0 -3 3 -16 6 -27 5 -19 0 -23 -53
-32 -32 -6 -157 -29 -278 -51 -121 -22 -234 -43 -251 -46 -29 -6 -32 -5 -37
24 -7 36 -31 41 -49 11 -7 -11 -17 -20 -22 -20 -4 0 -36 21 -70 46 -33 26 -76
54 -93 62 l-33 16 54 30 c87 49 107 71 104 111 -1 19 -7 35 -13 35 -5 0 -1 6
10 12 11 7 26 18 33 25 11 11 9 13 -10 13 l-23 0 25 20 c25 19 25 19 5 35 -11
9 -14 14 -7 10 8 -4 12 2 12 19 0 18 -6 26 -17 27 -15 0 -15 2 2 9 19 8 19 9
-2 9 -28 1 -39 18 -16 25 10 2 110 3 223 2 166 -3 215 -7 258 -21z m3940 -14
c10 -6 11 -13 1 -34 -7 -15 -15 -27 -19 -27 -4 0 -18 -11 -32 -24 -14 -12 -43
-34 -64 -47 -22 -13 -43 -27 -49 -31 -58 -45 -107 -77 -143 -92 -27 -12 -41
-24 -38 -33 3 -8 -2 -13 -13 -13 -26 0 -122 -72 -116 -88 3 -7 1 -10 -4 -7
-11 6 -61 -14 -61 -25 0 -4 -12 -12 -26 -18 -19 -9 -24 -17 -19 -32 4 -14 2
-20 -9 -20 -10 0 -13 6 -9 16 4 12 -5 9 -35 -10 -23 -14 -46 -26 -51 -26 -5 0
-11 -4 -13 -8 -1 -4 -37 -26 -78 -49 -41 -22 -100 -53 -130 -70 -30 -16 -136
-72 -235 -123 -186 -96 -232 -123 -252 -150 -39 -51 144 -25 722 105 138 31
322 72 410 90 88 19 214 46 280 60 167 36 641 121 755 136 52 7 98 17 102 23
12 18 8 -6 -8 -44 -11 -28 -13 -30 -9 -7 3 15 1 27 -5 27 -5 0 -10 -7 -10 -15
0 -9 -7 -29 -15 -45 -12 -23 -13 -30 -3 -31 7 0 2 -5 -12 -10 -39 -16 -263
-47 -390 -54 -275 -15 -717 -92 -1410 -245 -302 -67 -365 -79 -579 -115 -277
-47 -315 -46 -257 9 24 22 62 42 321 167 72 35 136 69 143 75 6 7 22 16 35 20
21 6 150 76 227 122 19 12 49 28 65 35 17 8 60 34 96 59 36 25 75 49 87 52 12
4 22 11 22 15 0 5 27 25 60 45 41 26 57 41 53 52 -3 8 -2 14 3 12 13 -4 74 23
74 33 0 5 7 9 15 9 8 0 15 7 15 15 0 8 6 15 14 15 18 0 107 90 100 101 -21 35
-433 -51 -681 -141 -59 -22 -123 -43 -140 -46 -31 -6 -33 -5 -33 23 0 28 4 31
78 56 95 32 274 86 407 122 55 14 138 37 185 50 47 13 142 38 213 56 70 17
127 36 127 41 0 5 4 6 10 3 10 -6 69 4 185 30 70 16 125 18 143 6z m-5422 -26
c4 -8 13 -15 22 -15 8 0 12 -3 9 -7 -6 -6 14 -21 53 -39 8 -4 31 -18 51 -30
20 -12 49 -24 65 -27 16 -2 -29 -5 -99 -6 -70 0 -205 -6 -300 -13 -95 -6 -208
-12 -253 -12 -78 -1 -82 0 -106 29 l-26 30 21 8 c22 9 174 39 282 57 33 5 94
16 135 24 102 19 139 19 146 1z m1638 -138 c-13 -5 -24 -12 -24 -17 0 -5 -8
-11 -17 -14 -24 -8 -83 -61 -83 -74 0 -22 76 -25 166 -7 16 4 23 -1 27 -15 4
-16 1 -20 -16 -18 -12 1 -60 -2 -107 -7 -62 -6 -77 -10 -55 -15 17 -3 -22 -5
-85 -5 -63 0 -105 1 -93 3 12 2 20 9 17 15 -4 12 15 36 48 62 16 13 74 47 148
88 30 17 60 36 67 42 16 17 -1 39 -26 32 -12 -3 -24 -1 -27 4 -3 5 6 9 20 9
18 0 26 6 27 18 1 9 9 -8 19 -38 l18 -55 -24 -8z m-1419 -70 c22 -3 108 -11
190 -17 122 -10 154 -16 171 -31 11 -11 29 -19 40 -18 10 1 32 1 48 1 24 -2
27 -4 16 -17 -10 -12 -41 -15 -160 -15 l-148 0 -60 -65 -59 -65 -25 20 c-27
20 -78 43 -78 34 0 -2 11 -27 25 -55 14 -27 23 -55 19 -61 -4 -7 -3 -8 4 -4 7
4 12 3 12 -3 0 -5 -6 -12 -12 -14 -9 -4 -5 -12 12 -26 17 -13 24 -28 22 -44
-2 -19 3 -26 30 -34 23 -8 27 -11 13 -12 -22 -1 -31 -41 -9 -41 7 0 14 -6 17
-14 6 -15 5 -16 -233 -67 -99 -21 -290 -37 -290 -25 0 10 22 50 30 56 48 33
168 138 222 195 36 38 45 71 25 91 -21 22 -96 35 -219 41 -75 3 -136 9 -135
12 1 3 -27 34 -63 69 -35 34 -60 62 -55 62 6 1 -1 7 -15 15 -25 14 -25 14 15
15 22 1 49 4 60 6 32 7 121 8 132 1 5 -3 70 -5 144 -5 74 1 109 4 79 6 -30 2
-59 8 -65 13 -10 10 220 7 300 -4z m4495 -56 c39 -7 40 -9 13 -10 -25 -1 -38
-10 -60 -38 -15 -21 -44 -54 -65 -74 -26 -25 -34 -39 -27 -46 7 -7 3 -9 -15
-6 -15 3 -26 1 -26 -6 0 -6 -4 -11 -10 -11 -5 0 -31 -15 -57 -34 -48 -34 -99
-63 -225 -131 -37 -19 -91 -49 -120 -66 -29 -16 -65 -34 -80 -40 -18 -7 -25
-16 -21 -26 5 -13 -27 -14 -280 -10 -157 3 -291 8 -296 11 -5 4 -13 2 -16 -4
-5 -8 -11 -7 -21 1 -11 9 -21 9 -40 0 -14 -6 -61 -11 -104 -11 -68 0 -81 3
-90 20 -8 15 -23 20 -68 22 -56 3 -54 4 78 32 74 15 164 34 200 41 69 14 538
27 545 15 2 -4 -37 -28 -87 -53 l-91 -47 42 0 c30 0 69 14 139 49 53 26 108
52 122 56 14 4 34 16 45 27 11 11 35 29 54 41 19 12 37 28 39 36 3 9 0 11 -8
6 -13 -8 -90 -14 -90 -7 0 2 6 10 14 17 10 10 16 11 25 2 8 -8 11 -8 11 0 0 8
10 9 36 2 39 -11 58 -2 67 32 7 28 -14 34 -76 21 l-52 -10 43 1 c23 1 47 -4
54 -11 14 -14 14 -13 -65 -15 -54 -2 -72 5 -44 16 6 3 2 6 -10 6 -49 2 -19 20
65 39 161 38 202 39 202 3 0 -43 -125 -129 -363 -251 -69 -36 -100 -56 -87
-58 21 -4 175 74 339 171 99 59 221 162 221 186 0 37 -124 26 -304 -28 -87
-26 -96 -27 -96 -11 0 18 114 59 325 116 161 43 227 50 315 35z m5195 -41 c0
-10 -9 -14 -30 -13 -34 3 -37 3 -85 1 -19 -1 -115 1 -213 5 -98 4 -176 3 -173
-1 2 -4 -5 -9 -17 -9 -17 -2 -19 0 -7 7 13 8 12 10 -2 10 -10 0 -18 -4 -18
-10 0 -5 -8 -10 -17 -11 -12 -1 -10 -4 7 -9 21 -7 17 -8 -20 -8 -34 -1 -40 2
-25 8 19 8 19 9 -3 9 -15 1 -21 5 -16 13 4 7 3 8 -4 4 -6 -4 -9 -13 -5 -21 3
-9 -1 -15 -11 -15 -9 0 -16 6 -17 13 0 10 -2 10 -6 0 -2 -7 -11 -13 -19 -13
-8 0 -21 6 -29 13 -11 10 -1 15 53 28 94 23 657 22 657 -1z m-8152 -115 c2
-32 29 -26 -308 -74 -214 -31 -261 -35 -269 -22 -4 6 -11 9 -16 6 -4 -3 -10 1
-13 9 -7 18 24 26 298 72 121 20 236 40 255 44 42 8 50 2 53 -35z m36 -97 c6
-17 9 -33 7 -35 -2 -3 -53 -12 -113 -20 -59 -9 -109 -19 -111 -24 -2 -4 -9 -6
-17 -3 -7 3 -79 -4 -160 -15 -80 -12 -163 -21 -183 -21 -37 0 -38 1 -34 34 3
28 9 36 31 40 43 9 508 71 553 75 10 1 20 -11 27 -31z m-2020 -42 c22 -27 -6
-63 -134 -171 -32 -27 -67 -58 -77 -67 -10 -10 -26 -18 -35 -19 -11 0 -13 -3
-6 -6 10 -3 8 -9 -4 -21 -15 -16 -15 -17 0 -20 10 -2 15 -7 13 -10 -5 -8 93
-8 114 0 8 4 51 12 95 18 44 6 125 22 180 35 55 13 127 29 160 36 33 7 65 14
70 15 43 13 133 34 146 34 9 0 19 -7 22 -14 4 -11 1 -13 -11 -10 -16 5 -16 5
0 -8 15 -13 5 -17 -83 -37 -55 -13 -130 -23 -167 -24 -54 0 -59 -1 -27 -6 l40
-6 -60 -14 c-176 -39 -340 -69 -347 -65 -4 3 -8 0 -8 -6 0 -7 -6 -5 -15 4 -11
10 -26 13 -53 9 -53 -8 -55 -17 -2 -10 73 9 23 -19 -61 -34 -66 -12 -70 -11
-93 10 l-23 22 5 -26 c7 -39 -32 -76 -99 -95 -21 -6 -31 -4 -41 7 -11 14 -10
16 14 11 15 -3 25 -2 23 3 -3 4 5 11 17 15 21 6 21 7 3 20 -18 13 -18 14 3 14
34 0 28 35 -8 50 -16 7 -30 17 -30 22 0 5 4 7 9 4 5 -3 15 2 22 12 11 14 11
15 -1 5 -9 -9 -18 -9 -33 -1 -16 8 -22 7 -29 -6 -13 -24 -48 -3 -41 24 3 11 0
20 -6 20 -5 0 -8 -7 -5 -15 4 -8 1 -15 -6 -15 -6 0 -8 5 -4 11 4 8 -1 9 -17 4
-21 -6 -22 -5 -9 6 8 8 13 13 11 12 -2 -2 -10 2 -18 8 -10 9 -13 8 -13 -5 0
-9 -4 -16 -10 -16 -5 0 -10 4 -10 9 0 5 -10 7 -22 5 -13 -2 -16 -1 -8 2 8 4
18 12 22 18 5 7 23 5 59 -7 29 -9 55 -14 58 -12 8 8 -6 17 -41 26 -24 6 -18 7
23 3 52 -6 58 -4 87 24 58 57 49 99 -27 122 -20 7 -43 14 -51 17 -8 3 -26 6
-40 6 l-25 0 24 4 c19 4 21 7 10 14 -11 7 -9 9 9 9 12 0 21 -5 20 -11 -2 -6 3
-14 10 -16 6 -3 12 3 13 14 0 12 2 14 6 4 5 -11 7 -11 15 0 8 12 10 12 15 0 4
-10 7 -10 13 -1 4 7 37 12 84 13 42 1 76 5 76 8 0 3 37 9 83 13 45 3 93 9 107
12 14 3 37 8 53 11 15 3 30 9 33 14 8 13 20 11 33 -5z m2046 -36 c3 -5 4 -10
1 -10 -14 0 -323 -54 -453 -80 -166 -33 -186 -35 -163 -20 12 8 12 10 -5 11
-38 1 25 17 180 43 83 14 197 35 255 45 121 22 176 25 185 11z m4390 -73 c-7
-17 -104 -45 -280 -82 -140 -30 -265 -43 -483 -50 -253 -8 -618 -59 -982 -136
-52 -11 -176 -36 -275 -55 -99 -19 -234 -46 -300 -61 -66 -14 -147 -27 -180
-29 -69 -4 -38 3 425 100 949 200 1183 238 1543 256 185 9 424 41 507 69 30
10 32 9 25 -12z m-3750 2 c13 -20 -6 -58 -51 -101 -25 -23 -50 -52 -56 -62
-10 -19 -7 -19 93 -13 57 4 141 16 185 27 63 15 94 17 135 11 30 -5 63 -7 73
-5 11 2 15 0 10 -5 -5 -4 -54 -18 -109 -30 -55 -13 -167 -38 -250 -57 -343
-78 -558 -107 -692 -94 -71 7 -26 48 147 133 136 67 166 88 157 111 -6 15 -16
17 -87 20 -76 2 -247 -21 -535 -73 -232 -43 -225 -42 -225 -31 0 6 -6 10 -14
10 -18 0 -29 29 -13 35 6 2 46 11 87 20 41 9 152 32 245 52 94 19 206 41 250
48 102 15 641 19 650 4z m3733 -50 c-26 -15 -314 -86 -440 -109 -189 -34 -254
-40 -508 -50 -306 -11 -488 -34 -893 -111 -87 -17 -163 -29 -168 -27 -6 2 76
21 183 41 106 21 213 43 238 48 73 15 439 67 515 73 39 3 147 8 240 11 94 3
197 8 230 11 106 9 336 53 470 88 141 37 159 41 133 25z m1906 -8 c3 -5 19 -7
36 -6 17 1 32 -1 35 -5 8 -14 -352 -51 -465 -48 l-55 1 57 6 c31 3 63 12 70
19 6 6 21 12 33 12 16 0 17 2 5 10 -10 6 17 10 85 13 55 1 121 4 147 5 26 1
49 -2 52 -7z m-9006 -24 c37 -20 44 -56 12 -64 -11 -3 -20 -9 -20 -14 0 -5
-27 -9 -61 -9 -33 0 -69 -5 -80 -10 -12 -7 -19 -7 -19 -1 0 6 -16 3 -37 -5
-20 -9 -52 -17 -71 -19 -19 -2 -42 -11 -51 -21 -9 -9 -10 -14 -3 -10 7 4 12 1
12 -8 0 -8 4 -17 8 -20 5 -3 8 4 8 16 -1 12 5 23 13 26 9 3 11 0 6 -8 -5 -9
-4 -11 4 -6 6 4 9 12 6 17 -3 5 1 6 9 3 14 -5 13 -9 0 -30 -20 -29 -13 -64 21
-99 25 -28 46 -26 44 3 0 11 -3 12 -6 5 -7 -19 -21 -16 -19 3 0 9 -6 19 -14
21 -12 4 -12 3 -1 -5 9 -7 10 -12 2 -16 -10 -6 -15 6 -12 27 0 4 -4 7 -11 7
-6 0 -9 3 -6 6 4 3 20 -2 37 -10 42 -22 46 -20 22 10 -25 32 -27 57 -4 75 15
13 15 12 4 -8 -9 -18 -9 -28 0 -45 8 -14 14 -18 17 -10 2 6 18 13 35 13 l32 2
-35 7 c-30 6 -32 8 -16 15 11 5 35 9 53 9 25 1 32 5 28 16 -4 8 -3 11 1 8 4
-4 15 -3 25 2 11 6 20 7 24 1 8 -14 -64 -83 -81 -77 -8 3 -14 1 -14 -4 0 -6 5
-10 12 -10 9 0 9 -3 1 -11 -7 -7 -19 -8 -30 -4 -12 5 -14 9 -5 12 13 5 7 23
-9 23 -6 0 -9 -8 -7 -17 1 -10 -1 -23 -4 -29 -4 -6 2 -27 12 -47 20 -37 16
-48 -9 -24 -11 10 -11 8 -2 -10 11 -21 10 -22 -16 -19 -16 2 -20 1 -10 -1 9
-2 22 -13 27 -23 8 -14 6 -20 -8 -23 -9 -3 7 -5 36 -6 28 0 52 -5 52 -9 0 -15
-101 -4 -121 14 -20 18 -42 81 -33 96 3 4 1 8 -5 8 -6 0 -8 6 -5 14 3 8 -4 20
-15 28 -12 8 -19 17 -16 20 3 2 -7 15 -23 29 l-27 24 23 -26 c12 -14 19 -28
15 -32 -3 -4 2 -17 13 -29 19 -21 18 -21 -14 1 -19 13 -39 35 -45 50 -7 14
-21 34 -32 43 -20 17 -20 17 3 13 17 -3 22 1 21 18 0 12 -3 16 -6 10 -2 -7 -9
-13 -14 -13 -4 0 -6 7 -2 16 3 8 11 13 18 10 7 -2 23 6 36 20 12 13 27 24 33
24 6 0 0 -7 -12 -16 -12 -8 -27 -25 -33 -37 -10 -18 -8 -18 21 6 18 16 39 26
47 23 8 -4 11 -1 7 5 -4 8 1 9 16 4 17 -5 20 -4 15 5 -6 10 -1 11 19 6 21 -5
27 -3 23 6 -2 7 -15 12 -28 11 -29 -3 20 -3 -559 5 -452 7 -485 8 -482 24 2
11 -2 16 -11 12 -7 -2 -22 5 -32 16 l-19 21 644 -3 c596 -3 647 -4 678 -21z
m7155 -11 c17 -13 14 -15 -30 -30 -283 -92 -910 -229 -1040 -227 -40 0 -74 -3
-77 -7 -3 -5 0 -9 7 -9 306 -8 1149 -12 1140 -6 -12 9 64 61 173 119 132 70
149 79 154 85 3 4 22 16 43 28 30 17 54 21 115 20 l77 0 -65 -32 c-36 -18 -67
-35 -70 -38 -3 -3 -34 -21 -70 -40 -36 -18 -67 -36 -70 -39 -3 -3 -30 -18 -61
-33 -31 -15 -66 -37 -77 -48 -12 -10 -26 -19 -31 -19 -6 0 -22 -12 -36 -27
-18 -20 -28 -25 -33 -16 -11 18 -792 28 -792 10 0 -7 -3 -8 -10 -1 -15 15 -70
5 -70 -13 0 -8 4 -12 9 -9 5 4 11 2 13 -3 1 -6 35 -11 73 -13 68 -2 71 -3 70
-27 0 -13 7 -26 15 -28 13 -4 13 -3 0 6 -8 6 -10 11 -4 11 22 0 23 -14 2 -37
-15 -16 -17 -23 -7 -23 10 -1 9 -3 -4 -11 -9 -5 -22 -7 -27 -4 -6 3 -10 4 -10
0 0 -13 46 -22 60 -11 13 10 13 9 1 -6 -10 -14 -10 -18 -1 -18 7 0 10 -7 6
-15 -3 -8 -1 -15 4 -15 6 0 10 6 11 13 0 8 2 8 6 -2 5 -11 7 -11 14 0 7 11 9
10 9 -5 0 -11 -5 -16 -13 -13 -8 3 -20 1 -28 -4 -11 -6 -11 -11 -1 -21 16 -16
16 -31 0 -22 -7 4 -4 -2 7 -13 17 -17 21 -18 29 -5 5 9 4 17 -4 22 -9 5 -9 9
-1 14 6 4 11 2 11 -4 0 -6 4 -9 8 -6 5 3 8 -7 7 -22 -1 -22 3 -27 22 -28 19
-2 23 2 18 15 -5 12 -3 13 5 5 9 -9 9 -17 1 -32 -6 -10 -7 -23 -3 -28 4 -5 -1
-2 -10 5 -10 7 -15 17 -12 22 8 14 -9 10 -34 -7 -13 -9 -32 -14 -43 -11 -26 7
-24 3 7 -18 15 -9 24 -13 20 -7 -3 5 1 15 9 22 11 9 18 7 32 -9 9 -12 25 -21
34 -21 9 0 30 -7 45 -15 26 -13 -10 -14 -356 -9 -212 3 -395 7 -408 10 -22 4
-23 8 -17 46 l7 40 -43 -30 c-56 -38 -81 -66 -111 -122 -28 -53 -60 -103 -70
-110 -4 -4 -10 -20 -14 -37 -5 -25 -2 -34 17 -47 13 -9 32 -16 43 -16 14 0 17
-3 9 -11 -12 -12 -86 -1 -77 12 3 5 -2 6 -11 3 -23 -9 -85 42 -85 71 0 13 16
51 35 84 19 32 35 63 35 68 0 6 29 38 65 74 36 35 65 69 65 75 0 12 -51 26
-72 20 -7 -3 -44 -7 -81 -11 l-68 -6 15 24 c14 20 36 27 158 50 79 15 162 30
185 33 36 5 63 28 50 41 -3 2 -248 -42 -342 -62 -11 -2 -27 0 -35 5 -12 8 -12
10 5 11 16 1 15 2 -5 8 -26 7 4 15 288 73 61 12 112 28 112 34 0 7 -68 -3
-192 -27 -217 -43 -222 -44 -212 -26 6 9 4 9 -8 -1 -13 -10 -16 -9 -21 8 -3
11 0 20 6 21 7 1 1 4 -13 8 -18 5 1 11 71 20 215 27 381 58 389 72 5 7 7 15 6
17 -2 1 -75 -6 -162 -17 -88 -11 -228 -22 -311 -23 -128 -3 -153 -5 -153 -18
0 -8 14 -93 30 -189 16 -96 27 -178 24 -182 -6 -11 -133 0 -161 13 -12 6 -24
18 -27 27 -2 9 -4 1 -3 -16 1 -30 17 -49 17 -20 0 9 2 9 8 0 4 -6 30 -13 57
-15 28 -2 -65 -7 -205 -11 -140 -4 -268 -4 -285 1 -20 5 -31 16 -33 30 -3 18
2 22 25 22 16 0 38 7 50 15 24 17 38 7 54 -42 9 -27 9 -27 4 5 -3 18 -12 40
-20 48 -18 19 -19 41 -2 47 14 6 -23 10 -69 7 -23 -1 -33 4 -36 18 -8 27 -36
24 -30 -4 3 -15 -2 -24 -15 -27 -10 -3 8 -5 40 -4 41 0 61 -4 68 -14 16 -25
10 -31 -26 -27 -19 2 -35 1 -35 -3 0 -4 -9 -11 -21 -14 -16 -5 -20 -13 -16
-32 4 -22 2 -25 -24 -21 -15 3 -25 0 -22 -5 3 -5 23 -6 44 -3 24 4 40 2 45 -6
5 -8 -38 -10 -177 -6 -101 3 -162 1 -134 -3 31 -5 -20 -6 -130 -5 -99 2 -162
0 -140 -4 22 -5 -38 -7 -135 -5 -96 1 -157 -1 -135 -5 29 -5 15 -7 -54 -7 -52
-1 -89 2 -83 6 7 4 8 12 2 21 -16 24 -11 38 13 43 19 4 18 4 -5 6 -22 1 -28
-3 -28 -21 0 -36 -12 -12 -14 27 -1 29 3 39 19 45 11 4 26 5 34 2 11 -4 13 0
7 19 -4 13 -8 30 -8 37 -1 6 -12 12 -25 12 -23 0 -23 -1 -7 -25 9 -14 15 -27
13 -29 -2 -2 -30 -6 -61 -10 -50 -5 -59 -4 -68 13 -15 29 -13 31 30 31 22 0
40 5 40 11 0 5 4 8 9 4 5 -3 9 11 8 30 l-2 36 -51 -2 c-52 -3 -74 4 -74 24 0
6 7 2 16 -9 14 -18 15 -18 4 4 -6 12 -8 22 -4 22 4 0 5 2 2 5 -3 3 -12 3 -21
-1 -13 -5 -14 -10 -6 -25 8 -16 6 -21 -16 -29 -14 -5 -25 -15 -25 -22 0 -9 -3
-8 -10 2 -5 8 -10 11 -10 5 0 -17 18 -39 34 -41 13 -2 14 2 5 18 -6 11 -9 21
-7 23 7 7 115 8 126 1 26 -16 10 -34 -38 -46 -27 -7 -50 -14 -50 -15 0 -2 4
-15 10 -29 8 -22 16 -26 50 -26 28 0 43 -5 47 -16 5 -12 7 -13 14 -2 6 9 8 6
7 -9 -1 -11 -7 -19 -13 -17 -5 2 -30 0 -55 -5 l-45 -9 56 -1 c50 -1 57 -4 67
-26 7 -14 12 -27 12 -29 0 -2 -35 -2 -77 0 -55 2 -68 1 -43 -5 39 -9 -118 -15
-361 -16 -106 0 -140 4 -155 15 -18 14 -18 14 -5 -2 7 -10 10 -18 5 -18 -23
-1 25 -20 51 -21 17 -1 -22 -9 -85 -20 -63 -10 -194 -34 -290 -53 -368 -74
-557 -86 -588 -35 -11 17 -10 20 5 17 10 -2 21 -7 24 -12 9 -11 89 -9 137 3 2
1 -9 13 -23 27 -27 27 -37 29 -105 18 l-45 -7 24 22 c23 20 36 25 54 22 5 -1
6 3 3 7 -15 24 71 88 284 212 275 160 307 183 279 201 -8 5 -32 9 -55 9 -22 0
-49 7 -60 15 -19 14 -19 15 4 21 12 3 22 10 22 14 0 4 28 13 63 19 34 7 98 19
142 27 202 38 384 58 404 45 12 -8 12 -12 2 -25 -8 -9 -19 -16 -26 -16 -8 0
-15 -4 -17 -8 -1 -4 -20 -17 -40 -29 -33 -19 -58 -23 -223 -29 -102 -4 -185
-11 -185 -15 0 -4 19 -6 43 -4 23 3 182 9 352 15 171 5 364 12 430 15 66 3
455 19 864 36 410 16 747 32 750 35 3 4 -79 4 -184 1 l-190 -6 110 19 c61 10
164 27 230 39 173 29 375 51 485 51 354 1 812 69 1170 174 131 39 148 41 173
22z m2297 -13 c23 -13 23 -13 3 -8 -63 15 -68 15 -38 0 30 -15 29 -15 -35 -15
-36 0 -126 -4 -200 -9 -346 -25 -361 -26 -500 -21 -71 3 -68 3 65 17 77 7 159
12 182 11 22 -2 39 0 36 5 -2 4 11 7 29 7 18 0 83 7 143 15 130 17 145 18 145
6 0 -5 -12 -8 -26 -5 -22 4 -23 3 -12 -10 7 -7 15 -11 18 -7 3 3 14 7 25 9 11
2 27 10 35 18 17 17 90 10 130 -13z m-2011 -19 c6 -5 -30 -31 -43 -32 -5 0
-12 -4 -15 -9 -8 -10 -97 -73 -105 -73 -3 0 -35 -18 -71 -40 -36 -22 -68 -40
-71 -40 -3 0 -22 -11 -42 -25 -30 -21 -48 -25 -102 -24 -54 0 -62 2 -46 12 56
35 116 89 110 99 -9 14 -99 5 -219 -22 -309 -68 -386 -81 -467 -78 l-83 3 175
38 c239 52 398 91 570 139 80 23 169 46 199 52 48 10 200 10 210 0z m421 8 c0
-7 -15 -16 -79 -46 -19 -9 -65 -37 -102 -61 -38 -25 -71 -45 -74 -45 -10 0
-100 -63 -103 -72 -2 -5 -10 -15 -18 -22 -11 -12 -10 -15 9 -20 60 -16 154 -4
400 50 87 19 163 32 169 28 5 -4 13 -2 17 4 3 5 59 20 123 31 135 24 128 23
128 13 0 -5 -42 -16 -92 -25 -51 -9 -104 -19 -118 -21 -14 -3 -63 -15 -110
-26 -47 -12 -103 -25 -125 -30 -22 -5 -94 -20 -160 -35 -157 -34 -325 -44
-344 -21 -11 13 -11 19 -1 31 16 20 98 75 111 75 5 0 9 4 9 9 0 5 8 11 18 14
20 7 95 49 102 58 3 4 32 21 65 38 170 87 175 89 175 73z m190 -16 c0 -8 -10
-22 -22 -30 -12 -9 -18 -19 -14 -23 5 -5 11 -3 13 4 3 9 12 9 35 1 31 -11 266
-5 408 10 36 4 103 4 150 1 74 -5 78 -6 33 -9 -29 -2 -65 -5 -80 -6 -43 -3
-357 -52 -453 -69 -255 -47 -318 -56 -355 -51 -28 5 -36 3 -25 -4 13 -8 12
-10 -3 -10 -10 0 -25 6 -32 14 -12 12 -9 18 18 43 48 43 124 86 139 77 7 -4
10 -3 6 1 -5 5 6 21 24 37 28 24 40 28 95 28 48 0 63 -3 63 -14z m-3890 -6 c0
-5 -9 -14 -19 -20 -11 -5 -25 -16 -33 -23 -19 -18 -82 -56 -278 -165 -63 -36
-128 -74 -145 -86 -26 -18 -46 -21 -145 -24 l-115 -2 55 28 c115 60 170 94
185 115 39 56 -42 47 -669 -71 -115 -22 -215 -38 -222 -35 -7 2 -11 12 -10 21
2 12 17 19 52 25 112 17 433 82 639 129 402 91 437 98 494 99 31 1 65 5 76 10
28 11 135 11 135 -1z m340 -5 c-14 -8 -63 -33 -110 -56 -89 -43 -407 -215
-426 -231 -6 -4 -56 -11 -110 -14 l-99 -6 35 19 c19 11 71 42 115 69 44 28
123 73 175 101 273 147 233 132 345 132 92 0 98 -1 75 -14z m260 -11 c-25 -14
-79 -42 -120 -61 -231 -107 -298 -144 -351 -191 -22 -19 -35 -23 -80 -20 l-53
3 40 20 c21 11 41 23 44 27 8 10 245 131 295 150 22 9 72 34 110 56 53 31 81
41 115 41 l45 1 -45 -26z m-3550 -19 c5 3 11 1 15 -5 3 -5 -2 -10 -12 -10 -10
0 -144 -24 -298 -54 -153 -30 -283 -52 -289 -49 -5 4 -6 1 -1 -7 5 -8 4 -11
-2 -7 -5 3 -27 2 -49 -4 -150 -35 -205 -46 -209 -39 -8 14 207 65 228 54 7 -3
3 2 -7 10 -11 9 -15 16 -9 16 7 0 14 -4 17 -9 4 -5 28 -3 59 5 28 8 76 15 104
16 29 1 50 4 48 7 -7 6 255 68 335 79 30 4 57 4 58 0 2 -5 8 -6 12 -3z m8210
-8 c0 -5 -15 -7 -34 -5 -19 2 -32 0 -29 -5 2 -4 -17 -7 -44 -5 -26 1 -54 -1
-62 -6 -10 -6 -12 -5 -7 2 5 9 -27 12 -124 12 -85 0 -129 -4 -125 -10 4 -6
-26 -10 -82 -11 -191 -3 -302 -11 -455 -34 -21 -3 -38 -1 -38 4 0 9 57 18 168
27 31 3 100 10 152 15 52 5 128 9 168 7 39 -2 72 1 72 5 0 4 75 7 166 6 91 0
168 2 172 6 10 9 102 3 102 -8z m-687 -115 c-7 -4 -28 -7 -48 -7 -19 1 -35 -2
-35 -6 0 -5 39 -7 88 -5 110 4 153 -8 59 -17 -62 -6 -361 0 -399 8 -21 4 -22
-4 -4 -28 9 -12 15 -14 18 -6 4 13 118 16 137 4 6 -3 11 -2 11 4 0 6 6 8 13 6
6 -3 64 -7 127 -9 63 -2 115 -5 115 -6 0 -1 13 -4 28 -6 16 -3 26 -1 23 4 -3
5 1 9 9 9 8 0 11 -5 8 -10 -6 -11 39 -5 71 8 12 5 17 5 13 -2 -3 -5 6 -10 21
-10 15 0 54 -1 87 -3 l60 -2 -40 -10 c-22 -5 -50 -7 -62 -5 -12 2 -20 0 -17
-5 4 -5 -10 -7 -33 -4 -26 4 -32 4 -18 -3 15 -6 1 -10 -55 -15 -41 -4 -91 -6
-110 -6 -19 1 -47 0 -62 -3 -16 -2 -28 0 -28 4 0 5 -19 9 -42 9 -24 0 -59 1
-78 2 -21 2 -34 -1 -33 -8 1 -8 -56 -13 -185 -16 -129 -4 -231 -13 -327 -29
l-140 -24 67 -6 c37 -3 76 -12 85 -20 18 -15 120 -18 142 -5 9 6 82 9 438 20
77 3 114 0 117 -8 2 -6 5 -3 5 8 1 15 8 17 45 15 24 -2 42 -1 39 4 -6 10 11 9
44 -4 26 -11 27 -12 8 -20 -17 -8 -15 -9 8 -5 16 2 25 0 20 -4 -14 -13 -159
-38 -190 -33 -22 4 -25 2 -13 -6 12 -9 11 -11 -7 -11 -12 0 -25 5 -28 10 -4 6
-10 8 -15 5 -17 -11 -90 -15 -90 -5 0 6 -33 10 -81 10 -51 0 -78 -4 -74 -10 4
-6 -9 -10 -32 -10 -27 0 -34 3 -24 9 10 7 -6 9 -47 9 -34 -1 -62 -5 -62 -10 0
-4 -7 -8 -16 -8 -9 0 -12 5 -8 13 6 9 5 9 -8 0 -8 -7 -18 -10 -21 -6 -4 3 -7
1 -7 -5 0 -6 5 -14 10 -17 6 -3 10 -1 10 5 0 6 5 8 11 4 6 -4 56 -6 110 -6 55
0 99 -2 99 -6 0 -4 -5 -14 -10 -22 -8 -12 -13 -13 -30 -2 -11 6 -23 12 -27 12
-5 0 -2 -4 5 -9 16 -10 -16 -17 -123 -26 -48 -4 -65 -3 -55 4 8 5 17 8 21 5 4
-2 11 1 15 7 4 8 9 7 15 -2 5 -8 9 -9 9 -3 0 7 17 9 44 7 24 -2 47 0 50 6 4 6
-25 9 -76 9 -133 0 -124 -2 -102 24 17 19 17 21 2 15 -10 -4 -18 -3 -18 2 0 5
-15 8 -33 7 l-33 -1 23 -65 c28 -81 38 -143 26 -165 -7 -11 -25 -18 -54 -20
-24 -2 -115 -14 -201 -27 -139 -22 -160 -23 -190 -11 -54 23 -323 2 -707 -57
-106 -16 -197 -27 -201 -25 -5 3 -12 1 -15 -5 -4 -6 -15 -8 -25 -5 -10 3 -27
1 -37 -4 -17 -10 -247 -54 -553 -107 -184 -32 -373 -32 -396 0 -17 24 -11 33
75 98 35 26 60 48 56 48 -5 0 -2 6 7 13 9 6 18 23 20 36 l3 25 155 -3 c85 -1
156 -4 157 -5 1 -1 -14 -10 -35 -21 -20 -10 -68 -37 -107 -59 -38 -23 -79 -45
-90 -51 -29 -15 -24 -37 10 -47 32 -8 85 -4 213 17 45 8 89 12 97 8 8 -3 15
-1 15 4 0 12 191 46 244 44 22 0 36 2 32 6 -3 4 58 19 136 34 297 57 544 100
584 102 23 1 40 5 39 8 -2 3 54 14 126 24 71 10 129 21 129 24 0 4 -4 12 -8
18 -8 13 -58 5 -431 -67 -85 -17 -156 -28 -159 -25 -3 2 15 8 39 12 39 6 41 8
19 14 -21 6 -22 7 -5 9 11 1 24 2 29 1 5 -1 4 5 -4 13 -10 13 -10 16 4 16 14
0 20 10 18 31 -1 3 56 16 126 28 70 13 132 24 137 25 6 1 45 10 88 20 43 10
86 16 97 13 11 -3 19 -2 18 2 -3 27 5 54 22 71 l21 21 -23 -6 c-59 -13 -202
-25 -288 -24 -52 1 -83 4 -67 6 15 2 27 11 27 19 0 47 13 54 104 54 44 0 128
7 185 15 57 7 112 12 122 10 11 -2 17 -1 15 4 -3 4 46 18 107 31 62 13 139 30
172 37 57 13 143 16 249 8 32 -2 44 0 35 6 -8 5 -45 9 -84 10 l-70 1 65 13
c99 21 295 46 335 43 19 -1 37 1 41 5 4 4 46 7 93 7 47 0 81 -4 74 -8z m-8055
-19 c-24 -4 -26 -7 -16 -23 9 -14 7 -33 -12 -92 -33 -99 -55 -126 -141 -173
-63 -33 -83 -39 -135 -40 -34 0 -60 -3 -58 -7 6 -10 -10 -17 -58 -27 -166 -34
-199 -39 -219 -34 -20 4 -21 3 -9 -7 12 -9 9 -11 -18 -7 -18 2 -35 0 -38 -5
-3 -4 -16 -8 -30 -8 -16 0 -23 4 -18 11 3 6 -4 4 -17 -4 -18 -12 -63 -17 -174
-21 -82 -3 -144 -3 -137 0 22 10 12 24 -18 24 -17 0 -30 -5 -30 -12 0 -9 -4
-8 -10 2 -6 10 -10 11 -10 3 0 -7 -12 -13 -27 -13 -21 0 -24 3 -13 9 8 6 18 7
22 5 5 -3 7 0 6 8 -2 9 15 14 65 16 42 2 67 -1 67 -8 0 -5 5 -10 11 -10 5 0 7
5 4 10 -4 7 27 9 92 6 54 -2 71 -1 38 1 -60 5 -59 5 75 28 131 23 339 67 565
121 61 14 121 28 135 31 31 7 50 30 50 61 0 18 -4 23 -15 18 -9 -3 -43 -13
-76 -21 -50 -13 -66 -14 -89 -3 -16 7 -26 16 -24 20 3 4 0 8 -5 8 -6 0 -11 7
-11 15 0 8 2 15 5 15 2 0 44 11 92 24 48 14 105 27 125 31 27 4 36 10 31 20
-3 8 -17 15 -32 16 -40 1 2 15 48 16 26 0 28 -1 9 -4z m-324 -65 c-7 -10 -7
-10 50 7 27 8 54 15 60 14 6 -1 -14 -9 -44 -19 -51 -16 -55 -20 -58 -52 -3
-33 -1 -34 40 -43 27 -6 44 -16 46 -27 4 -22 -43 -32 -96 -19 -24 5 -42 5 -42
0 0 -5 6 -10 13 -10 6 -1 -1 -4 -17 -8 -15 -3 -76 -4 -135 -2 l-106 4 59 18
c33 10 63 16 68 13 4 -3 15 1 23 9 7 8 34 21 59 28 35 10 46 18 46 34 0 14 -7
20 -25 21 -14 1 -22 -2 -19 -7 3 -5 -2 -6 -10 -3 -9 3 -16 1 -16 -5 0 -6 -7
-8 -16 -4 -12 5 -9 9 14 19 17 7 40 22 51 33 25 25 28 16 4 -11 -9 -10 -11
-18 -5 -18 18 0 40 40 35 63 -4 20 -3 20 10 -3 9 -14 13 -28 11 -32z m436 35
c0 -8 69 -8 288 -1 50 2 92 0 92 -3 0 -9 -20 -13 -205 -43 -88 -15 -182 -31
-208 -36 -84 -17 -85 -17 -73 35 10 41 13 44 46 48 19 2 41 4 48 5 6 1 12 -1
12 -5z m404 -75 c4 -25 1 -27 -72 -46 -337 -88 -397 -102 -416 -97 -14 4 -17
3 -8 -3 9 -6 -4 -13 -45 -21 -32 -6 -69 -14 -81 -18 -18 -4 -10 7 30 45 58 54
52 53 303 107 66 14 156 34 200 44 44 10 81 17 82 17 1 -1 4 -13 7 -28z m31
-68 c-17 -7 -16 -9 10 -10 17 -2 35 -2 40 -1 6 1 1 -6 -9 -14 -19 -14 -19 -15
10 -16 25 0 26 -2 9 -9 -14 -6 -16 -9 -5 -10 8 -1 4 -6 -10 -10 -23 -7 -23 -8
10 -10 19 -1 44 -1 54 0 13 1 17 -3 13 -13 -4 -12 10 -17 71 -26 42 -6 101
-11 130 -13 28 -1 52 -4 52 -7 0 -7 79 -11 277 -13 79 -1 142 -2 140 -4 -2 -2
-204 -41 -392 -75 -68 -12 -166 -22 -226 -23 -115 -1 -140 8 -160 62 -23 61
-135 52 -632 -49 -82 -17 -155 -28 -163 -25 -8 3 -13 2 -10 -3 7 -11 -99 -25
-115 -15 -8 4 -9 3 -5 -4 4 -7 1 -12 -9 -12 -9 0 -13 4 -10 10 3 6 -1 7 -9 4
-9 -3 -16 -10 -16 -15 0 -5 -10 -9 -22 -8 -22 0 -22 1 -3 9 19 8 19 9 -2 9
-13 1 -23 -5 -23 -12 0 -10 -29 -17 -97 -26 -108 -13 -182 -13 -161 0 8 5 -8
8 -37 8 -46 -2 -47 -2 -15 -8 34 -7 34 -7 -18 -14 -29 -4 -123 -7 -209 -6
-156 1 -211 10 -182 31 10 7 6 8 -14 5 -23 -4 -27 -1 -22 12 5 12 4 13 -6 4
-10 -10 -9 -15 1 -28 11 -13 5 -15 -50 -15 -45 0 -69 5 -82 17 -22 20 -24 48
-3 39 8 -3 15 -1 15 4 0 5 -10 11 -22 13 -20 4 -19 4 5 6 19 1 27 -4 27 -16 0
-13 3 -14 12 -5 7 7 17 12 22 12 6 0 4 -5 -4 -10 -10 -8 4 -9 49 -5 39 4 61 3
57 -3 -3 -5 4 -12 15 -15 12 -3 18 -10 15 -16 -4 -5 -2 -12 4 -16 5 -3 10 3
10 14 0 25 28 34 91 29 30 -2 43 -7 41 -16 -1 -8 2 -11 8 -7 6 3 8 10 5 15 -3
5 33 9 80 9 55 0 85 -4 85 -11 0 -7 5 -6 15 2 12 10 15 10 16 -1 0 -8 2 -9 5
-4 2 6 31 9 65 8 46 -1 59 2 56 12 -4 9 10 14 48 19 29 3 93 15 141 27 70 16
93 18 112 9 22 -10 24 -9 13 4 -11 13 -7 16 21 20 38 7 55 5 84 -12 12 -6 25
-8 29 -4 5 4 5 1 1 -5 -5 -9 0 -13 12 -13 14 0 21 8 24 30 2 16 0 31 -6 33 -6
2 25 12 69 21 44 10 134 31 200 48 102 25 138 30 241 29 90 -1 128 2 150 14
l29 15 -35 0 c-26 0 -31 -3 -20 -10 10 -6 -20 -9 -90 -9 -58 1 -100 3 -95 5
41 15 275 72 295 73 23 0 23 -1 5 -9z m-1690 -10 c-15 -7 -10 -9 23 -9 60 -1
50 -24 -14 -32 l-49 -6 50 -2 c47 -3 48 -3 17 -11 -44 -10 -53 -21 -16 -19 16
0 49 -7 74 -16 27 -10 57 -14 77 -10 24 4 33 2 33 -7 0 -9 16 -13 49 -13 27 0
47 3 44 8 -2 4 -18 7 -34 7 -17 0 -28 4 -25 9 8 12 118 25 189 22 35 -1 57 2
57 8 0 6 -10 12 -22 13 -13 0 -3 4 22 7 61 8 147 2 129 -10 -10 -6 -7 -9 11
-10 57 -2 -79 -30 -147 -30 -40 0 -73 -4 -73 -9 0 -5 15 -7 33 -3 51 10 26 -6
-29 -17 -231 -49 -354 -60 -424 -39 -40 12 -68 45 -52 61 6 6 8 17 4 26 -4 11
-1 14 10 10 8 -4 21 -2 29 4 11 8 11 9 -3 4 -10 -3 -20 -1 -23 4 -4 6 -2 10 3
10 14 0 21 48 8 54 -6 2 7 4 29 5 31 0 36 -2 20 -9z m-170 -34 c0 -5 -30 -8
-67 -7 -38 1 -68 -2 -68 -7 0 -4 26 -8 58 -7 66 3 82 -2 82 -22 0 -11 -11 -14
-42 -13 -85 4 -138 0 -138 -9 0 -5 21 -7 46 -5 35 4 51 1 67 -13 19 -16 20
-16 8 0 -12 15 -10 17 19 17 25 0 31 -4 26 -15 -7 -19 26 -53 65 -67 30 -10
31 -28 1 -28 -13 0 -14 2 -4 9 10 6 9 10 -7 14 -14 3 -21 0 -21 -9 0 -16 -16
-19 -24 -5 -7 11 -76 20 -76 10 0 -4 -9 -5 -20 -2 -22 6 -22 6 -14 27 3 9 11
13 17 9 6 -3 7 -1 3 5 -9 15 -78 12 -73 -2 2 -6 9 -11 15 -11 5 0 13 -3 17 -7
4 -3 0 -5 -9 -4 -21 3 -78 71 -68 81 4 3 1 5 -6 3 -8 -1 -21 8 -30 22 -16 24
-16 25 3 10 15 -12 17 -12 10 -1 -6 11 -2 13 19 9 14 -3 29 -1 32 3 3 5 -7 9
-23 9 -22 0 -25 2 -13 10 19 12 215 8 215 -4z m9550 -48 c-21 -5 -45 -6 -53
-3 -7 2 -10 0 -7 -5 3 -6 2 -10 -3 -10 -5 0 -24 -3 -42 -7 -23 -4 -31 -3 -26
5 4 6 14 9 24 6 12 -4 13 -3 4 3 -16 12 -74 4 -66 -8 3 -5 10 -7 15 -4 5 4 9
1 9 -5 0 -7 -8 -9 -20 -5 -11 3 -20 2 -20 -3 0 -13 -115 -36 -131 -27 -7 5
-10 4 -6 -2 7 -11 -330 -86 -345 -77 -4 3 -5 10 -2 16 4 6 2 8 -4 4 -6 -3 -13
-2 -17 4 -4 6 6 10 22 11 17 0 22 3 13 7 -8 3 57 18 145 34 267 47 283 49 291
36 3 -4 11 -8 17 -8 7 0 6 4 -3 10 -8 5 -12 11 -9 14 14 14 134 31 191 27 63
-4 63 -4 23 -13z m160 -8 c-19 -8 -19 -9 2 -9 12 -1 24 -5 28 -10 3 -6 -14 -8
-40 -6 -33 3 -45 0 -42 -8 2 -7 14 -11 27 -9 15 1 21 -2 17 -11 -3 -8 3 -13
14 -13 11 0 19 6 19 13 0 7 7 13 15 13 8 0 15 4 15 9 0 5 15 6 34 1 19 -4 41
-3 51 3 12 6 16 6 11 -1 -9 -16 -119 -86 -138 -89 -10 -2 -27 -12 -39 -24 -11
-11 -23 -18 -27 -15 -3 4 1 12 10 19 18 14 31 47 19 47 -5 0 -11 -7 -15 -15
-3 -8 -11 -14 -18 -13 -7 2 -12 -4 -12 -13 1 -9 -4 -16 -10 -16 -6 0 -22 -3
-36 -7 -23 -6 -23 -6 -5 5 11 6 33 25 49 42 28 31 28 31 7 39 -29 10 -63 10
-141 -1 -40 -6 -66 -6 -68 0 -2 5 -8 7 -13 3 -5 -3 -9 0 -9 7 0 6 8 9 20 6 10
-3 20 -1 22 4 2 4 23 9 48 11 33 2 44 0 42 -10 -1 -8 2 -11 8 -7 5 3 10 14 11
23 0 10 3 12 5 5 3 -7 11 -10 19 -7 7 3 22 1 33 -5 14 -8 19 -7 19 5 0 8 -11
14 -26 15 -22 1 -21 2 9 10 19 4 41 6 48 4 6 -2 12 0 12 5 0 6 10 10 23 9 21
0 21 -1 2 -9z m-6455 -23 c0 -24 -26 -43 -271 -192 -9 -5 -33 -19 -53 -30 -49
-28 -155 -117 -155 -132 -1 -6 -6 -13 -12 -15 -20 -7 10 -58 42 -72 l31 -13
-25 -7 c-28 -7 -45 -3 -95 22 -37 19 -46 39 -33 73 16 42 44 61 75 49 34 -13
39 -13 31 0 -3 6 -15 10 -26 10 -10 0 -19 3 -19 8 0 11 51 56 97 85 24 15 63
47 88 71 40 38 44 45 30 56 -22 18 -148 8 -365 -29 -181 -32 -242 -44 -520
-105 -249 -55 -255 -56 -294 -49 -28 4 -40 2 -50 -12 -9 -12 -21 -16 -40 -13
-14 3 -29 2 -31 -2 -3 -5 -24 -6 -47 -3 -26 4 -39 2 -35 -4 8 -13 -128 -23
-318 -25 -611 -5 -1181 -4 -1140 2 l50 7 -52 1 c-28 1 -55 7 -59 14 -5 8 2 9
27 4 21 -4 30 -3 24 3 -6 5 -26 11 -45 14 -19 2 127 5 325 5 198 1 425 7 505
13 80 6 173 11 207 12 35 1 63 6 63 11 0 4 20 6 44 3 28 -4 46 -2 48 5 3 8
111 14 339 19 360 9 328 5 739 88 255 52 624 117 710 126 36 4 67 9 69 11 2 2
35 4 73 4 50 0 68 -4 68 -13z m-468 -155 c8 -8 -12 -33 -70 -90 -149 -147
-145 -186 23 -228 28 -7 42 -13 31 -13 -29 -2 -136 29 -165 47 -14 9 -27 17
-29 18 -2 1 -5 14 -8 29 -3 15 -1 24 5 21 5 -3 7 2 5 12 -3 9 4 27 16 40 11
12 22 38 24 57 2 30 -1 36 -22 42 -31 7 -202 -3 -267 -16 -27 -6 -61 -13 -75
-15 -14 -3 -52 -12 -85 -20 -33 -9 -82 -16 -110 -16 -36 0 -46 -3 -35 -10 8
-5 10 -10 4 -10 -6 0 -53 -9 -105 -20 -142 -31 -365 -61 -444 -61 -38 0 -126
-2 -194 -5 -97 -5 -126 -3 -132 8 -6 8 -9 9 -9 1 0 -17 -922 -13 -927 4 -4 10
131 13 614 13 536 1 639 3 778 19 88 11 163 17 168 14 4 -2 7 1 7 8 0 8 12 9
38 5 27 -5 33 -4 22 3 -17 12 1 14 95 13 45 0 46 0 15 6 -33 7 -30 8 46 25 44
10 89 15 100 11 13 -4 15 -3 6 3 -15 12 230 68 254 59 8 -3 13 -2 10 3 -5 7
89 26 254 51 68 10 148 6 162 -8z m3418 3 c0 -8 -9 -32 -20 -52 -11 -21 -20
-45 -20 -55 0 -18 -20 -69 -31 -78 -14 -12 -18 -42 -8 -63 13 -28 73 -63 125
-73 21 -4 33 -9 27 -11 -25 -9 -164 40 -192 67 -26 23 -28 30 -21 72 5 35 2
55 -11 82 l-17 36 24 0 c27 0 94 25 94 35 0 3 -6 3 -12 -1 -10 -6 -10 -5 -1 8
7 8 10 18 6 22 -9 9 16 26 40 26 9 0 17 -7 17 -15z m1327 -69 c8 -6 -369 -67
-382 -62 -9 3 -13 2 -10 -4 3 -6 1 -10 -5 -10 -6 0 -66 -7 -132 -16 -133 -17
-178 -14 -157 12 7 8 44 32 82 54 l69 38 267 -5 c146 -3 267 -6 268 -7z
m-1882 -52 c-181 -44 -399 -90 -500 -104 -49 -7 -335 -15 -730 -20 -648 -8
-735 -13 -924 -49 -29 -6 -63 -11 -75 -10 -11 0 35 11 104 24 236 46 409 57
1000 66 305 4 571 11 590 14 130 23 254 50 375 79 100 25 163 35 220 35 l80 0
-140 -35z m-215 21 c0 -5 -127 -33 -258 -57 -103 -18 -175 -21 -607 -28 -606
-10 -696 -17 -1197 -104 -202 -35 -365 -49 -473 -41 -69 6 -84 10 -66 16 13 6
37 6 55 0 64 -17 306 7 545 54 444 88 783 123 1306 137 220 5 452 13 515 16
63 4 130 8 148 9 17 1 32 0 32 -2z m9575 -35 c153 -40 275 -111 387 -226 86
-89 108 -116 149 -189 81 -140 113 -258 113 -420 -1 -263 -87 -465 -272 -635
-90 -84 -159 -125 -285 -169 -101 -36 -103 -36 -267 -36 -145 0 -174 3 -240
24 -162 51 -340 164 -424 269 -28 35 -27 34 19 -8 27 -25 55 -52 62 -61 23
-30 178 -126 247 -153 285 -114 591 -73 833 111 127 96 217 227 270 395 25 76
27 97 27 258 1 167 -1 179 -27 255 -52 146 -124 253 -255 377 -90 84 -187 139
-322 184 -78 26 -98 28 -235 28 -178 1 -255 -17 -398 -91 -166 -86 -318 -259
-382 -436 -43 -118 -55 -303 -30 -462 3 -19 -1 -14 -10 14 -8 24 -18 89 -21
145 -7 109 9 224 45 315 32 79 33 87 7 40 -97 -179 -90 -500 14 -718 94 -195
247 -345 445 -437 106 -49 210 -74 342 -83 115 -8 116 -8 36 -10 -46 0 -85 -1
-88 -1 -3 -1 -22 -7 -43 -14 -20 -8 -70 -17 -109 -21 -67 -6 -75 -5 -115 20
-239 148 -303 183 -314 173 -3 -4 10 -21 30 -39 20 -17 34 -34 32 -37 -3 -3
-11 0 -18 5 -20 16 -88 26 -88 13 0 -6 5 -8 11 -4 7 4 10 1 7 -7 -3 -8 -15
-13 -27 -13 -17 1 -22 -3 -18 -16 4 -15 0 -17 -19 -14 -12 2 -27 -2 -31 -9
-11 -19 -43 -29 -43 -14 0 8 -4 7 -9 -3 -6 -8 -7 -18 -5 -22 3 -4 -4 -8 -15
-8 -12 0 -21 -6 -21 -14 0 -8 -7 -16 -15 -20 -8 -3 -15 0 -15 7 0 9 -2 9 -8 0
-13 -20 -62 -2 -93 36 -54 66 -75 128 -119 361 -23 124 -43 243 -45 265 -3 62
22 143 68 220 51 85 53 90 36 80 -8 -4 -2 3 12 16 29 27 99 131 99 148 0 6 5
11 10 11 6 0 10 6 10 14 0 8 3 16 8 18 14 6 42 67 33 72 -5 4 -12 0 -14 -6 -3
-7 -6 -8 -6 -2 -1 5 6 19 14 30 14 19 14 19 15 -1 0 -17 2 -17 14 -5 8 8 17
26 21 40 7 21 6 23 -7 13 -8 -7 -18 -10 -22 -6 -12 12 -106 15 -106 4 0 -7 -8
-7 -27 0 -18 7 -30 6 -37 -1 -13 -13 -29 -13 -21 0 3 6 -1 10 -9 10 -9 0 -16
-7 -16 -15 0 -8 -5 -15 -11 -15 -5 0 -7 5 -3 12 5 8 0 9 -17 4 -21 -7 -93 -8
-123 -3 -6 1 -14 6 -18 12 -4 5 -14 2 -26 -8 -10 -9 -24 -17 -30 -17 -7 0 -12
-5 -12 -11 0 -6 -7 -8 -16 -5 -10 4 -23 -2 -33 -16 -15 -18 -19 -19 -24 -6 -6
18 23 49 68 72 25 13 74 16 285 16 l255 1 40 65 c50 81 162 193 248 249 37 23
63 46 59 50 -4 5 -2 5 5 1 7 -4 27 1 45 10 39 20 146 52 213 64 82 15 280 4
370 -20z m-7240 -20 c3 -5 0 -10 -7 -10 -9 0 -9 -3 2 -10 11 -8 0 -10 -40 -10
-75 1 -174 -8 -305 -26 -60 -8 -122 -12 -137 -10 -16 3 -28 2 -28 -2 0 -5 -53
-16 -117 -26 -65 -9 -128 -19 -140 -22 -13 -2 -23 0 -23 4 0 10 26 15 349 67
118 19 246 37 284 39 38 3 71 7 75 10 9 10 80 7 87 -4z m7160 -5 c284 -50 533
-251 634 -515 49 -127 64 -217 59 -350 -9 -214 -84 -387 -228 -530 -152 -151
-305 -218 -521 -227 -255 -11 -446 58 -622 226 -174 165 -267 384 -267 628 0
356 264 684 610 757 145 30 211 32 335 11z m-7088 -62 c-15 -3 -25 -9 -21 -15
4 -6 -3 -5 -16 2 -15 8 -20 8 -16 1 4 -6 2 -11 -3 -11 -6 0 -11 6 -12 13 0 9
-2 9 -5 0 -4 -8 -55 -12 -176 -12 -174 -1 -276 -9 -477 -36 -62 -9 -115 -14
-118 -12 -8 9 304 51 522 70 57 5 356 5 322 0z m-5669 -35 c9 -9 12 -9 12 1 0
11 17 13 80 8 44 -4 90 -12 103 -19 12 -7 63 -25 112 -40 l90 -26 -70 -1 c-49
-1 -65 2 -55 9 8 5 11 10 5 11 -5 0 -20 2 -32 5 -17 3 -21 0 -17 -11 7 -16
-19 -20 -106 -16 -53 2 -73 8 -66 19 2 4 -12 6 -32 3 -20 -3 -29 -6 -19 -9 9
-2 17 -7 17 -11 0 -12 -124 -9 -132 3 -5 7 -8 7 -8 -2 0 -7 -5 -10 -10 -7 -6
4 -7 11 -4 17 4 5 -6 2 -22 -8 -15 -11 -25 -13 -21 -6 5 6 6 12 3 12 -2 0 -12
3 -22 7 -11 4 -15 3 -11 -4 4 -6 0 -13 -8 -17 -8 -3 -15 -2 -15 2 0 4 -43 7
-96 6 -76 0 -97 3 -104 15 -6 10 -10 11 -10 4 0 -15 -76 -18 -84 -4 -7 11 -46
2 -46 -11 0 -5 -9 -4 -20 2 -11 6 -20 7 -20 3 0 -4 -13 -8 -30 -8 -16 0 -30 4
-30 8 0 5 -4 5 -10 2 -5 -3 -10 -2 -10 3 0 5 15 9 33 9 17 0 94 6 171 12 76 7
145 10 153 7 8 -3 12 -2 9 3 -3 4 56 14 132 20 75 7 144 14 152 16 8 1 17 3
21 4 3 0 10 -4 17 -11z m6302 3 c-8 -6 -18 -7 -22 -5 -4 3 -8 0 -8 -5 0 -6 7
-11 15 -11 8 0 15 -4 15 -10 0 -5 -9 -10 -21 -10 -11 0 -17 -5 -14 -10 4 -6
11 -8 16 -5 5 4 6 -2 2 -11 -4 -11 -8 -13 -11 -6 -2 8 -8 8 -23 -1 -13 -8 -22
-9 -27 -2 -4 6 -21 17 -38 26 -30 16 -34 16 -60 -2 -39 -26 -67 -25 -59 1 5
15 2 20 -12 20 -15 0 -15 -2 -3 -9 10 -7 1 -11 -30 -13 -43 -4 -44 -4 -20 -15
l25 -12 -27 2 c-15 1 -26 6 -25 12 1 5 -23 12 -53 15 l-55 6 38 8 c21 5 51 6
67 3 16 -4 30 -3 32 2 2 4 34 11 71 15 47 5 67 3 62 -4 -10 -16 11 -12 25 5
14 17 50 20 50 5 0 -5 5 -10 11 -10 5 0 8 4 4 9 -6 11 17 18 60 20 22 0 26 -2
15 -8z m-2600 -26 c30 -9 85 -24 123 -33 37 -9 67 -19 67 -22 0 -4 -115 -7
-255 -8 -234 -1 -255 0 -256 16 -1 15 -2 15 -6 -1 -5 -21 -35 -19 -45 3 -5 12
-7 12 -7 -2 -1 -20 -21 -25 -21 -5 0 9 -2 9 -8 0 -6 -10 -112 -12 -464 -10
-251 1 -455 4 -453 8 2 3 -2 6 -10 6 -8 0 -12 -4 -9 -9 3 -4 -2 -8 -11 -8 -9
0 -13 5 -10 10 4 6 -6 10 -22 9 -25 0 -26 -1 -8 -9 14 -6 4 -9 -37 -9 -37 -1
-58 3 -58 10 0 8 -6 7 -17 -2 -14 -12 -16 -12 -8 0 6 11 4 13 -11 6 -10 -5
-71 -8 -134 -7 -138 2 -173 2 -497 -1 -138 -1 -250 0 -247 4 15 24 472 37 503
14 10 -7 15 -7 18 2 3 9 130 12 526 13 287 0 581 4 652 9 72 6 137 10 145 10
8 0 30 4 48 7 20 4 32 2 32 -5 0 -6 12 -11 28 -10 l27 1 -25 7 c-26 8 -28 8
95 25 70 10 301 -3 355 -19z m1614 -37 c-6 -10 -5 -10 7 -1 17 14 174 14 160
0 -12 -12 -63 -16 -88 -6 -15 5 -23 5 -23 -2 0 -6 -43 -9 -112 -9 -62 1 -120
0 -128 -1 -8 -1 -82 -1 -165 1 l-150 3 100 12 c142 17 409 19 399 3z m-4657
-1205 c-6 -1017 -14 -1334 -47 -1858 -42 -650 -29 -813 141 -1860 135 -833
149 -978 131 -1387 -7 -150 -17 -316 -23 -368 -15 -127 -5 -353 23 -525 22
-137 22 -158 23 -935 0 -788 0 -795 -20 -795 -20 0 -20 7 -20 790 0 568 -4
811 -13 865 -48 301 -52 410 -26 720 20 236 23 689 6 830 -46 373 -120 822
-139 836 -9 8 -10 13 -3 16 8 2 1 70 -24 228 -121 760 -139 1021 -106 1493 5
78 12 174 15 212 18 263 31 694 40 1380 3 215 8 458 10 540 2 83 5 293 5 468
0 286 2 317 16 317 15 0 16 -77 11 -967z m514 756 c24 -1 54 1 67 4 12 3 20 2
17 -2 -3 -5 11 -11 31 -13 19 -2 37 -1 40 4 3 4 16 3 30 -2 17 -7 23 -7 19 0
-3 6 -1 10 4 10 6 0 11 -5 11 -11 0 -6 6 -9 14 -6 7 3 18 1 24 -5 15 -15 72
-18 72 -4 0 7 3 7 8 1 4 -5 18 -12 32 -13 14 -2 29 -8 34 -13 13 -12 29 -12
22 0 -4 5 3 7 13 4 11 -3 22 -11 25 -18 3 -10 18 -13 51 -9 43 3 46 2 40 -16
-5 -14 -2 -20 10 -20 9 0 14 4 11 9 -8 12 38 23 59 15 13 -5 14 -9 4 -15 -10
-6 -9 -10 4 -15 10 -4 23 -2 30 5 17 17 29 13 22 -9 -5 -15 -3 -18 9 -14 9 3
14 10 11 14 -3 5 0 12 7 16 7 4 10 4 6 -1 -4 -4 -1 -14 7 -21 16 -16 29 -19
20 -4 -3 6 -2 10 4 10 5 0 11 -4 13 -10 2 -5 18 -10 36 -12 19 -1 32 -8 32
-16 0 -7 5 -10 10 -7 6 4 8 10 5 15 -6 10 28 5 46 -6 8 -4 7 -9 -2 -15 -11 -7
-11 -9 2 -9 9 0 20 7 23 17 6 14 8 14 21 -3 8 -10 15 -14 15 -8 0 19 47 23 64
5 13 -12 16 -12 16 -1 0 7 3 10 7 7 3 -4 12 -2 18 3 9 7 20 4 36 -10 16 -12
19 -19 10 -20 -8 0 -11 -3 -7 -7 4 -4 18 6 31 21 14 16 25 24 25 17 0 -7 5 -9
12 -5 8 5 9 2 5 -9 -7 -20 13 -23 31 -5 14 14 53 18 45 5 -4 -6 0 -8 10 -4 20
8 49 -2 42 -13 -3 -5 -1 -12 5 -15 6 -4 9 -1 8 6 -2 6 3 14 10 16 6 3 12 0 12
-6 0 -6 12 -8 30 -4 22 4 30 2 30 -8 0 -11 2 -11 10 1 7 11 10 11 10 2 0 -7 5
-10 10 -7 6 4 8 11 5 16 -4 5 -1 9 5 9 6 0 13 -6 16 -14 5 -12 9 -12 32 0 20
10 28 11 34 1 6 -9 10 -9 17 2 6 10 10 10 16 1 4 -6 17 -9 30 -6 13 3 27 1 30
-4 8 -12 46 -3 57 13 4 8 10 8 20 0 17 -13 78 -22 78 -11 0 4 5 8 11 8 5 0 7
-5 3 -11 -5 -9 1 -10 22 -5 16 4 30 12 32 17 2 5 11 5 21 -1 10 -5 32 -7 50
-5 20 3 29 0 25 -6 -4 -8 -1 -8 12 -1 11 5 33 8 49 7 17 -1 33 3 37 9 5 7 8 5
8 -4 0 -12 2 -13 9 -1 8 12 12 12 29 0 23 -17 207 -18 223 -2 7 7 21 7 46 0
26 -8 40 -8 55 2 11 7 23 10 26 6 4 -3 0 -10 -8 -15 -9 -6 -10 -10 -3 -10 7 0
16 7 21 16 6 10 12 13 16 6 3 -5 16 -8 28 -4 14 3 19 2 14 -6 -4 -7 -1 -12 9
-12 9 0 14 4 11 8 -3 5 17 8 43 6 27 -1 54 2 61 6 8 5 19 2 27 -6 11 -10 19
-11 34 -3 11 6 30 9 42 7 12 -1 28 1 34 5 9 6 11 3 6 -10 -6 -16 -4 -16 16 2
22 19 24 19 36 2 14 -19 30 -24 19 -5 -5 8 -2 9 11 5 9 -4 24 -2 31 4 10 8 14
8 14 1 0 -8 9 -8 29 -1 21 8 36 7 52 -2 18 -9 24 -9 34 4 8 11 15 13 29 5 12
-7 17 -7 12 0 -3 5 3 12 14 15 11 3 20 1 20 -4 0 -6 8 -5 20 1 22 12 27 1 8
-19 -11 -10 -10 -11 4 -6 10 4 20 16 24 27 6 20 6 20 21 -1 8 -12 20 -21 26
-21 8 0 8 3 -1 9 -10 6 -9 10 7 14 12 3 21 1 21 -5 0 -5 6 -6 12 -2 18 11 48
12 54 2 3 -4 10 -8 15 -8 6 0 7 5 4 10 -3 6 0 10 9 10 8 0 16 -5 18 -11 2 -5
11 -7 21 -4 9 4 14 12 11 17 -4 6 -10 5 -15 -3 -6 -10 -9 -10 -9 -2 0 21 39
36 56 22 13 -10 18 -6 15 14 0 4 4 7 9 7 6 0 8 -11 4 -25 -5 -20 -3 -24 8 -20
10 4 14 20 13 51 -1 40 0 43 14 28 12 -12 13 -18 4 -21 -7 -3 -13 -9 -13 -14
0 -6 5 -7 10 -4 6 3 10 0 10 -7 0 -7 7 -3 15 9 8 12 12 28 9 37 -4 11 -1 16
11 16 12 0 16 -6 12 -20 -3 -11 -1 -18 4 -14 5 3 9 0 9 -5 0 -6 5 -11 10 -11
7 0 7 6 1 19 -11 20 -3 32 32 44 12 4 20 1 24 -10 5 -14 8 -13 14 5 5 12 16
22 24 22 9 0 13 5 10 10 -7 11 8 14 19 3 11 -12 45 -13 51 -3 4 6 10 8 15 5 5
-3 20 -1 34 5 16 6 27 6 31 0 4 -6 17 -7 31 -4 17 5 23 2 21 -7 -2 -8 -2 -11
0 -6 3 4 14 7 26 7 16 0 18 3 8 9 -9 6 -4 10 19 13 29 4 31 3 25 -21 -16 -67
-81 -133 -169 -171 -64 -29 -18 -28 -1916 -31 -1533 -3 -1618 -2 -1671 15
-102 33 -195 125 -213 211 -4 18 -3 25 2 17 5 -7 28 -13 53 -13z m-9142 -767
c8 -13 111 -20 112 -7 0 6 3 4 6 -4 5 -11 7 -11 14 0 6 10 9 5 9 -16 l0 -30
-72 0 c-68 0 -73 -2 -76 -22 -4 -24 -4 -24 106 -25 19 0 32 -6 32 -14 0 -9
-18 -12 -65 -12 -36 0 -65 4 -65 9 0 5 -10 5 -23 0 -27 -10 -79 -3 -89 13 -4
6 -8 29 -8 51 0 44 7 59 30 68 22 8 81 1 89 -11z m20721 -2603 c58 -21 117
-33 185 -40 104 -9 227 -45 276 -80 19 -13 36 -18 54 -13 30 7 27 10 254 -159
302 -224 421 -319 421 -334 0 -23 -59 -93 -78 -93 -10 0 -159 107 -332 238
-287 217 -315 241 -318 270 -2 18 -7 32 -12 32 -5 0 -25 15 -45 34 -20 19 -54
42 -77 51 -44 17 -168 36 -168 25 0 -4 26 -24 57 -46 85 -58 231 -208 291
-299 77 -116 140 -250 157 -330 44 -209 -8 -375 -179 -581 -131 -158 -271
-240 -486 -284 -220 -46 -401 -8 -570 119 -30 23 -59 41 -64 41 -5 0 -6 3 -3
7 4 3 -14 28 -38 54 -99 106 -185 270 -170 326 6 24 11 17 51 -66 52 -111 124
-210 202 -282 107 -98 275 -192 364 -204 36 -5 29 -1 -43 28 -166 64 -302 165
-404 297 -41 53 -111 170 -103 170 3 0 22 -25 43 -55 45 -66 181 -197 269
-260 79 -56 191 -109 276 -131 88 -22 259 -15 350 16 36 12 70 26 75 32 7 8 4
9 -10 3 -61 -23 -115 -35 -204 -45 -107 -12 -170 -3 -278 38 -131 50 -351 211
-447 328 -88 106 -134 223 -108 269 8 15 13 6 31 -47 32 -96 123 -238 152
-238 4 0 -2 24 -14 53 -26 66 -35 260 -17 365 15 94 75 215 130 267 l43 40
-32 -48 c-110 -163 -150 -391 -101 -582 24 -94 54 -149 111 -199 66 -60 119
-79 236 -84 121 -5 202 8 291 48 74 34 96 51 180 133 147 144 201 396 128 602
-59 171 -105 240 -210 313 -88 63 -130 82 -176 82 -53 0 -178 -19 -210 -33
-14 -5 -33 -12 -43 -13 -9 -2 -54 -22 -100 -45 -152 -76 -272 -181 -336 -292
-29 -51 -54 -107 -47 -107 1 0 26 37 54 83 55 90 73 110 96 105 11 -2 1 -24
-36 -83 -87 -139 -158 -323 -174 -450 -11 -92 -11 -255 1 -255 6 0 9 -26 7
-64 -3 -57 -2 -64 17 -69 19 -5 21 -13 21 -85 l0 -80 56 -51 c103 -95 257
-169 428 -208 111 -25 303 -23 391 4 173 54 342 213 451 425 26 49 49 87 51
84 10 -10 -28 -104 -71 -176 -151 -256 -363 -390 -616 -390 -131 0 -299 34
-425 87 -70 29 -218 125 -239 154 -20 29 -25 14 -33 -93 -4 -51 -9 -83 -11
-70 -3 17 -10 22 -33 22 -26 0 -29 -3 -29 -31 0 -30 2 -31 35 -27 19 2 35 0
35 -4 0 -4 -15 -8 -34 -8 -30 0 -35 -4 -38 -27 -2 -16 -4 13 -5 62 0 50 2 80
4 68 5 -25 7 -26 41 -17 16 5 22 14 22 36 0 29 -1 30 -42 26 l-43 -3 -11 135
c-9 102 -17 147 -34 185 -41 89 -61 184 -67 315 -5 111 -2 138 22 245 74 327
207 592 376 751 115 107 219 143 419 143 115 1 132 -2 210 -30z m1311 -797
c63 -82 122 -245 139 -385 19 -153 -1 -237 -120 -512 -57 -131 -126 -316 -185
-495 -54 -163 -173 -393 -243 -468 -16 -17 -27 -34 -24 -37 8 -8 -60 -75 -70
-69 -12 8 -10 -10 4 -24 10 -10 3 -21 -32 -55 -24 -23 -36 -32 -26 -19 11 12
15 22 9 22 -13 0 -55 -45 -48 -52 7 -7 -262 -263 -321 -304 -77 -55 -141 -78
-220 -79 -42 0 -81 6 -97 14 -27 14 -57 75 -57 114 0 29 45 121 68 139 15 12
16 11 3 -4 -7 -10 -9 -18 -4 -18 15 0 32 21 27 34 -7 19 54 48 115 53 53 5 60
3 90 -23 25 -23 32 -37 33 -71 1 -24 5 -43 10 -43 11 0 71 54 236 212 79 76
151 138 161 138 9 0 30 14 46 30 16 17 34 30 40 30 25 0 149 191 210 325 18
39 60 156 95 260 34 105 100 278 145 385 96 227 111 270 125 366 24 154 -38
393 -134 517 -32 42 -39 68 -18 67 4 -1 23 -22 43 -48z m-677 -494 c-3 -35 -8
-88 -11 -118 -4 -30 -6 -60 -5 -66 1 -6 -4 -29 -12 -50 -9 -26 -10 -44 -4 -54
7 -11 -11 -82 -61 -245 -39 -126 -71 -242 -71 -258 0 -24 3 -27 24 -21 29 7
59 -8 104 -50 64 -59 75 -106 46 -193 -20 -62 -50 -88 -120 -104 -107 -24
-209 15 -245 95 -30 66 -25 117 16 168 55 69 60 82 144 359 49 163 86 266 95
271 9 5 16 15 16 21 0 7 9 31 20 52 13 25 23 69 26 115 6 81 20 140 34 140 4
0 6 -28 4 -62z m-3234 -3544 c214 -50 316 -247 600 -1164 91 -293 167 -629
173 -762 3 -56 1 -67 -14 -71 -13 -4 -16 1 -14 19 3 28 -7 31 -26 8 -10 -13
-10 -17 2 -25 15 -9 6 -13 -23 -10 -10 1 -18 -3 -18 -9 0 -6 -11 -15 -25 -20
-14 -5 -25 -15 -25 -22 0 -10 -2 -10 -8 0 -6 9 -14 6 -32 -13 -13 -14 -31 -25
-39 -25 -14 0 -14 -1 -1 -10 12 -8 11 -10 -7 -10 -13 0 -23 -5 -23 -11 0 -8
-5 -7 -16 1 -8 8 -14 9 -13 4 4 -22 -2 -35 -13 -32 -7 3 -43 -11 -79 -29 -37
-19 -71 -33 -75 -32 -9 2 -25 -3 -74 -23 -14 -5 -25 -8 -26 -6 0 1 -8 -3 -17
-10 -9 -8 -20 -11 -26 -8 -5 3 -11 -1 -15 -9 -3 -8 -14 -15 -25 -15 -15 0 -19
-4 -14 -17 6 -16 5 -16 -11 -4 -13 11 -22 12 -35 4 -10 -6 -37 -17 -60 -23
-26 -7 -39 -15 -35 -22 5 -8 1 -9 -11 -4 -13 4 -30 -2 -54 -22 -20 -16 -45
-32 -56 -36 -28 -12 -65 -13 -65 -3 0 4 -8 3 -19 -2 -10 -6 -22 -7 -27 -3 -5
4 -2 -1 5 -10 16 -22 11 -22 -32 -5 -53 23 -133 120 -182 221 -82 171 -234
649 -326 1023 -93 378 -110 473 -116 620 -5 120 -3 140 18 205 19 62 32 82 84
134 76 77 198 138 373 188 194 56 309 67 422 40z m-4424 -284 c17 -5 -550 -8
-1311 -7 -737 1 -1281 4 -1210 7 221 9 2491 9 2521 0z m-13553 -520 c286 -25
667 -78 788 -110 20 -6 44 -7 53 -4 9 3 16 2 16 -4 0 -5 27 -15 60 -22 33 -7
59 -15 56 -17 -2 -3 -42 3 -88 12 -45 10 -96 19 -113 20 -16 2 -30 4 -30 5 0
1 -14 3 -31 5 -17 2 -89 15 -160 28 -230 45 -545 76 -819 79 -142 2 -150 2
-70 8 152 10 212 10 338 0z m10028 -2026 c17 -15 22 -15 58 -1 35 14 224 16
1796 17 1373 0 1756 -2 1753 -12 -2 -6 -17 -21 -32 -32 -27 -21 -28 -21 -1682
-23 -984 -1 -1652 2 -1649 8 4 5 1 17 -4 26 -9 16 -10 15 -8 -7 l2 -25 -92 0
c-88 0 -92 1 -88 20 3 11 2 14 -1 7 -3 -6 -11 -9 -16 -6 -7 4 -8 2 -4 -4 7
-12 -40 -29 -51 -18 -4 3 1 6 10 6 9 0 18 4 21 8 8 13 -33 7 -46 -6 -8 -8 -15
-9 -25 -1 -9 8 -13 8 -13 0 0 -6 -4 -11 -10 -11 -5 0 -10 7 -10 15 0 8 -7 15
-15 15 -8 0 -15 -4 -15 -10 0 -5 -6 -10 -12 -10 -7 0 0 12 14 27 24 23 30 25
52 15 19 -9 25 -8 30 4 7 18 15 18 37 -2z"/>
<path d="M14675 14623 c79 -5 91 -9 75 -28 -10 -12 -2 -14 52 -17 52 -2 63 -6
66 -22 2 -10 -2 -22 -10 -27 -8 -5 8 -9 43 -9 48 0 57 -3 62 -19 6 -25 0 -31
-37 -33 -17 -1 -4 -4 29 -7 65 -6 85 -28 43 -46 -13 -6 -25 -19 -27 -30 -2
-11 -8 -24 -15 -28 -7 -5 -6 -7 4 -6 36 4 71 -2 66 -10 -4 -5 -1 -20 4 -33 10
-22 10 -22 5 4 -4 23 -1 28 17 32 13 3 32 7 43 9 11 3 -10 5 -47 6 -61 1 -68
3 -68 21 0 15 7 20 29 20 29 0 29 1 20 32 -11 40 -11 38 2 38 5 0 8 -3 6 -7
-3 -5 -1 -18 4 -30 6 -18 16 -23 41 -21 l33 1 -32 4 c-27 3 -33 9 -33 28 0 13
6 26 13 29 6 4 -12 4 -41 2 -33 -3 -50 -1 -47 5 4 5 10 7 14 4 5 -2 8 9 7 25
-1 29 -3 30 -48 30 -46 0 -48 1 -48 30 0 28 -1 29 -57 32 -40 2 -57 7 -55 16
1 6 -3 12 -9 12 -6 0 -8 -10 -5 -22 l6 -23 -11 23 c-11 20 -19 22 -83 20 l-71
-2 60 -3z"/>
<path d="M14074 14595 c4 -15 1 -21 -12 -23 -9 0 -37 -5 -62 -11 l-45 -9 47
-1 c37 -1 48 -5 53 -21 3 -11 3 -25 -1 -31 -5 -8 10 -10 55 -7 33 2 61 0 61
-4 0 -5 -5 -6 -10 -3 -7 4 -9 -2 -5 -18 6 -22 3 -26 -22 -30 -15 -3 -1 -4 32
-4 54 1 61 -2 73 -24 l13 -24 -3 24 c-2 19 3 27 22 32 19 5 12 7 -26 8 -43 1
-53 4 -57 22 -4 15 1 22 19 29 13 5 24 17 25 27 0 16 2 16 10 -2 8 -17 8 -15
4 8 -5 26 -4 27 45 29 27 1 58 2 68 2 10 1 18 -8 20 -22 3 -22 -8 -31 -45 -36
-10 -2 -18 -8 -17 -14 3 -34 4 -37 14 -22 8 13 10 12 10 -2 0 -10 4 -18 10
-18 6 0 6 9 1 24 -9 23 -8 24 52 29 42 4 64 2 69 -6 13 -21 8 -37 -11 -37 -11
0 -32 -5 -48 -12 -15 -6 -31 -11 -34 -10 -3 0 -3 -12 -1 -29 4 -27 7 -29 47
-29 31 0 45 -5 49 -16 8 -21 5 -25 -36 -34 l-33 -8 42 -1 c36 -1 43 -5 51 -28
6 -16 11 -21 11 -13 1 13 2 13 12 0 8 -11 9 -7 4 17 -6 30 -4 32 27 36 l33 4
-36 1 c-28 2 -38 7 -42 23 -4 15 1 22 19 29 13 5 24 17 25 27 0 16 2 16 10 -2
8 -17 9 -17 4 5 -2 14 -5 28 -5 33 0 4 -9 7 -20 7 -17 0 -18 -3 -8 -25 6 -14
9 -27 7 -29 -2 -2 -30 -6 -63 -8 -53 -3 -59 -1 -67 20 -8 20 -6 22 31 22 21 0
42 5 45 10 4 6 11 8 16 4 7 -4 9 5 7 22 -2 17 -8 28 -15 27 -7 -2 -13 1 -13 6
0 6 -15 11 -32 13 -24 2 -34 9 -37 23 -5 28 -19 35 -79 35 -34 0 -54 5 -58 13
-2 7 -14 13 -25 14 -17 2 -18 -1 -9 -13 10 -11 10 -17 0 -29 -7 -8 -16 -12
-22 -9 -5 3 -6 -5 -3 -19 7 -25 5 -25 -55 -29 -66 -3 -83 7 -75 48 2 10 4 24
4 29 1 6 6 3 12 -5 7 -10 9 -11 7 -2 -2 8 -7 13 -12 12 -5 -1 -13 4 -18 12 -7
9 -8 7 -4 -7z"/>
<path d="M13420 14569 c0 -5 -4 -8 -10 -4 -10 6 -7 -37 5 -66 5 -14 -4 -17
-52 -22 -50 -4 -60 -2 -76 15 -10 12 -16 23 -13 25 2 2 26 8 53 13 l48 8 -53
1 c-38 1 -54 5 -59 17 -5 13 -7 13 -14 2 -7 -10 -9 -10 -9 0 0 6 -5 12 -11 12
-8 0 -8 -5 1 -15 10 -12 10 -16 -1 -19 -41 -13 -43 -14 -22 -15 12 -1 28 6 37
14 9 9 17 11 21 5 8 -13 -4 -32 -15 -25 -5 3 -3 -8 3 -25 10 -27 16 -30 54
-30 31 0 45 -5 52 -19 12 -22 6 -30 -23 -33 -12 -1 4 -4 34 -7 40 -4 56 -10
58 -23 2 -9 -5 -19 -17 -23 -12 -3 -21 -14 -22 -23 0 -14 -2 -13 -9 3 -6 13
-7 3 -4 -30 5 -40 3 -47 -6 -35 -10 13 -11 12 -6 -3 3 -10 6 -21 6 -23 0 -3 5
-2 12 2 7 4 8 3 4 -4 -4 -7 -24 -13 -44 -13 -25 -1 -30 -3 -13 -6 12 -3 34 -2
48 2 20 5 24 10 19 29 -5 20 -1 24 25 30 68 13 89 8 101 -25 8 -23 13 -27 19
-17 6 10 9 10 9 1 0 -7 4 -13 10 -13 5 0 2 13 -8 29 -9 16 -20 27 -24 25 -5
-3 -8 0 -8 5 0 7 -23 11 -54 11 -40 0 -55 4 -60 16 -9 23 -8 24 14 24 14 0 20
7 21 23 0 21 1 21 10 2 7 -15 8 -13 3 12 -5 29 -3 32 23 36 15 3 1 4 -32 4
-57 -2 -61 -1 -60 21 0 23 47 56 61 44 3 -4 -1 7 -10 25 -19 38 -20 47 -4 37
7 -5 8 -3 3 6 -4 7 -2 16 6 21 11 7 10 9 -3 9 -10 0 -18 -5 -18 -11z"/>
<path d="M12908 14472 c-9 -22 -159 -123 -260 -175 -155 -81 -236 -129 -243
-146 -18 -45 83 -45 305 -2 169 34 182 35 160 21 -12 -7 -8 -10 15 -10 21 0
26 3 16 9 -20 13 -5 18 87 31 66 10 80 15 72 26 -7 7 -17 11 -23 9 -7 -3 -78
-14 -160 -25 -150 -22 -206 -23 -219 -5 -5 6 -8 5 -8 -2 0 -7 -9 -13 -20 -13
-18 0 -19 3 -10 20 10 18 49 39 224 120 38 18 82 41 96 52 l27 20 -21 39 c-21
38 -31 47 -38 31z"/>
<path d="M23811 10190 c-96 -26 -152 -59 -227 -135 -75 -77 -114 -132 -180
-258 -59 -110 -51 -123 15 -26 54 78 206 231 281 281 52 36 88 47 235 76 28 5
84 17 125 27 51 11 95 15 138 11 34 -4 62 -4 62 -2 0 3 -30 14 -66 26 -90 27
-277 27 -383 0z"/>
<path d="M24101 10126 c2 -2 29 -11 59 -19 120 -34 266 -88 302 -114 36 -25
127 -123 114 -123 -3 0 10 -21 29 -46 63 -82 60 -90 -10 -25 -68 63 -139 112
-206 143 -31 14 -23 3 55 -75 59 -59 117 -130 161 -197 70 -109 106 -155 65
-85 -44 74 -92 149 -131 202 -22 29 -34 53 -27 53 27 0 135 -127 181 -215 56
-105 56 -73 1 64 -93 232 -284 403 -479 431 -74 10 -121 13 -114 6z"/>
<path d="M23587 9789 c-10 -6 -28 -12 -40 -13 -65 -7 -161 -102 -222 -217 -28
-54 -37 -84 -44 -154 -9 -92 -1 -200 20 -250 l12 -30 9 40 c7 27 6 72 -3 137
-15 120 -8 191 26 258 14 28 28 50 31 47 3 -2 0 -25 -6 -51 -14 -63 -23 -237
-11 -211 5 11 14 57 19 102 15 114 38 153 150 260 88 84 107 110 59 82z"/>
<path d="M24570 9624 c59 -171 39 -405 -48 -554 -61 -105 -200 -216 -324 -260
-74 -26 -230 -37 -298 -21 -24 5 -46 8 -48 6 -2 -2 35 -22 83 -46 86 -41 88
-42 165 -35 190 16 357 85 476 199 89 83 113 122 149 237 37 119 36 169 -4
250 -36 71 -160 280 -166 280 -2 0 5 -25 15 -56z"/>
<path d="M23225 9260 c-14 -42 -8 -201 10 -290 33 -162 84 -257 69 -130 -4 37
-3 60 3 60 17 0 2 151 -19 193 -10 20 -27 72 -37 115 -15 65 -19 73 -26 52z"/>
</g>
</svg>
