<?xml version="1.0" standalone="no"?>
<!DOCTYPE svg PUBLIC "-//W3C//DTD SVG 20010904//EN"
 "http://www.w3.org/TR/2001/REC-SVG-20010904/DTD/svg10.dtd">
<svg version="1.0" xmlns="http://www.w3.org/2000/svg"
 width="136.000000pt" height="136.000000pt" viewBox="0 0 136.000000 136.000000"
 preserveAspectRatio="xMidYMid meet">
<metadata>
Created by potrace 1.16, written by Peter Selinger 2001-2019
</metadata>
<g transform="translate(0.000000,136.000000) scale(0.100000,-0.100000)"
fill="#000000" stroke="none">
<path d="M507 1344 c-186 -45 -358 -187 -442 -366 -50 -105 -65 -176 -65 -298
0 -127 16 -195 72 -310 33 -69 58 -102 127 -170 140 -140 286 -200 481 -200
196 0 342 61 480 200 141 140 200 284 200 484 0 118 -16 190 -65 294 -86 181
-257 322 -446 367 -80 19 -264 18 -342 -1z m314 -150 c230 -68 391 -279 390
-511 -1 -151 -49 -263 -160 -374 -169 -169 -392 -206 -609 -102 -76 37 -200
159 -236 234 -102 210 -65 447 95 609 106 108 226 159 375 160 54 0 112 -6
145 -16z"/>
<path d="M1082 583 c34 -67 39 -87 27 -115 -10 -25 -16 -29 -38 -24 -174 37
-185 34 -158 -36 27 -70 24 -82 -20 -73 -77 15 -98 12 -101 -15 -2 -14 -7 -29
-12 -34 -10 -10 -110 43 -110 58 0 11 -66 36 -95 36 -31 0 -14 -22 33 -41 26
-11 54 -24 62 -30 34 -22 114 -58 121 -54 4 3 10 21 13 40 7 38 16 41 65 24
17 -6 43 -8 56 -5 30 8 33 38 10 93 -8 20 -13 38 -10 41 3 3 39 -2 80 -11 92
-21 90 -21 109 -1 30 29 9 154 -25 154 -6 0 -9 -3 -7 -7z"/>
</g>
</svg>
