<?xml version="1.0" standalone="no"?>
<!DOCTYPE svg PUBLIC "-//W3C//DTD SVG 20010904//EN"
 "http://www.w3.org/TR/2001/REC-SVG-20010904/DTD/svg10.dtd">
<svg version="1.0" xmlns="http://www.w3.org/2000/svg"
 width="500.000000pt" height="500.000000pt" viewBox="0 0 500.000000 500.000000"
 preserveAspectRatio="xMidYMid meet">
<metadata>
Created by potrace 1.16, written by Peter Selinger 2001-2019
</metadata>
<g transform="translate(0.000000,500.000000) scale(0.100000,-0.100000)"
fill="#000000" stroke="none">
<path d="M2815 4565 c-95 -18 -190 -43 -380 -103 -349 -109 -444 -136 -533
-148 l-49 -6 10 -37 c14 -47 11 -45 41 -25 22 14 65 18 239 25 117 4 250 10
297 13 47 4 126 8 175 11 154 9 258 30 413 81 52 17 138 60 146 73 7 10 -13 9
-30 -1 -13 -8 -43 24 -61 65 -16 35 -17 32 7 34 16 1 20 -5 21 -30 2 -30 2
-31 6 -4 2 15 9 27 14 27 5 0 9 4 9 8 0 10 -160 32 -216 31 -22 -1 -70 -7
-109 -14z"/>
<path d="M1850 2990 c-79 -30 -209 -87 -249 -109 -69 -38 -172 -165 -156 -191
3 -5 1 -11 -5 -15 -15 -9 -12 -73 6 -110 26 -56 57 -70 154 -70 74 0 92 4 141
29 31 15 78 49 104 75 l47 46 -7 -57 c-7 -55 -6 -59 24 -89 31 -31 33 -31 114
-27 70 3 92 8 152 39 58 30 71 41 78 68 13 50 6 53 -43 21 -63 -42 -149 -75
-161 -63 -11 11 16 173 52 317 11 43 18 80 16 82 -2 2 -46 7 -98 10 -91 7
-158 23 -95 24 28 0 28 1 11 13 -10 8 -15 19 -11 25 9 15 15 16 -74 -18z m228
-75 c1 -1 -6 -36 -17 -76 -11 -41 -27 -125 -37 -188 l-19 -113 27 -22 27 -21
-46 -3 c-91 -6 -108 30 -78 168 9 41 10 66 4 68 -6 3 -4 13 4 26 19 28 38 119
28 129 -5 5 -36 13 -70 20 -99 19 -71 30 57 22 64 -4 118 -8 120 -10z m-188
-36 c27 -6 50 -16 50 -22 0 -64 -80 -165 -183 -233 -74 -49 -127 -64 -152 -44
-26 21 -19 106 14 175 58 122 129 154 271 124z m-248 -16 c-6 -2 -10 -9 -6
-14 3 -5 1 -9 -4 -9 -16 0 -63 -119 -68 -173 -12 -127 77 -159 203 -74 74 51
81 55 63 32 -17 -21 -111 -84 -154 -102 -38 -17 -121 -16 -155 1 -71 37 -82
124 -27 211 34 53 126 136 149 134 8 0 8 -2 -1 -6z"/>
<path d="M2420 2942 c-181 -76 -206 -93 -213 -139 -4 -20 -5 -38 -3 -40 2 -2
16 7 32 20 49 39 121 77 149 77 35 0 56 -21 43 -43 -7 -13 -5 -17 7 -17 16 0
17 1 19 40 1 19 -7 29 -33 42 l-33 16 43 7 c46 7 91 -5 105 -26 10 -17 7 -83
-8 -147 -9 -44 -9 -55 2 -62 12 -7 11 -12 -4 -28 -9 -11 -25 -53 -34 -94 l-18
-73 -43 2 c-23 1 -45 4 -47 6 -3 3 2 27 10 53 9 27 24 93 34 146 18 91 18 97
1 101 -14 4 -20 -10 -34 -89 -9 -52 -21 -94 -26 -94 -4 0 -6 -6 -3 -14 5 -12
-2 -49 -21 -116 -4 -12 9 -15 75 -15 l81 0 9 35 c5 19 12 51 15 71 4 21 24 57
46 84 36 44 38 49 22 60 -10 8 -14 17 -9 22 5 4 11 2 13 -5 4 -10 8 -10 19 -1
8 6 14 8 14 4 0 -4 23 11 51 34 62 49 133 79 152 62 14 -11 9 -86 -8 -140 -5
-16 -3 -20 9 -15 11 4 13 0 9 -18 -4 -15 -2 -19 4 -13 5 6 15 45 22 88 11 68
10 79 -3 93 -9 9 -14 20 -11 25 4 5 -3 9 -15 9 -12 0 -18 5 -15 10 3 6 4 10 1
10 -12 0 -119 -51 -149 -70 l-32 -22 30 27 c45 39 104 67 155 72 83 9 104 5
126 -23 17 -21 22 -23 27 -10 12 30 -45 65 -106 67 -27 0 -29 2 -12 9 18 8 18
9 2 9 -38 2 -202 -87 -250 -135 -26 -26 -49 -45 -51 -43 -3 2 1 25 7 52 8 37
7 52 -4 74 -15 29 -63 53 -106 53 -37 0 -21 12 57 43 36 15 58 26 50 26 -8 0
-76 -26 -150 -57z"/>
</g>
</svg>
