<?xml version="1.0" standalone="no"?>
<!DOCTYPE svg PUBLIC "-//W3C//DTD SVG 20010904//EN"
 "http://www.w3.org/TR/2001/REC-SVG-20010904/DTD/svg10.dtd">
<svg version="1.0" xmlns="http://www.w3.org/2000/svg"
 width="1200.000000pt" height="675.000000pt" viewBox="0 0 1200.000000 675.000000"
 preserveAspectRatio="xMidYMid meet">
<metadata>
Created by potrace 1.16, written by Peter Selinger 2001-2019
</metadata>
<g transform="translate(0.000000,675.000000) scale(0.100000,-0.100000)"
fill="#000000" stroke="none">
<path d="M0 3375 l0 -3375 6000 0 6000 0 0 3375 0 3375 -6000 0 -6000 0 0
-3375z m6080 1455 c73 -124 152 -256 175 -295 24 -38 129 -216 235 -395 106
-179 279 -469 384 -645 105 -176 193 -323 194 -327 2 -5 -177 -8 -397 -8 -221
0 -401 -4 -401 -8 0 -9 -2269 -27 -2277 -19 -2 3 46 90 108 193 290 490 446
752 609 1024 97 162 232 388 301 502 68 115 126 208 129 208 7 0 347 -571 369
-621 l19 -41 34 53 c39 62 265 439 328 547 23 41 45 70 49 65 4 -4 68 -109
141 -233z m2638 108 l3 -68 -518 0 c-285 0 -559 -5 -610 -10 -169 -18 -269
-76 -298 -172 -31 -105 -11 -277 39 -343 52 -68 154 -114 293 -130 l58 -7 -28
22 c-26 21 -27 23 -12 46 8 13 15 32 15 43 0 13 5 18 13 15 8 -3 12 -16 10
-32 -3 -19 4 -35 21 -53 14 -15 23 -29 20 -32 -6 -6 255 -17 398 -17 65 1 134
-2 155 -5 293 -49 480 -149 553 -298 16 -34 35 -89 41 -122 15 -78 6 -229 -18
-294 -69 -196 -317 -327 -666 -351 -73 -5 -343 -8 -602 -7 l-470 2 0 70 0 70
480 2 c585 3 632 5 715 34 123 42 178 94 221 208 18 49 20 71 16 167 -3 91 -9
121 -29 166 -33 72 -89 133 -150 164 -91 46 -150 53 -498 57 -281 4 -338 7
-425 25 -246 52 -397 142 -465 277 -22 43 -25 63 -25 150 0 93 2 105 33 167
60 122 196 223 377 277 150 45 216 49 800 48 l550 -2 3 -67z m-4387 -1958 c71
-20 79 -40 85 -199 l6 -141 -36 0 -36 0 0 133 c0 90 -4 137 -12 145 -18 18
-83 15 -99 -4 -9 -11 -13 -41 -12 -88 1 -39 2 -97 2 -128 1 -51 4 -58 20 -58
11 0 23 -4 26 -10 4 -6 -5 -10 -19 -10 -14 0 -26 5 -26 10 0 6 -16 10 -35 10
l-35 0 0 133 c0 90 -4 137 -12 145 -16 16 -80 16 -96 0 -8 -8 -12 -55 -12
-145 l0 -133 -32 -1 c-18 0 -27 -3 -20 -6 19 -7 4 -23 -23 -23 -32 0 -40 16
-16 32 18 13 21 29 25 148 5 128 6 134 32 161 24 26 35 29 87 29 32 0 68 -5
79 -11 14 -8 27 -8 42 -1 49 24 67 26 117 12z m4314 -221 c-14 -52 -28 -102
-31 -111 -7 -23 -54 -25 -54 -3 0 27 84 300 95 307 22 16 16 -99 -10 -193z
m-1827 155 c12 -8 28 -26 34 -40 9 -20 8 -28 -5 -41 -19 -19 -31 -12 -51 28
-6 12 -24 26 -41 31 -59 17 -175 -14 -175 -47 0 -20 10 -24 107 -41 111 -20
143 -37 143 -80 0 -66 -102 -111 -226 -101 -35 2 -75 12 -89 21 -33 22 -49 61
-34 87 15 29 43 20 47 -14 3 -22 12 -32 40 -44 69 -29 194 -1 210 45 5 17 -51
38 -123 47 -115 14 -151 45 -121 104 15 28 64 54 126 65 42 7 133 -4 158 -20z
m-1903 -30 c25 -12 38 -13 54 -5 29 16 118 13 152 -5 41 -21 59 -68 59 -156 0
-48 3 -68 9 -59 5 8 10 59 10 114 0 54 3 102 6 106 8 14 168 12 196 -3 22 -11
30 -11 50 0 29 16 113 18 142 3 47 -24 57 -48 57 -146 l0 -93 -30 0 -30 0 0
90 c0 100 -7 110 -72 110 -49 0 -58 -15 -58 -92 l0 -68 -30 0 -30 0 0 64 c0
77 -14 96 -70 96 -58 0 -71 -24 -63 -122 l6 -78 -37 0 c-29 0 -39 -5 -48 -25
-12 -27 -27 -32 -46 -13 -8 8 -15 8 -25 -1 -8 -6 -21 -9 -28 -7 -8 3 -49 7
-91 11 -65 4 -82 9 -103 31 -20 20 -22 26 -10 30 8 4 22 1 30 -6 21 -18 62 2
75 35 12 32 28 32 40 0 11 -30 82 -68 118 -62 24 4 24 4 -5 6 l-33 1 0 84 c0
96 -11 116 -62 116 -51 0 -68 -24 -68 -97 l0 -63 -30 0 c-32 0 -34 6 -30 91 2
41 -26 69 -68 69 -54 0 -62 -13 -62 -110 l0 -90 -34 0 c-42 0 -44 8 -36 145
l5 100 50 6 c87 10 106 9 140 -7z m-405 -82 c0 -55 4 -92 12 -100 16 -16 83
-15 96 1 5 6 13 51 17 100 l7 87 29 0 29 0 0 -124 0 -125 -27 -4 c-24 -3 -23
-4 8 -6 19 0 44 -8 55 -16 17 -13 14 -14 -37 -15 -37 0 -61 5 -68 14 -9 11 -9
15 1 19 7 3 -17 6 -54 6 -60 1 -71 4 -100 30 -31 28 -33 33 -36 110 -5 100 -1
111 38 111 l30 0 0 -88z m1232 4 c5 -98 15 -116 69 -116 58 0 69 18 69 116 l0
84 30 0 30 0 0 -144 0 -144 -31 -26 c-26 -22 -40 -26 -95 -26 -78 0 -101 11
-120 55 -19 46 -18 55 8 55 21 0 21 1 3 20 -13 15 -20 42 -23 100 -5 93 -1
110 31 110 24 0 25 -3 29 -84z m558 59 c0 -25 -1 -25 -85 -25 -78 0 -85 -2
-85 -20 0 -21 36 -31 104 -28 47 2 66 -19 66 -76 0 -66 -17 -76 -132 -76 -98
0 -98 0 -98 25 0 25 1 25 85 25 l85 0 0 31 c0 30 -1 30 -42 29 -108 -4 -128 7
-128 70 0 58 24 70 137 70 93 0 93 0 93 -25z m897 5 c71 -43 79 -101 24 -178
-38 -51 -101 -77 -168 -68 -102 13 -95 15 -107 -29 -12 -42 -41 -59 -52 -31
-7 19 5 70 47 209 l31 97 36 -1 c20 -1 60 3 87 9 70 14 67 14 102 -8z m341 -1
c40 -14 62 -49 62 -99 l0 -40 -62 -2 c-35 -1 -93 -1 -130 0 -52 2 -68 -1 -68
-12 0 -21 22 -34 66 -42 39 -6 84 8 126 38 24 18 48 -4 32 -30 -23 -37 -86
-62 -157 -62 -65 0 -71 2 -103 34 -60 60 -38 134 58 198 47 31 117 38 176 17z
m386 1 c35 -13 63 -57 49 -79 -17 -28 -41 -24 -58 8 -14 28 -20 31 -63 31 -58
0 -100 -24 -126 -72 -19 -34 -19 -37 -3 -62 15 -22 25 -26 65 -26 45 0 66 9
127 54 13 10 25 12 34 7 20 -13 -18 -63 -66 -87 -54 -27 -152 -26 -190 2 -52
39 -55 88 -11 154 45 66 163 100 242 70z m569 -19 c21 -20 21 -22 4 -88 -9
-38 -16 -84 -14 -103 2 -32 0 -35 -23 -32 -14 2 -43 3 -65 1 -134 -8 -166 -5
-186 20 -28 34 -24 59 15 96 23 21 31 36 25 42 -15 15 36 71 74 83 52 15 146
5 170 -19z"/>
<path d="M7043 2811 c-37 -23 -53 -49 -53 -85 0 -39 25 -56 82 -56 45 0 54 4
89 39 63 62 47 111 -37 118 -37 3 -57 -1 -81 -16z"/>
</g>
</svg>
