<?xml version="1.0" standalone="no"?>
<!DOCTYPE svg PUBLIC "-//W3C//DTD SVG 20010904//EN"
 "http://www.w3.org/TR/2001/REC-SVG-20010904/DTD/svg10.dtd">
<svg version="1.0" xmlns="http://www.w3.org/2000/svg"
 width="1200.000000pt" height="798.000000pt" viewBox="0 0 1200.000000 798.000000"
 preserveAspectRatio="xMidYMid meet">
<metadata>
Created by potrace 1.16, written by Peter Selinger 2001-2019
</metadata>
<g transform="translate(0.000000,798.000000) scale(0.100000,-0.100000)"
fill="#000000" stroke="none">
<path d="M10704 7967 c-3 -8 -6 -33 -7 -57 -2 -38 1 -45 28 -61 51 -32 69 -37
93 -28 13 5 26 9 28 9 10 0 -21 -26 -39 -33 -9 -4 -21 -17 -26 -29 -7 -18 -4
-27 12 -39 12 -10 18 -23 14 -33 -4 -9 -2 -16 3 -16 6 0 10 8 11 18 0 9 6 2
13 -17 9 -25 26 -42 62 -62 27 -15 57 -28 66 -28 11 -1 15 -6 12 -16 -4 -8 -2
-15 4 -15 6 0 12 5 14 11 2 5 11 7 21 4 21 -9 23 -45 2 -45 -8 0 -15 -7 -15
-15 0 -8 9 -15 20 -15 11 0 20 -6 20 -12 0 -16 60 -65 95 -78 14 -5 25 -14 25
-20 0 -5 7 -10 16 -10 9 0 14 -5 12 -12 -6 -18 -28 -22 -28 -4 0 21 -13 27
-49 20 -22 -5 -31 -12 -31 -26 0 -18 2 -19 16 -7 14 11 18 10 29 -5 9 -12 20
-16 34 -11 17 5 21 2 21 -18 0 -35 29 -127 40 -127 6 0 10 -9 10 -19 0 -10 7
-21 15 -25 12 -4 15 -25 12 -112 -1 -67 2 -109 8 -111 7 -2 9 12 7 37 -4 35
-2 40 17 40 25 0 28 15 4 25 -16 6 -15 8 7 18 25 10 25 10 3 14 -20 4 -22 9
-18 40 2 20 12 44 20 53 10 11 12 20 6 24 -5 4 -12 2 -16 -4 -10 -16 -25 -12
-25 6 0 10 6 14 14 11 17 -7 36 11 36 35 0 42 41 1 54 -54 4 -19 1 -30 -11
-36 -15 -9 -14 -10 3 -15 39 -11 84 -6 84 9 0 8 -9 14 -19 14 -11 0 -23 9 -26
20 -3 11 -11 20 -16 20 -5 0 -9 11 -9 25 0 14 -10 35 -21 46 -17 17 -20 30
-16 60 6 47 -3 58 -19 22 l-11 -28 -8 28 c-4 15 -14 27 -22 27 -8 0 -11 5 -8
10 3 6 1 10 -4 10 -6 0 -11 -4 -11 -10 0 -5 -7 -7 -15 -4 -8 4 -15 14 -15 24
0 31 -11 50 -29 50 -9 0 -23 6 -29 13 -7 6 -17 13 -22 13 -6 1 -14 2 -19 3 -5
0 -11 10 -14 21 -3 12 -14 20 -26 20 -15 0 -21 6 -21 21 0 16 4 19 20 14 11
-4 20 -2 20 4 0 6 9 11 20 11 11 0 20 6 20 13 0 11 42 14 98 8 17 -1 5 -72
-15 -88 -12 -9 -12 -16 -3 -33 15 -29 33 -21 41 19 9 43 38 66 59 45 10 -10
12 -17 4 -22 -14 -9 -24 -71 -12 -78 4 -3 8 -17 9 -32 0 -15 3 -21 6 -14 6 15
63 16 63 1 0 -5 -6 -7 -12 -3 -9 5 -8 2 1 -9 13 -17 15 -16 36 3 12 11 30 20
41 19 10 0 13 -3 7 -6 -16 -6 -17 -33 -3 -33 6 0 15 10 20 23 5 12 9 15 9 7 1
-8 -8 -28 -18 -43 -15 -23 -16 -33 -7 -53 9 -20 16 -24 39 -20 24 5 27 2 27
-19 0 -23 3 -25 28 -19 15 4 28 8 30 9 7 6 9 105 1 105 -5 0 -9 7 -9 15 0 8
-8 15 -17 15 -9 0 -14 3 -10 6 3 3 -7 17 -24 31 -28 24 -38 56 -20 67 13 8 8
119 -6 123 -16 6 -38 -36 -25 -49 10 -10 -6 -58 -20 -58 -3 0 -11 15 -18 33
-8 21 -14 27 -17 17 -3 -8 -17 -28 -32 -43 -25 -28 -26 -29 -7 -43 15 -11 17
-17 8 -26 -9 -9 -17 -8 -37 2 -27 14 -34 40 -11 40 10 0 14 12 12 40 -1 39 6
51 19 30 8 -13 35 13 35 34 0 9 7 16 15 16 15 0 22 19 8 21 -5 0 -15 2 -23 5
-61 16 -70 16 -64 1 3 -8 14 -17 25 -20 31 -8 23 -34 -11 -34 -21 0 -29 4 -26
13 3 8 0 16 -5 20 -6 3 -8 17 -5 30 5 17 2 26 -9 30 -31 12 -15 27 23 22 l38
-6 -5 35 c-5 31 -28 45 -25 15 2 -10 -1 -10 -13 0 -11 9 -16 9 -23 -1 -6 -11
-14 -11 -40 3 -54 27 -73 -12 -21 -42 34 -19 45 -46 25 -63 -23 -19 -45 -3
-38 26 5 19 2 25 -10 25 -10 0 -16 -8 -16 -21 0 -19 -2 -20 -16 -8 -15 12 -18
11 -27 -3 -8 -13 -15 -14 -34 -5 -13 5 -23 18 -23 28 0 17 -28 35 -38 24 -3
-3 1 -5 9 -5 8 0 1 -7 -15 -15 -38 -20 -96 -20 -96 0 0 8 7 15 15 15 21 0 20
56 -1 64 -27 11 -37 7 -24 -9 18 -22 -17 -95 -45 -95 -17 0 -18 2 -5 10 13 9
13 12 -2 21 -10 5 -18 19 -18 31 0 16 -3 18 -13 9 -22 -17 -28 -1 -12 30 8 15
15 38 15 50 0 18 3 19 15 9 16 -13 39 -4 29 11 -3 5 -6 30 -6 54 0 43 -6 54
-22 38 -10 -10 -78 -33 -100 -33 -14 0 -17 5 -12 25 5 19 3 23 -9 19 -8 -3
-13 -10 -10 -14 8 -13 -25 -28 -46 -23 -27 7 -23 22 7 29 17 4 23 11 19 22 -3
8 2 23 11 33 16 18 16 19 -20 19 -21 0 -39 -6 -42 -13z"/>
<path d="M11550 7955 c0 -27 18 -33 40 -12 12 10 12 9 1 -5 -16 -21 -5 -62 14
-54 9 3 12 0 8 -10 -3 -7 -12 -14 -20 -14 -13 0 -13 -3 -3 -15 7 -9 19 -14 27
-11 9 4 11 1 7 -6 -4 -6 0 -16 8 -22 23 -17 36 -49 28 -71 -7 -19 -7 -19 -14
3 -4 12 -15 22 -25 22 -12 0 -17 8 -16 28 0 21 -5 28 -22 30 -27 4 -31 -19 -8
-38 8 -7 15 -23 15 -36 0 -19 -5 -24 -25 -24 -14 0 -25 -4 -25 -10 0 -5 6 -10
14 -10 7 0 18 -6 24 -13 14 -17 -9 -47 -37 -47 -19 0 -20 -3 -11 -21 7 -11 17
-18 25 -15 7 2 15 -4 18 -15 3 -10 1 -19 -4 -19 -18 0 -8 -18 14 -25 l22 -7
-24 -7 c-14 -3 -26 -12 -29 -19 -5 -15 7 -15 41 1 21 9 27 19 27 44 0 27 5 33
36 43 41 14 64 2 42 -21 -8 -8 -13 -32 -13 -54 1 -22 -2 -55 -6 -72 -4 -18 -3
-33 2 -33 5 0 9 7 9 15 0 22 18 18 25 -5 4 -12 1 -27 -5 -35 -9 -11 -9 -15 -1
-15 17 0 13 -27 -5 -34 -25 -10 -4 -28 25 -21 22 5 30 1 41 -20 10 -19 11 -28
3 -33 -17 -11 -27 -59 -13 -67 6 -4 18 -1 26 6 14 11 15 8 12 -22 -2 -23 -9
-35 -20 -37 -10 -2 -18 3 -18 10 0 15 -34 40 -65 48 -15 5 -19 13 -16 35 1 17
8 33 13 36 19 12 3 43 -26 50 -26 7 -27 6 -13 -9 12 -14 13 -28 5 -79 -6 -35
-15 -63 -19 -63 -5 0 -9 -7 -9 -15 0 -8 5 -15 10 -15 6 0 10 7 10 15 0 24 51
19 57 -6 4 -16 8 -17 14 -7 6 8 9 -2 9 -28 0 -22 -3 -44 -7 -47 -7 -8 -33 38
-33 59 0 7 -5 16 -11 20 -8 4 -9 0 -4 -15 5 -18 2 -21 -23 -21 -24 0 -31 -5
-34 -25 -6 -29 -8 -29 28 -11 15 8 32 12 38 9 5 -4 1 -10 -10 -14 -18 -6 -18
-7 -1 -14 18 -8 24 -55 7 -55 -5 0 -10 -4 -10 -9 0 -5 7 -8 16 -7 11 1 18 -8
21 -26 3 -23 0 -28 -16 -28 -31 0 -35 -19 -6 -32 14 -6 27 -21 30 -32 2 -12 6
-30 8 -41 3 -11 5 -4 6 15 0 20 -3 40 -8 45 -14 15 -1 73 18 78 13 4 13 5 -2
6 -13 1 -17 6 -12 20 3 11 1 22 -5 26 -8 5 -8 11 1 21 16 20 29 17 29 -6 0
-11 4 -20 8 -20 5 0 15 -12 22 -26 13 -24 12 -27 -10 -45 l-25 -19 28 0 c29 0
34 -9 15 -29 -11 -10 -9 -11 5 -5 13 5 20 1 24 -15 7 -26 46 -30 41 -3 -2 9
-12 16 -22 15 -11 -1 -15 4 -12 14 3 8 6 17 6 19 0 2 7 4 15 4 8 0 15 7 15 15
0 18 -12 19 -28 3 -17 -17 -28 0 -14 22 10 16 7 24 -23 52 -38 35 -43 48 -20
48 8 0 15 -8 16 -17 0 -11 7 -4 15 16 17 37 10 56 -10 28 -17 -22 -26 -22 -26
2 0 10 11 26 24 34 21 14 26 14 36 2 7 -8 19 -15 26 -15 18 0 18 -10 -2 -24
-14 -10 -12 -14 10 -26 31 -16 40 -39 27 -73 -10 -27 -6 -37 16 -37 10 0 12 9
7 35 -8 42 11 47 44 12 26 -27 28 -37 8 -37 -21 0 -29 -17 -17 -37 7 -14 5
-23 -11 -40 -20 -22 -23 -22 -40 -6 -24 22 -23 4 4 -46 16 -31 19 -44 11 -52
-16 -16 -43 -3 -43 21 0 11 -4 20 -10 20 -5 0 -7 -6 -4 -14 10 -27 -14 -54
-56 -61 -29 -5 -38 -10 -32 -18 6 -7 12 -21 15 -32 4 -16 5 -14 6 7 1 23 5 26
38 26 22 0 41 6 49 16 12 17 44 22 44 7 0 -5 -4 -11 -8 -13 -13 -5 -24 -58
-13 -58 5 0 13 5 16 10 12 19 25 10 25 -16 0 -16 -5 -24 -12 -21 -7 2 -21 -2
-30 -11 -17 -14 -18 -13 -18 8 0 19 -3 21 -12 12 -18 -18 -18 -132 0 -132 8 0
12 -9 10 -22 -2 -11 3 -23 10 -25 14 -5 17 33 2 42 -16 10 -12 65 5 65 8 0 15
6 15 13 0 8 11 19 25 25 26 12 28 18 25 65 -1 21 3 27 19 27 24 0 27 12 8 29
-10 8 -17 7 -25 -1 -9 -9 -12 1 -12 45 0 54 1 57 24 57 l24 0 1 200 c0 155 -3
199 -12 193 -9 -5 -9 -3 1 9 9 12 12 98 12 367 l-1 351 -135 0 c-94 0 -133 -3
-131 -11 1 -6 -4 -14 -10 -16 -7 -3 -13 2 -13 11 0 13 -14 16 -80 16 -79 0
-80 0 -80 -25z"/>
<path d="M11800 6325 c0 -3 4 -13 9 -23 34 -64 42 -92 30 -114 -9 -17 -9 -24
3 -32 19 -15 20 -52 2 -67 -8 -6 -14 -21 -13 -33 0 -21 0 -21 16 2 8 12 21 22
28 22 8 0 16 6 19 13 3 6 3 -1 -1 -17 -4 -18 -1 -31 7 -36 9 -6 7 -11 -9 -19
-25 -14 -28 -33 -4 -29 10 2 18 -4 19 -12 0 -8 2 -21 2 -27 3 -23 49 -15 56
10 10 36 7 41 -13 23 -18 -17 -19 -17 -24 1 -7 25 -3 101 6 109 4 4 7 2 7 -4
0 -7 5 -12 12 -12 6 0 2 10 -10 23 -15 16 -22 36 -22 61 0 30 -8 47 -35 77
-19 21 -37 50 -41 64 -4 16 -13 25 -25 25 -10 0 -19 -2 -19 -5z"/>
<path d="M6980 5854 c0 -6 10 -21 21 -33 18 -19 19 -25 8 -32 -21 -13 -1756
-12 -1764 2 -4 5 1 19 11 30 9 10 15 21 13 24 -3 2 -280 -271 -617 -608 l-612
-612 0 -825 c0 -768 1 -827 18 -850 9 -14 291 -299 627 -633 l610 -607 832 0
832 0 38 33 c40 34 394 381 521 510 42 42 83 77 90 77 7 0 11 4 8 9 -7 11 82
101 101 101 7 0 13 6 13 13 0 6 52 64 115 127 64 63 148 148 187 187 39 40 80
75 90 79 10 3 16 9 14 13 -3 4 15 27 39 51 25 24 45 52 45 62 0 9 8 21 18 27
16 9 16 11 -2 24 -18 13 -18 14 5 36 17 16 19 20 6 16 -14 -6 -16 -3 -11 11 4
11 10 24 14 29 15 21 18 58 7 77 -10 16 -9 21 5 29 14 8 15 13 6 28 -7 11 -8
26 -3 37 5 11 9 21 9 24 1 3 4 10 8 16 9 14 1 73 -13 90 -6 7 -8 18 -4 23 3 6
2 18 -3 28 -7 12 -5 24 5 40 13 19 13 24 2 28 -19 7 -19 126 0 149 8 10 10 23
5 33 -14 32 -16 56 -14 168 3 132 4 147 14 163 4 7 2 14 -6 17 -10 4 -13 32
-12 111 1 91 4 108 19 116 12 7 14 12 6 18 -7 4 -14 35 -16 69 -2 34 -7 66
-10 71 -4 6 1 24 9 42 17 32 8 58 -19 58 -14 0 -35 43 -35 74 0 12 -15 37 -35
56 -19 19 -35 40 -35 47 0 7 -5 13 -12 13 -18 0 -47 30 -42 44 3 7 -24 32 -61
57 -36 24 -65 48 -65 53 0 5 10 0 23 -12 13 -12 28 -22 34 -22 6 0 13 -5 15
-12 5 -14 38 -4 38 12 0 5 -11 10 -25 10 -16 0 -42 16 -70 41 -27 25 -49 38
-56 33 -9 -5 -10 -1 -7 14 5 17 2 22 -12 22 -11 0 -20 8 -22 20 -2 12 -7 19
-13 18 -5 -2 -9 -7 -7 -11 1 -5 -11 1 -29 13 -21 16 -27 25 -19 30 9 5 -4 24
-39 61 -28 29 -51 56 -51 61 0 11 -39 30 -49 24 -4 -3 -19 6 -31 19 l-23 25
27 0 c28 0 33 24 5 26 -46 4 -77 17 -72 31 3 8 -4 21 -16 29 -12 9 -19 20 -16
25 10 15 -29 47 -55 45 -26 -2 -83 41 -74 56 3 4 -3 11 -13 15 -26 9 -63 44
-57 54 3 5 -1 9 -9 9 -8 0 -22 10 -33 21 -19 22 -19 22 8 15 15 -3 30 -2 33 4
4 6 -9 10 -33 10 -37 0 -40 2 -46 35 -4 20 -13 35 -21 35 -7 0 -26 10 -42 23
-15 13 -37 27 -47 31 -15 5 -16 10 -8 18 9 9 3 17 -21 32 -17 11 -37 19 -44
18 -6 -2 -18 5 -25 15 -23 30 -78 77 -78 67z m-1680 -317 l0 -82 -475 -475
-475 -475 0 -710 0 -710 470 -470 470 -470 0 -85 0 -85 -530 530 -530 530 0
760 0 760 528 532 c290 292 530 531 535 532 4 1 7 -36 7 -82z m1549 -1747 c-2
-1014 -8 -1830 -13 -1830 -4 0 -5 -15 -2 -34 6 -31 4 -34 -25 -40 -41 -8
-1267 -8 -1308 0 -29 6 -31 9 -25 40 3 19 2 34 -2 34 -5 0 -11 816 -13 1830
l-3 1830 697 0 698 0 -4 -1830z m1181 5 l0 -760 -505 -505 -505 -505 0 85 0
85 73 75 c128 134 129 135 121 164 -3 15 -15 28 -28 32 -27 6 -51 52 -27 50
19 -1 18 44 -1 55 -6 4 -8 14 -5 23 3 8 2 18 -3 21 -14 9 -12 43 2 47 9 3 8
11 -5 31 -16 25 -16 26 8 45 32 25 31 32 -1 32 -23 0 -25 3 -19 30 5 22 3 32
-9 36 -9 3 -16 11 -16 16 0 6 7 7 16 4 13 -5 14 -1 9 27 -4 17 -11 34 -16 35
-15 6 -10 23 12 41 20 16 21 22 12 74 -9 49 -8 59 6 67 9 5 12 10 6 10 -5 0
-11 27 -12 60 -2 45 1 60 11 60 8 0 16 7 20 15 4 10 -1 15 -15 15 -11 0 -17 4
-14 10 4 6 1 17 -5 25 -7 8 -9 15 -6 15 4 0 4 5 0 12 -11 18 -14 58 -4 58 15
0 18 49 2 55 -13 5 -12 8 3 25 12 14 15 27 11 47 -4 15 -9 46 -10 68 -1 22 -6
55 -10 73 -6 25 -4 32 7 32 25 0 26 23 3 49 l-21 23 23 -6 c21 -7 33 9 12 16
-7 2 -7 15 0 37 7 24 6 39 -1 48 -9 10 -7 20 6 40 16 24 16 27 1 38 -15 12
-15 13 1 20 17 6 17 7 0 20 -13 9 -17 20 -12 34 4 14 1 23 -9 27 -9 3 -16 10
-16 16 0 5 4 7 8 4 4 -2 14 0 22 5 13 8 13 11 -1 19 -14 8 -15 18 -8 57 6 29
5 51 0 56 -7 7 -7 17 -1 28 7 12 6 20 0 24 -6 4 -7 11 -4 17 10 15 8 149 -1
172 -6 13 -3 23 11 33 18 13 18 15 2 43 -10 17 -13 32 -7 35 5 4 6 21 3 38
-11 63 -12 97 -2 103 6 4 5 9 -3 14 -10 7 -10 12 -1 23 12 14 10 63 -6 127 -7
27 -5 39 5 49 12 11 12 16 -3 32 -17 19 -17 20 4 26 27 7 29 23 2 23 -24 0
-26 16 -5 36 20 21 20 64 -1 64 -14 0 -14 2 0 15 8 8 19 15 25 15 14 0 14 27
0 36 -8 4 -8 9 0 17 6 6 11 21 11 33 0 12 4 24 10 26 5 2 -31 45 -80 96 l-90
92 0 87 0 88 510 -510 510 -510 0 -760z m-2739 1465 c10 0 13 -2691 2 -2801
-5 -60 -8 -66 -25 -61 -11 2 -22 11 -25 18 -3 8 -11 14 -17 14 -7 0 -25 18
-42 40 -16 22 -32 40 -36 40 -5 0 -8 7 -8 15 0 9 -7 18 -15 21 -8 4 -12 10 -9
15 3 5 -4 9 -15 9 -16 0 -20 6 -18 23 1 17 -3 22 -22 22 -32 0 -39 23 -9 34
20 8 17 10 -22 12 -25 1 -51 1 -57 0 -7 -1 -13 3 -13 9 0 6 10 10 22 8 11 -2
23 2 25 9 2 7 -8 13 -24 15 -19 2 -32 12 -41 31 -14 28 -36 38 -25 11 4 -12 1
-15 -12 -13 -22 5 -62 72 -46 77 20 7 12 22 -10 19 -12 -1 -24 4 -26 11 -3 6
3 12 12 12 15 0 15 3 5 16 -8 8 -22 20 -33 26 -17 9 -19 8 -14 -6 9 -22 -6
-20 -28 4 -10 11 -23 20 -29 20 -7 0 -19 13 -29 29 -15 26 -15 30 -1 35 19 7
9 26 -15 26 -10 0 -24 7 -31 15 -7 8 -21 15 -31 15 -10 0 -21 4 -24 10 -3 5 0
7 8 4 8 -3 18 -1 22 5 3 6 1 11 -4 11 -6 0 -11 7 -11 15 0 9 -7 18 -15 21 -8
4 -12 10 -9 15 3 5 -2 9 -10 9 -19 0 -21 26 -3 33 8 3 7 10 -7 23 -10 11 -16
13 -12 7 8 -14 -9 -18 -17 -5 -3 4 -8 31 -11 60 -3 29 -8 57 -11 62 -3 5 0 18
7 29 9 14 16 17 25 10 7 -6 17 -8 23 -4 16 10 -7 35 -26 28 -17 -6 -18 9 -1
26 10 10 9 14 -5 22 -15 8 -15 14 -6 37 7 15 18 32 26 39 11 9 9 14 -12 28
-32 21 -33 35 -4 35 21 0 21 0 2 15 -16 13 -17 16 -4 24 12 8 13 16 4 38 -12
33 -8 53 12 53 20 0 17 12 -11 43 -21 22 -24 30 -15 48 9 15 8 24 -1 35 -6 8
-9 14 -6 14 3 0 -1 16 -9 36 -14 35 -14 35 6 29 14 -4 20 -2 20 9 0 8 -5 18
-11 22 -8 5 -7 9 4 15 12 7 14 16 6 42 -5 17 -11 65 -13 105 -4 70 -3 72 20
72 29 0 31 15 5 30 -14 7 -22 7 -27 -1 -4 -8 -9 -7 -15 2 -4 8 -3 19 4 27 6 8
11 47 12 87 l0 73 32 13 c39 15 46 43 9 33 -33 -8 -37 5 -16 49 10 21 18 39
18 40 -1 1 2 18 6 38 5 28 14 40 36 49 17 7 30 18 30 25 0 6 9 20 20 30 11 10
19 25 18 34 -2 12 5 16 30 15 27 -2 32 1 32 21 0 14 7 25 20 28 13 3 20 14 20
29 0 24 30 58 53 58 23 1 48 27 41 44 -4 11 -1 16 13 16 24 0 43 19 36 36 -3
9 7 19 28 29 19 8 31 14 27 15 -10 0 7 45 18 46 5 0 26 9 47 18 33 14 38 21
33 41 -5 19 2 29 44 60 29 21 57 52 65 71 10 24 18 32 30 28 11 -5 18 0 22 15
4 14 11 20 20 17 8 -3 19 -6 24 -6z"/>
<path d="M5505 5490 c-3 -6 -4 -14 -1 -19 3 -5 6 -254 6 -553 l1 -544 43 42
c46 44 117 74 175 74 26 0 32 3 21 10 -8 5 -15 23 -16 40 -1 16 -8 37 -15 46
-7 9 -14 36 -16 61 -1 25 -7 51 -12 57 -6 7 -8 16 -4 19 3 4 1 7 -6 7 -7 0 -9
5 -4 13 4 6 6 22 4 35 -1 12 3 38 9 57 7 23 8 40 2 52 -10 17 2 50 23 65 6 4
2 21 -8 43 -14 28 -15 40 -6 51 6 8 8 21 4 31 -5 10 -7 22 -6 27 1 4 -4 14
-10 22 -7 8 -7 14 -2 14 13 0 14 78 2 86 -18 10 -8 24 16 24 14 0 25 5 25 10
0 6 -5 10 -10 10 -6 0 -10 16 -8 36 1 25 -3 40 -15 49 -15 11 -13 14 18 31 19
10 38 26 41 36 10 32 148 68 183 47 14 -10 36 -10 86 -3 36 6 68 7 71 2 3 -5
10 -6 15 -3 5 4 36 -1 69 -11 66 -18 101 -14 80 11 -16 19 0 19 53 1 20 -8 37
-10 37 -5 0 14 28 11 33 -3 3 -8 6 -6 6 5 1 9 7 17 14 18 6 0 1 4 -13 8 -14 4
-107 8 -207 9 -165 0 -183 -1 -183 -16 -1 -16 -1 -16 -10 0 -9 14 -37 16 -244
17 -145 0 -237 -3 -241 -9z"/>
<path d="M5724 4346 c-22 -10 -35 -25 -44 -51 -13 -41 -7 -119 11 -141 12 -15
111 -20 107 -6 -4 10 14 11 40 1 13 -5 38 -9 55 -8 30 0 31 1 10 11 -31 15
-29 32 2 24 20 -5 25 -3 25 13 0 11 9 25 21 31 14 8 18 17 14 28 -4 9 -7 22
-8 27 -1 6 -10 13 -19 17 -11 4 -18 18 -18 33 0 23 -4 25 -42 26 -24 0 -61 2
-83 5 -22 2 -54 -3 -71 -10z"/>
<path d="M5510 3960 c0 -113 -2 -577 -4 -1032 l-5 -828 650 0 649 0 0 56 c0
54 -1 56 -23 50 -13 -3 -50 -8 -83 -11 -32 -3 -60 -10 -62 -15 -2 -6 -11 -3
-19 6 -9 8 -22 13 -29 10 -8 -3 -14 1 -14 9 0 7 -5 17 -12 21 -7 5 -9 2 -5 -9
9 -24 -15 -39 -39 -23 -10 7 -28 15 -40 18 -17 4 -20 1 -16 -18 3 -19 0 -24
-18 -24 -14 0 -20 5 -17 13 3 8 -6 13 -25 14 -24 2 -29 -1 -24 -13 5 -13 2
-14 -11 -8 -10 4 -49 6 -87 5 -59 -2 -70 0 -83 18 -16 23 -43 28 -43 8 0 -7 5
-18 12 -25 21 -21 -7 -13 -30 8 -20 19 -22 19 -31 2 -9 -15 -13 -15 -32 -4
-14 9 -24 10 -28 3 -4 -6 -12 -7 -21 -1 -9 5 -19 5 -27 -1 -9 -8 -22 -6 -45 5
-28 15 -34 15 -43 2 -10 -12 -17 -12 -60 3 -86 29 -143 69 -130 90 3 7 1 10
-6 9 -7 -2 -14 9 -15 24 -2 23 2 29 29 37 26 7 27 9 9 10 -26 1 -41 29 -22 41
8 5 9 9 1 14 -6 4 -11 2 -11 -4 0 -6 -5 -8 -10 -5 -8 5 -7 11 1 21 9 12 9 20
-2 41 -11 21 -11 27 -1 31 7 2 17 13 23 24 10 18 9 20 -5 15 -8 -3 -18 -2 -21
3 -4 6 0 10 7 10 11 0 10 2 0 9 -11 7 -11 9 2 14 22 9 20 24 -4 30 -12 3 -20
14 -20 26 0 20 11 25 50 22 9 0 10 2 3 5 -7 3 -9 13 -6 21 5 12 2 15 -9 10
-12 -4 -17 3 -22 25 -10 50 -7 65 14 71 26 7 26 34 -1 42 -13 4 -18 12 -15 22
3 8 6 21 6 29 0 8 6 11 15 8 22 -9 18 16 -7 43 -21 23 -21 23 -2 37 17 13 17
17 5 51 -9 25 -10 40 -3 47 7 7 7 20 -1 41 -8 23 -7 32 1 35 18 6 14 32 -4 32
-8 0 -12 5 -9 11 4 6 13 8 20 5 8 -3 11 2 8 15 -3 10 -10 19 -15 19 -14 0 -5
33 15 52 18 16 7 36 -13 23 -5 -3 -11 0 -12 7 0 7 -2 18 -2 23 -1 6 -5 16 -10
23 -12 20 2 28 25 13 19 -11 20 -10 14 8 -4 14 -2 21 6 21 7 0 4 6 -7 14 -10
8 -16 18 -11 22 4 4 -1 16 -10 27 -17 19 -17 20 3 15 30 -8 58 10 44 27 -8 9
-6 15 7 21 12 6 -18 11 -87 14 l-105 5 -3 40 c-5 53 14 65 99 65 41 0 70 5 77
13 9 11 17 46 12 57 -7 18 -5 50 4 50 5 0 1 7 -10 15 -15 12 -16 16 -5 24 17
11 5 32 -14 24 -18 -6 -20 8 -3 25 9 9 9 12 0 12 -19 0 -14 62 8 105 19 38 19
41 3 52 -9 7 -24 13 -32 13 -34 0 -119 49 -149 86 l-32 39 0 -205z"/>
<path d="M6080 4116 c0 -2 14 -20 31 -38 54 -58 62 -88 65 -252 2 -110 6 -151
16 -157 7 -5 13 -14 13 -20 0 -7 6 -14 13 -16 6 -3 12 2 12 11 0 9 -4 16 -10
16 -5 0 -10 9 -10 20 0 13 5 18 15 14 13 -5 15 14 15 137 0 179 -3 193 -41
185 -16 -3 -29 -2 -29 3 0 11 -69 95 -81 99 -5 2 -9 1 -9 -2z"/>
<path d="M6396 4003 c-4 -9 -6 -119 -6 -245 1 -190 4 -230 16 -235 8 -3 14
-12 14 -20 0 -8 4 -12 9 -8 5 3 12 1 15 -4 3 -5 -1 -12 -10 -15 -11 -4 -18 1
-21 14 -13 49 -23 12 -21 -81 1 -95 3 -103 27 -125 24 -23 33 -24 151 -24 112
1 122 2 100 15 -15 8 -29 10 -34 5 -11 -11 -46 6 -46 21 0 6 7 8 16 5 12 -4
15 -2 10 9 -3 8 -1 26 4 40 8 20 6 27 -10 35 -25 13 -26 46 -2 59 15 9 13 10
-10 11 -30 0 -47 32 -29 54 15 18 -11 30 -28 13 -8 -8 -11 -8 -11 1 0 7 7 15
15 18 21 8 19 37 -5 67 -26 33 -25 47 6 80 16 18 23 34 19 46 -3 11 -8 29 -10
42 -2 12 -11 29 -20 39 -22 24 -19 36 4 16 29 -27 46 -10 21 21 -26 33 -25 43
3 43 l22 0 -21 18 c-12 9 -25 34 -28 55 -4 23 -12 37 -19 34 -15 -5 -22 -47
-8 -47 19 0 12 -16 -14 -30 -13 -7 -22 -17 -19 -22 3 -4 1 -8 -4 -8 -6 0 -13
7 -16 16 -8 22 -8 22 12 27 14 4 14 6 -5 12 -13 4 -23 13 -23 19 0 6 -9 19
-19 28 -17 15 -20 15 -25 1z"/>
<path d="M11887 4609 c-3 -10 -13 -19 -23 -19 -9 0 -26 -7 -36 -16 -15 -14
-20 -15 -33 -4 -12 10 -19 10 -27 2 -16 -16 -8 -21 39 -25 45 -4 91 -36 56
-39 -10 0 -24 -1 -30 -1 -7 1 -13 -8 -13 -18 0 -10 -6 -19 -12 -19 -8 0 -5 -7
6 -15 31 -23 71 -19 92 10 10 14 24 23 30 21 17 -7 25 5 14 19 -7 9 -5 16 6
26 14 11 18 10 30 -6 13 -18 14 -17 14 9 0 16 -5 26 -12 25 -7 -1 -22 -1 -32
0 -16 1 -17 4 -8 13 18 18 15 28 -8 28 -11 0 -20 4 -20 9 0 19 -28 19 -33 0z"/>
<path d="M11887 1150 c-14 -11 -27 -33 -29 -48 -2 -15 -8 -26 -15 -24 -19 3
-15 -15 5 -23 16 -7 15 -8 -3 -15 -30 -13 -35 -12 -35 8 -1 15 -2 15 -13 1 -7
-8 -21 -19 -32 -24 -17 -7 -14 -9 20 -17 26 -6 41 -5 43 2 6 16 32 12 32 -5 0
-8 -7 -15 -15 -15 -8 0 -15 -6 -15 -14 0 -16 -21 -26 -58 -26 l-27 -1 27 -15
c27 -14 29 -13 68 27 22 23 37 45 34 50 -3 5 1 9 9 9 8 0 17 -7 21 -15 6 -17
56 -21 56 -4 0 6 7 18 16 26 10 10 14 27 12 44 -3 15 -1 26 4 23 4 -3 8 4 8
15 0 29 -24 26 -44 -4 -17 -25 -13 -51 5 -40 5 4 9 1 9 -4 0 -6 -7 -11 -15
-11 -8 0 -15 -7 -15 -16 0 -12 -6 -15 -22 -10 -13 3 -29 6 -35 6 -7 0 -13 7
-13 15 0 18 5 18 30 5 14 -7 19 -5 23 9 3 12 -1 18 -12 17 -11 -1 -16 7 -16
24 0 17 7 26 25 31 21 5 22 7 8 14 -10 4 -15 11 -12 16 9 14 -1 10 -29 -11z"/>
<path d="M11920 704 c0 -15 -6 -24 -15 -24 -8 0 -15 -4 -15 -10 0 -5 -9 -10
-20 -10 -11 0 -34 -8 -52 -18 -18 -10 -39 -17 -45 -15 -25 9 -13 -37 12 -49
28 -13 30 -23 10 -58 -19 -33 -19 -50 1 -50 14 0 14 -3 4 -15 -19 -22 -3 -18
21 6 16 16 23 18 35 8 11 -9 14 -8 14 6 0 9 6 15 13 12 6 -2 11 -12 9 -21 -3
-15 0 -16 17 -6 35 18 27 47 -14 52 -24 3 -35 0 -35 -9 0 -15 -18 -17 -38 -5
-8 6 -10 19 -6 40 7 34 14 38 45 21 17 -8 25 -5 51 20 18 17 37 31 44 31 17 0
26 16 30 53 l4 30 -26 -27 c-15 -14 -31 -26 -35 -26 -5 0 -9 -9 -9 -19 0 -15
-10 -20 -51 -26 -27 -4 -53 -4 -57 0 -11 10 21 25 55 25 36 0 63 29 63 67 0
16 6 23 20 23 29 0 25 15 -5 16 -20 2 -25 -3 -25 -22z"/>
<path d="M11555 528 c-14 -21 -14 -24 0 -34 16 -12 21 -44 7 -44 -16 0 -5 -45
11 -48 27 -5 7 -32 -24 -32 -27 0 -28 -2 -17 -20 8 -12 19 -18 30 -14 20 6 24
-6 7 -23 -16 -16 -3 -43 21 -43 14 0 20 7 20 23 1 12 7 33 15 47 l13 25 13
-30 c12 -29 13 -29 17 -7 3 17 9 22 25 20 12 -2 31 5 42 15 10 9 26 15 33 12
17 -6 42 12 42 31 0 8 -11 13 -27 12 -16 -1 -36 2 -45 6 -14 6 -18 4 -18 -10
0 -12 -3 -15 -8 -8 -8 13 -72 15 -72 2 0 -4 9 -8 20 -8 11 0 20 -4 20 -9 0
-13 -28 -22 -35 -11 -10 16 -38 12 -31 -5 3 -8 1 -15 -4 -15 -6 0 -10 6 -10
13 0 6 -3 22 -6 34 -6 23 16 35 70 37 38 2 69 42 64 82 l-4 29 -13 -25 c-24
-49 -36 -65 -51 -67 -8 0 -30 -4 -47 -8 -31 -7 -46 5 -25 19 10 6 3 64 -8 71
-5 3 -16 -5 -25 -17z"/>
<path d="M11711 213 c-1 -7 -7 -13 -15 -13 -8 0 -30 -14 -48 -31 -32 -30 -33
-30 -8 -28 14 1 33 -1 43 -6 9 -4 24 -5 32 -1 17 6 45 -2 45 -14 0 -5 -6 -15
-14 -23 -9 -8 -12 -24 -9 -36 5 -21 5 -21 30 3 21 21 28 23 44 13 18 -11 18
-12 2 -16 -20 -4 -42 -30 -43 -48 0 -19 12 -16 44 12 16 14 40 25 53 25 28 0
29 5 4 32 -14 14 -27 19 -43 15 -31 -8 -62 16 -54 41 5 14 -1 24 -19 36 -14 9
-25 13 -26 9 -1 -5 -5 3 -9 17 -4 14 -8 19 -9 13z"/>
</g>
</svg>
