<?xml version="1.0" standalone="no"?>
<!DOCTYPE svg PUBLIC "-//W3C//DTD SVG 20010904//EN"
 "http://www.w3.org/TR/2001/REC-SVG-20010904/DTD/svg10.dtd">
<svg version="1.0" xmlns="http://www.w3.org/2000/svg"
 width="495.000000pt" height="277.000000pt" viewBox="0 0 495.000000 277.000000"
 preserveAspectRatio="xMidYMid meet">
<metadata>
Created by potrace 1.16, written by Peter Selinger 2001-2019
</metadata>
<g transform="translate(0.000000,277.000000) scale(0.100000,-0.100000)"
fill="#000000" stroke="none">
<path d="M10 1395 l0 -1375 2465 0 2465 0 0 67 c0 63 -19 120 -60 183 -6 8
-31 60 -56 115 -26 55 -50 102 -53 105 -4 3 -18 28 -30 55 -45 96 -81 170 -96
195 -8 14 -84 169 -170 345 -86 176 -160 327 -166 335 -11 17 -77 155 -104
218 -10 23 -22 42 -26 42 -3 0 -17 24 -29 53 -34 81 -63 141 -76 157 -7 8 -35
66 -63 128 -28 62 -58 120 -66 128 -8 9 -15 20 -15 26 0 10 -192 408 -211 438
-5 8 -26 48 -45 88 l-36 72 -1814 0 -1814 0 0 -1375z m1487 1018 c12 -38 25
-59 37 -61 16 -3 17 3 14 57 l-3 61 38 0 c22 0 39 -5 41 -12 2 -7 9 -30 15
-51 19 -57 5 -67 -88 -66 -42 0 -71 3 -65 5 7 3 9 14 7 25 -5 16 -12 20 -34
17 -16 -3 -29 -1 -29 4 0 4 11 8 25 8 22 0 24 2 13 20 -9 14 -14 16 -20 7 -12
-18 -10 1 2 24 17 30 26 23 47 -38z m-729 -584 c53 -18 64 -100 19 -137 -8 -7
-30 -15 -49 -18 -27 -5 -41 -1 -66 21 -44 37 -44 83 -1 119 34 29 51 31 97 15z
m1200 -461 c3 -17 -37 -18 -742 -18 -740 0 -746 0 -746 20 0 20 5 20 742 18
698 -3 743 -4 746 -20z m-1121 -248 l-6 -29 72 -3 c59 -2 72 -6 75 -20 2 -13
-3 -18 -17 -18 -14 0 -19 5 -15 15 4 8 2 15 -4 15 -10 0 -22 -23 -22 -41 0 -5
20 -9 45 -9 25 0 45 -4 45 -10 0 -14 -94 -12 -108 2 -7 7 -12 22 -12 35 0 18
-6 23 -25 23 -21 0 -25 -5 -25 -30 0 -32 -30 -70 -55 -70 -8 0 -15 7 -15 15 0
10 -11 15 -35 15 -38 0 -42 10 -25 54 5 14 16 26 24 26 11 0 13 -6 6 -30 -8
-27 -7 -30 16 -30 24 0 28 8 25 43 -1 9 2 17 8 17 5 0 12 14 16 30 9 41 40 42
32 0z m1433 0 l-9 -30 85 0 c49 0 93 5 105 13 17 10 23 10 26 0 3 -7 16 -13
30 -13 23 0 25 -3 20 -30 -6 -25 -3 -30 13 -30 11 0 20 -5 20 -11 0 -6 -16 -9
-37 -7 -36 3 -38 5 -35 36 4 38 -13 43 -22 7 -4 -14 -10 -25 -15 -25 -4 0 -6
11 -3 25 4 21 1 25 -21 25 -20 0 -26 -6 -29 -26 -7 -57 -69 -57 -76 0 -3 20
-9 26 -28 26 -21 0 -24 -5 -24 -34 0 -25 -7 -39 -22 -50 -35 -25 -50 -21 -41
12 4 15 7 39 7 54 -1 15 5 29 12 32 8 3 14 14 14 24 0 22 8 32 26 32 9 0 10
-8 4 -30z m-405 -257 c-24 -89 -24 -93 -3 -93 12 0 23 11 29 30 7 19 18 30 30
30 18 0 19 -2 4 -30 -15 -28 -14 -30 4 -30 13 0 21 9 26 30 4 17 13 30 22 30
11 0 13 -7 8 -30 -5 -23 -3 -30 9 -30 9 0 16 -4 16 -10 0 -6 -48 -9 -127 -7
-125 2 -128 3 -131 25 -5 31 15 52 48 52 23 0 30 5 35 30 4 17 13 30 22 30 12
0 13 -6 8 -27z m290 -291 c0 -15 -5 -33 -12 -40 -22 -23 -15 -42 16 -42 23 0
30 6 37 33 6 17 16 32 24 32 16 0 17 -6 5 -42 -5 -19 -2 -23 14 -23 13 0 21 6
21 17 0 38 30 53 107 53 69 0 73 -1 73 -22 l1 -23 18 23 c27 31 35 28 28 -13
-5 -31 -3 -35 17 -35 12 0 27 5 34 12 8 8 15 8 27 -2 12 -10 15 -10 15 4 0 9
-6 16 -14 16 -12 0 -12 4 0 30 24 47 33 45 40 -9 5 -40 11 -51 28 -54 11 -2
-25 -5 -81 -6 -90 -1 -103 1 -103 16 0 15 -1 15 -18 0 -29 -27 -45 -21 -40 13
4 25 1 30 -17 30 -14 0 -21 -7 -22 -22 -1 -11 -7 -24 -14 -28 -6 -4 -62 -8
-125 -9 l-114 -1 3 38 c1 22 10 47 20 56 9 10 17 22 17 28 0 24 14 -4 15 -30z"/>
<path d="M686 1808 c-34 -48 -9 -128 40 -128 59 0 91 100 42 134 -32 22 -64
20 -82 -6z"/>
</g>
</svg>
