<?xml version="1.0" standalone="no"?>
<!DOCTYPE svg PUBLIC "-//W3C//DTD SVG 20010904//EN"
 "http://www.w3.org/TR/2001/REC-SVG-20010904/DTD/svg10.dtd">
<svg version="1.0" xmlns="http://www.w3.org/2000/svg"
 width="495.000000pt" height="277.000000pt" viewBox="0 0 495.000000 277.000000"
 preserveAspectRatio="xMidYMid meet">
<metadata>
Created by potrace 1.16, written by Peter Selinger 2001-2019
</metadata>
<g transform="translate(0.000000,277.000000) scale(0.100000,-0.100000)"
fill="#000000" stroke="none">
<path d="M0 1385 l0 -1385 2475 0 2475 0 0 1385 0 1385 -2475 0 -2475 0 0
-1385z m4016 315 c176 -6 353 -10 392 -10 l72 0 105 -127 c58 -70 105 -132
105 -139 0 -6 -21 -31 -47 -54 -27 -24 -86 -79 -132 -122 l-85 -79 -95 6 c-53
3 -265 10 -471 16 -206 6 -377 13 -379 15 -3 3 53 60 124 127 l129 123 -101
124 c-56 68 -100 127 -98 131 2 3 39 4 82 2 43 -2 222 -8 399 -13z m-53 -635
c42 -19 79 -39 82 -45 3 -5 -15 0 -40 11 -51 23 -86 19 -65 -6 7 -8 30 -20 51
-27 49 -14 50 -28 2 -28 -47 0 -199 17 -224 25 -24 8 -24 33 -1 61 44 54 92
56 195 9z"/>
<path d="M3635 1654 c160 -199 144 -184 199 -185 28 0 215 -6 416 -13 201 -6
367 -11 368 -10 2 2 -37 52 -88 113 -74 90 -97 111 -123 115 -18 3 -142 8
-277 11 -135 3 -310 8 -390 12 l-145 6 40 -49z"/>
</g>
</svg>
