<?xml version="1.0" standalone="no"?>
<!DOCTYPE svg PUBLIC "-//W3C//DTD SVG 20010904//EN"
 "http://www.w3.org/TR/2001/REC-SVG-20010904/DTD/svg10.dtd">
<svg version="1.0" xmlns="http://www.w3.org/2000/svg"
 width="702.000000pt" height="237.000000pt" viewBox="0 0 702.000000 237.000000"
 preserveAspectRatio="xMidYMid meet">
<metadata>
Created by potrace 1.16, written by Peter Selinger 2001-2019
</metadata>
<g transform="translate(0.000000,237.000000) scale(0.100000,-0.100000)"
fill="#000000" stroke="none">
<path d="M4916 2043 c-3 -10 -11 -27 -18 -38 -7 -11 -28 -43 -46 -72 -34 -53
-39 -57 -103 -67 -29 -5 -38 -12 -41 -31 -3 -14 -4 -25 -3 -25 1 0 19 7 38 15
45 19 58 3 27 -30 -12 -13 -19 -28 -15 -34 4 -7 70 -11 191 -11 150 0 184 -3
184 -14 0 -18 -39 -43 -104 -67 -48 -18 -49 -19 -13 -15 20 3 37 2 37 -1 0 -6
-134 -154 -255 -282 -44 -46 -110 -108 -147 -138 -51 -40 -68 -60 -68 -78 0
-14 3 -25 6 -25 3 0 45 26 94 58 49 31 117 75 151 97 33 22 69 45 78 50 29 18
214 137 290 187 99 65 102 63 74 -32 -20 -70 -41 -99 -103 -145 -28 -20 -50
-43 -50 -50 0 -8 -54 -191 -120 -408 -66 -217 -120 -397 -120 -400 0 -3 13 0
29 6 45 17 62 5 49 -35 -25 -79 -46 -73 262 -76 158 -1 283 2 295 7 11 5 54
12 95 15 68 5 242 43 295 65 11 5 47 18 80 31 252 94 484 264 627 460 59 81
128 195 128 211 0 6 7 23 15 37 32 59 56 169 62 284 6 126 8 128 63 98 20 -11
21 -10 14 27 -15 83 -30 103 -75 103 -18 0 -36 11 -55 35 -16 19 -42 51 -58
70 -50 62 -198 165 -237 165 -6 0 -25 6 -42 14 -18 7 -59 19 -92 26 -33 6 -68
16 -77 21 -10 5 -299 9 -677 9 -618 0 -659 -1 -665 -17z m1167 -313 c160 -42
235 -137 245 -310 4 -73 2 -88 -13 -100 -15 -12 -21 -12 -46 3 -22 12 -31 13
-33 4 -28 -93 -29 -105 -7 -150 20 -42 20 -45 4 -88 -9 -24 -33 -69 -52 -99
-38 -58 -178 -200 -197 -200 -6 0 -17 -7 -25 -16 -21 -26 -158 -102 -229 -127
-152 -55 -250 -75 -288 -58 l-26 13 49 44 c47 42 48 43 13 23 -43 -24 -43 -23
-24 28 8 21 31 92 52 158 20 66 52 165 69 220 18 55 49 152 69 215 20 63 47
150 61 194 14 43 25 87 25 98 0 24 39 139 52 156 18 21 210 16 301 -8z"/>
<path d="M2950 1856 c-30 -6 -73 -21 -95 -33 -39 -20 -108 -88 -130 -127 -6
-10 -27 -20 -53 -23 -50 -7 -55 -15 -73 -102 l-12 -63 32 -25 c35 -28 54 -64
45 -88 -5 -11 -22 -15 -65 -15 -45 0 -61 -4 -66 -16 -4 -11 -13 -13 -36 -8
-20 4 -32 2 -38 -7 -6 -11 1 -15 29 -19 36 -5 37 -7 40 -47 l3 -43 58 0 c31 0
62 -5 69 -12 15 -15 17 -693 2 -703 -5 -3 -26 6 -45 21 -48 36 -44 19 7 -33
42 -43 47 -60 36 -128 -3 -18 4 -20 82 -25 79 -5 84 -9 33 -26 -16 -5 -14 -7
7 -19 20 -10 44 -11 110 -4 85 10 197 33 235 50 11 4 39 13 63 19 23 6 42 16
42 21 0 16 -197 4 -242 -15 -53 -22 -105 -21 -118 3 -18 35 -11 54 36 98 52
48 51 52 -5 23 -21 -10 -41 -16 -45 -13 -3 4 -6 167 -6 364 0 344 1 359 19
369 11 5 65 10 120 10 74 0 101 3 102 13 0 6 2 26 2 42 2 27 6 30 40 33 26 2
37 8 37 19 0 12 -7 14 -31 9 -20 -4 -38 -1 -47 6 -9 8 -58 15 -121 18 -95 5
-106 7 -110 25 -2 13 10 32 40 58 40 35 41 37 12 23 -50 -25 -54 -22 -48 35 8
65 17 88 50 127 49 59 97 72 202 57 l51 -7 8 48 c8 54 16 64 56 64 19 0 26 4
22 13 -3 9 -16 12 -34 9 -17 -2 -36 0 -43 6 -12 11 -127 33 -157 31 -8 -1 -40
-6 -70 -13z"/>
<path d="M254 1761 c-23 -10 -44 -27 -48 -36 -5 -14 -14 -16 -45 -11 -30 5
-40 2 -45 -10 -9 -23 -8 -24 24 -24 26 0 30 -4 30 -26 0 -14 4 -23 8 -20 5 3
14 -11 21 -30 36 -100 211 -78 211 27 0 41 18 59 60 59 37 0 16 25 -22 26 -21
1 -49 11 -69 27 -48 36 -77 40 -125 18z"/>
<path d="M3848 1420 c-118 -32 -198 -88 -275 -193 -21 -29 -45 -49 -61 -53
-60 -12 -69 -21 -82 -76 -6 -29 -14 -61 -17 -71 -5 -18 -4 -18 21 -2 47 31 53
18 59 -117 5 -128 10 -151 58 -256 16 -34 29 -71 29 -82 0 -30 -38 -26 -50 5
-5 13 -23 31 -39 40 -44 22 -47 19 -12 -14 50 -47 42 -67 -39 -105 -113 -52
-67 -62 102 -21 l103 25 76 -40 c75 -38 209 -80 258 -80 15 0 67 10 117 23
152 38 255 116 317 240 41 79 48 114 55 267 l7 135 39 36 40 36 -52 -5 c-33
-3 -52 -1 -52 6 0 26 -87 156 -131 196 -121 108 -307 150 -471 106z m243 -152
c61 -26 108 -76 144 -155 28 -60 45 -123 33 -123 -2 0 -25 7 -52 15 -65 20
-69 12 -10 -17 26 -13 49 -29 51 -35 5 -13 -39 -42 -152 -105 -38 -22 -84 -48
-102 -58 -140 -83 -220 -122 -243 -118 -13 3 -48 59 -50 80 0 5 16 25 35 47
46 51 46 69 -1 40 -47 -29 -54 -18 -54 88 0 117 30 201 104 290 11 13 25 23
31 23 6 0 17 6 23 12 34 34 178 43 243 16z m179 -451 c0 -48 -26 -94 -63 -114
-25 -13 -28 -18 -14 -21 28 -6 20 -23 -32 -73 -56 -54 -97 -69 -188 -69 -58 0
-89 12 -61 23 8 3 6 6 -4 6 -29 2 -20 15 24 36 23 11 63 36 89 55 26 19 58 42
70 50 12 8 54 43 93 77 39 34 74 62 79 62 4 1 7 -14 7 -32z"/>
<path d="M1475 1381 c-60 -20 -129 -63 -168 -104 -15 -16 -31 -27 -35 -23 -4
4 -9 33 -12 64 l-5 57 -77 3 c-68 3 -78 1 -88 -17 -9 -17 -15 -19 -36 -11 -34
13 -34 13 -34 -10 0 -15 9 -22 30 -27 17 -3 35 -14 40 -24 12 -22 13 -536 1
-543 -5 -3 -23 1 -40 10 -37 19 -51 12 -28 -13 8 -10 19 -31 22 -46 9 -33 -21
-71 -63 -82 -15 -4 -34 -13 -42 -20 -8 -7 -30 -15 -49 -17 -19 -2 -37 -9 -39
-17 -4 -11 3 -13 33 -8 21 4 41 10 44 15 3 5 26 12 51 16 24 4 50 12 56 17 7
6 23 9 36 7 22 -3 23 -7 28 -113 l5 -110 90 0 90 0 5 135 5 135 40 14 c65 22
221 26 284 7 30 -9 72 -16 92 -16 21 0 41 -6 46 -12 4 -7 10 -69 13 -138 l5
-125 85 0 85 0 3 89 c2 50 7 96 13 102 6 7 25 15 42 17 l32 3 -32 8 c-18 5
-33 13 -33 18 0 8 18 5 59 -10 8 -3 5 4 -7 16 -12 12 -22 27 -22 32 0 18 30
70 40 70 5 0 7 7 4 15 -5 13 -10 13 -41 0 -19 -8 -39 -12 -44 -9 -10 6 -13
357 -3 367 4 3 22 0 40 -8 39 -16 38 -17 21 50 -13 48 -15 50 -51 53 -42 4
-43 4 -100 75 -21 27 -55 58 -75 71 -88 55 -217 70 -316 37z m172 -165 c55
-30 80 -68 105 -160 20 -79 24 -186 7 -186 -7 0 -27 9 -45 21 -19 11 -34 19
-34 16 0 -2 20 -25 45 -49 70 -70 60 -124 -18 -105 -85 21 -280 9 -350 -20
-35 -15 -39 -15 -54 -1 -22 22 -4 71 44 120 39 40 35 51 -7 18 -49 -39 -54
-30 -47 89 5 93 9 115 30 148 29 45 63 78 114 109 54 33 147 33 210 0z"/>
<path d="M210 1360 c-9 -17 -17 -20 -46 -14 -30 5 -34 4 -34 -14 0 -15 9 -22
30 -27 16 -4 33 -12 37 -18 5 -7 10 -212 13 -457 l5 -445 75 -3 c129 -5 115
-60 112 449 -2 310 1 445 8 454 6 8 25 17 41 20 30 7 33 12 23 39 -4 11 -11
13 -31 5 -34 -13 -40 -12 -46 11 -5 18 -14 20 -91 20 -76 0 -87 -2 -96 -20z"/>
</g>
</svg>
