<?xml version="1.0" standalone="no"?>
<!DOCTYPE svg PUBLIC "-//W3C//DTD SVG 20010904//EN"
 "http://www.w3.org/TR/2001/REC-SVG-20010904/DTD/svg10.dtd">
<svg version="1.0" xmlns="http://www.w3.org/2000/svg"
 width="278.000000pt" height="275.000000pt" viewBox="0 0 278.000000 275.000000"
 preserveAspectRatio="xMidYMid meet">
<metadata>
Created by potrace 1.16, written by Peter Selinger 2001-2019
</metadata>
<g transform="translate(0.000000,275.000000) scale(0.100000,-0.100000)"
fill="#000000" stroke="none">
<path d="M1145 2735 c-287 -51 -543 -183 -745 -385 -183 -184 -301 -394 -366
-654 -35 -141 -44 -388 -19 -537 48 -294 175 -540 384 -750 206 -205 452 -335
731 -385 127 -23 353 -23 480 0 255 46 503 168 684 337 l76 71 52 -46 c65 -57
172 -110 262 -131 96 -22 101 -19 66 38 l-30 47 -95 0 c-88 0 -95 1 -95 20 0
18 7 20 80 20 44 0 80 2 80 4 0 3 -9 21 -21 40 l-21 36 -79 0 c-78 0 -79 0
-79 25 0 24 2 25 65 25 l65 0 -20 40 c-19 37 -24 40 -60 40 -38 0 -39 1 -28
20 7 11 18 20 25 20 7 0 13 8 13 17 0 9 20 56 45 105 57 110 108 264 130 393
19 114 22 335 5 440 -90 569 -507 1011 -1076 1140 -98 23 -404 29 -509 10z
m355 -9 c167 -11 388 -81 546 -174 226 -131 422 -340 539 -571 92 -184 138
-381 138 -596 1 -229 -42 -413 -140 -609 -38 -77 -47 -87 -59 -75 -12 13 -8
26 26 94 49 98 95 236 116 352 23 128 21 351 -4 479 -107 543 -531 958 -1071
1048 -52 9 -152 16 -221 16 -215 0 -394 -42 -585 -136 -315 -155 -562 -444
-668 -779 -57 -181 -74 -436 -42 -621 72 -411 340 -770 712 -954 191 -94 363
-133 583 -133 214 0 385 38 575 127 86 41 186 78 192 72 6 -6 -75 -55 -163
-99 -205 -103 -365 -140 -599 -141 -179 0 -276 14 -428 66 -202 67 -373 174
-528 328 -343 341 -476 811 -364 1279 135 562 635 988 1209 1030 56 4 112 6
126 5 14 -2 63 -5 110 -8z m91 -71 c168 -28 351 -102 509 -208 96 -64 283
-251 343 -343 99 -152 162 -303 203 -489 23 -107 23 -358 0 -470 -38 -190
-139 -427 -183 -433 -13 -2 -23 0 -23 5 1 14 27 43 38 43 7 0 11 10 11 23 -1
12 15 59 35 104 105 235 129 543 62 804 -123 479 -513 839 -1003 924 -111 19
-317 19 -429 0 -518 -91 -929 -503 -1019 -1022 -19 -110 -19 -316 0 -429 87
-508 472 -905 985 -1016 124 -27 355 -29 480 -5 81 16 223 60 282 87 16 7 38
10 55 5 l28 -7 -47 -24 c-65 -33 -205 -79 -308 -101 -130 -27 -363 -24 -500 6
-516 113 -904 506 -1011 1023 -26 130 -29 332 -6 464 92 517 498 940 1010
1050 151 33 321 36 488 9z m-1 -61 c697 -122 1154 -831 979 -1518 -23 -90 -91
-264 -97 -247 -2 6 -9 11 -16 11 -9 0 -2 27 21 84 234 583 -12 1242 -567 1521
-171 85 -340 125 -535 125 -343 0 -635 -125 -870 -371 -215 -226 -325 -501
-325 -817 0 -263 65 -476 212 -689 72 -105 205 -236 308 -305 218 -143 416
-202 680 -201 149 0 227 12 362 54 43 14 77 19 94 15 37 -10 23 -18 -92 -55
-356 -116 -742 -59 -1068 156 -95 63 -260 229 -326 327 -98 147 -172 331 -201
505 -19 111 -14 311 11 431 96 466 448 836 908 956 169 44 339 50 522 18z
m-26 -55 c412 -70 770 -369 910 -760 98 -275 98 -532 -1 -809 -25 -71 -27 -73
-36 -46 -7 22 -3 48 16 115 15 47 32 115 38 151 17 96 15 300 -5 403 -90 470
-474 839 -945 907 -118 18 -343 8 -444 -19 -434 -115 -749 -445 -839 -881 -17
-79 -19 -122 -15 -255 5 -194 32 -307 106 -460 175 -358 511 -593 911 -636
127 -14 267 -3 400 31 66 17 84 18 103 8 20 -11 16 -14 -53 -35 -405 -128
-865 -11 -1171 298 -356 359 -444 881 -225 1334 119 247 310 436 559 555 215
103 459 138 691 99z m14 -65 c466 -83 839 -482 902 -964 19 -147 4 -312 -41
-455 l-22 -70 -9 34 c-7 25 -5 52 6 97 44 175 41 387 -9 559 -115 394 -433
683 -837 760 -103 19 -293 19 -395 0 -268 -51 -506 -201 -673 -425 -57 -75
-134 -236 -167 -345 -25 -83 -27 -104 -27 -280 -1 -212 12 -282 79 -437 142
-328 457 -575 804 -630 66 -10 81 -16 90 -34 9 -21 8 -22 -27 -18 -275 37
-503 152 -688 346 -420 442 -410 1123 20 1554 194 194 418 296 716 328 55 6
187 -4 278 -20z m1 -61 c326 -65 608 -289 751 -596 72 -155 108 -342 96 -502
-6 -92 -28 -200 -41 -213 -4 -4 -5 64 -2 151 7 180 -4 293 -39 415 -79 274
-282 508 -547 632 -131 61 -220 82 -388 87 -168 6 -258 -8 -401 -61 -257 -96
-474 -308 -577 -562 -57 -140 -66 -194 -66 -389 1 -210 15 -277 91 -434 59
-124 113 -198 215 -296 152 -146 347 -244 537 -270 43 -6 52 -10 52 -27 0 -19
-4 -20 -50 -14 -150 20 -340 102 -478 206 -289 217 -451 587 -412 939 19 174
74 330 166 474 65 101 239 270 340 329 237 139 492 184 753 131z m31 -69 c54
-13 138 -45 195 -73 314 -155 516 -442 559 -794 l6 -48 -24 28 c-14 17 -28 54
-35 93 -67 359 -333 651 -686 752 -69 20 -103 23 -250 23 -134 0 -184 -4 -239
-19 -339 -91 -583 -332 -688 -676 -29 -95 -36 -328 -13 -441 44 -217 157 -407
328 -549 102 -85 264 -164 394 -193 83 -18 103 -25 103 -39 0 -23 -27 -23
-123 1 -185 48 -350 144 -483 283 -379 395 -372 1001 15 1389 251 250 600 348
941 263z m-135 -35 c388 -47 705 -325 804 -703 26 -99 26 -116 2 -116 -15 0
-21 12 -31 62 -64 325 -315 597 -637 690 -67 20 -101 23 -243 23 -194 0 -243
-11 -395 -85 -234 -113 -415 -338 -475 -590 -25 -105 -27 -295 -5 -399 69
-329 322 -595 650 -680 43 -12 87 -21 97 -21 12 0 18 -7 18 -21 0 -20 -4 -21
-47 -14 -77 11 -222 63 -298 106 -335 191 -527 576 -471 944 69 460 438 789
911 813 17 1 71 -3 120 -9z m102 -79 c271 -70 489 -254 599 -509 45 -103 72
-220 53 -232 -8 -5 -16 -9 -19 -9 -3 0 -15 42 -27 93 -73 304 -312 545 -613
617 -115 27 -284 27 -397 0 -304 -73 -540 -309 -613 -613 -28 -114 -27 -295 0
-403 39 -151 124 -299 233 -401 109 -103 267 -187 405 -213 51 -10 62 -16 62
-32 0 -18 -5 -20 -45 -14 -95 15 -240 75 -335 139 -67 45 -176 154 -226 224
-120 167 -181 406 -154 603 48 352 290 638 626 739 144 44 306 48 451 11z m-9
-60 c282 -71 513 -298 592 -581 23 -86 25 -127 5 -153 -13 -18 -14 -17 -19 5
-3 13 -8 46 -11 73 -9 68 -55 193 -96 262 -50 85 -171 207 -256 261 -41 25
-113 59 -161 76 -76 27 -104 31 -217 35 -168 5 -247 -11 -381 -77 -202 -100
-348 -279 -405 -499 -28 -108 -28 -278 0 -387 69 -267 278 -481 539 -554 84
-23 92 -27 92 -47 0 -18 -43 -12 -144 22 -261 89 -465 315 -533 592 -11 44
-16 108 -16 187 0 100 5 135 27 208 44 147 109 258 212 361 206 206 492 286
772 216z m-25 -55 c223 -58 402 -200 501 -397 66 -132 81 -198 80 -348 0 -114
-3 -133 -34 -222 -29 -88 -35 -98 -57 -98 -23 0 -23 1 -8 29 37 73 59 184 59
301 -1 176 -49 318 -152 446 -139 172 -334 264 -562 264 -223 0 -418 -90 -551
-254 -308 -381 -161 -951 292 -1126 43 -16 87 -30 98 -30 16 0 37 -37 27 -47
-8 -8 -149 43 -218 79 -274 141 -443 465 -398 761 43 286 226 514 491 614 47
18 115 37 150 42 77 12 209 5 282 -14z m2 -61 c200 -52 386 -213 466 -403 76
-182 77 -363 3 -539 -21 -50 -31 -62 -49 -62 l-22 0 23 49 c40 84 58 168 58
276 1 120 -14 184 -64 290 -84 174 -240 303 -425 350 -78 20 -249 20 -329 -1
-147 -37 -298 -145 -382 -271 -216 -326 -97 -781 249 -946 50 -25 104 -50 120
-56 15 -6 27 -18 27 -27 0 -23 -47 -11 -145 36 -189 91 -327 257 -381 460 -21
80 -24 243 -5 320 32 131 133 298 226 375 185 151 412 205 630 149z m-27 -55
c26 -6 85 -29 132 -52 69 -32 101 -55 166 -121 136 -136 202 -305 191 -486 -9
-130 -65 -282 -109 -293 -12 -4 -23 -5 -24 -4 -2 1 13 34 32 72 156 316 6 695
-324 822 -81 31 -252 43 -345 23 -202 -42 -382 -214 -442 -425 -21 -72 -24
-218 -6 -295 41 -170 163 -322 322 -399 57 -27 89 -49 92 -62 7 -25 -9 -21
-108 26 -256 123 -405 414 -351 686 27 134 83 237 180 334 165 163 376 226
594 174z m26 -70 c91 -31 164 -76 232 -143 180 -181 223 -439 110 -663 -36
-72 -49 -87 -108 -121 l-37 -21 46 57 c56 69 89 138 108 229 27 129 11 246
-51 364 -94 178 -271 282 -478 281 -111 -1 -197 -25 -282 -80 -233 -151 -316
-442 -194 -687 67 -136 160 -222 295 -272 54 -20 57 -22 27 -22 -19 -1 -31 -5
-27 -11 10 -17 -4 -12 -79 27 -100 52 -202 155 -250 253 -98 201 -81 414 49
596 143 200 411 289 639 213z m-71 -44 c174 -37 329 -172 387 -340 85 -240
-31 -517 -261 -628 -105 -50 -121 -54 -117 -27 2 16 16 26 55 40 208 73 343
308 304 528 -42 235 -232 395 -471 394 -204 -1 -382 -121 -445 -302 -8 -25
-17 -51 -20 -57 -6 -18 -35 -4 -35 17 0 10 18 54 40 98 69 137 207 245 354
277 80 18 127 18 209 0z m-5 -60 c90 -21 158 -59 223 -124 188 -189 185 -468
-8 -653 -60 -57 -96 -79 -164 -103 -38 -14 -39 -14 -39 10 0 16 6 25 16 25 9
0 43 14 75 31 194 104 273 353 174 555 -76 156 -264 252 -437 224 -154 -24
-285 -135 -333 -281 -12 -34 -20 -46 -31 -42 -22 8 -17 44 18 114 58 116 171
208 298 241 81 21 128 22 208 3z m-3 -61 c119 -30 210 -107 267 -222 30 -61
33 -74 33 -162 0 -86 -3 -101 -32 -162 -40 -85 -97 -147 -172 -187 -69 -36
-81 -38 -81 -11 0 11 6 20 14 20 7 0 41 18 74 40 184 123 214 379 63 542 -185
201 -525 122 -602 -139 -13 -45 -16 -48 -38 -34 -12 8 -12 16 4 58 61 161 207
267 375 272 20 1 63 -6 95 -15z m41 -78 c71 -33 138 -97 171 -165 24 -48 28
-69 28 -141 0 -71 -4 -94 -26 -140 -29 -62 -95 -132 -151 -161 -46 -24 -48
-24 -48 1 0 13 13 26 38 39 47 25 94 74 123 131 35 69 34 185 -4 262 -50 102
-143 160 -262 161 -119 2 -224 -62 -273 -166 -12 -26 -22 -55 -22 -65 0 -24
-8 -32 -26 -25 -20 8 -17 41 10 99 80 172 274 247 442 170z m-59 -41 c192 -57
265 -294 137 -443 -46 -54 -103 -90 -114 -71 -6 9 0 17 21 27 42 21 103 94
117 140 57 189 -103 365 -292 323 -99 -22 -162 -86 -189 -190 -11 -42 -16 -50
-25 -38 -9 11 -8 25 3 64 25 86 101 161 188 189 56 17 94 17 154 -1z m0 -50
c124 -52 185 -188 137 -303 -28 -68 -118 -144 -142 -120 -8 8 0 16 28 30 114
57 135 235 38 325 -33 31 -90 53 -138 53 -108 0 -199 -88 -200 -193 0 -48 -23
-46 -28 2 -5 45 41 134 84 167 68 52 153 67 221 39z m3 -55 c157 -80 127 -312
-45 -344 -64 -12 -108 8 -164 75 -45 53 -51 66 -51 105 0 136 141 225 260 164z
m-557 -132 c-8 -45 16 -170 47 -236 31 -66 111 -158 167 -193 33 -21 59 -56
49 -66 -10 -10 -97 49 -150 101 -111 111 -169 270 -151 412 l7 55 18 -23 c11
-15 16 -33 13 -50z m65 -81 c7 -45 23 -105 37 -133 30 -60 119 -166 149 -176
12 -3 44 -16 71 -27 l50 -20 -53 -1 c-62 0 -109 27 -179 103 -71 77 -123 205
-123 303 0 36 3 41 18 37 14 -3 21 -22 30 -86z"/>
<path d="M1292 1510 c-67 -41 -92 -131 -56 -206 46 -97 207 -104 265 -11 29
47 23 146 -11 183 -54 57 -136 71 -198 34z m152 -19 c116 -77 68 -251 -69
-251 -103 0 -167 109 -120 201 33 64 129 89 189 50z"/>
<path d="M1294 1456 c-29 -29 -34 -41 -34 -79 0 -56 27 -93 80 -107 78 -21
140 28 140 110 -1 69 -43 110 -115 110 -29 0 -45 -8 -71 -34z m124 -23 c12
-10 24 -30 28 -45 5 -22 0 -33 -24 -58 -36 -35 -60 -38 -96 -9 -52 41 -23 129
43 129 16 0 38 -8 49 -17z"/>
</g>
</svg>
