<?xml version="1.0" standalone="no"?>
<!DOCTYPE svg PUBLIC "-//W3C//DTD SVG 20010904//EN"
 "http://www.w3.org/TR/2001/REC-SVG-20010904/DTD/svg10.dtd">
<svg version="1.0" xmlns="http://www.w3.org/2000/svg"
 width="500.000000pt" height="500.000000pt" viewBox="0 0 500.000000 500.000000"
 preserveAspectRatio="xMidYMid meet">
<metadata>
Created by potrace 1.16, written by Peter Selinger 2001-2019
</metadata>
<g transform="translate(0.000000,500.000000) scale(0.100000,-0.100000)"
fill="#000000" stroke="none">
<path d="M0 4985 c0 -13 94 -15 783 -15 l782 0 -3 -1856 c-2 -1384 0 -1854 9
-1849 8 6 8 2 0 -13 -7 -13 -10 -219 -11 -636 l0 -616 865 0 865 0 0 2483 0
2482 855 -3 c854 -3 855 -3 855 18 l0 20 -2500 0 c-2216 0 -2500 -2 -2500 -15z
m2410 -2035 c-10 -7 24 -10 105 -10 81 0 115 3 105 10 -25 16 88 12 120 -5 56
-29 60 -44 60 -220 0 -178 -4 -190 -64 -219 -37 -18 -116 -22 -116 -6 0 6 -44
10 -111 10 -71 0 -108 -4 -104 -10 9 -15 -70 -12 -109 4 -61 26 -66 42 -66
226 l0 166 28 26 c35 33 45 36 112 37 39 1 51 -2 40 -9z m126 -2018 c26 -15
49 -32 51 -38 2 -6 -40 -30 -94 -54 -54 -23 -122 -53 -151 -66 -64 -29 -72
-30 -72 -4 0 43 50 254 62 261 12 8 76 -23 204 -99z"/>
<path d="M2350 2855 c-15 -16 -23 -36 -22 -57 0 -18 -5 -43 -11 -56 -8 -17 -8
-25 1 -34 7 -7 12 -38 12 -70 0 -55 1 -58 25 -58 24 0 25 2 26 73 0 39 0 95
-1 124 -1 43 2 53 20 63 22 12 60 5 60 -11 0 -5 5 -9 10 -9 18 0 10 29 -12 44
-34 24 -81 20 -108 -9z"/>
<path d="M3345 3745 c0 -665 1 -939 2 -608 2 331 2 875 0 1210 -1 334 -2 64
-2 -602z"/>
<path d="M421 4343 c-51 -25 -79 -113 -36 -113 7 0 41 -16 75 -35 34 -19 81
-38 104 -41 22 -3 51 -10 63 -16 16 -8 26 -8 37 1 11 9 44 10 124 5 106 -6
110 -6 117 15 3 11 4 25 1 29 -3 5 -55 12 -115 15 -60 3 -119 10 -130 16 -13
7 -22 8 -26 1 -12 -19 -133 -12 -175 10 -33 17 -40 26 -40 50 0 20 8 35 25 46
24 16 34 34 18 34 -5 0 -23 -8 -42 -17z"/>
<path d="M4065 4179 c-5 -7 -25 -8 -56 -4 -28 4 -49 3 -49 -2 0 -15 55 -63 72
-63 9 0 19 -3 21 -7 3 -5 70 -8 149 -8 l143 1 3 31 3 31 -121 7 c-66 4 -123
11 -126 16 -7 12 -31 11 -39 -2z"/>
<path d="M413 3588 c-29 -45 -53 -90 -53 -100 0 -10 -6 -28 -12 -39 -10 -17
-10 -23 0 -26 8 -3 12 -34 12 -104 l0 -100 33 3 32 3 3 94 c1 52 8 101 14 108
8 10 8 17 0 25 -7 7 -12 36 -12 66 0 46 4 58 29 83 37 36 70 37 111 3 34 -29
48 -27 30 6 -16 30 -69 60 -105 59 -26 0 -37 -10 -82 -81z"/>
<path d="M3879 3517 c-39 -34 -63 -77 -50 -90 6 -6 11 -52 11 -110 l0 -98 38
3 37 3 3 94 c2 67 7 97 18 108 13 14 13 17 -1 33 -10 11 -15 30 -13 46 4 35
-11 39 -43 11z"/>
<path d="M4100 2941 c0 -12 -9 -22 -22 -25 -13 -2 58 -2 158 1 l181 5 29 -25
29 -25 3 -140 3 -140 -29 -33 c-25 -28 -35 -32 -88 -35 l-59 -3 50 8 c63 9 93
25 105 57 6 14 10 79 10 145 0 120 0 121 -29 150 -27 27 -35 29 -101 29 -73 0
-150 -27 -150 -52 0 -9 -3 -9 -12 0 -19 19 -76 14 -98 -8 -15 -15 -20 -33 -20
-69 0 -30 -5 -52 -12 -55 -10 -5 -10 -7 0 -12 15 -7 17 -144 2 -144 -6 0 -10
26 -10 59 0 70 -9 123 -21 116 -4 -3 -11 11 -14 32 -12 74 -14 67 -12 -64 2
-124 3 -133 26 -157 13 -14 39 -28 57 -32 21 -4 31 -11 28 -19 -7 -18 41 -25
175 -25 133 0 173 9 213 47 l28 27 0 166 c0 237 -3 240 -260 240 -151 0 -160
-1 -160 -19z"/>
<path d="M577 2869 c-25 -14 -47 -70 -40 -97 3 -12 0 -29 -7 -37 -10 -12 -10
-19 -2 -27 7 -7 12 -40 12 -75 0 -61 1 -63 25 -63 24 0 25 2 25 64 0 87 18 96
22 11 4 -92 23 -88 22 5 -2 136 -4 160 -14 160 -5 0 -10 -18 -10 -41 0 -24 -4
-38 -10 -34 -13 8 -13 61 0 86 13 23 52 25 70 4 16 -19 30 -19 30 -1 0 22 -49
56 -79 56 -14 0 -34 -5 -44 -11z"/>
<path d="M3890 2225 c-108 -15 -232 -45 -335 -81 -98 -34 -215 -86 -215 -96 0
-12 6 -10 62 18 68 34 217 88 298 107 302 72 518 75 850 11 22 -4 22 -3 5 5
-91 40 -485 62 -665 36z"/>
<path d="M3979 2179 c-188 -16 -446 -88 -577 -161 -41 -22 -49 -23 -55 0 -2 9
-4 3 -4 -14 l0 -32 56 28 c234 116 467 170 731 170 153 0 255 -10 374 -36 38
-8 71 -13 73 -10 6 6 -115 32 -207 45 -105 15 -289 20 -391 10z"/>
<path d="M3965 2124 c-162 -18 -368 -77 -513 -147 -48 -23 -90 -43 -94 -45 -3
-2 -8 5 -11 15 -3 10 -5 -26 -6 -79 0 -54 1 -98 3 -98 2 0 36 20 76 44 78 48
240 116 335 141 224 59 468 64 695 17 128 -27 220 -62 375 -141 145 -74 159
-80 129 -58 -33 25 -248 133 -308 156 -396 148 -868 110 -1221 -97 -66 -39
-70 -40 -73 -20 -5 29 9 40 123 96 106 53 246 100 385 129 119 25 437 25 565
-1 112 -22 251 -66 349 -111 84 -38 103 -39 29 -1 -222 111 -544 171 -789 147
-223 -23 -371 -65 -557 -157 l-108 -53 3 26 c2 21 17 33 87 69 238 121 550
180 825 155 170 -15 299 -43 455 -99 9 -3 13 -2 10 2 -13 14 -182 66 -282 87
-100 20 -380 34 -482 23z"/>
<path d="M3950 1953 c-196 -31 -411 -111 -546 -204 -51 -35 -51 -35 -57 -6 -3
14 -5 9 -6 -14 l-1 -37 80 53 c87 57 217 117 320 147 152 44 212 52 395 52
276 1 415 -35 702 -184 153 -79 210 -104 123 -54 -223 130 -410 205 -589 239
-77 14 -350 20 -421 8z"/>
<path d="M4005 1904 c-249 -38 -414 -100 -578 -214 -70 -48 -72 -49 -79 -27
-3 12 -6 -14 -5 -58 0 -54 2 -63 4 -28 l4 51 75 52 c286 198 670 263 1025 175
128 -32 174 -51 379 -157 96 -50 171 -86 165 -81 -5 6 -83 49 -171 97 -264
142 -407 184 -649 190 -77 3 -153 2 -170 0z"/>
<path d="M3930 1836 c-114 -22 -192 -47 -297 -97 -57 -26 -103 -50 -103 -53 0
-2 42 15 93 39 212 100 455 136 687 100 186 -28 275 -63 580 -225 63 -33 104
-52 91 -42 -43 34 -365 200 -439 226 -130 46 -256 66 -409 65 -76 -1 -167 -7
-203 -13z"/>
<path d="M4000 1790 c-97 -11 -235 -52 -333 -97 -42 -20 -76 -38 -74 -40 2 -2
37 12 78 32 129 60 244 86 414 92 169 6 275 -8 410 -53 71 -23 299 -136 455
-225 30 -17 48 -24 40 -16 -25 26 -360 205 -444 238 -159 61 -375 89 -546 69z"/>
<path d="M3953 1725 c-72 -13 -207 -54 -201 -61 2 -2 32 6 68 17 85 26 230 49
315 49 93 0 241 -25 334 -56 83 -27 407 -195 484 -250 26 -19 47 -31 47 -26
-1 26 -373 233 -508 282 -158 57 -372 75 -539 45z"/>
<path d="M4040 1680 c-74 -7 -199 -35 -209 -47 -4 -3 5 -3 19 1 194 53 416 48
600 -14 90 -30 397 -194 481 -257 38 -29 69 -49 69 -45 -1 35 -411 271 -550
316 -138 45 -264 59 -410 46z"/>
<path d="M4000 1620 c-30 -5 -68 -14 -85 -20 l-30 -10 30 5 c272 44 431 22
650 -90 219 -111 297 -159 368 -225 39 -36 65 -55 58 -43 -17 32 -119 115
-198 161 -166 96 -325 173 -408 197 -101 29 -287 41 -385 25z"/>
<path d="M4180 1505 c63 -7 143 -22 177 -33 64 -20 334 -161 412 -215 71 -49
130 -116 168 -195 31 -62 38 -87 44 -170 l7 -97 -2 101 c-1 95 -4 106 -39 177
-59 119 -143 190 -358 304 -223 117 -312 144 -458 142 -60 -1 -55 -3 49 -14z"/>
<path d="M4155 1450 c139 -10 201 -31 389 -131 179 -96 235 -135 286 -203 97
-129 112 -278 43 -424 -27 -57 -136 -166 -200 -199 -101 -54 -378 -171 -440
-187 -79 -21 -246 -21 -325 0 -180 46 -317 162 -369 310 -20 55 -26 161 -15
219 5 24 5 26 -3 9 -20 -45 -23 -130 -7 -194 75 -293 444 -456 770 -341 90 32
359 153 412 187 104 65 168 142 210 249 27 72 25 201 -5 275 -52 127 -118 186
-346 309 -195 106 -248 123 -395 126 l-115 3 110 -8z"/>
<path d="M4184 1395 c125 -20 140 -26 325 -124 232 -121 301 -192 331 -335 28
-135 -38 -284 -164 -371 -51 -35 -362 -175 -446 -201 -126 -39 -291 -24 -415
37 -71 35 -160 120 -193 185 -26 51 -43 142 -37 202 l5 47 -11 -40 c-23 -89
20 -232 95 -307 94 -96 212 -148 353 -156 125 -6 191 8 358 80 304 130 376
181 437 306 30 60 33 75 33 157 0 77 -4 98 -26 145 -54 112 -109 157 -339 277
-155 81 -211 100 -318 107 l-77 6 89 -15z"/>
<path d="M4145 1340 c110 -9 153 -23 275 -87 172 -91 233 -129 271 -170 104
-108 116 -250 34 -379 -49 -77 -105 -112 -330 -210 -193 -84 -203 -87 -290
-92 -50 -2 -115 1 -144 7 -175 37 -304 173 -305 321 -1 36 2 83 6 105 l7 40
-15 -45 c-21 -64 -15 -162 16 -225 30 -62 107 -137 174 -170 28 -14 86 -33
129 -42 126 -27 195 -12 435 92 108 48 218 103 244 122 172 132 186 364 31
503 -63 56 -338 203 -419 224 -34 9 -93 15 -130 14 l-69 -1 80 -7z"/>
<path d="M4143 1293 c3 -2 35 -11 71 -18 62 -13 100 -31 313 -147 191 -104
240 -283 117 -427 -46 -53 -83 -74 -286 -161 -197 -84 -258 -98 -352 -82 -185
30 -297 157 -283 321 5 56 4 60 -5 31 -5 -19 -8 -63 -6 -96 10 -153 166 -274
353 -274 90 0 120 9 338 105 142 63 189 88 227 124 65 61 90 117 90 205 0 135
-54 197 -275 314 -82 44 -166 84 -185 90 -39 12 -124 23 -117 15z"/>
<path d="M4147 1230 c75 -8 121 -27 281 -114 132 -72 149 -84 181 -133 26 -39
31 -56 31 -105 0 -126 -50 -173 -299 -282 -153 -66 -191 -79 -250 -84 -124 -9
-234 46 -283 141 -17 35 -20 52 -15 112 4 38 9 81 12 95 2 14 -2 5 -11 -20
-67 -186 64 -344 283 -342 75 1 117 16 395 140 167 76 230 216 155 345 -31 53
-83 89 -263 182 -125 65 -134 68 -210 71 l-79 3 72 -9z"/>
<path d="M4140 1171 c69 -6 86 -13 210 -80 171 -92 194 -110 216 -166 14 -39
15 -52 5 -86 -24 -79 -64 -108 -258 -192 -98 -42 -196 -79 -218 -83 -80 -12
-174 32 -216 100 -24 40 -24 93 2 212 11 53 19 98 16 100 -2 2 -16 -50 -31
-115 -33 -144 -30 -177 26 -237 50 -54 117 -79 197 -71 79 7 391 144 443 195
92 89 71 221 -47 286 -22 13 -93 50 -158 84 -115 60 -121 62 -190 60 l-72 -1
75 -6z"/>
<path d="M4087 1122 c-11 -5 4 -8 40 -7 53 0 69 -6 193 -73 74 -41 145 -83
157 -94 45 -42 37 -130 -15 -167 -55 -38 -354 -161 -394 -161 -57 0 -116 34
-135 77 -13 33 -13 44 6 127 32 145 34 182 1 56 -35 -138 -36 -163 -10 -205
26 -42 75 -65 138 -65 41 0 83 14 219 74 92 40 180 86 195 100 50 49 53 123 8
171 -12 12 -62 44 -113 70 -51 26 -111 59 -133 72 -44 25 -126 38 -157 25z"/>
<path d="M4078 1059 c-27 -15 -38 -43 -69 -173 -34 -141 -35 -166 -11 -195 36
-45 75 -39 253 39 90 39 172 79 181 88 9 9 20 30 24 45 9 39 -33 74 -174 148
-115 60 -165 71 -204 48z m206 -65 c139 -76 156 -89 156 -119 0 -13 -8 -32
-17 -42 -15 -16 -260 -131 -336 -157 -25 -8 -84 18 -91 42 -4 11 7 82 24 158
47 214 70 224 264 118z"/>
<path d="M4090 935 c-25 -67 -54 -205 -44 -215 15 -15 328 120 332 143 2 11
-19 27 -70 53 -62 32 -83 38 -142 38 -60 1 -69 -2 -76 -19z"/>
<path d="M3385 863 c-14 -36 -18 -180 -5 -234 32 -136 141 -278 278 -358 136
-81 330 -123 482 -105 71 9 68 9 -65 10 -121 1 -152 5 -229 28 -193 58 -339
171 -410 319 -50 103 -68 220 -46 312 10 42 7 57 -5 28z"/>
<path d="M3444 814 c-23 -155 22 -292 135 -405 122 -122 259 -178 456 -186
102 -5 134 -2 205 16 76 19 456 178 447 187 -2 3 -37 -11 -78 -29 -179 -82
-325 -139 -387 -152 -87 -19 -213 -19 -301 0 -203 42 -351 151 -430 315 -35
72 -36 79 -36 188 0 61 -1 112 -2 112 -1 0 -5 -21 -9 -46z"/>
</g>
</svg>
